<?xml version="1.0" encoding="UTF-8"?>
<!DOCTYPE svg PUBLIC "-//W3C//DTD SVG 1.1//EN" "http://www.w3.org/Graphics/SVG/1.1/DTD/svg11.dtd">
<svg xmlns="http://www.w3.org/2000/svg" version="1.1" width="373px" height="307px" style="shape-rendering:geometricPrecision; text-rendering:geometricPrecision; image-rendering:optimizeQuality; fill-rule:evenodd; clip-rule:evenodd" xmlns:xlink="http://www.w3.org/1999/xlink">
<g><path style="opacity:1" fill="#fefefe" d="M -0.5,-0.5 C 123.833,-0.5 248.167,-0.5 372.5,-0.5C 372.5,101.833 372.5,204.167 372.5,306.5C 248.167,306.5 123.833,306.5 -0.5,306.5C -0.5,204.167 -0.5,101.833 -0.5,-0.5 Z"/></g>
<g><path style="opacity:1" fill="#528ea4" d="M 136.5,33.5 C 160.836,33.3334 185.169,33.5 209.5,34C 216.169,36.507 218.002,41.007 215,47.5C 213.681,49.4875 211.848,50.6541 209.5,51C 184.833,51.6667 160.167,51.6667 135.5,51C 130.845,48.1034 129.345,43.9367 131,38.5C 132.73,36.5981 134.563,34.9314 136.5,33.5 Z"/></g>
<g><path style="opacity:1" fill="#d7e8eb" d="M 196.5,39.5 C 197.534,40.6871 198.867,41.5204 200.5,42C 199.929,43.2051 199.262,44.3717 198.5,45.5C 197.575,44.3595 196.741,44.3595 196,45.5C 195.691,44.2341 195.191,43.0674 194.5,42C 195.756,41.5831 196.423,40.7498 196.5,39.5 Z"/></g>
<g><path style="opacity:1" fill="#d4e9ec" d="M 184.5,39.5 C 185.534,40.6871 186.867,41.5204 188.5,42C 187.929,43.2051 187.262,44.3717 186.5,45.5C 185.575,44.3595 184.741,44.3595 184,45.5C 183.691,44.2341 183.191,43.0674 182.5,42C 183.756,41.5831 184.423,40.7498 184.5,39.5 Z"/></g>
<g><path style="opacity:1" fill="#d2e7eb" d="M 160.5,39.5 C 161.534,40.6871 162.867,41.5204 164.5,42C 163.929,43.2051 163.262,44.3717 162.5,45.5C 161.167,45.1667 159.833,44.8333 158.5,44.5C 158.065,42.5973 158.732,40.9307 160.5,39.5 Z"/></g>
<g><path style="opacity:1" fill="#cfe3e8" d="M 172.5,39.5 C 173.534,40.6871 174.867,41.5204 176.5,42C 175.929,43.2051 175.262,44.3717 174.5,45.5C 173.167,45.1667 171.833,44.8333 170.5,44.5C 170.065,42.5973 170.732,40.9307 172.5,39.5 Z"/></g>
<g><path style="opacity:1" fill="#ddecef" d="M 148.5,39.5 C 149.309,40.4687 150.309,41.3021 151.5,42C 150.809,43.0674 150.309,44.2341 150,45.5C 148.865,45.273 147.698,44.9396 146.5,44.5C 146.065,42.5973 146.732,40.9307 148.5,39.5 Z"/></g>
<g><path style="opacity:1" fill="#2b2b2a" d="M 37.5,48.5 C 44.8956,48.1997 52.229,48.6997 59.5,50C 60.3802,51.3561 60.7135,52.8561 60.5,54.5C 42.5153,49.2049 29.0153,54.5383 20,70.5C 18.7138,73.4055 17.7138,76.4055 17,79.5C 15.6667,80.8333 14.3333,80.8333 13,79.5C 14.9484,64.2776 23.115,53.9443 37.5,48.5 Z"/></g>
<g><path style="opacity:1" fill="#f3e1d3" d="M 184.5,76.5 C 164.167,76.5 143.833,76.5 123.5,76.5C 122.596,75.791 122.263,74.791 122.5,73.5C 123.743,69.8676 123.076,66.5343 120.5,63.5C 115.838,67.0099 110.838,69.8433 105.5,72C 102.606,74.9087 101.773,78.4087 103,82.5C 103.792,85.1064 105.292,87.1064 107.5,88.5C 107.5,91.5 107.5,94.5 107.5,97.5C 100.389,98.9738 95.2226,102.974 92,109.5C 90.5091,115.13 89.1757,120.797 88,126.5C 86.119,145.837 84.2857,165.17 82.5,184.5C 83.791,184.263 84.791,184.596 85.5,185.5C 84.5093,191.979 84.176,198.646 84.5,205.5C 83.7281,204.306 82.7281,203.306 81.5,202.5C 81.6658,197.821 81.4992,193.155 81,188.5C 78.4685,184.986 75.6352,184.653 72.5,187.5C 65.3877,179.547 59.2211,170.88 54,161.5C 49.1049,150.025 49.4382,138.692 55,127.5C 64.4211,111.735 75.7544,97.402 89,84.5C 93.7459,76.1858 99.5792,68.6858 106.5,62C 116.674,55.8005 127.674,53.8005 139.5,56C 146.103,58.6466 152.77,60.98 159.5,63C 165.681,66.2567 172.015,69.2567 178.5,72C 180.747,73.2775 182.747,74.7775 184.5,76.5 Z"/></g>
<g><path style="opacity:1" fill="#dedbd6" d="M 270.5,77.5 C 221.5,77.5 172.5,77.5 123.5,77.5C 123.5,77.1667 123.5,76.8333 123.5,76.5C 143.833,76.5 164.167,76.5 184.5,76.5C 197.837,76.6666 211.171,76.4999 224.5,76C 219.192,75.5487 218.025,73.0487 221,68.5C 223.761,66.1725 226.927,64.5058 230.5,63.5C 230.692,61.195 231.026,58.8616 231.5,56.5C 233.413,55.627 235.247,54.627 237,53.5C 237.637,55.3031 238.803,56.6364 240.5,57.5C 244.436,57.3163 247.436,55.6496 249.5,52.5C 251.167,53.1667 252.833,53.8333 254.5,54.5C 255.221,56.686 255.887,58.8526 256.5,61C 259.54,62.8489 262.874,64.0156 266.5,64.5C 267.877,66.2895 268.877,68.2895 269.5,70.5C 263.012,74.7832 263.345,77.1165 270.5,77.5 Z"/></g>
<g><path style="opacity:1" fill="#fdfdfc" d="M 241.5,63.5 C 251.575,62.104 257.575,66.2707 259.5,76C 249.839,76.4998 240.172,76.6665 230.5,76.5C 231.404,69.6115 235.07,65.2781 241.5,63.5 Z"/></g>
<g><path style="opacity:1" fill="#2f302f" d="M 41.5,61.5 C 46.248,61.2748 50.9147,61.7748 55.5,63C 56.5171,64.0495 56.6838,65.2161 56,66.5C 42.4695,63.9318 33.8028,69.2652 30,82.5C 27.4633,83.5071 25.9633,82.5071 25.5,79.5C 27.7445,70.5972 33.0778,64.5972 41.5,61.5 Z"/></g>
<g><path style="opacity:1" fill="#2e2e2d" d="M 43.5,74.5 C 46.1873,74.3359 48.854,74.5026 51.5,75C 52.8333,76.3333 52.8333,77.6667 51.5,79C 49.0995,79.1858 46.7662,79.6858 44.5,80.5C 42.7819,85.2104 40.7819,85.5437 38.5,81.5C 39.0599,78.288 40.7266,75.9547 43.5,74.5 Z"/></g>
<g><path style="opacity:1" fill="#2a2726" d="M 122.5,73.5 C 121.85,73.8039 121.183,74.1373 120.5,74.5C 118.311,79.8349 119.645,83.8349 124.5,86.5C 124.833,86 125.167,85.5 125.5,85C 123.889,82.7903 123.222,80.2903 123.5,77.5C 172.5,77.5 221.5,77.5 270.5,77.5C 271.694,78.2719 272.694,79.2719 273.5,80.5C 273.5,84.5 273.5,88.5 273.5,92.5C 222.664,92.1678 171.997,92.5011 121.5,93.5C 120.167,93.5 118.833,93.5 117.5,93.5C 116.59,89.9904 116.923,86.4904 118.5,83C 118.116,79.2552 116.282,78.0886 113,79.5C 112.572,82.0729 112.906,84.4062 114,86.5C 112.333,87.8333 110.667,89.1667 109,90.5C 108.722,89.5842 108.222,88.9175 107.5,88.5C 105.292,87.1064 103.792,85.1064 103,82.5C 101.773,78.4087 102.606,74.9087 105.5,72C 110.838,69.8433 115.838,67.0099 120.5,63.5C 123.076,66.5343 123.743,69.8676 122.5,73.5 Z"/></g>
<g><path style="opacity:1" fill="#c6858a" d="M 122.5,73.5 C 122.263,74.791 122.596,75.791 123.5,76.5C 123.5,76.8333 123.5,77.1667 123.5,77.5C 123.222,80.2903 123.889,82.7903 125.5,85C 125.167,85.5 124.833,86 124.5,86.5C 119.645,83.8349 118.311,79.8349 120.5,74.5C 121.183,74.1373 121.85,73.8039 122.5,73.5 Z"/></g>
<g><path style="opacity:1" fill="#c94660" d="M 139.5,82.5 C 140.833,82.5 142.167,82.5 143.5,82.5C 143.5,83.8333 143.5,85.1667 143.5,86.5C 142.167,86.5 140.833,86.5 139.5,86.5C 139.5,85.1667 139.5,83.8333 139.5,82.5 Z"/></g>
<g><path style="opacity:1" fill="#538396" d="M 130.5,82.5 C 133.5,82.1667 134.833,83.5 134.5,86.5C 133.167,86.5 131.833,86.5 130.5,86.5C 130.5,85.1667 130.5,83.8333 130.5,82.5 Z"/></g>
<g><path style="opacity:1" fill="#303030" d="M 47.5,84.5 C 52.1585,84.0146 53.4919,85.848 51.5,90C 47.2662,90.267 45.9329,88.4336 47.5,84.5 Z"/></g>
<g><path style="opacity:1" fill="#e14764" d="M 325.5,135.5 C 322.997,136.084 320.497,136.751 318,137.5C 317.5,137.167 317,136.833 316.5,136.5C 318.098,134.302 319.431,131.969 320.5,129.5C 319.926,125.675 318.759,122.009 317,118.5C 316.689,97.8135 326.856,88.6468 347.5,91C 363.41,98.6598 367.577,110.493 360,126.5C 351.317,136.693 340.65,139.36 328,134.5C 326.93,134.528 326.097,134.861 325.5,135.5 Z"/></g>
<g><path style="opacity:1" fill="#dd95a8" d="M 117.5,93.5 C 117.859,95.7659 117.192,97.5993 115.5,99C 112.667,99.4462 110.001,98.9462 107.5,97.5C 107.5,94.5 107.5,91.5 107.5,88.5C 108.222,88.9175 108.722,89.5842 109,90.5C 110.667,89.1667 112.333,87.8333 114,86.5C 112.906,84.4062 112.572,82.0729 113,79.5C 116.282,78.0886 118.116,79.2552 118.5,83C 116.923,86.4904 116.59,89.9904 117.5,93.5 Z"/></g>
<g><path style="opacity:1" fill="#fcfdfd" d="M 117.5,93.5 C 118.833,93.5 120.167,93.5 121.5,93.5C 172.167,93.5 222.833,93.5 273.5,93.5C 273.5,112.5 273.5,131.5 273.5,150.5C 271.122,152.92 268.122,154.087 264.5,154C 260.349,155.8 258.349,158.967 258.5,163.5C 259.554,167.47 260.054,171.47 260,175.5C 257.628,177.703 255.461,180.037 253.5,182.5C 252.691,184.292 252.191,186.292 252,188.5C 245.681,193.397 239.514,198.397 233.5,203.5C 202.833,203.5 172.167,203.5 141.5,203.5C 140.262,195.403 138.595,187.403 136.5,179.5C 130.453,182.516 124.119,185.016 117.5,187C 112.882,187.994 108.215,188.494 103.5,188.5C 101.5,188.5 99.5,188.5 97.5,188.5C 93.5691,187.689 89.5691,186.689 85.5,185.5C 84.791,184.596 83.791,184.263 82.5,184.5C 84.2857,165.17 86.119,145.837 88,126.5C 89.1757,120.797 90.5091,115.13 92,109.5C 95.2226,102.974 100.389,98.9738 107.5,97.5C 110.001,98.9462 112.667,99.4462 115.5,99C 117.192,97.5993 117.859,95.7659 117.5,93.5 Z"/></g>
<g><path style="opacity:1" fill="#7b9197" d="M 273.5,80.5 C 274.483,84.2984 274.817,88.2984 274.5,92.5C 274.5,111.5 274.5,130.5 274.5,149.5C 274.5,150.167 274.167,150.5 273.5,150.5C 273.5,131.5 273.5,112.5 273.5,93.5C 222.833,93.5 172.167,93.5 121.5,93.5C 171.997,92.5011 222.664,92.1678 273.5,92.5C 273.5,88.5 273.5,84.5 273.5,80.5 Z"/></g>
<g><path style="opacity:1" fill="#f3e1d2" d="M 274.5,92.5 C 284.104,95.1357 292.771,99.6357 300.5,106C 307.781,113.437 314.448,121.27 320.5,129.5C 319.431,131.969 318.098,134.302 316.5,136.5C 317,136.833 317.5,137.167 318,137.5C 320.497,136.751 322.997,136.084 325.5,135.5C 324.527,137.068 324.36,138.735 325,140.5C 335.642,159.084 339.642,179.084 337,200.5C 335.277,211.999 331.777,222.833 326.5,233C 326.743,233.902 327.077,234.735 327.5,235.5C 319.965,232.705 312.631,233.372 305.5,237.5C 304.527,235.932 304.36,234.265 305,232.5C 313.35,228.495 321.016,223.495 328,217.5C 330,214.167 330,210.833 328,207.5C 319.898,199.554 311.398,192.221 302.5,185.5C 304.258,182.023 304.758,178.357 304,174.5C 301.333,173.167 298.667,171.833 296,170.5C 296.04,166.777 296.373,163.111 297,159.5C 293.167,155.667 289.333,151.833 285.5,148C 281.598,147.112 277.931,147.612 274.5,149.5C 274.5,130.5 274.5,111.5 274.5,92.5 Z"/></g>
<g><path style="opacity:1" fill="#df4663" d="M 146.5,127.5 C 146.54,130.425 145.707,133.091 144,135.5C 140.21,139.138 136.043,142.138 131.5,144.5C 129.265,144.795 127.265,144.461 125.5,143.5C 122.481,137.461 119.481,131.461 116.5,125.5C 115.776,122.157 114.943,118.824 114,115.5C 111.664,104.838 115.831,100.338 126.5,102C 129.102,102.883 131.269,104.383 133,106.5C 137.511,113.528 142.011,120.528 146.5,127.5 Z"/></g>
<g><path style="opacity:1" fill="#faeff2" d="M 346.5,101.5 C 347.5,101.5 348.5,101.5 349.5,101.5C 349.66,103.199 349.494,104.866 349,106.5C 345.863,111.108 343.53,116.108 342,121.5C 341.439,122.022 340.772,122.355 340,122.5C 337.963,117.439 335.129,112.773 331.5,108.5C 332.348,106.717 333.681,106.217 335.5,107C 337.123,109.08 338.623,111.246 340,113.5C 341.937,109.286 344.104,105.286 346.5,101.5 Z"/></g>
<g><path style="opacity:1" fill="#e04764" d="M 163.5,143.5 C 167.391,139.522 171.391,135.522 175.5,131.5C 177.413,130.949 179.413,130.782 181.5,131C 182.412,128.512 181.412,126.845 178.5,126C 179.833,125.667 181.167,125.333 182.5,125C 180.13,123.098 177.464,122.431 174.5,123C 171.605,124.94 169.272,127.44 167.5,130.5C 165.929,131.309 164.262,131.643 162.5,131.5C 162.5,128.5 162.5,125.5 162.5,122.5C 174.15,121.061 185.15,117.395 195.5,111.5C 203.304,116.268 211.637,119.768 220.5,122C 223.817,122.498 227.15,122.665 230.5,122.5C 230.851,139.94 226.351,155.94 217,170.5C 211.385,177.791 204.385,183.124 196,186.5C 178.17,177.497 167.336,163.164 163.5,143.5 Z"/></g>
<g><path style="opacity:1" fill="#e04764" d="M 201.5,128.5 C 204.115,132.009 205.115,136.009 204.5,140.5C 199.167,140.5 193.833,140.5 188.5,140.5C 187.185,130.144 191.518,126.144 201.5,128.5 Z"/></g>
<g><path style="opacity:1" fill="#d1c0c4" d="M 116.5,125.5 C 119.481,131.461 122.481,137.461 125.5,143.5C 118.806,137.433 114.806,130.1 113.5,121.5C 114.333,123.5 115.167,125.5 116,127.5C 116.464,126.906 116.631,126.239 116.5,125.5 Z"/></g>
<g><path style="opacity:1" fill="#faeaee" d="M 204.5,127.5 C 203.504,127.586 202.671,127.252 202,126.5C 201.536,127.094 201.369,127.761 201.5,128.5C 191.518,126.144 187.185,130.144 188.5,140.5C 193.833,140.5 199.167,140.5 204.5,140.5C 199.025,141.489 193.358,141.822 187.5,141.5C 187.281,136.371 186.614,136.371 185.5,141.5C 184.167,141.5 182.833,141.5 181.5,141.5C 182.209,140.596 183.209,140.263 184.5,140.5C 182.833,128.674 187.833,123.174 199.5,124C 201.584,124.697 203.251,125.864 204.5,127.5 Z"/></g>
<g><path style="opacity:1" fill="#fbf8f9" d="M 204.5,127.5 C 205.79,128.058 206.623,129.058 207,130.5C 207.498,133.817 207.665,137.15 207.5,140.5C 208.822,140.33 209.989,140.663 211,141.5C 211.814,149.413 211.647,157.246 210.5,165C 200.833,165.667 191.167,165.667 181.5,165C 180.173,157.068 180.173,149.235 181.5,141.5C 182.833,141.5 184.167,141.5 185.5,141.5C 186.614,136.371 187.281,136.371 187.5,141.5C 193.358,141.822 199.025,141.489 204.5,140.5C 205.115,136.009 204.115,132.009 201.5,128.5C 201.369,127.761 201.536,127.094 202,126.5C 202.671,127.252 203.504,127.586 204.5,127.5 Z"/></g>
<g><path style="opacity:1" fill="#568aa1" d="M 158.5,146.5 C 159.401,144.273 161.067,143.273 163.5,143.5C 167.336,163.164 178.17,177.497 196,186.5C 204.385,183.124 211.385,177.791 217,170.5C 226.351,155.94 230.851,139.94 230.5,122.5C 227.15,122.665 223.817,122.498 220.5,122C 211.637,119.768 203.304,116.268 195.5,111.5C 185.15,117.395 174.15,121.061 162.5,122.5C 161.521,125.625 161.187,128.958 161.5,132.5C 159.833,132.5 158.167,132.5 156.5,132.5C 156.5,127.5 156.5,122.5 156.5,117.5C 170.75,116.873 183.75,112.539 195.5,104.5C 207.648,112.549 220.982,117.216 235.5,118.5C 236.554,136.615 232.721,153.615 224,169.5C 217.68,179.488 209.18,186.988 198.5,192C 195.217,192.743 192.217,192.076 189.5,190C 173.581,179.566 163.248,165.066 158.5,146.5 Z"/></g>
<g><path style="opacity:1" fill="#e696ab" d="M 162.5,122.5 C 162.5,125.5 162.5,128.5 162.5,131.5C 164.262,131.643 165.929,131.309 167.5,130.5C 169.272,127.44 171.605,124.94 174.5,123C 177.464,122.431 180.13,123.098 182.5,125C 181.167,125.333 179.833,125.667 178.5,126C 181.412,126.845 182.412,128.512 181.5,131C 179.413,130.782 177.413,130.949 175.5,131.5C 171.391,135.522 167.391,139.522 163.5,143.5C 161.067,143.273 159.401,144.273 158.5,146.5C 153.551,149.223 148.385,151.556 143,153.5C 138.163,151.835 134.33,148.835 131.5,144.5C 136.043,142.138 140.21,139.138 144,135.5C 145.707,133.091 146.54,130.425 146.5,127.5C 147.216,129.556 147.883,131.723 148.5,134C 151.159,133.84 153.826,133.34 156.5,132.5C 158.167,132.5 159.833,132.5 161.5,132.5C 161.187,128.958 161.521,125.625 162.5,122.5 Z"/></g>
<g><path style="opacity:1" fill="#262825" d="M 302.5,185.5 C 296.649,183.537 290.649,182.204 284.5,181.5C 283.853,180.726 283.52,179.726 283.5,178.5C 284.822,174.23 285.322,169.897 285,165.5C 281.984,163.826 278.984,162.16 276,160.5C 272.916,161.582 271.416,163.748 271.5,167C 272.732,171.76 273.399,176.593 273.5,181.5C 268.909,182.638 264.243,183.471 259.5,184C 257.413,184.792 255.579,185.959 254,187.5C 253.506,185.866 253.34,184.199 253.5,182.5C 255.461,180.037 257.628,177.703 260,175.5C 260.054,171.47 259.554,167.47 258.5,163.5C 258.349,158.967 260.349,155.8 264.5,154C 268.122,154.087 271.122,152.92 273.5,150.5C 274.167,150.5 274.5,150.167 274.5,149.5C 277.931,147.612 281.598,147.112 285.5,148C 289.333,151.833 293.167,155.667 297,159.5C 296.373,163.111 296.04,166.777 296,170.5C 298.667,171.833 301.333,173.167 304,174.5C 304.758,178.357 304.258,182.023 302.5,185.5 Z"/></g>
<g><path style="opacity:1" fill="#d6536b" d="M 195.5,147.5 C 197.484,147.484 198.484,148.484 198.5,150.5C 197.167,161.167 195.833,161.167 194.5,150.5C 194.685,149.416 195.018,148.416 195.5,147.5 Z"/></g>
<g><path style="opacity:1" fill="#dd92a7" d="M 284.5,181.5 C 285.293,189.666 283.293,196.999 278.5,203.5C 274.326,196.798 272.659,189.464 273.5,181.5C 273.399,176.593 272.732,171.76 271.5,167C 271.416,163.748 272.916,161.582 276,160.5C 278.984,162.16 281.984,163.826 285,165.5C 285.322,169.897 284.822,174.23 283.5,178.5C 283.52,179.726 283.853,180.726 284.5,181.5 Z"/></g>
<g><path style="opacity:1" fill="#979797" d="M 96.5,164.5 C 101.339,164.624 106.339,164.458 111.5,164C 106.567,165.827 101.567,165.993 96.5,164.5 Z"/></g>
<g><path style="opacity:1" fill="#4d8aa2" d="M 141.5,203.5 C 141.328,204.492 141.662,205.158 142.5,205.5C 144.026,211.917 145.359,218.251 146.5,224.5C 146.264,237.588 146.264,250.588 146.5,263.5C 137.34,265.414 128.173,267.414 119,269.5C 114.335,268.978 109.835,268.311 105.5,267.5C 108.833,267.5 112.167,267.5 115.5,267.5C 115.101,263.884 114.101,260.55 112.5,257.5C 111.912,245.03 113.912,233.03 118.5,221.5C 116.808,218.769 115.142,216.102 113.5,213.5C 115.604,213.293 117.937,213.126 120.5,213C 118.377,211.806 116.043,211.14 113.5,211C 112.771,208.942 111.771,207.109 110.5,205.5C 108.443,199.719 106.11,194.053 103.5,188.5C 108.215,188.494 112.882,187.994 117.5,187C 124.119,185.016 130.453,182.516 136.5,179.5C 138.595,187.403 140.262,195.403 141.5,203.5 Z"/></g>
<g><path style="opacity:1" fill="#396072" d="M 85.5,185.5 C 89.5691,186.689 93.5691,187.689 97.5,188.5C 98.6741,193.208 100.841,197.875 104,202.5C 105.775,205.153 107.942,206.153 110.5,205.5C 111.771,207.109 112.771,208.942 113.5,211C 116.043,211.14 118.377,211.806 120.5,213C 117.937,213.126 115.604,213.293 113.5,213.5C 111.763,227.116 108.763,240.449 104.5,253.5C 102.796,256.939 101.462,260.605 100.5,264.5C 94.1667,264.5 87.8333,264.5 81.5,264.5C 81.6495,265.552 81.4828,266.552 81,267.5C 79.5993,265.808 77.7659,265.141 75.5,265.5C 73.7085,265.634 72.0418,265.301 70.5,264.5C 72.153,257.222 73.4863,249.889 74.5,242.5C 70.8284,241.955 71.1617,241.622 75.5,241.5C 76.0782,236.265 77.4115,231.265 79.5,226.5C 80.4013,225.71 81.0679,224.71 81.5,223.5C 82.829,220.519 84.1624,217.519 85.5,214.5C 84.6978,211.551 84.3645,208.551 84.5,205.5C 84.176,198.646 84.5093,191.979 85.5,185.5 Z"/></g>
<g><path style="opacity:1" fill="#3c6373" d="M 52.5,192.5 C 52.6488,195.607 52.1488,198.607 51,201.5C 48.295,198.964 45.795,196.297 43.5,193.5C 46.263,191.319 49.263,190.985 52.5,192.5 Z"/></g>
<g><path style="opacity:1" fill="#282a2b" d="M 97.5,188.5 C 99.5,188.5 101.5,188.5 103.5,188.5C 106.11,194.053 108.443,199.719 110.5,205.5C 107.942,206.153 105.775,205.153 104,202.5C 100.841,197.875 98.6741,193.208 97.5,188.5 Z"/></g>
<g><path style="opacity:1" fill="#4f8aa1" d="M 273.5,181.5 C 272.659,189.464 274.326,196.798 278.5,203.5C 283.293,196.999 285.293,189.666 284.5,181.5C 290.649,182.204 296.649,183.537 302.5,185.5C 311.398,192.221 319.898,199.554 328,207.5C 330,210.833 330,214.167 328,217.5C 321.016,223.495 313.35,228.495 305,232.5C 304.36,234.265 304.527,235.932 305.5,237.5C 304.609,238.11 303.609,238.443 302.5,238.5C 303.232,233.331 304.232,228.331 305.5,223.5C 307.357,218.003 308.357,211.67 308.5,204.5C 306.5,204.5 304.5,204.5 302.5,204.5C 302.167,195.167 301.833,195.167 301.5,204.5C 283.756,204.168 266.756,204.501 250.5,205.5C 252.165,216.158 253.831,226.825 255.5,237.5C 254.5,237.5 253.5,237.5 252.5,237.5C 253.519,235.46 253.519,233.46 252.5,231.5C 244.565,227.953 237.399,223.287 231,217.5C 228.567,212.498 229.401,208.165 233.5,204.5C 233.5,204.167 233.5,203.833 233.5,203.5C 239.514,198.397 245.681,193.397 252,188.5C 252.191,186.292 252.691,184.292 253.5,182.5C 253.34,184.199 253.506,185.866 254,187.5C 255.579,185.959 257.413,184.792 259.5,184C 264.243,183.471 268.909,182.638 273.5,181.5 Z"/></g>
<g><path style="opacity:1" fill="#8cabb5" d="M 52.5,192.5 C 53.1667,192.5 53.5,192.833 53.5,193.5C 53.6025,196.219 53.2692,198.885 52.5,201.5C 53.3877,203.155 53.8877,204.822 54,206.5C 50.2385,202.23 46.0719,198.563 41.5,195.5C 41.8333,194.5 42.5,193.833 43.5,193.5C 45.795,196.297 48.295,198.964 51,201.5C 52.1488,198.607 52.6488,195.607 52.5,192.5 Z"/></g>
<g><path style="opacity:1" fill="#548fa9" d="M 81.5,202.5 C 79.6454,209.719 76.9788,216.719 73.5,223.5C 72.8333,223.5 72.1667,223.5 71.5,223.5C 71.4433,221.116 71.7766,218.782 72.5,216.5C 74.137,214.525 75.8036,212.525 77.5,210.5C 77.3333,210.167 77.1667,209.833 77,209.5C 76,210.5 75,211.5 74,212.5C 73.8333,211.667 73.6667,210.833 73.5,210C 75.5113,203.621 76.3446,197.121 76,190.5C 75.3784,194.612 74.3784,198.612 73,202.5C 70.3301,201.776 68.8301,200.109 68.5,197.5C 68.8621,193.741 70.1954,190.407 72.5,187.5C 75.6352,184.653 78.4685,184.986 81,188.5C 81.4992,193.155 81.6658,197.821 81.5,202.5 Z"/></g>
<g><path style="opacity:1" fill="#f3f8f8" d="M 81.5,202.5 C 82.7281,203.306 83.7281,204.306 84.5,205.5C 84.3645,208.551 84.6978,211.551 85.5,214.5C 84.1624,217.519 82.829,220.519 81.5,223.5C 78.8333,223.5 76.1667,223.5 73.5,223.5C 76.9788,216.719 79.6454,209.719 81.5,202.5 Z"/></g>
<g><path style="opacity:1" fill="#7c9aa6" d="M 141.5,203.5 C 172.167,203.5 202.833,203.5 233.5,203.5C 233.5,203.833 233.5,204.167 233.5,204.5C 225.5,204.5 217.5,204.5 209.5,204.5C 205.167,204.5 200.833,204.5 196.5,204.5C 183.5,204.5 170.5,204.5 157.5,204.5C 152.305,204.179 147.305,204.513 142.5,205.5C 141.662,205.158 141.328,204.492 141.5,203.5 Z"/></g>
<g><path style="opacity:1" fill="#4b666e" d="M 305.5,223.5 C 306.037,217.484 306.703,211.484 307.5,205.5C 288.5,205.5 269.5,205.5 250.5,205.5C 266.756,204.501 283.756,204.168 301.5,204.5C 301.833,195.167 302.167,195.167 302.5,204.5C 304.5,204.5 306.5,204.5 308.5,204.5C 308.357,211.67 307.357,218.003 305.5,223.5 Z"/></g>
<g><path style="opacity:1" fill="#f8f2ed" d="M 157.5,204.5 C 159.983,216.297 167.316,221.63 179.5,220.5C 182.295,220.547 184.961,220.047 187.5,219C 189.64,216.86 191.806,214.694 194,212.5C 195.707,210.091 196.54,207.425 196.5,204.5C 200.833,204.5 205.167,204.5 209.5,204.5C 210.824,208.249 210.491,211.916 208.5,215.5C 205.788,216.067 203.121,216.401 200.5,216.5C 198.628,218.535 196.961,220.702 195.5,223C 196.791,225.05 197.291,227.217 197,229.5C 194.473,231.097 191.806,232.43 189,233.5C 187.18,232.396 185.68,230.896 184.5,229C 181.833,228.333 179.167,228.333 176.5,229C 173.106,234.465 168.606,235.632 163,232.5C 162.845,230.144 162.845,227.811 163,225.5C 157.668,220.819 152.168,220.485 146.5,224.5C 145.359,218.251 144.026,211.917 142.5,205.5C 147.305,204.513 152.305,204.179 157.5,204.5 Z"/></g>
<g><path style="opacity:1" fill="#f3e1d3" d="M 157.5,204.5 C 170.5,204.5 183.5,204.5 196.5,204.5C 196.54,207.425 195.707,210.091 194,212.5C 191.806,214.694 189.64,216.86 187.5,219C 184.961,220.047 182.295,220.547 179.5,220.5C 167.316,221.63 159.983,216.297 157.5,204.5 Z"/></g>
<g><path style="opacity:1" fill="#f4e1d3" d="M 209.5,204.5 C 217.5,204.5 225.5,204.5 233.5,204.5C 229.401,208.165 228.567,212.498 231,217.5C 237.399,223.287 244.565,227.953 252.5,231.5C 253.519,233.46 253.519,235.46 252.5,237.5C 247.575,235.347 242.408,234.013 237,233.5C 226.967,235.226 223.967,240.892 228,250.5C 233.533,255.851 240.033,259.517 247.5,261.5C 247.5,262.167 247.167,262.5 246.5,262.5C 219.616,258.51 193.283,260.176 167.5,267.5C 162.786,267.827 158.12,267.493 153.5,266.5C 151.423,264.918 149.09,263.918 146.5,263.5C 146.264,250.588 146.264,237.588 146.5,224.5C 152.168,220.485 157.668,220.819 163,225.5C 162.845,227.811 162.845,230.144 163,232.5C 168.606,235.632 173.106,234.465 176.5,229C 179.167,228.333 181.833,228.333 184.5,229C 185.68,230.896 187.18,232.396 189,233.5C 191.806,232.43 194.473,231.097 197,229.5C 197.291,227.217 196.791,225.05 195.5,223C 196.961,220.702 198.628,218.535 200.5,216.5C 203.121,216.401 205.788,216.067 208.5,215.5C 210.491,211.916 210.824,208.249 209.5,204.5 Z"/></g>
<g><path style="opacity:1" fill="#fdfdfd" d="M 250.5,205.5 C 269.5,205.5 288.5,205.5 307.5,205.5C 306.703,211.484 306.037,217.484 305.5,223.5C 304.232,228.331 303.232,233.331 302.5,238.5C 286.658,238.83 270.991,238.496 255.5,237.5C 253.831,226.825 252.165,216.158 250.5,205.5 Z"/></g>
<g><path style="opacity:1" fill="#92bccb" d="M 71.5,223.5 C 70.8333,223.5 70.1667,223.5 69.5,223.5C 70.7043,217.479 72.0376,211.479 73.5,205.5C 72.1678,203.167 70.1678,201.834 67.5,201.5C 67.2322,199.901 67.5655,198.568 68.5,197.5C 68.8301,200.109 70.3301,201.776 73,202.5C 74.3784,198.612 75.3784,194.612 76,190.5C 76.3446,197.121 75.5113,203.621 73.5,210C 73.6667,210.833 73.8333,211.667 74,212.5C 75,211.5 76,210.5 77,209.5C 77.1667,209.833 77.3333,210.167 77.5,210.5C 75.8036,212.525 74.137,214.525 72.5,216.5C 71.7766,218.782 71.4433,221.116 71.5,223.5 Z"/></g>
<g><path style="opacity:1" fill="#87a6b0" d="M 47.5,211.5 C 46.5,211.167 45.8333,210.5 45.5,209.5C 49.4586,210.55 53.4586,211.05 57.5,211C 56.5494,210.282 56.3828,209.449 57,208.5C 58.6667,210.5 60.3333,212.5 62,214.5C 62.6667,215.167 62.6667,215.833 62,216.5C 57.8863,212.996 53.053,211.329 47.5,211.5 Z"/></g>
<g><path style="opacity:1" fill="#242d2e" d="M 64.5,205.5 C 65.4013,206.29 66.0679,207.29 66.5,208.5C 66.5,208.833 66.5,209.167 66.5,209.5C 66.665,212.85 66.4983,216.183 66,219.5C 63.4462,214.957 62.9462,210.291 64.5,205.5 Z"/></g>
<g><path style="opacity:1" fill="#538ea7" d="M 67.5,201.5 C 70.1678,201.834 72.1678,203.167 73.5,205.5C 72.0376,211.479 70.7043,217.479 69.5,223.5C 68.0222,223.762 66.6888,223.429 65.5,222.5C 65.8457,221.304 66.3457,221.304 67,222.5C 67.8136,217.98 67.647,213.646 66.5,209.5C 66.5,209.167 66.5,208.833 66.5,208.5C 67.4682,206.393 67.8016,204.059 67.5,201.5 Z"/></g>
<g><path style="opacity:1" fill="#436674" d="M 53.5,193.5 C 58.5559,196.223 62.2226,200.223 64.5,205.5C 62.9462,210.291 63.4462,214.957 66,219.5C 66.4983,216.183 66.665,212.85 66.5,209.5C 67.647,213.646 67.8136,217.98 67,222.5C 66.3457,221.304 65.8457,221.304 65.5,222.5C 66.6888,223.429 68.0222,223.762 69.5,223.5C 70.1667,223.5 70.8333,223.5 71.5,223.5C 72.1667,223.5 72.8333,223.5 73.5,223.5C 73.5,223.833 73.5,224.167 73.5,224.5C 66.5,224.5 59.5,224.5 52.5,224.5C 55.3054,223.681 58.3054,223.181 61.5,223C 56.353,219.68 51.6864,215.847 47.5,211.5C 53.053,211.329 57.8863,212.996 62,216.5C 62.6667,215.833 62.6667,215.167 62,214.5C 60.3333,212.5 58.6667,210.5 57,208.5C 56.3828,209.449 56.5494,210.282 57.5,211C 53.4586,211.05 49.4586,210.55 45.5,209.5C 41.1311,205.724 39.7978,201.058 41.5,195.5C 46.0719,198.563 50.2385,202.23 54,206.5C 53.8877,204.822 53.3877,203.155 52.5,201.5C 53.2692,198.885 53.6025,196.219 53.5,193.5 Z"/></g>
<g><path style="opacity:1" fill="#a18e82" d="M 73.5,224.5 C 73.5,224.167 73.5,223.833 73.5,223.5C 76.1667,223.5 78.8333,223.5 81.5,223.5C 81.0679,224.71 80.4013,225.71 79.5,226.5C 79.5,226.167 79.5,225.833 79.5,225.5C 77.7354,224.539 75.7354,224.205 73.5,224.5 Z"/></g>
<g><path style="opacity:1" fill="#a55725" d="M 52.5,224.5 C 59.5,224.5 66.5,224.5 73.5,224.5C 75.7354,224.205 77.7354,224.539 79.5,225.5C 70.8333,225.5 62.1667,225.5 53.5,225.5C 53.5,228.167 53.5,230.833 53.5,233.5C 52.5233,230.713 52.19,227.713 52.5,224.5 Z"/></g>
<g><path style="opacity:1" fill="#864116" d="M 53.5,233.5 C 60.5079,233.334 67.5079,233.5 74.5,234C 67.8417,234.5 61.175,234.666 54.5,234.5C 54.5,235.833 54.5,237.167 54.5,238.5C 53.5489,237.081 53.2155,235.415 53.5,233.5 Z"/></g>
<g><path style="opacity:1" fill="#e14562" d="M 252.5,237.5 C 253.167,238.167 253.833,238.833 254.5,239.5C 260.933,244.086 267.266,248.92 273.5,254C 276.893,256.076 280.56,257.242 284.5,257.5C 285.209,258.404 286.209,258.737 287.5,258.5C 287.595,261.697 286.928,264.697 285.5,267.5C 272.547,267.026 259.88,265.026 247.5,261.5C 240.033,259.517 233.533,255.851 228,250.5C 223.967,240.892 226.967,235.226 237,233.5C 242.408,234.013 247.575,235.347 252.5,237.5 Z"/></g>
<g><path style="opacity:1" fill="#df4562" d="M 327.5,235.5 C 332.829,244.069 331.162,250.903 322.5,256C 319.691,257.741 316.691,258.908 313.5,259.5C 310.215,257.025 306.548,255.358 302.5,254.5C 299.385,254.394 296.719,255.394 294.5,257.5C 289.958,256.153 285.624,254.319 281.5,252C 287.978,246.769 294.978,242.602 302.5,239.5C 302.5,239.167 302.5,238.833 302.5,238.5C 303.609,238.443 304.609,238.11 305.5,237.5C 312.631,233.372 319.965,232.705 327.5,235.5 Z"/></g>
<g><path style="opacity:1" fill="#484947" d="M 252.5,237.5 C 253.5,237.5 254.5,237.5 255.5,237.5C 270.991,238.496 286.658,238.83 302.5,238.5C 302.5,238.833 302.5,239.167 302.5,239.5C 287.167,239.5 271.833,239.5 256.5,239.5C 255.833,239.5 255.167,239.5 254.5,239.5C 253.833,238.833 253.167,238.167 252.5,237.5 Z"/></g>
<g><path style="opacity:1" fill="#de661a" d="M 79.5,225.5 C 79.5,225.833 79.5,226.167 79.5,226.5C 77.4115,231.265 76.0782,236.265 75.5,241.5C 71.1617,241.622 70.8284,241.955 74.5,242.5C 73.4863,249.889 72.153,257.222 70.5,264.5C 71.5,265.833 72.5,267.167 73.5,268.5C 69.5,268.5 65.5,268.5 61.5,268.5C 61.405,266.214 60.7384,264.214 59.5,262.5C 58.7611,257.853 58.0945,253.186 57.5,248.5C 57.8893,245.447 57.2227,242.78 55.5,240.5C 54.6618,240.158 54.3284,239.492 54.5,238.5C 54.5,237.167 54.5,235.833 54.5,234.5C 61.175,234.666 67.8417,234.5 74.5,234C 67.5079,233.5 60.5079,233.334 53.5,233.5C 53.5,230.833 53.5,228.167 53.5,225.5C 62.1667,225.5 70.8333,225.5 79.5,225.5 Z"/></g>
<g><path style="opacity:1" fill="#ecded2" d="M 113.5,213.5 C 115.142,216.102 116.808,218.769 118.5,221.5C 113.912,233.03 111.912,245.03 112.5,257.5C 109.925,256.432 107.758,254.765 106,252.5C 105.617,253.056 105.117,253.389 104.5,253.5C 108.763,240.449 111.763,227.116 113.5,213.5 Z"/></g>
<g><path style="opacity:1" fill="#2e2929" d="M 256.5,239.5 C 271.833,239.5 287.167,239.5 302.5,239.5C 294.978,242.602 287.978,246.769 281.5,252C 285.624,254.319 289.958,256.153 294.5,257.5C 292.393,258.468 290.059,258.802 287.5,258.5C 286.209,258.737 285.209,258.404 284.5,257.5C 275.435,251.106 266.102,245.106 256.5,239.5 Z"/></g>
<g><path style="opacity:1" fill="#976544" d="M 55.5,240.5 C 57.2227,242.78 57.8893,245.447 57.5,248.5C 56.2318,246.095 55.5651,243.428 55.5,240.5 Z"/></g>
<g><path style="opacity:1" fill="#b63e56" d="M 254.5,239.5 C 255.167,239.5 255.833,239.5 256.5,239.5C 266.102,245.106 275.435,251.106 284.5,257.5C 280.56,257.242 276.893,256.076 273.5,254C 267.266,248.92 260.933,244.086 254.5,239.5 Z"/></g>
<g><path style="opacity:1" fill="#f7f9f9" d="M 112.5,257.5 C 114.101,260.55 115.101,263.884 115.5,267.5C 112.167,267.5 108.833,267.5 105.5,267.5C 104.341,265.75 102.674,264.75 100.5,264.5C 101.462,260.605 102.796,256.939 104.5,253.5C 105.117,253.389 105.617,253.056 106,252.5C 107.758,254.765 109.925,256.432 112.5,257.5 Z"/></g>
<g><path style="opacity:1" fill="#e696ab" d="M 302.5,254.5 C 303.357,257.92 305.357,260.254 308.5,261.5C 311.285,263.834 314.618,265.168 318.5,265.5C 317.23,266.288 316.23,267.288 315.5,268.5C 311.833,268.5 308.167,268.5 304.5,268.5C 298.355,267.51 292.022,267.177 285.5,267.5C 286.928,264.697 287.595,261.697 287.5,258.5C 290.059,258.802 292.393,258.468 294.5,257.5C 296.719,255.394 299.385,254.394 302.5,254.5 Z"/></g>
<g><path style="opacity:1" fill="#322627" d="M 302.5,254.5 C 306.548,255.358 310.215,257.025 313.5,259.5C 312.07,260.537 310.403,261.204 308.5,261.5C 305.357,260.254 303.357,257.92 302.5,254.5 Z"/></g>
<g><path style="opacity:1" fill="#fbfaf9" d="M 246.5,262.5 C 246.389,263.117 246.056,263.617 245.5,264C 242.833,264.333 240.167,264.667 237.5,265C 238.571,265.852 239.571,266.685 240.5,267.5C 216.167,267.5 191.833,267.5 167.5,267.5C 193.283,260.176 219.616,258.51 246.5,262.5 Z"/></g>
<g><path style="opacity:1" fill="#2f2d2c" d="M 146.5,263.5 C 149.09,263.918 151.423,264.918 153.5,266.5C 158.12,267.493 162.786,267.827 167.5,267.5C 191.833,267.5 216.167,267.5 240.5,267.5C 261.788,268.478 283.121,268.811 304.5,268.5C 308.167,268.5 311.833,268.5 315.5,268.5C 321.833,268.5 328.167,268.5 334.5,268.5C 332.167,269.167 329.833,269.833 327.5,270.5C 237.501,271.795 147.501,271.795 57.5,270.5C 56.5,269.833 55.5,269.167 54.5,268.5C 56.1667,268.5 57.8333,268.5 59.5,268.5C 64.2669,269.797 68.9335,269.797 73.5,268.5C 75.0481,268.179 75.7148,267.179 75.5,265.5C 77.7659,265.141 79.5993,265.808 81,267.5C 81.4828,266.552 81.6495,265.552 81.5,264.5C 87.8333,264.5 94.1667,264.5 100.5,264.5C 102.674,264.75 104.341,265.75 105.5,267.5C 109.835,268.311 114.335,268.978 119,269.5C 128.173,267.414 137.34,265.414 146.5,263.5 Z"/></g>
<g><path style="opacity:1" fill="#d08a9b" d="M 247.5,261.5 C 259.88,265.026 272.547,267.026 285.5,267.5C 292.022,267.177 298.355,267.51 304.5,268.5C 283.121,268.811 261.788,268.478 240.5,267.5C 239.571,266.685 238.571,265.852 237.5,265C 240.167,264.667 242.833,264.333 245.5,264C 246.056,263.617 246.389,263.117 246.5,262.5C 247.167,262.5 247.5,262.167 247.5,261.5 Z"/></g>
<g><path style="opacity:1" fill="#c38b65" d="M 70.5,264.5 C 72.0418,265.301 73.7085,265.634 75.5,265.5C 75.7148,267.179 75.0481,268.179 73.5,268.5C 72.5,267.167 71.5,265.833 70.5,264.5 Z"/></g>
<g><path style="opacity:1" fill="#a0592c" d="M 59.5,262.5 C 60.7384,264.214 61.405,266.214 61.5,268.5C 65.5,268.5 69.5,268.5 73.5,268.5C 68.9335,269.797 64.2669,269.797 59.5,268.5C 59.5,266.5 59.5,264.5 59.5,262.5 Z"/></g>
<g><path style="opacity:1" fill="#a3a3a3" d="M 42.5,268.5 C 43.1667,269.167 43.8333,269.833 44.5,270.5C 37.0528,270.929 29.7194,270.429 22.5,269C 29.1583,268.5 35.825,268.334 42.5,268.5 Z"/></g>
<g><path style="opacity:1" fill="#646464" d="M 42.5,268.5 C 46.5,268.5 50.5,268.5 54.5,268.5C 55.5,269.167 56.5,269.833 57.5,270.5C 53.1667,270.5 48.8333,270.5 44.5,270.5C 43.8333,269.833 43.1667,269.167 42.5,268.5 Z"/></g>
<g><path style="opacity:1" fill="#7c7c7c" d="M 334.5,268.5 C 341.5,268.5 348.5,268.5 355.5,268.5C 353.833,269.167 352.167,269.833 350.5,270.5C 342.833,270.5 335.167,270.5 327.5,270.5C 329.833,269.833 332.167,269.167 334.5,268.5 Z"/></g>
<g><path style="opacity:1" fill="#bdbdbd" d="M 355.5,268.5 C 358.85,268.335 362.183,268.502 365.5,269C 360.628,270.388 355.628,270.888 350.5,270.5C 352.167,269.833 353.833,269.167 355.5,268.5 Z"/></g>
</svg>
