<svg width="233" height="45" viewBox="0 0 233 45" fill="none" xmlns="http://www.w3.org/2000/svg">
<circle cx="22.5" cy="22.5" r="22.5" fill="#D20451"/>
<circle cx="210.5" cy="22.5" r="22.5" fill="#D9D9D9"/>
<path d="M26.9 33H18.724V32.188C19.1907 31.9827 19.6573 31.8053 20.124 31.656C20.6093 31.488 21.0947 31.348 21.58 31.236V17.488L21.692 15.836C21.1693 16.0413 20.628 16.1907 20.068 16.284C19.508 16.3587 18.9293 16.3867 18.332 16.368L18.192 15.696C19.0507 15.416 19.9373 15.0707 20.852 14.66C21.7667 14.2307 22.616 13.6987 23.4 13.064H24.1V31.236C24.5667 31.348 25.0333 31.488 25.5 31.656C25.9667 31.8053 26.4333 31.9827 26.9 32.188V33Z" fill="white"/>
<path d="M203.428 30.956C205.799 29.052 207.656 27.4933 209 26.28C210.344 25.048 211.473 23.7693 212.388 22.444C213.321 21.1 213.788 19.784 213.788 18.496C213.788 17.2827 213.489 16.3307 212.892 15.64C212.313 14.9307 211.371 14.576 210.064 14.576C208.795 14.576 207.805 14.9773 207.096 15.78C206.405 16.564 206.032 17.6187 205.976 18.944H203.512C203.587 16.8533 204.221 15.2387 205.416 14.1C206.611 12.9613 208.151 12.392 210.036 12.392C211.959 12.392 213.48 12.924 214.6 13.988C215.739 15.052 216.308 16.5173 216.308 18.384C216.308 19.9333 215.841 21.4453 214.908 22.92C213.993 24.376 212.948 25.664 211.772 26.784C210.596 27.8853 209.093 29.1733 207.264 30.648H216.896V32.776H203.428V30.956Z" fill="white"/>
<line x1="44" y1="22.5" x2="189" y2="22.5" stroke="#404040"/>
</svg>
