<?xml version="1.0" encoding="UTF-8"?>
<!DOCTYPE svg PUBLIC "-//W3C//DTD SVG 1.1//EN" "http://www.w3.org/Graphics/SVG/1.1/DTD/svg11.dtd">
<svg xmlns="http://www.w3.org/2000/svg" version="1.1" width="340px" height="310px" style="shape-rendering:geometricPrecision; text-rendering:geometricPrecision; image-rendering:optimizeQuality; fill-rule:evenodd; clip-rule:evenodd" xmlns:xlink="http://www.w3.org/1999/xlink">
<g><path style="opacity:1" fill="#fefefd" d="M -0.5,-0.5 C 29.1667,-0.5 58.8333,-0.5 88.5,-0.5C 82.5569,2.80789 76.5569,6.14122 70.5,9.5C 61.5108,18.3217 52.3441,26.9884 43,35.5C 43.0944,38.5008 41.7611,40.5008 39,41.5C 27.1963,60.0883 21.0296,80.5883 20.5,103C 22.9174,123.509 25.4174,144.009 28,164.5C 28.3333,182.5 28.6667,200.5 29,218.5C 29.9297,221.359 31.5964,223.693 34,225.5C 34.4645,229.848 34.9645,234.181 35.5,238.5C 36.5,238.5 37.5,238.5 38.5,238.5C 38.2739,241.249 38.6072,243.916 39.5,246.5C 44.6424,253.143 50.3091,259.309 56.5,265C 69.1412,271.662 81.8079,278.329 94.5,285C 102.586,287.791 110.586,290.791 118.5,294C 147.495,300.954 176.829,302.288 206.5,298C 212.061,297.134 217.394,295.468 222.5,293C 223.701,292.097 224.535,290.931 225,289.5C 227.737,290.61 230.571,290.777 233.5,290C 239.044,287.711 244.377,285.044 249.5,282C 253.799,281.683 257.465,280.017 260.5,277C 262.167,276.667 263.833,276.333 265.5,276C 270.564,271.934 275.898,268.268 281.5,265C 283.422,263.58 284.755,261.747 285.5,259.5C 290.587,256.749 294.253,252.749 296.5,247.5C 299.516,244.48 302.183,241.146 304.5,237.5C 305.224,234.385 306.724,231.718 309,229.5C 311.262,220.965 312.929,212.298 314,203.5C 315.608,200.618 316.941,197.618 318,194.5C 318.848,176.473 318.515,158.473 317,140.5C 313.937,124.975 311.937,109.308 311,93.5C 310.731,90.6484 309.897,87.9818 308.5,85.5C 308.709,84.914 309.043,84.414 309.5,84C 307.877,80.9669 306.544,77.8002 305.5,74.5C 304.833,117.331 304.167,159.998 303.5,202.5C 303.667,158.165 303.5,113.832 303,69.5C 301.726,66.0641 299.559,63.3974 296.5,61.5C 298.63,55.9803 300.297,50.3136 301.5,44.5C 304.124,24.6512 295.457,12.4845 275.5,8C 270.316,7.18368 265.316,7.35034 260.5,8.5C 248.125,12.2081 240.125,20.2081 236.5,32.5C 225.581,25.4327 213.581,21.4327 200.5,20.5C 200.167,20.5 199.833,20.5 199.5,20.5C 188.346,19.5052 177.012,19.1719 165.5,19.5C 157.01,18.6704 148.343,18.1704 139.5,18C 132.701,10.1202 124.701,3.95357 115.5,-0.5C 190.167,-0.5 264.833,-0.5 339.5,-0.5C 339.5,102.833 339.5,206.167 339.5,309.5C 226.167,309.5 112.833,309.5 -0.5,309.5C -0.5,206.167 -0.5,102.833 -0.5,-0.5 Z"/></g>
<g><path style="opacity:1" fill="#f3ae9a" d="M 260.5,8.5 C 265.316,7.35034 270.316,7.18368 275.5,8C 295.457,12.4845 304.124,24.6512 301.5,44.5C 301.824,40.4454 301.491,36.4454 300.5,32.5C 299.833,32.8333 299.167,33.1667 298.5,33.5C 297.511,37.1073 297.177,40.774 297.5,44.5C 294.262,45.3949 291.095,45.3949 288,44.5C 287.208,46.6437 285.708,47.977 283.5,48.5C 287.597,33.7521 281.93,26.2521 266.5,26C 258.587,30.6658 255.754,37.4991 258,46.5C 260.372,48.7032 262.539,51.0365 264.5,53.5C 263.178,53.33 262.011,53.6634 261,54.5C 260.995,51.7708 259.829,49.7708 257.5,48.5C 256.789,43.7592 255.789,39.0926 254.5,34.5C 253.8,37.0149 252.467,37.6816 250.5,36.5C 249.522,36.9767 248.689,37.6433 248,38.5C 247.383,37.5509 247.549,36.7175 248.5,36C 247.692,35.6924 247.025,35.1924 246.5,34.5C 249.213,32.8173 249.713,30.8173 248,28.5C 245.688,28.9551 243.688,29.9551 242,31.5C 241.501,36.1548 241.334,40.8215 241.5,45.5C 238.169,27.6863 245.169,15.5196 262.5,9C 261.906,8.53566 261.239,8.36899 260.5,8.5 Z"/></g>
<g><path style="opacity:1" fill="#e48374" d="M 199.5,20.5 C 199.833,20.5 200.167,20.5 200.5,20.5C 213.208,24.5188 225.208,30.1855 236.5,37.5C 236.528,44.5828 238.195,51.2494 241.5,57.5C 225.008,58.4965 208.342,58.8298 191.5,58.5C 179.286,40.1267 162.62,27.6267 141.5,21C 160.83,20.5 180.164,20.3334 199.5,20.5 Z"/></g>
<g><path style="opacity:1" fill="#fdf3f0" d="M 283.5,48.5 C 280.649,50.5048 277.649,52.3382 274.5,54C 271.151,54.3876 267.817,54.2209 264.5,53.5C 262.539,51.0365 260.372,48.7032 258,46.5C 255.754,37.4991 258.587,30.6658 266.5,26C 281.93,26.2521 287.597,33.7521 283.5,48.5 Z"/></g>
<g><path style="opacity:1" fill="#f1a392" d="M 200.5,20.5 C 213.581,21.4327 225.581,25.4327 236.5,32.5C 236.5,34.1667 236.5,35.8333 236.5,37.5C 225.208,30.1855 213.208,24.5188 200.5,20.5 Z"/></g>
<g><path style="opacity:1" fill="#eb9786" d="M 105.5,30.5 C 103.526,31.9059 101.526,33.4059 99.5,35C 99.9464,40.9729 100.613,47.1396 101.5,53.5C 102.5,53.8333 103.167,54.5 103.5,55.5C 101.817,56.8534 100.484,58.5201 99.5,60.5C 100.242,61.2868 101.075,61.9535 102,62.5C 103.833,60.8333 105.667,59.1667 107.5,57.5C 108.711,56.2798 108.711,55.1131 107.5,54C 109.107,54.0187 110.774,54.1854 112.5,54.5C 112.351,55.552 112.517,56.552 113,57.5C 115.613,59.4015 117.28,61.7348 118,64.5C 115.984,62.316 113.817,60.316 111.5,58.5C 105.959,61.0237 103.959,65.3571 105.5,71.5C 103.856,71.2865 102.356,71.6198 101,72.5C 100.833,77.6667 100.667,82.8333 100.5,88C 100.549,93.6756 101.215,99.1756 102.5,104.5C 102.291,105.086 101.957,105.586 101.5,106C 104.432,106.953 107.432,107.453 110.5,107.5C 105.154,108.736 99.6538,108.736 94,107.5C 92.3009,107.387 91.1342,108.053 90.5,109.5C 87.9906,110.921 85.6572,112.588 83.5,114.5C 81.2459,115.415 79.2459,116.748 77.5,118.5C 77.5086,116.692 77.0086,115.025 76,113.5C 73.3729,116.207 71.2062,116.041 69.5,113C 70.0779,111.189 70.5779,109.355 71,107.5C 72.0113,106.663 73.1779,106.33 74.5,106.5C 74.3359,103.813 74.5026,101.146 75,98.5C 76.2812,98.6192 77.4479,98.1192 78.5,97C 78.1667,96.6667 77.8333,96.3333 77.5,96C 78.1667,94.3333 78.8333,92.6667 79.5,91C 78.324,89.0858 77.324,89.2524 76.5,91.5C 74.7711,89.1489 74.1044,86.4822 74.5,83.5C 77.9571,83.3328 78.2904,82.3328 75.5,80.5C 74.8469,76.7246 73.8469,73.0579 72.5,69.5C 72.6082,68.5581 72.9415,67.7247 73.5,67C 72.6919,66.6924 72.0253,66.1924 71.5,65.5C 72.6405,64.5745 72.6405,63.7412 71.5,63C 73.8329,61.7574 74.4996,60.0907 73.5,58C 75.473,56.027 77.473,54.027 79.5,52C 78.944,51.6174 78.6107,51.1174 78.5,50.5C 84.7287,42.4485 92.3954,35.9485 101.5,31C 102.793,30.51 104.127,30.3433 105.5,30.5 Z"/></g>
<g><path style="opacity:1" fill="#f5a893" d="M 264.5,53.5 C 267.817,54.2209 271.151,54.3876 274.5,54C 277.649,52.3382 280.649,50.5048 283.5,48.5C 285.708,47.977 287.208,46.6437 288,44.5C 291.095,45.3949 294.262,45.3949 297.5,44.5C 297.177,40.774 297.511,37.1073 298.5,33.5C 299.167,33.1667 299.833,32.8333 300.5,32.5C 301.491,36.4454 301.824,40.4454 301.5,44.5C 300.297,50.3136 298.63,55.9803 296.5,61.5C 294.992,63.1815 293.992,65.1815 293.5,67.5C 286.856,77.4391 280.689,87.7724 275,98.5C 273.556,100.155 271.722,100.822 269.5,100.5C 260.333,86.8447 252.167,72.5114 245,57.5C 243.119,53.6928 241.953,49.6928 241.5,45.5C 241.334,40.8215 241.501,36.1548 242,31.5C 243.688,29.9551 245.688,28.9551 248,28.5C 249.713,30.8173 249.213,32.8173 246.5,34.5C 247.025,35.1924 247.692,35.6924 248.5,36C 247.549,36.7175 247.383,37.5509 248,38.5C 248.689,37.6433 249.522,36.9767 250.5,36.5C 252.467,37.6816 253.8,37.0149 254.5,34.5C 255.789,39.0926 256.789,43.7592 257.5,48.5C 259.829,49.7708 260.995,51.7708 261,54.5C 262.011,53.6634 263.178,53.33 264.5,53.5 Z"/></g>
<g><path style="opacity:1" fill="#f6ede3" d="M 185.5,62.5 C 183.863,64.3162 182.363,66.3162 181,68.5C 180.333,117.833 180.333,167.167 181,216.5C 183.156,221.819 186.989,225.152 192.5,226.5C 185.786,238.047 177.12,247.881 166.5,256C 164.212,256.418 162.212,255.751 160.5,254C 156.631,249.963 152.631,246.13 148.5,242.5C 144.705,230.991 141.372,219.324 138.5,207.5C 138.821,206.183 139.154,204.849 139.5,203.5C 138.49,200.817 137.49,198.151 136.5,195.5C 137.463,192.256 138.796,189.256 140.5,186.5C 147.101,193.367 155.101,196.034 164.5,194.5C 167.931,196.388 171.598,196.888 175.5,196C 176.833,194.333 176.833,192.667 175.5,191C 172.274,189.801 168.941,189.301 165.5,189.5C 161.33,187.07 156.996,184.57 152.5,182C 149.5,178.486 147.167,174.653 145.5,170.5C 145.5,170.167 145.5,169.833 145.5,169.5C 146.992,158.338 144.992,148.005 139.5,138.5C 137.683,136.508 136.016,134.341 134.5,132C 134.833,131.5 135.167,131 135.5,130.5C 138.201,131.869 140.701,131.536 143,129.5C 145.406,125.114 146.906,120.448 147.5,115.5C 150.583,105.707 146.75,100.707 136,100.5C 130.228,100.886 124.728,102.219 119.5,104.5C 124.794,85.5676 133.128,68.2343 144.5,52.5C 149.684,47.4819 155.017,42.6486 160.5,38C 161.167,37.3333 161.833,37.3333 162.5,38C 171.428,45.0571 179.095,53.2238 185.5,62.5 Z"/></g>
<g><path style="opacity:1" fill="#f4ad9b" d="M 165.5,19.5 C 177.012,19.1719 188.346,19.5052 199.5,20.5C 180.164,20.3334 160.83,20.5 141.5,21C 162.62,27.6267 179.286,40.1267 191.5,58.5C 191.5,58.8333 191.5,59.1667 191.5,59.5C 189.216,59.9752 187.216,60.9752 185.5,62.5C 179.095,53.2238 171.428,45.0571 162.5,38C 161.833,37.3333 161.167,37.3333 160.5,38C 155.017,42.6486 149.684,47.4819 144.5,52.5C 133.128,68.2343 124.794,85.5676 119.5,104.5C 118.01,106.28 116.01,106.946 113.5,106.5C 116.798,99.9678 119.298,92.9678 121,85.5C 125.412,76.3429 130.078,67.3429 135,58.5C 141.429,50.0673 148.596,42.234 156.5,35C 145.205,27.9468 132.871,25.2801 119.5,27C 114.418,27.0366 109.751,28.2032 105.5,30.5C 104.127,30.3433 102.793,30.51 101.5,31C 92.3954,35.9485 84.7287,42.4485 78.5,50.5C 68.1337,59.7004 61.3003,71.0338 58,84.5C 55.2721,89.2546 52.9388,94.2546 51,99.5C 51.2682,110.11 49.2682,120.11 45,129.5C 44.6667,129.167 44.3333,128.833 44,128.5C 43.1779,130.788 42.5112,133.122 42,135.5C 41.5002,144.827 41.3335,154.161 41.5,163.5C 35.5493,121.852 44.7159,83.8524 69,49.5C 81.0319,34.796 96.1986,24.9626 114.5,20C 131.497,19.5001 148.497,19.3334 165.5,19.5 Z"/></g>
<g><path style="opacity:1" fill="#e99281" d="M 113.5,106.5 C 112.209,106.263 111.209,106.596 110.5,107.5C 107.432,107.453 104.432,106.953 101.5,106C 101.957,105.586 102.291,105.086 102.5,104.5C 101.215,99.1756 100.549,93.6756 100.5,88C 100.667,82.8333 100.833,77.6667 101,72.5C 102.356,71.6198 103.856,71.2865 105.5,71.5C 103.959,65.3571 105.959,61.0237 111.5,58.5C 113.817,60.316 115.984,62.316 118,64.5C 117.28,61.7348 115.613,59.4015 113,57.5C 112.517,56.552 112.351,55.552 112.5,54.5C 110.774,54.1854 109.107,54.0187 107.5,54C 108.711,55.1131 108.711,56.2798 107.5,57.5C 105.667,59.1667 103.833,60.8333 102,62.5C 101.075,61.9535 100.242,61.2868 99.5,60.5C 100.484,58.5201 101.817,56.8534 103.5,55.5C 103.167,54.5 102.5,53.8333 101.5,53.5C 100.613,47.1396 99.9464,40.9729 99.5,35C 101.526,33.4059 103.526,31.9059 105.5,30.5C 109.751,28.2032 114.418,27.0366 119.5,27C 132.871,25.2801 145.205,27.9468 156.5,35C 148.596,42.234 141.429,50.0673 135,58.5C 130.078,67.3429 125.412,76.3429 121,85.5C 119.298,92.9678 116.798,99.9678 113.5,106.5 Z"/></g>
<g><path style="opacity:1" fill="#efa699" d="M 124.5,28.5 C 136.21,26.3781 141.043,31.0448 139,42.5C 135.904,43.6841 132.404,44.6841 128.5,45.5C 123.5,45.1667 120.833,42.5 120.5,37.5C 121.03,34.1101 122.363,31.1101 124.5,28.5 Z"/></g>
<g><path style="opacity:1" fill="#be898a" d="M 241.5,57.5 C 242.338,57.8417 242.672,58.5084 242.5,59.5C 228.5,59.5 214.5,59.5 200.5,59.5C 197.5,59.5 194.5,59.5 191.5,59.5C 191.5,59.1667 191.5,58.8333 191.5,58.5C 208.342,58.8298 225.008,58.4965 241.5,57.5 Z"/></g>
<g><path style="opacity:1" fill="#94acc5" d="M 200.5,59.5 C 214.5,59.5 228.5,59.5 242.5,59.5C 244.065,61.5093 245.065,63.8427 245.5,66.5C 231.496,66.3334 217.496,66.5001 203.5,67C 201.816,68.2088 200.483,69.7088 199.5,71.5C 196.714,71.9564 195.381,73.6231 195.5,76.5C 195.717,86.4628 196.05,96.4628 196.5,106.5C 194.958,107.045 194.125,108.711 194,111.5C 193.207,107.577 193.374,103.744 194.5,100C 192.219,92.8178 191.885,85.4845 193.5,78C 193.299,75.8886 192.633,74.0552 191.5,72.5C 192.52,66.8108 195.52,62.4775 200.5,59.5 Z"/></g>
<g><path style="opacity:1" fill="#f0eae3" d="M 248.5,72.5 C 252.082,77.9942 255.415,83.6608 258.5,89.5C 258.667,107.17 258.5,124.836 258,142.5C 251.602,143.723 245.102,144.39 238.5,144.5C 227.588,146.163 216.588,146.83 205.5,146.5C 205.5,122.167 205.5,97.8333 205.5,73.5C 219.905,73.069 233.739,73.7356 247,75.5C 247.232,74.2625 247.732,73.2625 248.5,72.5 Z"/></g>
<g><path style="opacity:1" fill="#5c4c4c" d="M 260.5,8.5 C 261.239,8.36899 261.906,8.53566 262.5,9C 245.169,15.5196 238.169,27.6863 241.5,45.5C 241.953,49.6928 243.119,53.6928 245,57.5C 252.167,72.5114 260.333,86.8447 269.5,100.5C 268.07,100.579 266.736,100.246 265.5,99.5C 263.144,96.1002 260.811,92.7669 258.5,89.5C 255.415,83.6608 252.082,77.9942 248.5,72.5C 248.008,70.1815 247.008,68.1815 245.5,66.5C 245.065,63.8427 244.065,61.5093 242.5,59.5C 242.672,58.5084 242.338,57.8417 241.5,57.5C 238.195,51.2494 236.528,44.5828 236.5,37.5C 236.5,35.8333 236.5,34.1667 236.5,32.5C 240.125,20.2081 248.125,12.2081 260.5,8.5 Z"/></g>
<g><path style="opacity:1" fill="#decfc3" d="M 293.5,67.5 C 294.794,68.2899 295.961,69.2899 297,70.5C 297.167,92.8333 297.333,115.167 297.5,137.5C 297.49,160.382 296.823,183.049 295.5,205.5C 294.25,205.423 293.417,204.756 293,203.5C 292.51,204.793 292.343,206.127 292.5,207.5C 288.011,208.571 283.678,208.571 279.5,207.5C 282.166,207.067 284.832,206.567 287.5,206C 288.701,205.097 289.535,203.931 290,202.5C 291.187,186.856 291.687,171.189 291.5,155.5C 275.163,156.792 258.83,158.125 242.5,159.5C 241.833,157.833 241.167,156.167 240.5,154.5C 250.941,152.516 261.608,151.182 272.5,150.5C 272.833,135.818 272.499,121.152 271.5,106.5C 270.501,120.818 270.167,135.151 270.5,149.5C 259.808,149.81 249.141,150.476 238.5,151.5C 237.933,149.031 237.933,146.698 238.5,144.5C 245.102,144.39 251.602,143.723 258,142.5C 258.5,124.836 258.667,107.17 258.5,89.5C 260.811,92.7669 263.144,96.1002 265.5,99.5C 266.736,100.246 268.07,100.579 269.5,100.5C 271.722,100.822 273.556,100.155 275,98.5C 280.689,87.7724 286.856,77.4391 293.5,67.5 Z"/></g>
<g><path style="opacity:1" fill="#a1bad1" d="M 191.5,72.5 C 192.633,74.0552 193.299,75.8886 193.5,78C 191.885,85.4845 192.219,92.8178 194.5,100C 193.374,103.744 193.207,107.577 194,111.5C 194.125,108.711 194.958,107.045 196.5,106.5C 197.139,107.097 197.472,107.93 197.5,109C 196.934,114.394 196.267,119.728 195.5,125C 197.028,126.648 197.695,128.648 197.5,131C 196.89,136.17 196.89,141.17 197.5,146C 196.773,147.399 196.273,148.899 196,150.5C 195.833,155.333 195.667,160.167 195.5,165C 196.387,175.046 196.721,185.046 196.5,195C 195.833,198.333 195.167,201.667 194.5,205C 194.999,209.311 195.666,214.145 196.5,219.5C 197.833,219.5 199.167,219.5 200.5,219.5C 200.5,220.5 200.5,221.5 200.5,222.5C 202.124,222.64 203.29,221.973 204,220.5C 204.44,222.076 205.273,223.41 206.5,224.5C 204.257,225.474 201.924,225.808 199.5,225.5C 195.847,224.011 193.347,221.344 192,217.5C 191.5,169.168 191.333,120.834 191.5,72.5 Z"/></g>
<g><path style="opacity:1" fill="#415b7c" d="M 191.5,59.5 C 194.5,59.5 197.5,59.5 200.5,59.5C 195.52,62.4775 192.52,66.8108 191.5,72.5C 191.333,120.834 191.5,169.168 192,217.5C 193.347,221.344 195.847,224.011 199.5,225.5C 199.5,225.833 199.5,226.167 199.5,226.5C 197.167,226.5 194.833,226.5 192.5,226.5C 186.989,225.152 183.156,221.819 181,216.5C 180.333,167.167 180.333,117.833 181,68.5C 182.363,66.3162 183.863,64.3162 185.5,62.5C 187.216,60.9752 189.216,59.9752 191.5,59.5 Z"/></g>
<g><path style="opacity:1" fill="#e4d7cd" d="M 245.5,66.5 C 247.008,68.1815 248.008,70.1815 248.5,72.5C 247.732,73.2625 247.232,74.2625 247,75.5C 233.739,73.7356 219.905,73.069 205.5,73.5C 205.5,97.8333 205.5,122.167 205.5,146.5C 216.588,146.83 227.588,146.163 238.5,144.5C 237.933,146.698 237.933,149.031 238.5,151.5C 231.564,152.742 224.564,153.408 217.5,153.5C 217.167,173.844 217.5,194.178 218.5,214.5C 219.167,194.833 219.833,175.167 220.5,155.5C 227.108,154.538 233.774,154.205 240.5,154.5C 241.167,156.167 241.833,157.833 242.5,159.5C 236.898,160.65 231.231,161.316 225.5,161.5C 225.5,178.5 225.5,195.5 225.5,212.5C 243.477,210.502 261.477,208.835 279.5,207.5C 283.678,208.571 288.011,208.571 292.5,207.5C 292.343,206.127 292.51,204.793 293,203.5C 293.417,204.756 294.25,205.423 295.5,205.5C 292.761,209.009 289.094,210.343 284.5,209.5C 259.166,212.379 233.833,215.379 208.5,218.5C 205.546,218.709 202.879,218.042 200.5,216.5C 199.5,168.171 199.167,119.838 199.5,71.5C 200.483,69.7088 201.816,68.2088 203.5,67C 217.496,66.5001 231.496,66.3334 245.5,66.5 Z"/></g>
<g><path style="opacity:1" fill="#7d9bb7" d="M 296.5,61.5 C 299.559,63.3974 301.726,66.0641 303,69.5C 303.5,113.832 303.667,158.165 303.5,202.5C 302.213,206.957 299.88,210.79 296.5,214C 294.975,215.009 293.308,215.509 291.5,215.5C 286.661,216.323 284.327,214.323 284.5,209.5C 289.094,210.343 292.761,209.009 295.5,205.5C 296.823,183.049 297.49,160.382 297.5,137.5C 297.333,115.167 297.167,92.8333 297,70.5C 295.961,69.2899 294.794,68.2899 293.5,67.5C 293.992,65.1815 294.992,63.1815 296.5,61.5 Z"/></g>
<g><path style="opacity:1" fill="#ec9d8d" d="M 78.5,50.5 C 78.6107,51.1174 78.944,51.6174 79.5,52C 77.473,54.027 75.473,56.027 73.5,58C 74.4996,60.0907 73.8329,61.7574 71.5,63C 72.6405,63.7412 72.6405,64.5745 71.5,65.5C 72.0253,66.1924 72.6919,66.6924 73.5,67C 72.9415,67.7247 72.6082,68.5581 72.5,69.5C 73.8469,73.0579 74.8469,76.7246 75.5,80.5C 78.2904,82.3328 77.9571,83.3328 74.5,83.5C 74.1044,86.4822 74.7711,89.1489 76.5,91.5C 77.324,89.2524 78.324,89.0858 79.5,91C 78.8333,92.6667 78.1667,94.3333 77.5,96C 77.8333,96.3333 78.1667,96.6667 78.5,97C 77.4479,98.1192 76.2812,98.6192 75,98.5C 74.5026,101.146 74.3359,103.813 74.5,106.5C 73.1779,106.33 72.0113,106.663 71,107.5C 70.5779,109.355 70.0779,111.189 69.5,113C 71.2062,116.041 73.3729,116.207 76,113.5C 77.0086,115.025 77.5086,116.692 77.5,118.5C 72.7092,128.374 74.0425,137.374 81.5,145.5C 80.8333,146.5 80.1667,147.5 79.5,148.5C 77.834,147.334 76.1673,147.334 74.5,148.5C 69.7795,159.904 65.4462,171.404 61.5,183C 61.5852,184.107 61.9186,185.107 62.5,186C 69.3718,188.61 76.0384,191.443 82.5,194.5C 80.436,196.309 77.936,197.309 75,197.5C 69.0966,196.09 63.2632,196.257 57.5,198C 56.7069,199.085 56.0402,200.252 55.5,201.5C 60.2652,202.197 64.5985,203.864 68.5,206.5C 71.2956,209.797 74.2956,212.964 77.5,216C 80.8678,216.543 84.2011,216.376 87.5,215.5C 88.0461,221.477 86.7128,226.81 83.5,231.5C 76.443,231.24 69.443,231.573 62.5,232.5C 62.6107,231.883 62.944,231.383 63.5,231C 50.9716,210.189 43.6383,187.689 41.5,163.5C 41.3335,154.161 41.5002,144.827 42,135.5C 42.5112,133.122 43.1779,130.788 44,128.5C 44.3333,128.833 44.6667,129.167 45,129.5C 49.2682,120.11 51.2682,110.11 51,99.5C 52.9388,94.2546 55.2721,89.2546 58,84.5C 61.3003,71.0338 68.1337,59.7004 78.5,50.5 Z"/></g>
<g><path style="opacity:1" fill="#f8eee4" d="M 88.5,-0.5 C 97.5,-0.5 106.5,-0.5 115.5,-0.5C 124.701,3.95357 132.701,10.1202 139.5,18C 148.343,18.1704 157.01,18.6704 165.5,19.5C 148.497,19.3334 131.497,19.5001 114.5,20C 96.1986,24.9626 81.0319,34.796 69,49.5C 44.7159,83.8524 35.5493,121.852 41.5,163.5C 43.6383,187.689 50.9716,210.189 63.5,231C 62.944,231.383 62.6107,231.883 62.5,232.5C 60.5393,233.46 58.8726,234.793 57.5,236.5C 55.4841,235.294 53.4841,235.294 51.5,236.5C 50.2494,242.756 49.5827,249.09 49.5,255.5C 50.675,255.719 51.675,255.386 52.5,254.5C 53.9231,251.299 54.9231,247.966 55.5,244.5C 56.6939,243.33 57.3605,243.663 57.5,245.5C 58.1522,246.725 59.3189,247.392 61,247.5C 62.3847,247.486 63.5514,247.152 64.5,246.5C 66.1667,246.5 67.8333,246.5 69.5,246.5C 71.8333,246.5 74.1667,246.5 76.5,246.5C 78.8926,250.402 81.8926,253.902 85.5,257C 100.49,269.657 117.823,275.824 137.5,275.5C 138.483,279.298 138.817,283.298 138.5,287.5C 142.234,287.677 145.901,287.344 149.5,286.5C 150.497,286.47 151.164,286.97 151.5,288C 152.062,291.654 152.729,295.154 153.5,298.5C 158.073,298.88 162.073,297.547 165.5,294.5C 166.429,293.311 166.762,291.978 166.5,290.5C 163.812,290.166 161.479,290.832 159.5,292.5C 157.676,289.91 156.343,286.91 155.5,283.5C 157.28,282.01 157.946,280.01 157.5,277.5C 176.835,275.89 196.502,274.723 216.5,274C 238.281,267.226 255.114,254.059 267,234.5C 269.721,230.392 271.887,226.059 273.5,221.5C 274.401,220.71 275.068,219.71 275.5,218.5C 280.791,217.238 286.125,216.238 291.5,215.5C 293.308,215.509 294.975,215.009 296.5,214C 299.88,210.79 302.213,206.957 303.5,202.5C 304.167,159.998 304.833,117.331 305.5,74.5C 306.544,77.8002 307.877,80.9669 309.5,84C 309.043,84.414 308.709,84.914 308.5,85.5C 309.897,87.9818 310.731,90.6484 311,93.5C 311.937,109.308 313.937,124.975 317,140.5C 318.515,158.473 318.848,176.473 318,194.5C 316.941,197.618 315.608,200.618 314,203.5C 312.929,212.298 311.262,220.965 309,229.5C 306.724,231.718 305.224,234.385 304.5,237.5C 302.183,241.146 299.516,244.48 296.5,247.5C 294.253,252.749 290.587,256.749 285.5,259.5C 284.755,261.747 283.422,263.58 281.5,265C 275.898,268.268 270.564,271.934 265.5,276C 263.833,276.333 262.167,276.667 260.5,277C 257.465,280.017 253.799,281.683 249.5,282C 244.377,285.044 239.044,287.711 233.5,290C 230.571,290.777 227.737,290.61 225,289.5C 224.535,290.931 223.701,292.097 222.5,293C 217.394,295.468 212.061,297.134 206.5,298C 176.829,302.288 147.495,300.954 118.5,294C 110.586,290.791 102.586,287.791 94.5,285C 81.8079,278.329 69.1412,271.662 56.5,265C 50.3091,259.309 44.6424,253.143 39.5,246.5C 38.6072,243.916 38.2739,241.249 38.5,238.5C 37.5,238.5 36.5,238.5 35.5,238.5C 34.9645,234.181 34.4645,229.848 34,225.5C 31.5964,223.693 29.9297,221.359 29,218.5C 28.6667,200.5 28.3333,182.5 28,164.5C 25.4174,144.009 22.9174,123.509 20.5,103C 21.0296,80.5883 27.1963,60.0883 39,41.5C 41.7611,40.5008 43.0944,38.5008 43,35.5C 52.3441,26.9884 61.5108,18.3217 70.5,9.5C 76.5569,6.14122 82.5569,2.80789 88.5,-0.5 Z"/></g>
<g><path style="opacity:1" fill="#97a9bc" d="M 136.5,195.5 C 137.49,198.151 138.49,200.817 139.5,203.5C 139.154,204.849 138.821,206.183 138.5,207.5C 135.5,208.167 132.5,208.833 129.5,209.5C 128.761,209.631 128.094,209.464 127.5,209C 129.624,207.878 131.457,206.378 133,204.5C 133.505,201.135 134.672,198.135 136.5,195.5 Z"/></g>
<g><path style="opacity:1" fill="#859eb9" d="M 99.5,186.5 C 101.067,189.967 102.901,193.3 105,196.5C 106.792,198.628 108.958,199.961 111.5,200.5C 107.375,200.723 106.709,202.223 109.5,205C 111.134,205.494 112.801,205.66 114.5,205.5C 115.37,207.274 116.703,208.607 118.5,209.5C 117.833,209.5 117.167,209.5 116.5,209.5C 105.696,206.104 96.0293,208.104 87.5,215.5C 84.2011,216.376 80.8678,216.543 77.5,216C 74.2956,212.964 71.2956,209.797 68.5,206.5C 68.9169,205.876 69.5836,205.543 70.5,205.5C 71.9495,206.28 73.4495,206.946 75,207.5C 77.3804,206.799 79.5471,205.633 81.5,204C 86.7172,204.25 91.3838,202.917 95.5,200C 94.944,199.617 94.6107,199.117 94.5,198.5C 91.0863,193.67 88.753,188.336 87.5,182.5C 86.9312,177.223 87.7645,172.223 90,167.5C 90.414,167.043 90.914,166.709 91.5,166.5C 93.0323,169.75 94.8656,170.084 97,167.5C 96.8689,174.246 97.7023,180.579 99.5,186.5 Z"/></g>
<g><path style="opacity:1" fill="#8a6c5a" d="M 111.5,200.5 C 114.475,200.713 117.142,201.713 119.5,203.5C 118.15,204.95 116.484,205.617 114.5,205.5C 112.801,205.66 111.134,205.494 109.5,205C 106.709,202.223 107.375,200.723 111.5,200.5 Z"/></g>
<g><path style="opacity:1" fill="#758fac" d="M 82.5,194.5 C 86.5,195.833 90.5,197.167 94.5,198.5C 94.6107,199.117 94.944,199.617 95.5,200C 91.3838,202.917 86.7172,204.25 81.5,204C 79.5471,205.633 77.3804,206.799 75,207.5C 73.4495,206.946 71.9495,206.28 70.5,205.5C 69.5836,205.543 68.9169,205.876 68.5,206.5C 64.5985,203.864 60.2652,202.197 55.5,201.5C 56.0402,200.252 56.7069,199.085 57.5,198C 63.2632,196.257 69.0966,196.09 75,197.5C 77.936,197.309 80.436,196.309 82.5,194.5 Z"/></g>
<g><path style="opacity:1" fill="#8a6953" d="M 165.5,189.5 C 168.941,189.301 172.274,189.801 175.5,191C 176.833,192.667 176.833,194.333 175.5,196C 171.598,196.888 167.931,196.388 164.5,194.5C 164.216,192.585 164.549,190.919 165.5,189.5 Z"/></g>
<g><path style="opacity:1" fill="#8b8488" d="M 109.5,160.5 C 113.646,159.353 117.98,159.186 122.5,160C 130.155,163.272 137.822,166.438 145.5,169.5C 145.5,169.833 145.5,170.167 145.5,170.5C 143.833,175.833 142.167,181.167 140.5,186.5C 138.796,189.256 137.463,192.256 136.5,195.5C 134.672,198.135 133.505,201.135 133,204.5C 131.457,206.378 129.624,207.878 127.5,209C 128.094,209.464 128.761,209.631 129.5,209.5C 126.375,210.479 123.042,210.813 119.5,210.5C 118.209,210.737 117.209,210.404 116.5,209.5C 117.167,209.5 117.833,209.5 118.5,209.5C 120.467,209.739 122.301,209.406 124,208.5C 128.503,196.828 133.003,185.162 137.5,173.5C 136.811,171.647 135.478,170.481 133.5,170C 125.362,167.095 117.362,163.928 109.5,160.5 Z"/></g>
<g><path style="opacity:1" fill="#7e9bb4" d="M 145.5,170.5 C 147.167,174.653 149.5,178.486 152.5,182C 156.996,184.57 161.33,187.07 165.5,189.5C 164.549,190.919 164.216,192.585 164.5,194.5C 155.101,196.034 147.101,193.367 140.5,186.5C 142.167,181.167 143.833,175.833 145.5,170.5 Z"/></g>
<g><path style="opacity:1" fill="#f1e8e0" d="M 279.5,207.5 C 261.477,208.835 243.477,210.502 225.5,212.5C 225.5,195.5 225.5,178.5 225.5,161.5C 231.231,161.316 236.898,160.65 242.5,159.5C 258.83,158.125 275.163,156.792 291.5,155.5C 291.687,171.189 291.187,186.856 290,202.5C 289.535,203.931 288.701,205.097 287.5,206C 284.832,206.567 282.166,207.067 279.5,207.5 Z"/></g>
<g><path style="opacity:1" fill="#fbfbfb" d="M 109.5,160.5 C 117.362,163.928 125.362,167.095 133.5,170C 135.478,170.481 136.811,171.647 137.5,173.5C 133.003,185.162 128.503,196.828 124,208.5C 122.301,209.406 120.467,209.739 118.5,209.5C 116.703,208.607 115.37,207.274 114.5,205.5C 116.484,205.617 118.15,204.95 119.5,203.5C 117.142,201.713 114.475,200.713 111.5,200.5C 108.958,199.961 106.792,198.628 105,196.5C 102.901,193.3 101.067,189.967 99.5,186.5C 96.9312,177.373 98.5979,169.207 104.5,162C 106.025,160.991 107.692,160.491 109.5,160.5 Z"/></g>
<g><path style="opacity:1" fill="#666162" d="M 81.5,145.5 C 85.4643,148.647 89.7977,150.98 94.5,152.5C 93.1667,152.5 91.8333,152.5 90.5,152.5C 86.8333,151.167 83.1667,149.833 79.5,148.5C 80.1667,147.5 80.8333,146.5 81.5,145.5 Z"/></g>
<g><path style="opacity:1" fill="#fbfbfa" d="M 79.5,148.5 C 83.1667,149.833 86.8333,151.167 90.5,152.5C 90.9234,153.265 91.2568,154.098 91.5,155C 86.6792,163.801 85.3459,172.968 87.5,182.5C 88.753,188.336 91.0863,193.67 94.5,198.5C 90.5,197.167 86.5,195.833 82.5,194.5C 76.0384,191.443 69.3718,188.61 62.5,186C 61.9186,185.107 61.5852,184.107 61.5,183C 65.4462,171.404 69.7795,159.904 74.5,148.5C 76.1673,147.334 77.834,147.334 79.5,148.5 Z"/></g>
<g><path style="opacity:1" fill="#93acc3" d="M 127.5,137.5 C 130.693,138.397 133.859,139.397 137,140.5C 138.376,140.316 139.209,139.649 139.5,138.5C 144.992,148.005 146.992,158.338 145.5,169.5C 137.822,166.438 130.155,163.272 122.5,160C 117.98,159.186 113.646,159.353 109.5,160.5C 107.692,160.491 106.025,160.991 104.5,162C 98.5979,169.207 96.9312,177.373 99.5,186.5C 97.7023,180.579 96.8689,174.246 97,167.5C 94.8656,170.084 93.0323,169.75 91.5,166.5C 90.914,166.709 90.414,167.043 90,167.5C 87.7645,172.223 86.9312,177.223 87.5,182.5C 85.3459,172.968 86.6792,163.801 91.5,155C 91.2568,154.098 90.9234,153.265 90.5,152.5C 91.8333,152.5 93.1667,152.5 94.5,152.5C 104.681,152.884 113.681,149.884 121.5,143.5C 123.833,141.833 125.833,139.833 127.5,137.5 Z"/></g>
<g><path style="opacity:1" fill="#f9f4ee" d="M 240.5,154.5 C 233.774,154.205 227.108,154.538 220.5,155.5C 219.833,175.167 219.167,194.833 218.5,214.5C 217.5,194.178 217.167,173.844 217.5,153.5C 224.564,153.408 231.564,152.742 238.5,151.5C 249.141,150.476 259.808,149.81 270.5,149.5C 270.167,135.151 270.501,120.818 271.5,106.5C 272.499,121.152 272.833,135.818 272.5,150.5C 261.608,151.182 250.941,152.516 240.5,154.5 Z"/></g>
<g><path style="opacity:1" fill="#8e6b53" d="M 147.5,115.5 C 146.906,120.448 145.406,125.114 143,129.5C 140.701,131.536 138.201,131.869 135.5,130.5C 135.167,131 134.833,131.5 134.5,132C 136.016,134.341 137.683,136.508 139.5,138.5C 139.209,139.649 138.376,140.316 137,140.5C 133.859,139.397 130.693,138.397 127.5,137.5C 130.253,134.562 131.919,131.062 132.5,127C 131.201,124.589 130.368,122.089 130,119.5C 131,118.167 132,118.167 133,119.5C 133.956,118.421 134.789,117.255 135.5,116C 139.486,115.501 143.486,115.334 147.5,115.5 Z"/></g>
<g><path style="opacity:1" fill="#201b1d" d="M 121.5,143.5 C 113.681,149.884 104.681,152.884 94.5,152.5C 89.7977,150.98 85.4643,148.647 81.5,145.5C 74.0425,137.374 72.7092,128.374 77.5,118.5C 79.2459,116.748 81.2459,115.415 83.5,114.5C 87.9176,113.102 88.5842,114.269 85.5,118C 86.8081,120.355 87.8081,122.855 88.5,125.5C 89.7193,126.263 90.7193,127.263 91.5,128.5C 93.0157,132.766 94.349,136.766 95.5,140.5C 97.5728,141.469 99.7395,142.135 102,142.5C 105.357,142.286 108.857,142.12 112.5,142C 114.578,139.866 116.412,140.032 118,142.5C 120.244,138.277 121.41,138.611 121.5,143.5 Z"/></g>
<g><path style="opacity:1" fill="#31292e" d="M 147.5,115.5 C 143.486,115.334 139.486,115.501 135.5,116C 134.789,117.255 133.956,118.421 133,119.5C 132,118.167 131,118.167 130,119.5C 130.368,122.089 131.201,124.589 132.5,127C 131.919,131.062 130.253,134.562 127.5,137.5C 125.833,139.833 123.833,141.833 121.5,143.5C 121.41,138.611 120.244,138.277 118,142.5C 116.412,140.032 114.578,139.866 112.5,142C 108.857,142.12 105.357,142.286 102,142.5C 99.7395,142.135 97.5728,141.469 95.5,140.5C 94.349,136.766 93.0157,132.766 91.5,128.5C 90.7193,127.263 89.7193,126.263 88.5,125.5C 87.8081,122.855 86.8081,120.355 85.5,118C 88.5842,114.269 87.9176,113.102 83.5,114.5C 85.6572,112.588 87.9906,110.921 90.5,109.5C 96.8338,110.068 103.167,110.234 109.5,110C 111.324,109.34 112.657,108.173 113.5,106.5C 116.01,106.946 118.01,106.28 119.5,104.5C 124.728,102.219 130.228,100.886 136,100.5C 146.75,100.707 150.583,105.707 147.5,115.5 Z"/></g>
<g><path style="opacity:1" fill="#a77067" d="M 113.5,106.5 C 112.657,108.173 111.324,109.34 109.5,110C 103.167,110.234 96.8338,110.068 90.5,109.5C 91.1342,108.053 92.3009,107.387 94,107.5C 99.6538,108.736 105.154,108.736 110.5,107.5C 111.209,106.596 112.209,106.263 113.5,106.5 Z"/></g>
<g><path style="opacity:1" fill="#342a2f" d="M 116.5,209.5 C 117.209,210.404 118.209,210.737 119.5,210.5C 117.998,212.175 116.665,214.008 115.5,216C 117.426,216.422 118.426,217.589 118.5,219.5C 117.162,217.887 115.495,217.387 113.5,218C 108.295,224.908 103.462,232.074 99,239.5C 97.0737,241.539 94.907,243.206 92.5,244.5C 91.2825,243.839 89.9492,243.172 88.5,242.5C 89.1062,240.291 89.7728,238.124 90.5,236C 89.2062,233.913 88.0395,231.746 87,229.5C 86.1667,230.5 85.3333,231.5 84.5,232.5C 83.8933,232.376 83.56,232.043 83.5,231.5C 86.7128,226.81 88.0461,221.477 87.5,215.5C 96.0293,208.104 105.696,206.104 116.5,209.5 Z"/></g>
<g><path style="opacity:1" fill="#e79181" d="M 118.5,219.5 C 126.018,231.882 131.351,245.215 134.5,259.5C 134.5,262.167 134.5,264.833 134.5,267.5C 126.35,267.759 118.35,266.925 110.5,265C 105.458,261.479 100.125,258.479 94.5,256C 92.6641,252.744 89.9974,250.411 86.5,249C 87.1667,248.333 87.8333,247.667 88.5,247C 84.5138,246.501 80.5138,246.334 76.5,246.5C 74.1667,246.5 71.8333,246.5 69.5,246.5C 77.0356,245.771 84.7022,245.105 92.5,244.5C 94.907,243.206 97.0737,241.539 99,239.5C 103.462,232.074 108.295,224.908 113.5,218C 115.495,217.387 117.162,217.887 118.5,219.5 Z"/></g>
<g><path style="opacity:1" fill="#aabacb" d="M 199.5,71.5 C 199.167,119.838 199.5,168.171 200.5,216.5C 202.879,218.042 205.546,218.709 208.5,218.5C 233.833,215.379 259.166,212.379 284.5,209.5C 284.327,214.323 286.661,216.323 291.5,215.5C 286.125,216.238 280.791,217.238 275.5,218.5C 262.501,218.692 249.834,220.358 237.5,223.5C 233.298,223.183 229.298,223.517 225.5,224.5C 216.895,225.82 208.228,226.486 199.5,226.5C 199.5,226.167 199.5,225.833 199.5,225.5C 201.924,225.808 204.257,225.474 206.5,224.5C 205.273,223.41 204.44,222.076 204,220.5C 203.29,221.973 202.124,222.64 200.5,222.5C 200.5,221.5 200.5,220.5 200.5,219.5C 199.167,219.5 197.833,219.5 196.5,219.5C 195.666,214.145 194.999,209.311 194.5,205C 195.167,201.667 195.833,198.333 196.5,195C 196.721,185.046 196.387,175.046 195.5,165C 195.667,160.167 195.833,155.333 196,150.5C 196.273,148.899 196.773,147.399 197.5,146C 196.89,141.17 196.89,136.17 197.5,131C 197.695,128.648 197.028,126.648 195.5,125C 196.267,119.728 196.934,114.394 197.5,109C 197.472,107.93 197.139,107.097 196.5,106.5C 196.05,96.4628 195.717,86.4628 195.5,76.5C 195.381,73.6231 196.714,71.9564 199.5,71.5 Z"/></g>
<g><path style="opacity:1" fill="#d68d88" d="M 275.5,218.5 C 275.068,219.71 274.401,220.71 273.5,221.5C 273.5,220.167 272.833,219.5 271.5,219.5C 265.523,220.755 258.856,221.922 251.5,223C 246.845,223.499 242.179,223.666 237.5,223.5C 249.834,220.358 262.501,218.692 275.5,218.5 Z"/></g>
<g><path style="opacity:1" fill="#e58273" d="M 271.5,219.5 C 257.914,248.912 235.247,267.079 203.5,274C 188.17,274.5 172.837,274.667 157.5,274.5C 157.185,272.774 157.019,271.107 157,269.5C 175.447,260.053 189.614,246.22 199.5,228C 204.5,227.667 209.5,227.333 214.5,227C 218.43,226.758 222.097,225.925 225.5,224.5C 229.298,223.517 233.298,223.183 237.5,223.5C 242.179,223.666 246.845,223.499 251.5,223C 258.856,221.922 265.523,220.755 271.5,219.5 Z"/></g>
<g><path style="opacity:1" fill="#2b2426" d="M 92.5,244.5 C 84.7022,245.105 77.0356,245.771 69.5,246.5C 67.8333,246.5 66.1667,246.5 64.5,246.5C 62.0504,246.702 59.717,246.369 57.5,245.5C 57.3605,243.663 56.6939,243.33 55.5,244.5C 54.9231,247.966 53.9231,251.299 52.5,254.5C 51.675,255.386 50.675,255.719 49.5,255.5C 49.5827,249.09 50.2494,242.756 51.5,236.5C 53.4841,235.294 55.4841,235.294 57.5,236.5C 58.8726,234.793 60.5393,233.46 62.5,232.5C 69.443,231.573 76.443,231.24 83.5,231.5C 83.56,232.043 83.8933,232.376 84.5,232.5C 85.3333,231.5 86.1667,230.5 87,229.5C 88.0395,231.746 89.2062,233.913 90.5,236C 89.7728,238.124 89.1062,240.291 88.5,242.5C 89.9492,243.172 91.2825,243.839 92.5,244.5 Z"/></g>
<g><path style="opacity:1" fill="#6c6761" d="M 57.5,245.5 C 59.717,246.369 62.0504,246.702 64.5,246.5C 63.5514,247.152 62.3847,247.486 61,247.5C 59.3189,247.392 58.1522,246.725 57.5,245.5 Z"/></g>
<g><path style="opacity:1" fill="#2a2426" d="M 138.5,207.5 C 141.372,219.324 144.705,230.991 148.5,242.5C 151.386,254.286 154.386,265.953 157.5,277.5C 157.946,280.01 157.28,282.01 155.5,283.5C 153.426,284.514 151.426,285.514 149.5,286.5C 145.901,287.344 142.234,287.677 138.5,287.5C 138.817,283.298 138.483,279.298 137.5,275.5C 137.101,269.933 136.101,264.599 134.5,259.5C 131.351,245.215 126.018,231.882 118.5,219.5C 118.426,217.589 117.426,216.422 115.5,216C 116.665,214.008 117.998,212.175 119.5,210.5C 123.042,210.813 126.375,210.479 129.5,209.5C 132.5,208.833 135.5,208.167 138.5,207.5 Z"/></g>
<g><path style="opacity:1" fill="#f2a190" d="M 271.5,219.5 C 272.833,219.5 273.5,220.167 273.5,221.5C 271.887,226.059 269.721,230.392 267,234.5C 255.114,254.059 238.281,267.226 216.5,274C 196.502,274.723 176.835,275.89 157.5,277.5C 154.386,265.953 151.386,254.286 148.5,242.5C 152.631,246.13 156.631,249.963 160.5,254C 162.212,255.751 164.212,256.418 166.5,256C 177.12,247.881 185.786,238.047 192.5,226.5C 194.833,226.5 197.167,226.5 199.5,226.5C 208.228,226.486 216.895,225.82 225.5,224.5C 222.097,225.925 218.43,226.758 214.5,227C 209.5,227.333 204.5,227.667 199.5,228C 189.614,246.22 175.447,260.053 157,269.5C 157.019,271.107 157.185,272.774 157.5,274.5C 172.837,274.667 188.17,274.5 203.5,274C 235.247,267.079 257.914,248.912 271.5,219.5 Z"/></g>
<g><path style="opacity:1" fill="#f1a390" d="M 76.5,246.5 C 80.5138,246.334 84.5138,246.501 88.5,247C 87.8333,247.667 87.1667,248.333 86.5,249C 89.9974,250.411 92.6641,252.744 94.5,256C 100.125,258.479 105.458,261.479 110.5,265C 118.35,266.925 126.35,267.759 134.5,267.5C 134.5,264.833 134.5,262.167 134.5,259.5C 136.101,264.599 137.101,269.933 137.5,275.5C 117.823,275.824 100.49,269.657 85.5,257C 81.8926,253.902 78.8926,250.402 76.5,246.5 Z"/></g>
<g><path style="opacity:1" fill="#836554" d="M 155.5,283.5 C 156.343,286.91 157.676,289.91 159.5,292.5C 157.424,294.515 155.424,296.515 153.5,298.5C 152.729,295.154 152.062,291.654 151.5,288C 151.164,286.97 150.497,286.47 149.5,286.5C 151.426,285.514 153.426,284.514 155.5,283.5 Z"/></g>
<g><path style="opacity:1" fill="#322a28" d="M 153.5,298.5 C 155.424,296.515 157.424,294.515 159.5,292.5C 161.479,290.832 163.812,290.166 166.5,290.5C 166.762,291.978 166.429,293.311 165.5,294.5C 162.073,297.547 158.073,298.88 153.5,298.5 Z"/></g>
</svg>
