<?xml version="1.0" encoding="UTF-8"?>
<!DOCTYPE svg PUBLIC "-//W3C//DTD SVG 1.1//EN" "http://www.w3.org/Graphics/SVG/1.1/DTD/svg11.dtd">
<svg xmlns="http://www.w3.org/2000/svg" version="1.1" width="366px" height="366px" style="shape-rendering:geometricPrecision; text-rendering:geometricPrecision; image-rendering:optimizeQuality; fill-rule:evenodd; clip-rule:evenodd" xmlns:xlink="http://www.w3.org/1999/xlink">
<g><path style="opacity:1" fill="#fefefe" d="M -0.5,-0.5 C 121.5,-0.5 243.5,-0.5 365.5,-0.5C 365.5,121.5 365.5,243.5 365.5,365.5C 243.5,365.5 121.5,365.5 -0.5,365.5C -0.5,243.5 -0.5,121.5 -0.5,-0.5 Z"/></g>
<g><path style="opacity:1" fill="#dfdfdf" d="M 294.5,29.5 C 296.5,29.5 298.5,29.5 300.5,29.5C 300.334,38.1731 300.5,46.8397 301,55.5C 303.333,53.1667 305.667,50.8333 308,48.5C 310.43,54.2215 311.93,60.2215 312.5,66.5C 316.185,65.9963 319.851,65.3296 323.5,64.5C 324.5,64.8333 325.5,65.1667 326.5,65.5C 325.639,67.9106 324.306,69.9106 322.5,71.5C 323.35,69.5056 323.85,67.5056 324,65.5C 319.909,66.7308 315.743,67.7308 311.5,68.5C 310.656,62.4487 309.49,56.4487 308,50.5C 304,54.5 300,58.5 296,62.5C 294.745,61.7894 293.579,60.956 292.5,60C 294.46,50.0931 295.127,39.9264 294.5,29.5 Z"/></g>
<g><path style="opacity:1" fill="#fd735c" d="M 152.5,190.5 C 146.602,196.631 143.102,203.964 142,212.5C 141.209,225.563 141.709,238.563 143.5,251.5C 145.216,251.371 146.883,251.038 148.5,250.5C 151.867,256.853 155.2,263.186 158.5,269.5C 156.931,274.891 153.264,278.058 147.5,279C 117.5,279.667 87.5,279.667 57.5,279C 52.3065,277.807 49.1398,274.64 48,269.5C 47.3333,196.5 47.3333,123.5 48,50.5C 49.6141,47.7634 51.7808,45.5967 54.5,44C 64.1667,43.3333 73.8333,43.3333 83.5,44C 84.0434,47.4732 85.0434,50.8065 86.5,54C 98.5,54.6667 110.5,54.6667 122.5,54C 123.333,53.1667 124.167,52.3333 125,51.5C 125.226,48.905 125.726,46.405 126.5,44C 134.167,43.3333 141.833,43.3333 149.5,44C 153.499,44.6678 156.332,46.8345 158,50.5C 158.667,84.8333 158.667,119.167 158,153.5C 155.747,165.774 153.913,178.107 152.5,190.5 Z"/></g>
<g><path style="opacity:1" fill="#f8f7f7" d="M 294.5,29.5 C 295.127,39.9264 294.46,50.0931 292.5,60C 293.579,60.956 294.745,61.7894 296,62.5C 300,58.5 304,54.5 308,50.5C 309.49,56.4487 310.656,62.4487 311.5,68.5C 315.743,67.7308 319.909,66.7308 324,65.5C 323.85,67.5056 323.35,69.5056 322.5,71.5C 322.205,73.4233 321.372,75.0899 320,76.5C 319.333,77.8333 319.333,79.1667 320,80.5C 324.745,84.1224 329.578,87.6224 334.5,91C 333.051,92.117 331.384,92.7837 329.5,93C 324.829,93.5375 320.162,94.0375 315.5,94.5C 314.913,100.363 313.58,106.03 311.5,111.5C 309.62,111.771 308.287,111.104 307.5,109.5C 303.742,106.443 299.742,103.61 295.5,101C 294.563,100.308 293.897,100.475 293.5,101.5C 291.856,103.481 290.19,105.481 288.5,107.5C 289.815,109.316 291.315,110.983 293,112.5C 293.281,114.905 292.615,114.905 291,112.5C 289.713,115.145 287.547,116.145 284.5,115.5C 284.5,114.5 284.5,113.5 284.5,112.5C 283.167,112.5 281.833,112.5 280.5,112.5C 280.084,107.507 279.751,102.507 279.5,97.5C 274.637,97.8195 269.97,97.4861 265.5,96.5C 268.783,92.8792 272.116,89.2125 275.5,85.5C 271.349,80.8482 267.015,76.3482 262.5,72C 268.172,71.1965 273.839,70.3632 279.5,69.5C 280.788,66.0334 280.788,62.7001 279.5,59.5C 280.571,53.92 281.904,48.42 283.5,43C 283.167,42.6667 282.833,42.3333 282.5,42C 263.17,41.5 243.836,41.3334 224.5,41.5C 224.5,54.8333 224.5,68.1667 224.5,81.5C 218.973,80.1241 213.64,78.4575 208.5,76.5C 209.833,76.5 211.167,76.5 212.5,76.5C 212.333,60.8298 212.5,45.1631 213,29.5C 215.64,32.1396 218.306,34.8063 221,37.5C 220.865,35.5753 220.698,33.5753 220.5,31.5C 223.5,31.5 226.5,31.5 229.5,31.5C 229.5,34.1667 229.5,36.8333 229.5,39.5C 243.146,40.6507 261.48,40.8174 284.5,40C 288.065,36.6045 291.398,33.1045 294.5,29.5 Z"/></g>
<g><path style="opacity:1" fill="#e7e7e7" d="M 279.5,59.5 C 280.788,62.7001 280.788,66.0334 279.5,69.5C 273.839,70.3632 268.172,71.1965 262.5,72C 267.015,76.3482 271.349,80.8482 275.5,85.5C 272.116,89.2125 268.783,92.8792 265.5,96.5C 264.761,96.631 264.094,96.4643 263.5,96C 267.016,92.6514 270.349,89.1514 273.5,85.5C 270.516,82.0154 267.349,78.682 264,75.5C 263.503,77.8098 263.337,80.1432 263.5,82.5C 256.833,82.5 250.167,82.5 243.5,82.5C 243.5,75.8333 243.5,69.1667 243.5,62.5C 250.167,62.5 256.833,62.5 263.5,62.5C 263.5,64.8333 263.5,67.1667 263.5,69.5C 268.054,69.7454 272.554,69.4121 277,68.5C 277.945,68.0946 278.612,67.428 279,66.5C 279.497,64.1902 279.663,61.8568 279.5,59.5 Z"/></g>
<g><path style="opacity:1" fill="#fc765e" d="M 287.5,66.5 C 289.467,66.2606 291.301,66.5939 293,67.5C 292.97,73.1484 292.803,78.8151 292.5,84.5C 291.167,84.5 289.833,84.5 288.5,84.5C 287.835,78.523 287.502,72.523 287.5,66.5 Z"/></g>
<g><path style="opacity:1" fill="#fb7b64" d="M 299.5,66.5 C 301.467,66.2606 303.301,66.5939 305,67.5C 305.095,73.157 304.928,78.8237 304.5,84.5C 303.167,84.5 301.833,84.5 300.5,84.5C 300.068,79.6422 299.401,74.8089 298.5,70C 298.648,68.7441 298.982,67.5774 299.5,66.5 Z"/></g>
<g><path style="opacity:1" fill="#b5babe" d="M 163.5,52.5 C 164.167,71.5 164.833,90.5 165.5,109.5C 165.108,111.179 164.608,112.846 164,114.5C 163.5,93.836 163.333,73.1694 163.5,52.5 Z"/></g>
<g><path style="opacity:1" fill="#233035" d="M 163.5,52.5 C 163.333,73.1694 163.5,93.836 164,114.5C 164.608,112.846 165.108,111.179 165.5,109.5C 170.369,86.2268 184.702,75.2268 208.5,76.5C 213.64,78.4575 218.973,80.1241 224.5,81.5C 224.5,81.8333 224.5,82.1667 224.5,82.5C 222.792,84.216 221.458,86.216 220.5,88.5C 218.217,87.6791 215.884,87.0124 213.5,86.5C 205.816,92.1946 201.482,99.8612 200.5,109.5C 198.712,114.177 196.712,118.844 194.5,123.5C 192.983,123.489 191.816,122.823 191,121.5C 188.898,118.064 186.231,115.397 183,113.5C 182.167,113.667 181.333,113.833 180.5,114C 174.905,119.051 169.405,124.218 164,129.5C 165.033,139.679 166.033,150.013 167,160.5C 166.763,152.844 166.763,145.177 167,137.5C 171.416,143.068 175.583,148.735 179.5,154.5C 178.909,162.323 178.909,170.323 179.5,178.5C 170.648,182.758 161.648,186.758 152.5,190.5C 153.913,178.107 155.747,165.774 158,153.5C 158.667,119.167 158.667,84.8333 158,50.5C 156.332,46.8345 153.499,44.6678 149.5,44C 141.833,43.3333 134.167,43.3333 126.5,44C 125.726,46.405 125.226,48.905 125,51.5C 124.167,52.3333 123.333,53.1667 122.5,54C 110.5,54.6667 98.5,54.6667 86.5,54C 85.0434,50.8065 84.0434,47.4732 83.5,44C 73.8333,43.3333 64.1667,43.3333 54.5,44C 51.7808,45.5967 49.6141,47.7634 48,50.5C 47.3333,123.5 47.3333,196.5 48,269.5C 49.1398,274.64 52.3065,277.807 57.5,279C 87.5,279.667 117.5,279.667 147.5,279C 153.264,278.058 156.931,274.891 158.5,269.5C 159.803,271.142 161.136,272.809 162.5,274.5C 159.149,280.164 154.149,283.498 147.5,284.5C 117.5,284.5 87.5,284.5 57.5,284.5C 49.3434,283.168 44.1768,278.501 42,270.5C 41.0094,196.11 41.3427,121.776 43,47.5C 45.552,43.2811 49.052,40.1145 53.5,38C 85.8333,37.3333 118.167,37.3333 150.5,38C 158.222,39.8842 162.555,44.7175 163.5,52.5 Z"/></g>
<g><path style="opacity:1" fill="#f08d7c" d="M 59.5,66.5 C 64.9368,67.5477 66.9368,70.8811 65.5,76.5C 63.0885,76.8633 61.5885,75.8633 61,73.5C 60.6667,74.1667 60.3333,74.8333 60,75.5C 60.0031,70.9138 61.1697,70.5804 63.5,74.5C 65.0419,70.5443 63.7085,68.711 59.5,69C 58.2986,69.9025 57.4652,71.0692 57,72.5C 56.3333,71.5 56.3333,70.5 57,69.5C 58.045,68.6266 58.8783,67.6266 59.5,66.5 Z"/></g>
<g><path style="opacity:1" fill="#fd7562" d="M 288.5,87.5 C 293.159,87.0146 294.492,88.848 292.5,93C 290.866,93.4935 289.199,93.6602 287.5,93.5C 287.325,91.3792 287.659,89.3792 288.5,87.5 Z"/></g>
<g><path style="opacity:1" fill="#f97d67" d="M 299.5,87.5 C 304.123,86.4082 305.956,88.0748 305,92.5C 299.42,94.7516 297.587,93.0849 299.5,87.5 Z"/></g>
<g><path style="opacity:1" fill="#fbf6f4" d="M 75.5,103.5 C 92.7791,101.613 100.612,109.28 99,126.5C 95.1065,139.82 86.2731,144.987 72.5,142C 70.8198,141.653 69.8198,140.653 69.5,139C 70.1117,136.942 71.1117,135.109 72.5,133.5C 77.2049,134.864 81.8716,134.697 86.5,133C 88.8793,130.975 89.7127,128.475 89,125.5C 84.36,127.438 79.5267,127.938 74.5,127C 68.333,123.155 66.1663,117.655 68,110.5C 70.0147,107.588 72.5147,105.255 75.5,103.5 Z"/></g>
<g><path style="opacity:1" fill="#dbdbdd" d="M 293.5,101.5 C 293.897,100.475 294.563,100.308 295.5,101C 299.742,103.61 303.742,106.443 307.5,109.5C 305.243,109.038 303.243,108.038 301.5,106.5C 300.516,109.428 300.183,112.428 300.5,115.5C 298.5,115.5 296.5,115.5 294.5,115.5C 294.819,110.637 294.486,105.97 293.5,101.5 Z"/></g>
<g><path style="opacity:1" fill="#fcfdfd" d="M 117.5,141.5 C 114.833,141.5 112.167,141.5 109.5,141.5C 109.828,130.986 109.494,120.653 108.5,110.5C 106.167,110.5 103.833,110.5 101.5,110.5C 101.5,108.167 101.5,105.833 101.5,103.5C 106.833,103.5 112.167,103.5 117.5,103.5C 117.5,116.167 117.5,128.833 117.5,141.5 Z"/></g>
<g><path style="opacity:1" fill="#fbfcfb" d="M 138.5,103.5 C 138.5,116.167 138.5,128.833 138.5,141.5C 135.833,141.5 133.167,141.5 130.5,141.5C 130.5,131.167 130.5,120.833 130.5,110.5C 127.833,110.5 125.167,110.5 122.5,110.5C 122.5,108.167 122.5,105.833 122.5,103.5C 127.833,103.5 133.167,103.5 138.5,103.5 Z"/></g>
<g><path style="opacity:1" fill="#fcc3b9" d="M 138.5,103.5 C 139.495,116.323 139.829,129.323 139.5,142.5C 136.287,142.81 133.287,142.477 130.5,141.5C 133.167,141.5 135.833,141.5 138.5,141.5C 138.5,128.833 138.5,116.167 138.5,103.5 Z"/></g>
<g><path style="opacity:1" fill="#fc765f" d="M 79.5,109.5 C 87.9371,109.087 90.2704,112.587 86.5,120C 76.226,121.574 73.8927,118.074 79.5,109.5 Z"/></g>
<g><path style="opacity:1" fill="#f3998e" d="M 122.5,110.5 C 125.167,110.5 127.833,110.5 130.5,110.5C 130.5,120.833 130.5,131.167 130.5,141.5C 129.506,131.681 129.173,121.681 129.5,111.5C 126.941,111.802 124.607,111.468 122.5,110.5 Z"/></g>
<g><path style="opacity:1" fill="#f3ccc4" d="M 108.5,110.5 C 109.494,120.653 109.828,130.986 109.5,141.5C 112.167,141.5 114.833,141.5 117.5,141.5C 114.713,142.477 111.713,142.81 108.5,142.5C 108.5,131.833 108.5,121.167 108.5,110.5 Z"/></g>
<g><path style="opacity:1" fill="#385963" d="M 194.5,123.5 C 194.389,124.117 194.056,124.617 193.5,125C 196.167,128.333 198.833,131.667 201.5,135C 196.865,137.753 194.365,141.92 194,147.5C 192.977,141.207 192.311,134.874 192,128.5C 189.667,124.5 187.333,124.5 185,128.5C 184.501,133.489 184.334,138.489 184.5,143.5C 183.833,148.5 183.167,153.5 182.5,158.5C 181.5,157.167 180.5,155.833 179.5,154.5C 175.583,148.735 171.416,143.068 167,137.5C 166.763,145.177 166.763,152.844 167,160.5C 166.033,150.013 165.033,139.679 164,129.5C 169.405,124.218 174.905,119.051 180.5,114C 181.333,113.833 182.167,113.667 183,113.5C 186.231,115.397 188.898,118.064 191,121.5C 191.816,122.823 192.983,123.489 194.5,123.5 Z"/></g>
<g><path style="opacity:1" fill="#fbbe9b" d="M 272.5,203.5 C 271.913,191.134 270.913,178.801 269.5,166.5C 276.81,164.338 284.143,162.171 291.5,160C 276.628,146.957 261.628,134.123 246.5,121.5C 244.772,119.774 242.772,118.441 240.5,117.5C 240.44,116.957 240.107,116.624 239.5,116.5C 238.502,124.472 238.169,132.472 238.5,140.5C 238.717,149.89 235.717,158.056 229.5,165C 226.52,167.324 223.187,168.824 219.5,169.5C 219.5,171.167 219.5,172.833 219.5,174.5C 218.454,178.966 216.454,182.966 213.5,186.5C 212.883,186.611 212.383,186.944 212,187.5C 211.833,190.333 211.667,193.167 211.5,196C 212.562,216.825 212.728,237.659 212,258.5C 212.199,268.176 209.866,277.176 205,285.5C 196.349,293.757 186.849,294.757 176.5,288.5C 174.858,287.197 173.191,285.864 171.5,284.5C 168.471,281.141 165.471,277.808 162.5,274.5C 161.136,272.809 159.803,271.142 158.5,269.5C 155.2,263.186 151.867,256.853 148.5,250.5C 157.949,245.274 167.615,240.274 177.5,235.5C 180.171,238.837 182.337,242.504 184,246.5C 186.122,227.547 187.122,208.547 187,189.5C 183.888,186.226 181.388,182.56 179.5,178.5C 178.909,170.323 178.909,162.323 179.5,154.5C 180.5,155.833 181.5,157.167 182.5,158.5C 182.56,159.043 182.893,159.376 183.5,159.5C 184.495,154.208 184.828,148.875 184.5,143.5C 184.334,138.489 184.501,133.489 185,128.5C 187.333,124.5 189.667,124.5 192,128.5C 192.311,134.874 192.977,141.207 194,147.5C 194.365,141.92 196.865,137.753 201.5,135C 198.833,131.667 196.167,128.333 193.5,125C 194.056,124.617 194.389,124.117 194.5,123.5C 196.712,118.844 198.712,114.177 200.5,109.5C 201.482,99.8612 205.816,92.1946 213.5,86.5C 215.884,87.0124 218.217,87.6791 220.5,88.5C 221.458,86.216 222.792,84.216 224.5,82.5C 227.698,81.0658 231.032,80.5658 234.5,81C 236.874,83.039 238.874,85.3723 240.5,88C 244.74,88.2556 246.74,90.4223 246.5,94.5C 248.39,94.2965 249.89,94.9632 251,96.5C 252.428,101.85 255.261,106.35 259.5,110C 280.202,122.044 300.369,134.877 320,148.5C 326.742,160.079 325.575,170.912 316.5,181C 302.526,189.821 287.859,197.321 272.5,203.5 Z"/></g>
<g><path style="opacity:1" fill="#31343c" d="M 205.5,125.5 C 207.167,125.5 208.833,125.5 210.5,125.5C 210.65,129.161 209.15,130.161 206,128.5C 205.517,127.552 205.351,126.552 205.5,125.5 Z"/></g>
<g><path style="opacity:1" fill="#fcfcfb" d="M 246.5,121.5 C 261.628,134.123 276.628,146.957 291.5,160C 284.143,162.171 276.81,164.338 269.5,166.5C 269.083,165.876 268.416,165.543 267.5,165.5C 261.856,166.995 256.189,168.328 250.5,169.5C 250.158,153.394 248.825,137.394 246.5,121.5 Z"/></g>
<g><path style="opacity:1" fill="#2f3337" d="M 230.5,125.5 C 231.5,125.5 232.5,125.5 233.5,125.5C 233.884,127.665 233.217,129.332 231.5,130.5C 229.296,129.218 228.962,127.551 230.5,125.5 Z"/></g>
<g><path style="opacity:1" fill="#6a5047" d="M 219.5,119.5 C 221.775,124.216 223.608,129.216 225,134.5C 225.667,135.833 225.667,137.167 225,138.5C 222.653,132.295 220.82,125.962 219.5,119.5 Z"/></g>
<g><path style="opacity:1" fill="#1e2f35" d="M 240.5,117.5 C 242.772,118.441 244.772,119.774 246.5,121.5C 248.825,137.394 250.158,153.394 250.5,169.5C 240.239,170.821 229.905,172.487 219.5,174.5C 219.5,172.833 219.5,171.167 219.5,169.5C 223.187,168.824 226.52,167.324 229.5,165C 235.717,158.056 238.717,149.89 238.5,140.5C 239.167,132.833 239.833,125.167 240.5,117.5 Z"/></g>
<g><path style="opacity:1" fill="#36353e" d="M 228.5,118.5 C 230.847,117.105 233.181,117.272 235.5,119C 233.249,118.793 230.915,118.627 228.5,118.5 Z"/></g>
<g><path style="opacity:1" fill="#4e4b49" d="M 202.5,116.5 C 205.226,116.264 207.559,117.097 209.5,119C 206.888,118.901 204.221,118.568 201.5,118C 202.056,117.617 202.389,117.117 202.5,116.5 Z"/></g>
<g><path style="opacity:1" fill="#30333c" d="M 200.5,109.5 C 204.088,108.133 207.755,107.3 211.5,107C 208.281,110.38 204.614,111.214 200.5,109.5 Z"/></g>
<g><path style="opacity:1" fill="#3e3a40" d="M 226.5,107.5 C 229.4,107.28 232.067,107.946 234.5,109.5C 234,109.833 233.5,110.167 233,110.5C 230.536,109.839 228.036,109.339 225.5,109C 226.056,108.617 226.389,108.117 226.5,107.5 Z"/></g>
<g><path style="opacity:1" fill="#2e3439" d="M 229.5,87.5 C 231.429,87.2308 233.095,87.7308 234.5,89C 231.824,89.7396 229.158,90.0729 226.5,90C 227.942,89.6232 228.942,88.7899 229.5,87.5 Z"/></g>
<g><path style="opacity:1" fill="#9a8175" d="M 240.5,117.5 C 239.833,125.167 239.167,132.833 238.5,140.5C 238.169,132.472 238.502,124.472 239.5,116.5C 240.107,116.624 240.44,116.957 240.5,117.5 Z"/></g>
<g><path style="opacity:1" fill="#5e6869" d="M 204.5,140.5 C 205.376,140.369 206.043,140.702 206.5,141.5C 205.081,143.336 203.914,145.336 203,147.5C 202.185,144.802 202.685,142.468 204.5,140.5 Z"/></g>
<g><path style="opacity:1" fill="#756d63" d="M 184.5,143.5 C 184.828,148.875 184.495,154.208 183.5,159.5C 182.893,159.376 182.56,159.043 182.5,158.5C 183.167,153.5 183.833,148.5 184.5,143.5 Z"/></g>
<g><path style="opacity:1" fill="#e0946f" d="M 212.5,150.5 C 212.5,150.167 212.5,149.833 212.5,149.5C 212.468,144.054 215.135,142.22 220.5,144C 222.14,146.776 221.473,148.776 218.5,150C 216.527,150.495 214.527,150.662 212.5,150.5 Z"/></g>
<g><path style="opacity:1" fill="#676461" d="M 212.5,149.5 C 212.5,149.833 212.5,150.167 212.5,150.5C 211.685,151.429 210.852,152.429 210,153.5C 209.192,151.421 209.359,149.421 210.5,147.5C 211.522,147.855 212.189,148.522 212.5,149.5 Z"/></g>
<g><path style="opacity:1" fill="#f3e3dc" d="M 70.5,152.5 C 69.7375,153.268 68.7375,153.768 67.5,154C 69.9913,154.626 69.9913,155.459 67.5,156.5C 68.6016,157.176 69.6016,157.842 70.5,158.5C 68.8333,158.5 67.1667,158.5 65.5,158.5C 65.5,156.5 65.5,154.5 65.5,152.5C 67.1667,152.5 68.8333,152.5 70.5,152.5 Z"/></g>
<g><path style="opacity:1" fill="#eca496" d="M 70.5,152.5 C 70.8333,152.5 71.1667,152.5 71.5,152.5C 71.5,154.5 71.5,156.5 71.5,158.5C 71.1667,158.5 70.8333,158.5 70.5,158.5C 69.6016,157.842 68.6016,157.176 67.5,156.5C 69.9913,155.459 69.9913,154.626 67.5,154C 68.7375,153.768 69.7375,153.268 70.5,152.5 Z"/></g>
<g><path style="opacity:1" fill="#f1b5a7" d="M 83.5,152.5 C 85.7354,152.205 87.7354,152.539 89.5,153.5C 88.2591,155.931 87.0924,155.931 86,153.5C 85.5065,155.134 85.3398,156.801 85.5,158.5C 84.8333,158.5 84.1667,158.5 83.5,158.5C 80.8333,156.5 80.8333,154.5 83.5,152.5 Z"/></g>
<g><path style="opacity:1" fill="#efe7e2" d="M 85.5,158.5 C 85.3398,156.801 85.5065,155.134 86,153.5C 87.0924,155.931 88.2591,155.931 89.5,153.5C 90.1174,153.611 90.6174,153.944 91,154.5C 92.4443,152.845 94.2776,152.178 96.5,152.5C 96.5,154.5 96.5,156.5 96.5,158.5C 94.1727,158.753 92.1727,158.086 90.5,156.5C 90.3233,159.078 89.1567,159.078 87,156.5C 86.7216,157.416 86.2216,158.082 85.5,158.5 Z"/></g>
<g><path style="opacity:1" fill="#f88067" d="M 92.5,154.5 C 93.675,154.281 94.675,154.614 95.5,155.5C 93.9483,156.798 92.9483,156.465 92.5,154.5 Z"/></g>
<g><path style="opacity:1" fill="#f2e3de" d="M 71.5,152.5 C 72.7348,152.721 73.7348,153.388 74.5,154.5C 75.5,153.833 76.5,153.167 77.5,152.5C 78.8333,154.5 78.8333,156.5 77.5,158.5C 76.8076,157.975 76.3076,157.308 76,156.5C 75,157.833 74,157.833 73,156.5C 72.7216,157.416 72.2216,158.082 71.5,158.5C 71.5,156.5 71.5,154.5 71.5,152.5 Z"/></g>
<g><path style="opacity:1" fill="#f1ded7" d="M 103.5,152.5 C 105.017,152.511 106.184,153.177 107,154.5C 107.308,153.692 107.808,153.025 108.5,152.5C 111.333,152.582 114.333,152.748 117.5,153C 118.676,154.914 119.676,154.748 120.5,152.5C 120.833,152.833 121.167,153.167 121.5,153.5C 120.316,155.046 119.316,156.713 118.5,158.5C 117.402,154.678 115.068,153.678 111.5,155.5C 112.833,156.167 114.167,156.833 115.5,157.5C 113.074,158.168 110.741,158.502 108.5,158.5C 107.522,158.023 106.689,157.357 106,156.5C 105.692,157.308 105.192,157.975 104.5,158.5C 103.534,156.604 103.201,154.604 103.5,152.5 Z"/></g>
<g><path style="opacity:1" fill="#f1ded7" d="M 125.5,152.5 C 130.11,152.596 130.444,153.596 126.5,155.5C 127.167,155.833 127.833,156.167 128.5,156.5C 130.571,155.714 132.238,154.381 133.5,152.5C 135.047,153.768 136.047,155.435 136.5,157.5C 133.088,158.228 129.421,158.395 125.5,158C 124.248,156.172 124.248,154.339 125.5,152.5 Z"/></g>
<g><path style="opacity:1" fill="#f3e9e3" d="M 83.5,152.5 C 80.8333,154.5 80.8333,156.5 83.5,158.5C 82.1667,158.5 80.8333,158.5 79.5,158.5C 79.5,156.5 79.5,154.5 79.5,152.5C 80.8333,152.5 82.1667,152.5 83.5,152.5 Z"/></g>
<g><path style="opacity:1" fill="#f1d7d1" d="M 97.5,152.5 C 99.1667,152.5 100.833,152.5 102.5,152.5C 102.5,154.5 102.5,156.5 102.5,158.5C 100.833,158.5 99.1667,158.5 97.5,158.5C 97.5,156.5 97.5,154.5 97.5,152.5 Z"/></g>
<g><path style="opacity:1" fill="#f3d8cf" d="M 137.5,152.5 C 139.176,153.183 139.843,154.517 139.5,156.5C 140.5,156.5 141.5,156.5 142.5,156.5C 143.167,151.167 143.833,151.167 144.5,156.5C 145.675,156.281 146.675,156.614 147.5,157.5C 144.232,158.487 140.898,158.82 137.5,158.5C 137.5,156.5 137.5,154.5 137.5,152.5 Z"/></g>
<g><path style="opacity:1" fill="#4b616a" d="M 216.5,155.5 C 219.274,158.111 218.941,160.444 215.5,162.5C 214.721,160.115 215.054,157.782 216.5,155.5 Z"/></g>
<g><path style="opacity:1" fill="#385a64" d="M 269.5,166.5 C 270.913,178.801 271.913,191.134 272.5,203.5C 268.341,206.747 264.008,209.747 259.5,212.5C 256.091,213.04 254.425,215.04 254.5,218.5C 255.657,236.314 256.657,253.981 257.5,271.5C 257.334,276.511 257.501,281.511 258,286.5C 263.805,303.415 269.305,320.415 274.5,337.5C 236.181,339.494 197.514,340.161 158.5,339.5C 158.5,337.167 158.5,334.833 158.5,332.5C 161.511,319.972 166.011,307.972 172,296.5C 171.983,292.525 171.816,288.525 171.5,284.5C 173.191,285.864 174.858,287.197 176.5,288.5C 175.761,288.369 175.094,288.536 174.5,289C 182.408,300.162 192.408,302.496 204.5,296C 209.469,290.104 212.302,283.271 213,275.5C 217.286,245.815 217.452,216.148 213.5,186.5C 216.454,182.966 218.454,178.966 219.5,174.5C 229.905,172.487 240.239,170.821 250.5,169.5C 256.189,168.328 261.856,166.995 267.5,165.5C 268.416,165.543 269.083,165.876 269.5,166.5 Z"/></g>
<g><path style="opacity:1" fill="#fd9d6c" d="M 212.5,169.5 C 214.5,169.5 216.5,169.5 218.5,169.5C 218.5,171.167 218.5,172.833 218.5,174.5C 216.5,174.5 214.5,174.5 212.5,174.5C 212.5,172.833 212.5,171.167 212.5,169.5 Z"/></g>
<g><path style="opacity:1" fill="#fd8f7d" d="M 71.5,171.5 C 84.1834,170.674 89.0168,176.341 86,188.5C 78.54,195.589 71.8734,194.923 66,186.5C 64.5128,180.163 66.3462,175.163 71.5,171.5 Z"/></g>
<g><path style="opacity:1" fill="#fd8f7e" d="M 132.5,171.5 C 144.065,170.229 148.898,175.229 147,186.5C 141.48,194.955 135.146,195.622 128,188.5C 124.906,181.429 126.406,175.762 132.5,171.5 Z"/></g>
<g><path style="opacity:1" fill="#f4b3a6" d="M 75.5,185.5 C 75.7947,183.265 75.4614,181.265 74.5,179.5C 76.38,179.973 78.2133,179.307 80,177.5C 82.9837,180.403 83.1504,183.403 80.5,186.5C 78.8027,185.088 77.136,184.754 75.5,185.5 Z"/></g>
<g><path style="opacity:1" fill="#f8f5f4" d="M 74.5,179.5 C 75.4614,181.265 75.7947,183.265 75.5,185.5C 71.041,183.755 70.7076,181.755 74.5,179.5 Z"/></g>
<g><path style="opacity:1" fill="#385964" d="M 179.5,178.5 C 181.388,182.56 183.888,186.226 187,189.5C 187.122,208.547 186.122,227.547 184,246.5C 182.337,242.504 180.171,238.837 177.5,235.5C 167.615,240.274 157.949,245.274 148.5,250.5C 146.883,251.038 145.216,251.371 143.5,251.5C 141.709,238.563 141.209,225.563 142,212.5C 143.102,203.964 146.602,196.631 152.5,190.5C 161.648,186.758 170.648,182.758 179.5,178.5 Z"/></g>
<g><path style="opacity:1" fill="#f8cdc7" d="M 133.5,182.5 C 137.991,181.259 139.324,181.259 137.5,182.5C 137.167,187.833 136.833,187.833 136.5,182.5C 135.5,182.5 134.5,182.5 133.5,182.5 Z"/></g>
<g><path style="opacity:1" fill="#fd8f7e" d="M 103.5,171.5 C 109.941,170.476 115.108,172.476 119,177.5C 120.571,184.606 118.071,189.772 111.5,193C 101.175,193.674 96.6753,188.84 98,178.5C 99.3162,175.692 101.15,173.359 103.5,171.5 Z"/></g>
<g><path style="opacity:1" fill="#f4d1c9" d="M 104.5,177.5 C 106.869,177.798 109.202,177.798 111.5,177.5C 112.484,180.428 112.817,183.428 112.5,186.5C 109.833,186.5 107.167,186.5 104.5,186.5C 104.118,183.354 104.118,180.354 104.5,177.5 Z"/></g>
<g><path style="opacity:1" fill="#ececed" d="M 308.5,272.5 C 306.385,279.687 304.885,287.02 304,294.5C 303.871,285.363 302.705,276.363 300.5,267.5C 300.667,266.833 300.833,266.167 301,265.5C 302.044,267.715 302.71,270.048 303,272.5C 304.562,261.193 305.562,249.86 306,238.5C 304.171,236.844 302.837,234.844 302,232.5C 300.194,219.469 303.027,207.635 310.5,197C 314.274,195.817 317.441,196.651 320,199.5C 323.718,210.783 322.884,221.783 317.5,232.5C 315.933,236.739 312.933,239.072 308.5,239.5C 306.614,253.137 305.447,266.803 305,280.5C 305.705,277.524 306.871,274.858 308.5,272.5 Z"/></g>
<g><path style="opacity:1" fill="#1c2f36" d="M 259.5,212.5 C 260.833,215.167 262.167,217.833 263.5,220.5C 269.369,230.207 276.869,238.541 286,245.5C 286.667,246.5 286.667,247.5 286,248.5C 283.827,249.933 281.66,251.266 279.5,252.5C 278.624,252.369 277.957,252.702 277.5,253.5C 286.42,257.762 287.754,263.595 281.5,271C 273.579,274.129 265.579,274.296 257.5,271.5C 256.657,253.981 255.657,236.314 254.5,218.5C 254.425,215.04 256.091,213.04 259.5,212.5 Z"/></g>
<g><path style="opacity:1" fill="#fcf8f6" d="M 102.5,217.5 C 117.353,216.191 124.519,222.858 124,237.5C 119.644,247.594 112.144,251.094 101.5,248C 93.8073,243.27 90.974,236.437 93,227.5C 95.0223,222.98 98.189,219.647 102.5,217.5 Z"/></g>
<g><path style="opacity:1" fill="#e9eaea" d="M 263.5,220.5 C 279.147,219.316 290.647,225.649 298,239.5C 298.719,244.201 298.553,248.867 297.5,253.5C 298.988,257.1 299.821,260.767 300,264.5C 298.735,261.539 297.569,258.539 296.5,255.5C 292.92,255.258 289.253,255.091 285.5,255C 283.842,253.337 281.842,252.504 279.5,252.5C 281.66,251.266 283.827,249.933 286,248.5C 286.667,247.5 286.667,246.5 286,245.5C 276.869,238.541 269.369,230.207 263.5,220.5 Z"/></g>
<g><path style="opacity:1" fill="#f67a64" d="M 101.5,229.5 C 107.68,228.829 113.514,229.829 119,232.5C 119.494,234.134 119.66,235.801 119.5,237.5C 117.5,237.167 115.5,236.833 113.5,236.5C 113.67,235.178 113.337,234.011 112.5,233C 109.518,232.502 106.518,232.335 103.5,232.5C 103.241,236.068 101.241,237.401 97.5,236.5C 97.1868,233.163 98.5201,230.829 101.5,229.5 Z"/></g>
<g><path style="opacity:1" fill="#ececed" d="M 308.5,272.5 C 308.322,256.876 315.989,251.042 331.5,255C 337.659,257.012 338.993,260.678 335.5,266C 331.5,266.333 327.5,266.667 323.5,267C 320.638,267.93 318.305,269.597 316.5,272C 313.704,272.042 311.037,272.209 308.5,272.5 Z"/></g>
<g><path style="opacity:1" fill="#fdfdfd" d="M 162.5,274.5 C 165.471,277.808 168.471,281.141 171.5,284.5C 171.816,288.525 171.983,292.525 172,296.5C 166.011,307.972 161.511,319.972 158.5,332.5C 157.527,334.948 157.194,337.615 157.5,340.5C 147.5,340.5 137.5,340.5 127.5,340.5C 127.5,329.833 127.5,319.167 127.5,308.5C 128.5,308.5 129.5,308.5 130.5,308.5C 130.5,305.5 130.5,302.5 130.5,299.5C 134.5,299.5 138.5,299.5 142.5,299.5C 142.5,294.833 142.5,290.167 142.5,285.5C 144.415,285.784 146.081,285.451 147.5,284.5C 154.149,283.498 159.149,280.164 162.5,274.5 Z"/></g>
<g><path style="opacity:1" fill="#273e46" d="M 213.5,186.5 C 217.452,216.148 217.286,245.815 213,275.5C 212.302,283.271 209.469,290.104 204.5,296C 192.408,302.496 182.408,300.162 174.5,289C 175.094,288.536 175.761,288.369 176.5,288.5C 186.849,294.757 196.349,293.757 205,285.5C 209.866,277.176 212.199,268.176 212,258.5C 212.728,237.659 212.562,216.825 211.5,196C 211.667,193.167 211.833,190.333 212,187.5C 212.383,186.944 212.883,186.611 213.5,186.5 Z"/></g>
<g><path style="opacity:1" fill="#deddde" d="M 57.5,284.5 C 87.5,284.5 117.5,284.5 147.5,284.5C 146.081,285.451 144.415,285.784 142.5,285.5C 142.5,290.167 142.5,294.833 142.5,299.5C 138.5,299.5 134.5,299.5 130.5,299.5C 130.5,302.5 130.5,305.5 130.5,308.5C 129.5,308.5 128.5,308.5 127.5,308.5C 127.5,319.167 127.5,329.833 127.5,340.5C 137.5,340.5 147.5,340.5 157.5,340.5C 196.833,340.5 236.167,340.5 275.5,340.5C 278.833,340.5 282.167,340.5 285.5,340.5C 298.167,340.5 310.833,340.5 323.5,340.5C 232.831,341.813 134.831,341.813 29.5,340.5C 45.8333,340.5 62.1667,340.5 78.5,340.5C 77.6123,329.856 76.9456,319.189 76.5,308.5C 59.5,308.5 42.5,308.5 25.5,308.5C 25.5,305.833 25.5,303.167 25.5,300.5C 48.1667,300.5 70.8333,300.5 93.5,300.5C 93.4971,295.473 93.1637,290.473 92.5,285.5C 80.6547,285.828 68.988,285.495 57.5,284.5 Z"/></g>
<g><path style="opacity:1" fill="#e2e2e3" d="M 323.5,340.5 C 310.833,340.5 298.167,340.5 285.5,340.5C 284.962,338.883 284.629,337.216 284.5,335.5C 283.5,335.5 282.5,335.5 281.5,335.5C 281.5,334.5 281.5,333.5 281.5,332.5C 283.167,332.5 284.833,332.5 286.5,332.5C 286.705,324.133 286.371,315.8 285.5,307.5C 284.5,307.5 283.5,307.5 282.5,307.5C 282.5,303.833 282.5,300.167 282.5,296.5C 297.833,296.5 313.167,296.5 328.5,296.5C 328.5,300.167 328.5,303.833 328.5,307.5C 327.167,307.5 325.833,307.5 324.5,307.5C 323.121,315.765 322.454,324.098 322.5,332.5C 324.167,332.5 325.833,332.5 327.5,332.5C 326.218,335.137 324.885,337.804 323.5,340.5 Z"/></g>
<g><path style="opacity:1" fill="#f4f4f4" d="M 25.5,308.5 C 42.5,308.5 59.5,308.5 76.5,308.5C 76.9456,319.189 77.6123,329.856 78.5,340.5C 62.1667,340.5 45.8333,340.5 29.5,340.5C 29.5,330.167 29.5,319.833 29.5,309.5C 27.901,309.768 26.5676,309.434 25.5,308.5 Z"/></g>
<g><path style="opacity:1" fill="#818e93" d="M 158.5,332.5 C 158.5,334.833 158.5,337.167 158.5,339.5C 197.514,340.161 236.181,339.494 274.5,337.5C 275.404,338.209 275.737,339.209 275.5,340.5C 236.167,340.5 196.833,340.5 157.5,340.5C 157.194,337.615 157.527,334.948 158.5,332.5 Z"/></g>
</svg>
