<?xml version="1.0" encoding="UTF-8"?>
<!DOCTYPE svg PUBLIC "-//W3C//DTD SVG 1.1//EN" "http://www.w3.org/Graphics/SVG/1.1/DTD/svg11.dtd">
<svg xmlns="http://www.w3.org/2000/svg" version="1.1" width="405px" height="359px" style="shape-rendering:geometricPrecision; text-rendering:geometricPrecision; image-rendering:optimizeQuality; fill-rule:evenodd; clip-rule:evenodd" xmlns:xlink="http://www.w3.org/1999/xlink">
<g><path style="opacity:0.42" fill="#799da4" d="M 189.5,19.5 C 194.649,19.6511 196.982,22.3178 196.5,27.5C 187.703,30.372 185.37,27.7053 189.5,19.5 Z"/></g>
<g><path style="opacity:0.388" fill="#edd7b6" d="M 93.5,39.5 C 95.9393,40.0525 98.2727,40.0525 100.5,39.5C 101.718,42.088 102.218,44.7547 102,47.5C 99.5,47.6667 97,47.8333 94.5,48C 94.7253,45.2576 94.3919,42.4243 93.5,39.5 Z"/></g>
<g><path style="opacity:1" fill="#4e4f68" d="M 118.5,43.5 C 127.5,43.5 136.5,43.5 145.5,43.5C 145.754,49.5876 148.921,52.9209 155,53.5C 158.072,52.9638 160.739,51.6304 163,49.5C 164.183,50.731 165.349,50.731 166.5,49.5C 167.747,47.677 168.414,45.677 168.5,43.5C 199.5,43.5 230.5,43.5 261.5,43.5C 270.879,43.4474 276.046,48.1141 277,57.5C 277.5,99.1653 277.667,140.832 277.5,182.5C 277.281,187.014 275.947,191.014 273.5,194.5C 273.832,153.663 273.499,112.997 272.5,72.5C 271.415,70.4131 269.749,69.0798 267.5,68.5C 266.942,67.2101 265.942,66.3768 264.5,66C 214.833,65.3333 165.167,65.3333 115.5,66C 113.676,66.66 112.343,67.8267 111.5,69.5C 109.81,69.8564 108.81,70.8564 108.5,72.5C 107.504,136.095 107.171,199.762 107.5,263.5C 107.5,281.167 107.5,298.833 107.5,316.5C 109.093,323.758 113.426,328.425 120.5,330.5C 121.209,331.404 122.209,331.737 123.5,331.5C 132.652,332.494 141.985,332.827 151.5,332.5C 151.5,333.5 151.5,334.5 151.5,335.5C 139.538,336.438 127.538,336.772 115.5,336.5C 114.167,336.5 112.833,336.5 111.5,336.5C 108.395,333.725 106.062,330.392 104.5,326.5C 103.587,320.559 103.254,314.559 103.5,308.5C 103.703,306.956 104.37,305.622 105.5,304.5C 104.557,299.9 104.223,295.233 104.5,290.5C 104.178,211.144 104.511,131.811 105.5,52.5C 107.364,45.9739 111.697,42.9739 118.5,43.5 Z"/></g>
<g><path style="opacity:0.463" fill="#efd6b1" d="M 284.5,41.5 C 287.162,42.6393 289.829,42.8059 292.5,42C 292.406,44.4068 292.573,46.9068 293,49.5C 290.492,49.8191 287.992,49.9858 285.5,50C 285.588,47.2114 285.254,44.378 284.5,41.5 Z"/></g>
<g><path style="opacity:1" fill="#9293a7" d="M 118.5,43.5 C 166.167,42.1667 213.833,42.1667 261.5,43.5C 230.5,43.5 199.5,43.5 168.5,43.5C 168.414,45.677 167.747,47.677 166.5,49.5C 165.349,50.731 164.183,50.731 163,49.5C 160.739,51.6304 158.072,52.9638 155,53.5C 148.921,52.9209 145.754,49.5876 145.5,43.5C 136.5,43.5 127.5,43.5 118.5,43.5 Z"/></g>
<g><path style="opacity:1" fill="#d0d1dc" d="M 123.5,49.5 C 131.774,49.9286 133.44,53.4286 128.5,60C 121.495,61.3236 118.995,58.4902 121,51.5C 121.995,50.9341 122.828,50.2674 123.5,49.5 Z"/></g>
<g><path style="opacity:1" fill="#ecedf1" d="M 137.5,51.5 C 142.374,51.9147 143.541,54.2481 141,58.5C 137.718,59.9114 135.884,58.7448 135.5,55C 135.862,53.5657 136.528,52.3991 137.5,51.5 Z"/></g>
<g><path style="opacity:1" fill="#4f5164" d="M 124.5,51.5 C 128.976,51.8003 130.31,53.9669 128.5,58C 122.36,58.8076 121.027,56.6409 124.5,51.5 Z"/></g>
<g><path style="opacity:1" fill="#dee0f2" d="M 267.5,68.5 C 269.749,69.0798 271.415,70.4131 272.5,72.5C 272.5,73.5 272.5,74.5 272.5,75.5C 271.732,74.7375 271.232,73.7375 271,72.5C 270.832,81.1858 270.332,89.8525 269.5,98.5C 260.01,105.745 250.344,112.745 240.5,119.5C 238.742,117.208 237.576,114.541 237,111.5C 233.669,97.8441 230.502,84.1774 227.5,70.5C 240.171,70.6666 252.838,70.4999 265.5,70C 266.416,69.7216 267.082,69.2216 267.5,68.5 Z"/></g>
<g><path style="opacity:0.239" fill="#dadbdc" d="M 61.5,93.5 C 71.1896,93.1682 80.8563,93.5016 90.5,94.5C 85.6667,94.8333 80.8333,95.1667 76,95.5C 70.7843,95.4937 65.951,94.8271 61.5,93.5 Z"/></g>
<g><path style="opacity:1" fill="#acd5fb" d="M 176.5,70.5 C 180.833,70.5 185.167,70.5 189.5,70.5C 195.203,85.1116 200.036,100.112 204,115.5C 205.985,125.403 206.818,135.403 206.5,145.5C 203.81,148.185 200.81,150.518 197.5,152.5C 196.097,138.083 194.263,123.416 192,108.5C 187.426,95.4709 182.259,82.8042 176.5,70.5 Z"/></g>
<g><path style="opacity:1" fill="#dce1f2" d="M 172.5,70.5 C 173.833,70.5 175.167,70.5 176.5,70.5C 182.259,82.8042 187.426,95.4709 192,108.5C 194.263,123.416 196.097,138.083 197.5,152.5C 196.089,154.539 194.089,155.539 191.5,155.5C 187.117,134.35 181.951,113.35 176,92.5C 173.997,85.3172 172.831,77.9838 172.5,70.5 Z"/></g>
<g><path style="opacity:0.566" fill="#ba959d" d="M 313.5,105.5 C 320.303,104.735 322.303,107.568 319.5,114C 311.749,115.091 309.749,112.258 313.5,105.5 Z"/></g>
<g><path style="opacity:1" fill="#aeaeb9" d="M 272.5,72.5 C 273.499,112.997 273.832,153.663 273.5,194.5C 273.289,196.424 272.623,196.757 271.5,195.5C 272.499,155.67 272.832,115.67 272.5,75.5C 272.5,74.5 272.5,73.5 272.5,72.5 Z"/></g>
<g><path style="opacity:0.086" fill="#fae6e8" d="M 315.5,107.5 C 320.197,108.874 320.531,110.874 316.5,113.5C 313.025,111.916 312.692,109.916 315.5,107.5 Z"/></g>
<g><path style="opacity:1" fill="#f2f3f6" d="M 267.5,68.5 C 267.082,69.2216 266.416,69.7216 265.5,70C 252.838,70.4999 240.171,70.6666 227.5,70.5C 230.502,84.1774 233.669,97.8441 237,111.5C 237.576,114.541 238.742,117.208 240.5,119.5C 250.344,112.745 260.01,105.745 269.5,98.5C 270.332,89.8525 270.832,81.1858 271,72.5C 271.232,73.7375 271.732,74.7375 272.5,75.5C 272.832,115.67 272.499,155.67 271.5,195.5C 269.44,192.76 267.774,189.76 266.5,186.5C 270.471,185.552 271.471,183.219 269.5,179.5C 269.5,175.167 269.5,170.833 269.5,166.5C 266.428,166.817 263.428,166.484 260.5,165.5C 262.743,162.635 265.743,161.302 269.5,161.5C 269.5,142.833 269.5,124.167 269.5,105.5C 266.081,107.046 262.747,108.879 259.5,111C 251.129,117.61 242.629,124.11 234,130.5C 233.5,148.83 233.333,167.164 233.5,185.5C 234.675,185.719 235.675,185.386 236.5,184.5C 239.978,179.188 244.312,174.688 249.5,171C 252.102,170.117 254.269,168.617 256,166.5C 257.795,167.719 257.628,168.719 255.5,169.5C 255.5,170.167 255.5,170.833 255.5,171.5C 243.541,181.801 232.874,193.468 223.5,206.5C 222.983,204.726 222.65,203.059 222.5,201.5C 224.061,198.099 226.227,195.099 229,192.5C 229.333,173.827 229,155.161 228,136.5C 222.011,140.33 216.178,144.33 210.5,148.5C 210.567,147.041 210.234,145.708 209.5,144.5C 216.682,137.886 224.348,131.719 232.5,126C 234.357,124.818 235.357,123.151 235.5,121C 230.723,104.272 226.389,87.4384 222.5,70.5C 211.5,70.5 200.5,70.5 189.5,70.5C 185.167,70.5 180.833,70.5 176.5,70.5C 175.167,70.5 173.833,70.5 172.5,70.5C 171.852,72.4982 171.019,74.4982 170,76.5C 170.007,73.6269 170.507,70.7936 171.5,68C 153.158,67.167 134.824,67.3337 116.5,68.5C 117.274,69.7112 118.107,69.7112 119,68.5C 133.931,69.1592 148.765,69.8258 163.5,70.5C 145.992,70.83 128.659,70.4967 111.5,69.5C 112.343,67.8267 113.676,66.66 115.5,66C 165.167,65.3333 214.833,65.3333 264.5,66C 265.942,66.3768 266.942,67.2101 267.5,68.5 Z"/></g>
<g><path style="opacity:1" fill="#d2d4f1" d="M 245.5,94.5 C 253.961,93.6047 256.628,96.9381 253.5,104.5C 244.538,107.859 240.872,104.859 242.5,95.5C 243.791,95.7373 244.791,95.404 245.5,94.5 Z"/></g>
<g><path style="opacity:1" fill="#d1d4f3" d="M 241.5,74.5 C 248.891,74.2012 256.224,74.5345 263.5,75.5C 265.98,79.7138 266.147,84.0471 264,88.5C 256.914,89.6456 249.747,89.8123 242.5,89C 234.92,84.6533 234.587,79.82 241.5,74.5 Z"/></g>
<g><path style="opacity:0.37" fill="#e8e7ef" d="M 308.5,127.5 C 316.84,127.334 325.173,127.5 333.5,128C 337.932,128.623 338.265,129.623 334.5,131C 336.592,131.953 336.925,133.286 335.5,135C 331.557,136.421 328.891,135.254 327.5,131.5C 326.738,132.628 326.071,133.795 325.5,135C 319.833,135.667 314.167,135.667 308.5,135C 306.519,134.395 306.185,133.395 307.5,132C 311.5,131.667 315.5,131.333 319.5,131C 314.798,130.828 310.132,130.328 305.5,129.5C 306.602,128.824 307.602,128.158 308.5,127.5 Z"/></g>
<g><path style="opacity:1" fill="#dbdef3" d="M 189.5,70.5 C 200.5,70.5 211.5,70.5 222.5,70.5C 226.389,87.4384 230.723,104.272 235.5,121C 235.357,123.151 234.357,124.818 232.5,126C 224.348,131.719 216.682,137.886 209.5,144.5C 208.391,144.557 207.391,144.89 206.5,145.5C 206.818,135.403 205.985,125.403 204,115.5C 200.036,100.112 195.203,85.1116 189.5,70.5 Z"/></g>
<g><path style="opacity:0.71" fill="#d2b9be" d="M 58.5,131.5 C 63.0832,130.343 65.7499,132.01 66.5,136.5C 65.1484,140.254 62.4817,141.421 58.5,140C 55.8987,137.17 55.8987,134.337 58.5,131.5 Z M 60.5,134.5 C 64.3368,135.203 64.5034,136.536 61,138.5C 60.51,137.207 60.3433,135.873 60.5,134.5 Z"/></g>
<g><path style="opacity:1" fill="#dbe5ed" d="M 111.5,69.5 C 128.659,70.4967 145.992,70.83 163.5,70.5C 164.5,70.5 165.5,70.5 166.5,70.5C 171.525,91.6005 177.025,112.6 183,133.5C 184.781,140.816 186.115,148.149 187,155.5C 162.004,138.202 136.671,121.202 111,104.5C 110.667,93.5 110.333,82.5 110,71.5C 109.617,72.056 109.117,72.3893 108.5,72.5C 108.81,70.8564 109.81,69.8564 111.5,69.5 Z"/></g>
<g><path style="opacity:1" fill="#f8fafb" d="M 172.5,70.5 C 172.831,77.9838 173.997,85.3172 176,92.5C 181.951,113.35 187.117,134.35 191.5,155.5C 194.089,155.539 196.089,154.539 197.5,152.5C 200.81,150.518 203.81,148.185 206.5,145.5C 207.391,144.89 208.391,144.557 209.5,144.5C 210.234,145.708 210.567,147.041 210.5,148.5C 207.833,150.833 205.167,153.167 202.5,155.5C 197.911,157.124 194.577,160.124 192.5,164.5C 187.506,175.078 182.506,185.744 177.5,196.5C 176.272,195.694 175.272,194.694 174.5,193.5C 176.625,186.588 179.292,179.921 182.5,173.5C 184.548,170.572 186.215,167.405 187.5,164C 187.357,161.849 186.357,160.182 184.5,159C 166.606,146.894 148.606,135.061 130.5,123.5C 124.342,118.333 117.675,114 110.5,110.5C 110.5,159.5 110.5,208.5 110.5,257.5C 111.777,260.205 111.61,262.872 110,265.5C 109.292,264.619 108.458,263.953 107.5,263.5C 107.171,199.762 107.504,136.095 108.5,72.5C 109.117,72.3893 109.617,72.056 110,71.5C 110.333,82.5 110.667,93.5 111,104.5C 136.671,121.202 162.004,138.202 187,155.5C 186.115,148.149 184.781,140.816 183,133.5C 177.025,112.6 171.525,91.6005 166.5,70.5C 165.5,70.5 164.5,70.5 163.5,70.5C 148.765,69.8258 133.931,69.1592 119,68.5C 118.107,69.7112 117.274,69.7112 116.5,68.5C 134.824,67.3337 153.158,67.167 171.5,68C 170.507,70.7936 170.007,73.6269 170,76.5C 171.019,74.4982 171.852,72.4982 172.5,70.5 Z"/></g>
<g><path style="opacity:1" fill="#d2d3ef" d="M 147.5,148.5 C 147.119,149.931 146.119,150.764 144.5,151C 145.448,151.483 146.448,151.649 147.5,151.5C 147.78,158.603 147.78,165.603 147.5,172.5C 145.521,170.832 143.188,170.166 140.5,170.5C 138.898,168.926 136.898,168.259 134.5,168.5C 134.334,161.825 134.5,155.158 135,148.5C 136.452,145.878 138.619,144.212 141.5,143.5C 143.552,143.616 144.885,144.616 145.5,146.5C 144.975,147.192 144.308,147.692 143.5,148C 144.793,148.49 146.127,148.657 147.5,148.5 Z"/></g>
<g><path style="opacity:1" fill="#b2d5d0" d="M 165.5,80.5 C 165.167,80.5 164.833,80.5 164.5,80.5C 164.007,78.1944 163.674,75.861 163.5,73.5C 147.762,73.0467 132.096,73.5467 116.5,75C 115.532,84.0422 115.532,93.2088 116.5,102.5C 119.22,103.481 121.553,104.981 123.5,107C 124.823,107.816 125.489,108.983 125.5,110.5C 121.57,108.419 117.736,106.086 114,103.5C 113.5,93.172 113.334,82.8387 113.5,72.5C 130.5,72.5 147.5,72.5 164.5,72.5C 164.833,75.1667 165.167,77.8333 165.5,80.5 Z"/></g>
<g><path style="opacity:1" fill="#a2d5c6" d="M 164.5,80.5 C 164.833,80.5 165.167,80.5 165.5,80.5C 171.973,101.66 177.64,123.16 182.5,145C 182.355,145.772 182.022,146.439 181.5,147C 179.193,146.358 176.859,145.358 174.5,144C 157.989,132.97 141.655,121.804 125.5,110.5C 129.224,111.227 131.891,109.894 133.5,106.5C 134.281,107.729 134.781,109.062 135,110.5C 143.527,101.973 152.027,93.473 160.5,85C 161.784,84.3162 162.951,84.4829 164,85.5C 164.494,83.8659 164.66,82.1992 164.5,80.5 Z"/></g>
<g><path style="opacity:1" fill="#a0d4c5" d="M 164.5,80.5 C 164.66,82.1992 164.494,83.8659 164,85.5C 162.951,84.4829 161.784,84.3162 160.5,85C 152.027,93.473 143.527,101.973 135,110.5C 134.781,109.062 134.281,107.729 133.5,106.5C 131.891,109.894 129.224,111.227 125.5,110.5C 125.489,108.983 124.823,107.816 123.5,107C 121.553,104.981 119.22,103.481 116.5,102.5C 115.532,93.2088 115.532,84.0422 116.5,75C 132.096,73.5467 147.762,73.0467 163.5,73.5C 163.674,75.861 164.007,78.1944 164.5,80.5 Z"/></g>
<g><path style="opacity:1" fill="#e6c5c9" d="M 302.5,168.5 C 302.167,169.167 301.833,169.833 301.5,170.5C 300.521,171.765 299.521,173.099 298.5,174.5C 297.824,173.398 297.158,172.398 296.5,171.5C 295.962,169.883 295.629,168.216 295.5,166.5C 295.657,165.127 295.49,163.793 295,162.5C 289.477,157.299 289.144,151.632 294,145.5C 295.183,144.269 296.349,144.269 297.5,145.5C 299.41,151.132 303.077,153.132 308.5,151.5C 308.785,153.288 308.452,154.955 307.5,156.5C 302.974,159.203 301.308,163.203 302.5,168.5 Z"/></g>
<g><path style="opacity:1" fill="#dee0f2" d="M 130.5,123.5 C 148.606,135.061 166.606,146.894 184.5,159C 186.357,160.182 187.357,161.849 187.5,164C 186.215,167.405 184.548,170.572 182.5,173.5C 182.927,170.624 183.594,167.791 184.5,165C 182.893,161.623 181.226,161.29 179.5,164C 180.576,165.726 180.743,167.559 180,169.5C 178.323,171.525 177.323,173.859 177,176.5C 176.289,174.101 176.456,171.768 177.5,169.5C 177.415,164.657 175.248,161.324 171,159.5C 168.786,159.911 167.453,161.245 167,163.5C 166.684,169.821 166.184,175.821 165.5,181.5C 166.421,183.756 168.088,184.756 170.5,184.5C 170.509,186.308 170.009,187.975 169,189.5C 168.667,189.167 168.333,188.833 168,188.5C 165.504,192.245 164.337,191.578 164.5,186.5C 161.813,186.336 159.146,186.503 156.5,187C 152.448,191.202 151.781,195.868 154.5,201C 156.715,201.17 158.715,201.837 160.5,203C 159.833,204.333 158.833,205.333 157.5,206C 159.211,207.133 159.711,208.633 159,210.5C 157.478,208.259 156.145,205.926 155,203.5C 154.586,203.957 154.086,204.291 153.5,204.5C 152.378,203.37 151.044,202.703 149.5,202.5C 147.952,202.179 147.285,201.179 147.5,199.5C 149.891,197.385 151.224,194.719 151.5,191.5C 154.406,184.488 153.073,178.154 147.5,172.5C 147.78,165.603 147.78,158.603 147.5,151.5C 146.448,151.649 145.448,151.483 144.5,151C 146.119,150.764 147.119,149.931 147.5,148.5C 147.785,146.712 147.452,145.045 146.5,143.5C 144.224,142.787 141.891,142.287 139.5,142C 143.293,142.092 146.627,141.092 149.5,139C 147.25,137.348 144.917,136.848 142.5,137.5C 141.281,136.354 139.948,135.354 138.5,134.5C 136.088,130.456 133.422,126.789 130.5,123.5 Z"/></g>
<g><path style="opacity:1" fill="#3c3b4f" d="M 310.5,171.5 C 308.022,170.117 305.355,169.117 302.5,168.5C 301.308,163.203 302.974,159.203 307.5,156.5C 308.452,154.955 308.785,153.288 308.5,151.5C 303.077,153.132 299.41,151.132 297.5,145.5C 296.349,144.269 295.183,144.269 294,145.5C 289.144,151.632 289.477,157.299 295,162.5C 295.49,163.793 295.657,165.127 295.5,166.5C 293.483,167.529 291.483,168.529 289.5,169.5C 286.213,167.873 284.546,165.207 284.5,161.5C 284.123,153.124 286.789,145.958 292.5,140C 299.477,137.458 305.643,138.624 311,143.5C 312.992,149.454 314.992,155.454 317,161.5C 317.635,163.635 317.301,165.635 316,167.5C 314.188,168.977 312.355,170.31 310.5,171.5 Z"/></g>
<g><path style="opacity:1" fill="#dbe2ee" d="M 269.5,179.5 C 267.615,175.843 265.948,172.01 264.5,168C 261.271,167.414 258.271,167.914 255.5,169.5C 257.628,168.719 257.795,167.719 256,166.5C 254.269,168.617 252.102,170.117 249.5,171C 244.312,174.688 239.978,179.188 236.5,184.5C 235.675,185.386 234.675,185.719 233.5,185.5C 233.333,167.164 233.5,148.83 234,130.5C 242.629,124.11 251.129,117.61 259.5,111C 262.747,108.879 266.081,107.046 269.5,105.5C 269.5,124.167 269.5,142.833 269.5,161.5C 265.743,161.302 262.743,162.635 260.5,165.5C 263.428,166.484 266.428,166.817 269.5,166.5C 269.5,170.833 269.5,175.167 269.5,179.5 Z"/></g>
<g><path style="opacity:1" fill="#a1d4c5" d="M 264.5,157.5 C 259.098,160.86 253.764,164.193 248.5,167.5C 244.861,168.16 241.528,169.494 238.5,171.5C 237.895,159.834 237.728,148.168 238,136.5C 239.113,134.671 240.613,133.837 242.5,134C 239.591,144.745 243.591,149.745 254.5,149C 256.305,148.028 257.972,146.861 259.5,145.5C 261.306,146.859 262.806,146.525 264,144.5C 264.499,148.821 264.666,153.154 264.5,157.5 Z"/></g>
<g><path style="opacity:1" fill="#add7cc" d="M 264.5,157.5 C 264.666,153.154 264.499,148.821 264,144.5C 262.806,146.525 261.306,146.859 259.5,145.5C 257.972,146.861 256.305,148.028 254.5,149C 243.591,149.745 239.591,144.745 242.5,134C 240.613,133.837 239.113,134.671 238,136.5C 237.728,148.168 237.895,159.834 238.5,171.5C 241.528,169.494 244.861,168.16 248.5,167.5C 246.409,169.457 244.409,171.623 242.5,174C 239.783,175.033 237.949,174.2 237,171.5C 236.333,159.5 236.333,147.5 237,135.5C 244.222,130.329 251.055,124.829 257.5,119C 260.273,116.954 262.773,117.121 265,119.5C 265.827,132.34 265.66,145.007 264.5,157.5 Z"/></g>
<g><path style="opacity:1" fill="#3c3b51" d="M 269.5,179.5 C 271.471,183.219 270.471,185.552 266.5,186.5C 265.272,185.694 264.272,184.694 263.5,183.5C 262.523,180.713 262.19,177.713 262.5,174.5C 260.708,174.366 259.042,174.699 257.5,175.5C 257.011,174.005 256.345,172.671 255.5,171.5C 255.5,170.833 255.5,170.167 255.5,169.5C 258.271,167.914 261.271,167.414 264.5,168C 265.948,172.01 267.615,175.843 269.5,179.5 Z"/></g>
<g><path style="opacity:0.929" fill="#bf5d6f" d="M 295.5,166.5 C 295.629,168.216 295.962,169.883 296.5,171.5C 295.584,171.018 294.584,170.685 293.5,170.5C 289.755,171.972 286.088,173.638 282.5,175.5C 281.893,175.376 281.56,175.043 281.5,174.5C 284.167,172.833 286.833,171.167 289.5,169.5C 291.483,168.529 293.483,167.529 295.5,166.5 Z"/></g>
<g><path style="opacity:0.537" fill="#c66574" d="M 302.5,168.5 C 305.355,169.117 308.022,170.117 310.5,171.5C 313.835,173.224 317.002,175.224 320,177.5C 320.44,179.866 320.94,182.199 321.5,184.5C 320.542,184.047 319.708,183.381 319,182.5C 318.767,180.22 317.934,178.22 316.5,176.5C 312.523,175.178 308.856,173.345 305.5,171C 304.207,170.51 302.873,170.343 301.5,170.5C 301.833,169.833 302.167,169.167 302.5,168.5 Z"/></g>
<g><path style="opacity:1" fill="#d84559" d="M 296.5,171.5 C 297.158,172.398 297.824,173.398 298.5,174.5C 299.521,173.099 300.521,171.765 301.5,170.5C 302.873,170.343 304.207,170.51 305.5,171C 308.856,173.345 312.523,175.178 316.5,176.5C 317.934,178.22 318.767,180.22 319,182.5C 319.708,183.381 320.542,184.047 321.5,184.5C 321.598,191.353 322.765,198.02 325,204.5C 326.193,208.148 327.693,211.481 329.5,214.5C 329.5,216.833 329.5,219.167 329.5,221.5C 329.833,226.833 330.167,232.167 330.5,237.5C 328.089,237.863 326.589,236.863 326,234.5C 324.502,227.332 321.835,220.666 318,214.5C 317.174,211.207 316.674,207.874 316.5,204.5C 315.5,204.5 314.5,204.5 313.5,204.5C 313.5,204.167 313.5,203.833 313.5,203.5C 314.935,201.335 314.269,199.835 311.5,199C 312.711,198.107 312.711,197.274 311.5,196.5C 309.535,202.343 309.035,208.343 310,214.5C 311.161,215.995 312.327,217.495 313.5,219C 312.944,220.011 312.278,220.844 311.5,221.5C 302.833,221.5 294.167,221.5 285.5,221.5C 285.5,217.5 285.5,213.5 285.5,209.5C 285.81,206.287 285.477,203.287 284.5,200.5C 282.732,202.508 281.066,204.674 279.5,207C 278.552,207.483 277.552,207.649 276.5,207.5C 276.5,208.5 276.5,209.5 276.5,210.5C 274.151,210.542 272.818,209.375 272.5,207C 272.905,206.055 273.572,205.388 274.5,205C 269.779,202.97 267.612,199.47 268,194.5C 269.525,197.77 271.858,198.77 275,197.5C 276.873,191.833 278.873,186.166 281,180.5C 281.765,178.934 281.598,177.601 280.5,176.5C 280.328,175.508 280.662,174.842 281.5,174.5C 281.56,175.043 281.893,175.376 282.5,175.5C 286.088,173.638 289.755,171.972 293.5,170.5C 294.584,170.685 295.584,171.018 296.5,171.5 Z"/></g>
<g><path style="opacity:1" fill="#add6fa" d="M 211.5,216.5 C 210.139,218.85 208.806,221.184 207.5,223.5C 205.61,223.703 204.11,223.037 203,221.5C 198.554,214.942 194.887,207.942 192,200.5C 191.389,188.487 191.556,176.487 192.5,164.5C 194.577,160.124 197.911,157.124 202.5,155.5C 203.496,155.586 204.329,155.252 205,154.5C 204.995,160.205 204.329,165.872 203,171.5C 202.333,180.5 202.333,189.5 203,198.5C 205.594,204.684 208.427,210.684 211.5,216.5 Z"/></g>
<g><path style="opacity:0.844" fill="#737081" d="M 105.5,52.5 C 104.511,131.811 104.178,211.144 104.5,290.5C 104.167,290.5 103.833,290.5 103.5,290.5C 103.5,212.833 103.5,135.167 103.5,57.5C 103.12,55.302 103.787,53.6354 105.5,52.5 Z"/></g>
<g><path style="opacity:0.342" fill="#bfbec7" d="M 103.5,57.5 C 103.5,135.167 103.5,212.833 103.5,290.5C 102.833,290.5 102.167,290.5 101.5,290.5C 102.164,212.736 102.83,135.069 103.5,57.5 Z"/></g>
<g><path style="opacity:1" fill="#cb5567" d="M 280.5,176.5 C 281.598,177.601 281.765,178.934 281,180.5C 278.873,186.166 276.873,191.833 275,197.5C 271.858,198.77 269.525,197.77 268,194.5C 267.612,199.47 269.779,202.97 274.5,205C 273.572,205.388 272.905,206.055 272.5,207C 272.818,209.375 274.151,210.542 276.5,210.5C 276.5,209.5 276.5,208.5 276.5,207.5C 277.552,207.649 278.552,207.483 279.5,207C 281.066,204.674 282.732,202.508 284.5,200.5C 284.226,206.022 281.893,210.356 277.5,213.5C 277.167,213.5 276.833,213.5 276.5,213.5C 275.5,213.5 274.5,213.5 273.5,213.5C 273.672,212.508 273.338,211.842 272.5,211.5C 270.39,207.595 268.057,203.928 265.5,200.5C 264.516,195.721 262.85,191.221 260.5,187C 261.544,185.826 262.544,184.659 263.5,183.5C 264.272,184.694 265.272,185.694 266.5,186.5C 267.774,189.76 269.44,192.76 271.5,195.5C 272.623,196.757 273.289,196.424 273.5,194.5C 275.947,191.014 277.281,187.014 277.5,182.5C 278.87,180.75 279.87,178.75 280.5,176.5 Z"/></g>
<g><path style="opacity:1" fill="#dbdff3" d="M 222.5,201.5 C 218.447,206.219 214.78,211.219 211.5,216.5C 208.427,210.684 205.594,204.684 203,198.5C 202.333,189.5 202.333,180.5 203,171.5C 204.329,165.872 204.995,160.205 205,154.5C 204.329,155.252 203.496,155.586 202.5,155.5C 205.167,153.167 207.833,150.833 210.5,148.5C 216.178,144.33 222.011,140.33 228,136.5C 229,155.161 229.333,173.827 229,192.5C 226.227,195.099 224.061,198.099 222.5,201.5 Z"/></g>
<g><path style="opacity:1" fill="#e8d0dd" d="M 263.5,183.5 C 262.544,184.659 261.544,185.826 260.5,187C 262.85,191.221 264.516,195.721 265.5,200.5C 264.288,199.77 263.288,198.77 262.5,197.5C 261.808,198.025 261.308,198.692 261,199.5C 260.667,199.167 260.333,198.833 260,198.5C 259.501,194.514 259.334,190.514 259.5,186.5C 258.833,182.833 258.167,179.167 257.5,175.5C 259.042,174.699 260.708,174.366 262.5,174.5C 262.19,177.713 262.523,180.713 263.5,183.5 Z"/></g>
<g><path style="opacity:0.294" fill="#7da6ad" d="M 353.5,189.5 C 358.562,189.849 360.896,192.516 360.5,197.5C 357.545,198.159 354.545,198.492 351.5,198.5C 351.207,195.246 351.874,192.246 353.5,189.5 Z"/></g>
<g><path style="opacity:0.561" fill="#efd6b2" d="M 74.5,195.5 C 76.9393,196.053 79.2727,196.053 81.5,195.5C 83.024,196.527 83.6906,198.027 83.5,200C 83.4411,201.436 83.1078,202.769 82.5,204C 79.9387,203.599 77.2721,203.765 74.5,204.5C 75.4172,201.287 75.4172,198.287 74.5,195.5 Z"/></g>
<g><path style="opacity:1" fill="#dee1f1" d="M 192.5,164.5 C 191.556,176.487 191.389,188.487 192,200.5C 194.887,207.942 198.554,214.942 203,221.5C 204.11,223.037 205.61,223.703 207.5,223.5C 205.163,226.681 202.996,230.014 201,233.5C 196.905,228.553 192.739,223.72 188.5,219C 183.37,215.466 177.703,213.299 171.5,212.5C 172.633,206.818 174.633,201.484 177.5,196.5C 182.506,185.744 187.506,175.078 192.5,164.5 Z"/></g>
<g><path style="opacity:1" fill="#daddf2" d="M 259.5,186.5 C 259.334,190.514 259.501,194.514 260,198.5C 260.333,198.833 260.667,199.167 261,199.5C 261.308,198.692 261.808,198.025 262.5,197.5C 263.288,198.77 264.288,199.77 265.5,200.5C 268.057,203.928 270.39,207.595 272.5,211.5C 271.5,211.5 270.5,211.5 269.5,211.5C 269.5,222.5 269.5,233.5 269.5,244.5C 263.061,244.059 257.061,242.393 251.5,239.5C 253.199,239.66 254.866,239.494 256.5,239C 257.081,238.107 257.415,237.107 257.5,236C 255.943,230.28 254.943,224.447 254.5,218.5C 253.5,218.5 252.5,218.5 251.5,218.5C 251.649,217.448 251.483,216.448 251,215.5C 250.667,215.833 250.333,216.167 250,216.5C 249.049,224.137 247.549,224.303 245.5,217C 248.035,212.892 247.369,209.226 243.5,206C 241.191,205.994 239.025,205.828 237,205.5C 235.941,205.63 235.108,206.13 234.5,207C 241.761,207.61 244.261,211.443 242,218.5C 239.574,220.859 236.741,222.026 233.5,222C 229.851,218.031 229.517,213.698 232.5,209C 231.833,207.667 231.167,206.333 230.5,205C 231.77,202.407 233.103,199.907 234.5,197.5C 236.421,199.469 236.421,200.969 234.5,202C 235.833,202.667 235.833,203.333 234.5,204C 235,204.167 235.5,204.333 236,204.5C 237.667,203.167 239.333,203.167 241,204.5C 242.835,202.916 244.835,201.583 247,200.5C 246.308,195.075 245.308,189.741 244,184.5C 245.588,181.691 247.755,181.025 250.5,182.5C 251.598,178.639 252.431,178.639 253,182.5C 253.17,180.285 253.837,178.285 255,176.5C 256.176,180.096 257.676,183.43 259.5,186.5 Z"/></g>
<g><path style="opacity:0.686" fill="#cc6d79" d="M 321.5,184.5 C 323.108,187.21 324.275,190.21 325,193.5C 326.977,200.407 328.477,207.407 329.5,214.5C 327.693,211.481 326.193,208.148 325,204.5C 322.765,198.02 321.598,191.353 321.5,184.5 Z"/></g>
<g><path style="opacity:1" fill="#b35362" d="M 313.5,203.5 C 312.778,203.082 312.278,202.416 312,201.5C 311.3,208.697 312.8,215.363 316.5,221.5C 314.833,221.5 313.167,221.5 311.5,221.5C 312.278,220.844 312.944,220.011 313.5,219C 312.327,217.495 311.161,215.995 310,214.5C 309.035,208.343 309.535,202.343 311.5,196.5C 312.711,197.274 312.711,198.107 311.5,199C 314.269,199.835 314.935,201.335 313.5,203.5 Z"/></g>
<g><path style="opacity:1" fill="#dde0f3" d="M 255.5,171.5 C 256.345,172.671 257.011,174.005 257.5,175.5C 258.167,179.167 258.833,182.833 259.5,186.5C 257.676,183.43 256.176,180.096 255,176.5C 253.837,178.285 253.17,180.285 253,182.5C 252.431,178.639 251.598,178.639 250.5,182.5C 247.755,181.025 245.588,181.691 244,184.5C 245.308,189.741 246.308,195.075 247,200.5C 244.835,201.583 242.835,202.916 241,204.5C 239.333,203.167 237.667,203.167 236,204.5C 235.5,204.333 235,204.167 234.5,204C 235.833,203.333 235.833,202.667 234.5,202C 236.421,200.969 236.421,199.469 234.5,197.5C 233.103,199.907 231.77,202.407 230.5,205C 231.167,206.333 231.833,207.667 232.5,209C 229.517,213.698 229.851,218.031 233.5,222C 236.741,222.026 239.574,220.859 242,218.5C 244.261,211.443 241.761,207.61 234.5,207C 235.108,206.13 235.941,205.63 237,205.5C 239.025,205.828 241.191,205.994 243.5,206C 247.369,209.226 248.035,212.892 245.5,217C 247.549,224.303 249.049,224.137 250,216.5C 250.333,216.167 250.667,215.833 251,215.5C 251.483,216.448 251.649,217.448 251.5,218.5C 252.5,218.5 253.5,218.5 254.5,218.5C 254.943,224.447 255.943,230.28 257.5,236C 257.415,237.107 257.081,238.107 256.5,239C 254.866,239.494 253.199,239.66 251.5,239.5C 238.941,235.893 227.941,229.726 218.5,221C 217.072,220.421 215.738,220.588 214.5,221.5C 217.075,216.255 220.075,211.255 223.5,206.5C 232.874,193.468 243.541,181.801 255.5,171.5 Z"/></g>
<g><path style="opacity:1" fill="#9f4b5f" d="M 285.5,209.5 C 285.5,213.5 285.5,217.5 285.5,221.5C 294.167,221.5 302.833,221.5 311.5,221.5C 311.5,221.833 311.5,222.167 311.5,222.5C 302.496,223.792 293.496,223.626 284.5,222C 283.944,221.617 283.611,221.117 283.5,220.5C 283.646,216.613 284.313,212.946 285.5,209.5 Z"/></g>
<g><path style="opacity:0.584" fill="#c96774" d="M 313.5,204.5 C 314.5,204.5 315.5,204.5 316.5,204.5C 316.674,207.874 317.174,211.207 318,214.5C 321.835,220.666 324.502,227.332 326,234.5C 326.589,236.863 328.089,237.863 330.5,237.5C 330.167,232.167 329.833,226.833 329.5,221.5C 331.375,226.89 332.375,232.556 332.5,238.5C 330.5,238.833 328.5,239.167 326.5,239.5C 321.721,228.087 317.387,216.42 313.5,204.5 Z"/></g>
<g><path style="opacity:1" fill="#f6f8f9" d="M 174.5,193.5 C 175.272,194.694 176.272,195.694 177.5,196.5C 174.633,201.484 172.633,206.818 171.5,212.5C 177.703,213.299 183.37,215.466 188.5,219C 192.739,223.72 196.905,228.553 201,233.5C 202.996,230.014 205.163,226.681 207.5,223.5C 208.806,221.184 210.139,218.85 211.5,216.5C 214.78,211.219 218.447,206.219 222.5,201.5C 222.65,203.059 222.983,204.726 223.5,206.5C 220.075,211.255 217.075,216.255 214.5,221.5C 211.122,227.652 207.456,233.652 203.5,239.5C 212.206,259.118 217.539,279.618 219.5,301C 220.549,301.492 221.549,301.326 222.5,300.5C 237.497,289.852 252.164,278.852 266.5,267.5C 269.038,264.691 270.038,261.357 269.5,257.5C 269.5,253.167 269.5,248.833 269.5,244.5C 269.5,233.5 269.5,222.5 269.5,211.5C 270.5,211.5 271.5,211.5 272.5,211.5C 273.338,211.842 273.672,212.508 273.5,213.5C 273.667,248.168 273.5,282.835 273,317.5C 272.768,318.737 272.268,319.737 271.5,320.5C 270.883,320.389 270.383,320.056 270,319.5C 269.833,303.49 269.333,287.49 268.5,271.5C 261.538,275.836 255.204,280.836 249.5,286.5C 239.763,293.125 230.263,300.125 221,307.5C 220.5,313.825 220.334,320.158 220.5,326.5C 234.833,326.5 249.167,326.5 263.5,326.5C 263.5,327.5 263.5,328.5 263.5,329.5C 261.897,329.312 260.563,329.812 259.5,331C 214.168,331.5 168.835,331.667 123.5,331.5C 122.209,331.737 121.209,331.404 120.5,330.5C 120.5,329.167 120.5,327.833 120.5,326.5C 126.509,326.666 132.509,326.499 138.5,326C 161.373,304.494 183.873,282.66 206,260.5C 203.809,246.451 197.642,234.451 187.5,224.5C 183.957,221.56 179.957,219.394 175.5,218C 172.036,217.183 168.702,217.517 165.5,219C 147.606,235.233 129.439,251.066 111,266.5C 110.833,282.844 110.333,299.177 109.5,315.5C 108.817,315.863 108.15,316.196 107.5,316.5C 107.5,298.833 107.5,281.167 107.5,263.5C 108.458,263.953 109.292,264.619 110,265.5C 111.61,262.872 111.777,260.205 110.5,257.5C 111.423,258.303 112.423,258.47 113.5,258C 129.393,244.894 145.059,231.56 160.5,218C 163.04,215.795 165.207,213.295 167,210.5C 169.367,204.678 171.867,199.012 174.5,193.5 Z"/></g>
<g><path style="opacity:0.267" fill="#aeafba" d="M 276.5,213.5 C 276.833,213.5 277.167,213.5 277.5,213.5C 277.174,221.684 277.508,229.684 278.5,237.5C 277.781,239.764 277.448,242.097 277.5,244.5C 276.506,234.347 276.172,224.014 276.5,213.5 Z"/></g>
<g><path style="opacity:1" fill="#4b8ca5" d="M 53.5,226.5 C 53.8417,227.338 54.5084,227.672 55.5,227.5C 56.9699,228.978 58.6366,230.311 60.5,231.5C 58.1132,232.92 55.7798,234.253 53.5,235.5C 46.0625,237.234 44.0625,234.734 47.5,228C 49.3453,226.872 51.3453,226.372 53.5,226.5 Z"/></g>
<g><path style="opacity:0.997" fill="#292625" d="M 311.5,221.5 C 313.167,221.5 314.833,221.5 316.5,221.5C 319.913,228.405 321.247,235.738 320.5,243.5C 319.833,243.5 319.5,243.833 319.5,244.5C 318.292,245.234 316.959,245.567 315.5,245.5C 315.778,237.5 314.445,229.834 311.5,222.5C 311.5,222.167 311.5,221.833 311.5,221.5 Z"/></g>
<g><path style="opacity:0.11" fill="#8bbcd3" d="M 81.5,232.5 C 77.697,229.534 74.697,230.201 72.5,234.5C 73.1742,229.849 75.8408,228.349 80.5,230C 81.2524,230.671 81.5858,231.504 81.5,232.5 Z"/></g>
<g><path style="opacity:1" fill="#277b97" d="M 81.5,232.5 C 81.5,233.5 81.5,234.5 81.5,235.5C 79.9157,236.382 78.249,237.215 76.5,238C 75.9707,240.429 74.6374,242.262 72.5,243.5C 71.3565,240.502 71.3565,237.502 72.5,234.5C 74.697,230.201 77.697,229.534 81.5,232.5 Z"/></g>
<g><path style="opacity:1" fill="#dddff2" d="M 130.5,123.5 C 133.422,126.789 136.088,130.456 138.5,134.5C 139.948,135.354 141.281,136.354 142.5,137.5C 144.917,136.848 147.25,137.348 149.5,139C 146.627,141.092 143.293,142.092 139.5,142C 141.891,142.287 144.224,142.787 146.5,143.5C 147.452,145.045 147.785,146.712 147.5,148.5C 146.127,148.657 144.793,148.49 143.5,148C 144.308,147.692 144.975,147.192 145.5,146.5C 144.885,144.616 143.552,143.616 141.5,143.5C 138.619,144.212 136.452,145.878 135,148.5C 134.5,155.158 134.334,161.825 134.5,168.5C 126.596,168.898 121.429,172.898 119,180.5C 118.333,184.167 118.333,187.833 119,191.5C 120.662,194.649 122.495,197.649 124.5,200.5C 122.497,202.982 119.831,203.982 116.5,203.5C 110.404,219.578 115.904,226.244 133,223.5C 139.598,223.644 146.098,222.977 152.5,221.5C 155.256,217.228 156.089,212.561 155,207.5C 152.918,206.089 151.084,204.422 149.5,202.5C 151.044,202.703 152.378,203.37 153.5,204.5C 154.086,204.291 154.586,203.957 155,203.5C 156.145,205.926 157.478,208.259 159,210.5C 159.711,208.633 159.211,207.133 157.5,206C 158.833,205.333 159.833,204.333 160.5,203C 158.715,201.837 156.715,201.17 154.5,201C 151.781,195.868 152.448,191.202 156.5,187C 159.146,186.503 161.813,186.336 164.5,186.5C 164.337,191.578 165.504,192.245 168,188.5C 168.333,188.833 168.667,189.167 169,189.5C 170.009,187.975 170.509,186.308 170.5,184.5C 168.088,184.756 166.421,183.756 165.5,181.5C 166.184,175.821 166.684,169.821 167,163.5C 167.453,161.245 168.786,159.911 171,159.5C 175.248,161.324 177.415,164.657 177.5,169.5C 176.456,171.768 176.289,174.101 177,176.5C 177.323,173.859 178.323,171.525 180,169.5C 180.743,167.559 180.576,165.726 179.5,164C 181.226,161.29 182.893,161.623 184.5,165C 183.594,167.791 182.927,170.624 182.5,173.5C 179.292,179.921 176.625,186.588 174.5,193.5C 171.867,199.012 169.367,204.678 167,210.5C 165.207,213.295 163.04,215.795 160.5,218C 145.059,231.56 129.393,244.894 113.5,258C 112.423,258.47 111.423,258.303 110.5,257.5C 110.5,208.5 110.5,159.5 110.5,110.5C 117.675,114 124.342,118.333 130.5,123.5 Z"/></g>
<g><path style="opacity:1" fill="#d2d3f2" d="M 147.5,199.5 C 147.285,201.179 147.952,202.179 149.5,202.5C 151.084,204.422 152.918,206.089 155,207.5C 156.089,212.561 155.256,217.228 152.5,221.5C 146.098,222.977 139.598,223.644 133,223.5C 115.904,226.244 110.404,219.578 116.5,203.5C 119.831,203.982 122.497,202.982 124.5,200.5C 126.167,202.5 127.833,204.5 129.5,206.5C 129.794,209.754 131.127,212.421 133.5,214.5C 135.265,215.461 137.265,215.795 139.5,215.5C 141.336,211.342 143.002,207.008 144.5,202.5C 145.272,201.306 146.272,200.306 147.5,199.5 Z"/></g>
<g><path style="opacity:1" fill="#c7647c" d="M 144.5,202.5 C 143.002,207.008 141.336,211.342 139.5,215.5C 137.265,215.795 135.265,215.461 133.5,214.5C 135.167,214.5 136.833,214.5 138.5,214.5C 139.436,209.962 141.436,205.962 144.5,202.5 Z"/></g>
<g><path style="opacity:1" fill="#d8485b" d="M 140.5,170.5 C 141.975,172.41 143.975,173.576 146.5,174C 150.924,178.999 152.59,184.832 151.5,191.5C 151.224,194.719 149.891,197.385 147.5,199.5C 146.272,200.306 145.272,201.306 144.5,202.5C 141.436,205.962 139.436,209.962 138.5,214.5C 136.833,214.5 135.167,214.5 133.5,214.5C 131.127,212.421 129.794,209.754 129.5,206.5C 126.577,200.157 123.244,193.99 119.5,188C 119.93,182.009 122.43,177.175 127,173.5C 127.495,175.473 127.662,177.473 127.5,179.5C 127.5,180.167 127.5,180.833 127.5,181.5C 126.666,189.831 130.333,193.664 138.5,193C 143.223,189.746 144.723,185.246 143,179.5C 141.348,178.601 139.848,177.601 138.5,176.5C 138.5,176.167 138.5,175.833 138.5,175.5C 136.105,174.186 133.605,174.186 131,175.5C 129.548,174.093 129.715,172.593 131.5,171C 134.482,170.502 137.482,170.335 140.5,170.5 Z"/></g>
<g><path style="opacity:1" fill="#cb576e" d="M 140.5,170.5 C 143.188,170.166 145.521,170.832 147.5,172.5C 153.073,178.154 154.406,184.488 151.5,191.5C 152.59,184.832 150.924,178.999 146.5,174C 143.975,173.576 141.975,172.41 140.5,170.5 Z"/></g>
<g><path style="opacity:1" fill="#fbf7f7" d="M 138.5,176.5 C 139.848,177.601 141.348,178.601 143,179.5C 144.723,185.246 143.223,189.746 138.5,193C 130.333,193.664 126.666,189.831 127.5,181.5C 130.612,178.651 134.278,176.984 138.5,176.5 Z"/></g>
<g><path style="opacity:1" fill="#edc5c6" d="M 138.5,175.5 C 138.5,175.833 138.5,176.167 138.5,176.5C 134.278,176.984 130.612,178.651 127.5,181.5C 127.5,180.833 127.5,180.167 127.5,179.5C 130.428,176.262 134.094,174.929 138.5,175.5 Z"/></g>
<g><path style="opacity:1" fill="#cf5065" d="M 134.5,168.5 C 136.898,168.259 138.898,168.926 140.5,170.5C 137.482,170.335 134.482,170.502 131.5,171C 129.715,172.593 129.548,174.093 131,175.5C 133.605,174.186 136.105,174.186 138.5,175.5C 134.094,174.929 130.428,176.262 127.5,179.5C 127.662,177.473 127.495,175.473 127,173.5C 122.43,177.175 119.93,182.009 119.5,188C 123.244,193.99 126.577,200.157 129.5,206.5C 127.833,204.5 126.167,202.5 124.5,200.5C 122.495,197.649 120.662,194.649 119,191.5C 118.333,187.833 118.333,184.167 119,180.5C 121.429,172.898 126.596,168.898 134.5,168.5 Z"/></g>
<g><path style="opacity:1" fill="#313249" d="M 283.5,220.5 C 283.611,221.117 283.944,221.617 284.5,222C 293.496,223.626 302.496,223.792 311.5,222.5C 314.445,229.834 315.778,237.5 315.5,245.5C 316.959,245.567 318.292,245.234 319.5,244.5C 317.365,246.369 314.698,247.036 311.5,246.5C 311.388,256.62 311.388,266.62 311.5,276.5C 309.833,276.5 308.167,276.5 306.5,276.5C 303.5,276.5 300.5,276.5 297.5,276.5C 297.167,276.5 296.833,276.5 296.5,276.5C 296.389,275.883 296.056,275.383 295.5,275C 288.986,274.18 282.653,274.347 276.5,275.5C 275.182,272.742 274.515,269.576 274.5,266C 274.53,258.687 275.53,251.52 277.5,244.5C 277.448,242.097 277.781,239.764 278.5,237.5C 279.411,231.507 281.077,225.84 283.5,220.5 Z"/></g>
<g><path style="opacity:0.945" fill="#6ea1b1" d="M 72.5,234.5 C 71.3565,237.502 71.3565,240.502 72.5,243.5C 74.6374,242.262 75.9707,240.429 76.5,238C 78.249,237.215 79.9157,236.382 81.5,235.5C 80.2783,239.725 77.6116,242.725 73.5,244.5C 72.5078,248.783 72.1744,253.116 72.5,257.5C 71.8333,256.5 71.1667,255.5 70.5,254.5C 69.8413,251.545 69.5079,248.545 69.5,245.5C 69.9382,245.565 70.2716,245.399 70.5,245C 68.4098,244.331 66.7432,243.164 65.5,241.5C 66.8333,241.167 66.8333,240.833 65.5,240.5C 65.1594,237.484 63.9927,234.818 62,232.5C 59.5806,234.585 56.7472,235.585 53.5,235.5C 55.7798,234.253 58.1132,232.92 60.5,231.5C 58.6366,230.311 56.9699,228.978 55.5,227.5C 55.1583,226.662 54.4916,226.328 53.5,226.5C 52.2321,224.613 50.3987,223.613 48,223.5C 45.2687,224.617 42.4353,225.283 39.5,225.5C 40.9534,224.067 41.7867,222.4 42,220.5C 39.2809,219.556 36.4475,219.223 33.5,219.5C 33.3253,221.621 33.6586,223.621 34.5,225.5C 31.872,224.375 31.0387,222.375 32,219.5C 33.7635,218.056 35.7635,217.056 38,216.5C 45.9711,217.321 52.9711,220.321 59,225.5C 59.4828,224.552 59.6495,223.552 59.5,222.5C 60.1814,224.158 61.0147,225.825 62,227.5C 62.7504,226.874 63.5838,226.374 64.5,226C 64.3452,223.226 65.0118,220.393 66.5,217.5C 65.9037,214.754 64.2371,213.92 61.5,215C 60.8906,216.948 60.224,218.782 59.5,220.5C 59.0618,220.565 58.7284,220.399 58.5,220C 59.009,217.43 60.009,215.097 61.5,213C 65.8852,212.374 68.2185,214.374 68.5,219C 67.9487,222.655 66.6154,225.989 64.5,229C 65.9596,232.089 67.793,234.922 70,237.5C 70.3768,236.058 71.2101,235.058 72.5,234.5 Z"/></g>
<g><path style="opacity:1" fill="#1e7a9b" d="M 39.5,225.5 C 37.8333,225.5 36.1667,225.5 34.5,225.5C 33.6586,223.621 33.3253,221.621 33.5,219.5C 36.4475,219.223 39.2809,219.556 42,220.5C 41.7867,222.4 40.9534,224.067 39.5,225.5 Z"/></g>
<g><path style="opacity:1" fill="#277d9a" d="M 59.5,222.5 C 59.5,221.833 59.5,221.167 59.5,220.5C 60.224,218.782 60.8906,216.948 61.5,215C 64.2371,213.92 65.9037,214.754 66.5,217.5C 65.0118,220.393 64.3452,223.226 64.5,226C 63.5838,226.374 62.7504,226.874 62,227.5C 61.0147,225.825 60.1814,224.158 59.5,222.5 Z"/></g>
<g><path style="opacity:1" fill="#609aad" d="M 65.5,240.5 C 65.5,240.833 65.5,241.167 65.5,241.5C 62.5176,241.037 59.5176,240.704 56.5,240.5C 56.2865,242.144 56.6198,243.644 57.5,245C 60.8168,245.498 64.1501,245.665 67.5,245.5C 67.5,245.833 67.5,246.167 67.5,246.5C 63.554,247.527 59.554,247.694 55.5,247C 51.5241,244.284 51.5241,241.617 55.5,239C 59.0213,238.309 62.3546,238.809 65.5,240.5 Z"/></g>
<g><path style="opacity:1" fill="#acd5fb" d="M 251.5,239.5 C 257.061,242.393 263.061,244.059 269.5,244.5C 269.5,248.833 269.5,253.167 269.5,257.5C 263.139,256.329 256.806,254.829 250.5,253C 240.563,248.776 230.897,244.11 221.5,239C 217.66,236.493 214.493,233.326 212,229.5C 212.429,226.829 213.263,224.162 214.5,221.5C 215.738,220.588 217.072,220.421 218.5,221C 227.941,229.726 238.941,235.893 251.5,239.5 Z"/></g>
<g><path style="opacity:1" fill="#1f799a" d="M 65.5,241.5 C 66.7432,243.164 68.4098,244.331 70.5,245C 70.2716,245.399 69.9382,245.565 69.5,245.5C 68.8333,245.5 68.1667,245.5 67.5,245.5C 64.1501,245.665 60.8168,245.498 57.5,245C 56.6198,243.644 56.2865,242.144 56.5,240.5C 59.5176,240.704 62.5176,241.037 65.5,241.5 Z"/></g>
<g><path style="opacity:1" fill="#dbe4ed" d="M 120.5,330.5 C 113.426,328.425 109.093,323.758 107.5,316.5C 108.15,316.196 108.817,315.863 109.5,315.5C 110.333,299.177 110.833,282.844 111,266.5C 129.439,251.066 147.606,235.233 165.5,219C 168.702,217.517 172.036,217.183 175.5,218C 179.957,219.394 183.957,221.56 187.5,224.5C 197.642,234.451 203.809,246.451 206,260.5C 183.873,282.66 161.373,304.494 138.5,326C 132.509,326.499 126.509,326.666 120.5,326.5C 120.5,327.833 120.5,329.167 120.5,330.5 Z"/></g>
<g><path style="opacity:1" fill="#a0d5c5" d="M 134.5,249.5 C 134.5,248.833 134.833,248.5 135.5,248.5C 139.342,248.613 142.508,247.28 145,244.5C 149.149,246.111 153.316,247.277 157.5,248C 157.167,247.667 156.833,247.333 156.5,247C 159.378,245.394 162.378,244.061 165.5,243C 167.669,239.174 169.003,235.007 169.5,230.5C 169.314,228.42 168.314,226.92 166.5,226C 167.337,224.989 167.67,223.822 167.5,222.5C 171.817,222.113 175.483,223.446 178.5,226.5C 176.608,226.389 174.608,227.056 172.5,228.5C 170.634,227.437 170.134,228.104 171,230.5C 175.528,228.848 177.695,230.514 177.5,235.5C 182.035,235.617 186.368,235.951 190.5,236.5C 192.35,239.615 192.85,242.948 192,246.5C 188.5,249.333 185.333,252.5 182.5,256C 180.633,256.711 179.133,256.211 178,254.5C 178.333,256.167 178.667,257.833 179,259.5C 169.309,268.963 159.642,278.297 150,287.5C 149.667,287.167 149.333,286.833 149,286.5C 148.667,287.833 148.333,289.167 148,290.5C 144.886,293.254 142.386,296.421 140.5,300C 141.448,300.483 142.448,300.649 143.5,300.5C 143.649,301.552 143.483,302.552 143,303.5C 141.989,302.663 140.822,302.33 139.5,302.5C 139.649,301.448 139.483,300.448 139,299.5C 134.373,303.962 129.873,308.628 125.5,313.5C 126.002,314.521 126.668,314.688 127.5,314C 129.667,311.833 131.833,309.667 134,307.5C 136.157,310.656 138.657,313.489 141.5,316C 139.725,317.439 137.725,318.439 135.5,319C 128.918,319.81 122.418,319.643 116,318.5C 115.073,301.455 115.407,284.455 117,267.5C 118.977,264.688 121.144,262.022 123.5,259.5C 126.45,258.512 129.45,257.679 132.5,257C 132.043,256.586 131.709,256.086 131.5,255.5C 132.37,253.374 133.37,251.374 134.5,249.5 Z"/></g>
<g><path style="opacity:1" fill="#e7d2d9" d="M 332.5,238.5 C 334.36,239.939 336.027,241.605 337.5,243.5C 335.952,243.821 335.285,244.821 335.5,246.5C 331.959,245.184 328.292,244.184 324.5,243.5C 325.806,242.533 326.473,241.199 326.5,239.5C 328.5,239.167 330.5,238.833 332.5,238.5 Z"/></g>
<g><path style="opacity:1" fill="#dcdff3" d="M 214.5,221.5 C 213.263,224.162 212.429,226.829 212,229.5C 214.493,233.326 217.66,236.493 221.5,239C 230.897,244.11 240.563,248.776 250.5,253C 256.806,254.829 263.139,256.329 269.5,257.5C 270.038,261.357 269.038,264.691 266.5,267.5C 252.164,278.852 237.497,289.852 222.5,300.5C 221.549,301.326 220.549,301.492 219.5,301C 217.539,279.618 212.206,259.118 203.5,239.5C 207.456,233.652 211.122,227.652 214.5,221.5 Z"/></g>
<g><path style="opacity:1" fill="#71a3e4" d="M 320.5,243.5 C 321.833,243.5 323.167,243.5 324.5,243.5C 328.292,244.184 331.959,245.184 335.5,246.5C 335.285,244.821 335.952,243.821 337.5,243.5C 338.833,243.5 339.5,244.167 339.5,245.5C 339.5,246.833 339.5,248.167 339.5,249.5C 333.69,250.49 327.69,250.823 321.5,250.5C 321.5,249.833 321.167,249.5 320.5,249.5C 320.5,247.5 320.5,245.5 320.5,243.5 Z"/></g>
<g><path style="opacity:0.271" fill="#b9dee8" d="M 67.5,245.5 C 68.1667,245.5 68.8333,245.5 69.5,245.5C 69.5079,248.545 69.8413,251.545 70.5,254.5C 71.2564,258.602 71.2564,261.269 70.5,262.5C 70.5,261.833 70.1667,261.5 69.5,261.5C 69.7057,256.343 69.039,251.343 67.5,246.5C 67.5,246.167 67.5,245.833 67.5,245.5 Z"/></g>
<g><path style="opacity:1" fill="#3f89a1" d="M 80.5,261.5 C 80.1667,262.5 79.5,263.167 78.5,263.5C 76.8333,263.5 75.1667,263.5 73.5,263.5C 73.6602,265.199 73.4935,266.866 73,268.5C 72.1612,267.376 70.9945,266.709 69.5,266.5C 67.9704,266.64 66.9704,267.307 66.5,268.5C 63.0217,268.816 59.6883,268.316 56.5,267C 54.3061,262.349 55.8061,259.849 61,259.5C 63.7313,260.617 66.5647,261.283 69.5,261.5C 70.1667,261.5 70.5,261.833 70.5,262.5C 71.2564,261.269 71.2564,258.602 70.5,254.5C 71.1667,255.5 71.8333,256.5 72.5,257.5C 73.1667,257.5 73.5,257.167 73.5,256.5C 75.8707,253.816 78.8707,252.482 82.5,252.5C 81.99,255.539 81.3234,258.539 80.5,261.5 Z"/></g>
<g><path style="opacity:0.949" fill="#84aec1" d="M 80.5,261.5 C 81.3234,258.539 81.99,255.539 82.5,252.5C 78.8707,252.482 75.8707,253.816 73.5,256.5C 74.8814,251.943 77.8814,250.109 82.5,251C 85.0823,255.094 84.4156,258.594 80.5,261.5 Z"/></g>
<g><path style="opacity:1" fill="#424e6d" d="M 320.5,243.5 C 320.5,245.5 320.5,247.5 320.5,249.5C 318.661,248.248 316.828,248.248 315,249.5C 314.5,258.494 314.334,267.494 314.5,276.5C 314.5,278.167 314.5,279.833 314.5,281.5C 313.674,286.316 313.174,291.316 313,296.5C 312.828,289.654 312.328,282.987 311.5,276.5C 311.388,266.62 311.388,256.62 311.5,246.5C 314.698,247.036 317.365,246.369 319.5,244.5C 319.5,243.833 319.833,243.5 320.5,243.5 Z"/></g>
<g><path style="opacity:0.983" fill="#46556f" d="M 339.5,245.5 C 341.833,245.5 344.167,245.5 346.5,245.5C 346.5,262.833 346.5,280.167 346.5,297.5C 345.508,297.672 344.842,297.338 344.5,296.5C 344.667,281.163 344.5,265.83 344,250.5C 342.644,249.62 341.144,249.286 339.5,249.5C 339.5,248.167 339.5,246.833 339.5,245.5 Z"/></g>
<g><path style="opacity:1" fill="#d1d4f2" d="M 230.5,256.5 C 234.16,257.193 237.827,258.026 241.5,259C 243.706,261.209 244.04,263.709 242.5,266.5C 234.5,267.833 226.5,267.833 218.5,266.5C 216.74,263.788 216.073,260.788 216.5,257.5C 221.363,257.819 226.03,257.486 230.5,256.5 Z"/></g>
<g><path style="opacity:1" fill="#231e1b" d="M 320.5,271.5 C 320.5,272.5 320.5,273.5 320.5,274.5C 319.292,275.234 317.959,275.567 316.5,275.5C 316.5,267.167 316.5,258.833 316.5,250.5C 317.822,250.33 318.989,250.663 320,251.5C 320.5,258.158 320.666,264.825 320.5,271.5 Z"/></g>
<g><path style="opacity:1" fill="#3b3d46" d="M 320.5,249.5 C 321.167,249.5 321.5,249.833 321.5,250.5C 321.825,257.687 321.491,264.687 320.5,271.5C 320.666,264.825 320.5,258.158 320,251.5C 318.989,250.663 317.822,250.33 316.5,250.5C 316.5,258.833 316.5,267.167 316.5,275.5C 317.959,275.567 319.292,275.234 320.5,274.5C 320.672,275.492 320.338,276.158 319.5,276.5C 317.833,276.5 316.167,276.5 314.5,276.5C 314.334,267.494 314.5,258.494 315,249.5C 316.828,248.248 318.661,248.248 320.5,249.5 Z"/></g>
<g><path style="opacity:0.839" fill="#736d7a" d="M 276.5,275.5 C 282.653,274.347 288.986,274.18 295.5,275C 296.056,275.383 296.389,275.883 296.5,276.5C 295.5,276.5 294.5,276.5 293.5,276.5C 287.925,275.548 282.259,275.214 276.5,275.5 Z"/></g>
<g><path style="opacity:1" fill="#34829e" d="M 87.5,267.5 C 87.8938,268.967 88.2272,270.467 88.5,272C 87.6781,274.472 87.0114,276.972 86.5,279.5C 86.1667,279.5 85.8333,279.5 85.5,279.5C 83.8762,279.64 82.7096,278.973 82,277.5C 81.6667,277.833 81.3333,278.167 81,278.5C 80.5172,277.552 80.3505,276.552 80.5,275.5C 80.1324,271.196 81.7991,268.196 85.5,266.5C 86.4164,266.543 87.0831,266.876 87.5,267.5 Z"/></g>
<g><path style="opacity:0.176" fill="#89b6c2" d="M 87.5,267.5 C 89.4779,268.317 90.4779,269.817 90.5,272C 90.0559,275.059 88.7226,277.559 86.5,279.5C 87.0114,276.972 87.6781,274.472 88.5,272C 88.2272,270.467 87.8938,268.967 87.5,267.5 Z"/></g>
<g><path style="opacity:0.89" fill="#e6d2d6" d="M 314.5,276.5 C 316.167,276.5 317.833,276.5 319.5,276.5C 318.602,277.158 317.602,277.824 316.5,278.5C 319.208,284.738 322.208,290.738 325.5,296.5C 321.833,296.5 318.167,296.5 314.5,296.5C 314.5,291.5 314.5,286.5 314.5,281.5C 314.5,279.833 314.5,278.167 314.5,276.5 Z"/></g>
<g><path style="opacity:1" fill="#eacfd1" d="M 297.5,276.5 C 300.5,276.5 303.5,276.5 306.5,276.5C 307.919,277.451 309.585,277.784 311.5,277.5C 311.5,283.833 311.5,290.167 311.5,296.5C 309.833,296.5 308.167,296.5 306.5,296.5C 306.804,295.85 307.137,295.183 307.5,294.5C 304.546,290.255 302.379,285.589 301,280.5C 299.968,278.973 298.801,277.64 297.5,276.5 Z"/></g>
<g><path style="opacity:1" fill="#3d87a1" d="M 72.5,279.5 C 74.5976,280.935 76.9309,282.102 79.5,283C 77.4556,283.498 76.1223,284.665 75.5,286.5C 71.8307,287.751 68.164,287.751 64.5,286.5C 62.1413,281.339 63.8079,278.672 69.5,278.5C 70.5837,278.685 71.5837,279.018 72.5,279.5 Z"/></g>
<g><path style="opacity:1" fill="#a4d5c8" d="M 134.5,249.5 C 133.37,251.374 132.37,253.374 131.5,255.5C 131.709,256.086 132.043,256.586 132.5,257C 129.45,257.679 126.45,258.512 123.5,259.5C 121.144,262.022 118.977,264.688 117,267.5C 115.407,284.455 115.073,301.455 116,318.5C 122.418,319.643 128.918,319.81 135.5,319C 137.725,318.439 139.725,317.439 141.5,316C 138.657,313.489 136.157,310.656 134,307.5C 131.833,309.667 129.667,311.833 127.5,314C 126.668,314.688 126.002,314.521 125.5,313.5C 129.873,308.628 134.373,303.962 139,299.5C 139.483,300.448 139.649,301.448 139.5,302.5C 140.822,302.33 141.989,302.663 143,303.5C 143.483,302.552 143.649,301.552 143.5,300.5C 142.448,300.649 141.448,300.483 140.5,300C 142.386,296.421 144.886,293.254 148,290.5C 148.333,289.167 148.667,287.833 149,286.5C 149.333,286.833 149.667,287.167 150,287.5C 159.642,278.297 169.309,268.963 179,259.5C 178.667,257.833 178.333,256.167 178,254.5C 179.133,256.211 180.633,256.711 182.5,256C 185.333,252.5 188.5,249.333 192,246.5C 192.85,242.948 192.35,239.615 190.5,236.5C 186.368,235.951 182.035,235.617 177.5,235.5C 177.695,230.514 175.528,228.848 171,230.5C 170.134,228.104 170.634,227.437 172.5,228.5C 174.608,227.056 176.608,226.389 178.5,226.5C 175.483,223.446 171.817,222.113 167.5,222.5C 167.67,223.822 167.337,224.989 166.5,226C 168.314,226.92 169.314,228.42 169.5,230.5C 169.003,235.007 167.669,239.174 165.5,243C 162.378,244.061 159.378,245.394 156.5,247C 156.833,247.333 157.167,247.667 157.5,248C 153.316,247.277 149.149,246.111 145,244.5C 142.508,247.28 139.342,248.613 135.5,248.5C 138.351,245.699 141.351,242.866 144.5,240C 145.793,239.51 147.127,239.343 148.5,239.5C 149.548,235.281 152.215,232.447 156.5,231C 159.167,228 161.833,225 164.5,222C 169.583,220.209 174.583,220.543 179.5,223C 183.967,226.465 188.133,230.298 192,234.5C 194.979,240.459 197.979,246.459 201,252.5C 201.667,255.5 201.667,258.5 201,261.5C 180.787,281.048 160.62,300.548 140.5,320C 131.84,320.5 123.173,320.666 114.5,320.5C 114.167,302.155 114.5,283.821 115.5,265.5C 121.535,259.797 127.868,254.464 134.5,249.5 Z"/></g>
<g><path style="opacity:1" fill="#eacbcd" d="M 276.5,275.5 C 282.259,275.214 287.925,275.548 293.5,276.5C 293.291,277.922 292.791,279.255 292,280.5C 292.028,295.941 290.861,311.274 288.5,326.5C 288.167,326.5 287.833,326.5 287.5,326.5C 284.5,326.5 281.5,326.5 278.5,326.5C 278.918,325.778 279.584,325.278 280.5,325C 279.221,320.285 278.388,315.452 278,310.5C 277.825,315.019 277.325,319.353 276.5,323.5C 276.5,307.5 276.5,291.5 276.5,275.5 Z"/></g>
<g><path style="opacity:0.506" fill="#6da2b1" d="M 78.5,263.5 C 76.6774,264.493 75.3441,265.993 74.5,268C 75.8635,271.227 77.3635,274.394 79,277.5C 79.2784,276.584 79.7784,275.918 80.5,275.5C 80.3505,276.552 80.5172,277.552 81,278.5C 81.3333,278.167 81.6667,277.833 82,277.5C 82.7096,278.973 83.8762,279.64 85.5,279.5C 84.5244,280.815 83.5244,282.148 82.5,283.5C 84.2112,286.255 86.3779,288.589 89,290.5C 89.1829,287.635 89.6829,284.969 90.5,282.5C 90.7373,286.722 90.404,290.889 89.5,295C 88.1623,296.544 86.829,296.377 85.5,294.5C 85.9382,294.565 86.2716,294.399 86.5,294C 84.2567,291.512 82.2567,288.846 80.5,286C 78.8034,285.616 77.1368,285.782 75.5,286.5C 76.1223,284.665 77.4556,283.498 79.5,283C 76.9309,282.102 74.5976,280.935 72.5,279.5C 73.552,279.649 74.552,279.483 75.5,279C 73.4942,276.159 72.1609,272.992 71.5,269.5C 69.9547,268.548 68.288,268.215 66.5,268.5C 66.9704,267.307 67.9704,266.64 69.5,266.5C 70.9945,266.709 72.1612,267.376 73,268.5C 73.4935,266.866 73.6602,265.199 73.5,263.5C 75.1667,263.5 76.8333,263.5 78.5,263.5 Z"/></g>
<g><path style="opacity:1" fill="#77728a" d="M 306.5,276.5 C 308.167,276.5 309.833,276.5 311.5,276.5C 312.328,282.987 312.828,289.654 313,296.5C 313.174,291.316 313.674,286.316 314.5,281.5C 314.5,286.5 314.5,291.5 314.5,296.5C 313.5,297.833 312.5,297.833 311.5,296.5C 311.5,290.167 311.5,283.833 311.5,277.5C 309.585,277.784 307.919,277.451 306.5,276.5 Z"/></g>
<g><path style="opacity:1" fill="#33809c" d="M 93.5,295.5 C 91.5635,296.954 89.8968,298.621 88.5,300.5C 86.412,301.939 84.0786,302.606 81.5,302.5C 75.7139,302.417 74.3806,300.084 77.5,295.5C 79.9479,294.527 82.6146,294.194 85.5,294.5C 86.829,296.377 88.1623,296.544 89.5,295C 90.404,290.889 90.7373,286.722 90.5,282.5C 90.5587,280.278 91.7253,279.278 94,279.5C 98.2059,280.528 99.5392,283.195 98,287.5C 96.7258,290.391 95.2258,293.058 93.5,295.5 Z"/></g>
<g><path style="opacity:1" fill="#dbdef3" d="M 212.5,284.5 C 212.5,284.833 212.5,285.167 212.5,285.5C 212.753,288.977 212.419,292.644 211.5,296.5C 211.512,298.881 210.512,300.548 208.5,301.5C 207.11,306.584 207.277,311.584 209,316.5C 209.333,316.167 209.667,315.833 210,315.5C 210.87,311.176 211.703,306.842 212.5,302.5C 214.978,308.89 214.978,315.224 212.5,321.5C 212.833,322.167 213.167,322.833 213.5,323.5C 198.603,324.823 183.77,324.823 169,323.5C 167.846,325.957 166.512,325.957 165,323.5C 164.667,323.833 164.333,324.167 164,324.5C 163.18,322.272 163.513,320.272 165,318.5C 167.157,321.078 168.323,321.078 168.5,318.5C 169.086,318.709 169.586,319.043 170,319.5C 169.923,318.262 170.089,317.262 170.5,316.5C 172.51,318.171 174.843,318.838 177.5,318.5C 178.091,313.425 177.091,308.758 174.5,304.5C 175.167,303.833 175.833,303.167 176.5,302.5C 175.674,301.549 175.508,300.549 176,299.5C 178.14,297.513 180.64,296.18 183.5,295.5C 182.496,293.323 183.162,292.989 185.5,294.5C 189.793,293.373 192.627,290.706 194,286.5C 194.77,287.598 195.603,287.598 196.5,286.5C 194.69,290.31 194.19,294.31 195,298.5C 196.808,300.396 198.975,300.896 201.5,300C 205.966,296.901 207.466,292.735 206,287.5C 203.379,286.009 200.545,285.342 197.5,285.5C 197.34,283.801 197.506,282.134 198,280.5C 198.741,281.641 199.575,281.641 200.5,280.5C 201.148,278.851 202.148,277.518 203.5,276.5C 204.498,279.164 205.998,281.497 208,283.5C 208.333,282.833 208.667,282.167 209,281.5C 210.359,282.365 211.526,283.365 212.5,284.5 Z"/></g>
<g><path style="opacity:0.976" fill="#5da7bf" d="M 55.5,300.5 C 54.791,301.404 53.791,301.737 52.5,301.5C 46.5445,298.811 44.5445,294.311 46.5,288C 49.2569,287.218 51.7569,287.718 54,289.5C 54.5482,293.17 55.0482,296.837 55.5,300.5 Z"/></g>
<g><path style="opacity:0.557" fill="#83bac9" d="M 64.5,302.5 C 64.6633,300.143 64.4966,297.81 64,295.5C 62.6124,294.446 61.1124,294.28 59.5,295C 58.7512,299.087 58.7512,303.253 59.5,307.5C 56.1934,307.063 53.1934,307.73 50.5,309.5C 49.6411,311.539 50.4744,312.872 53,313.5C 56.587,311.956 60.087,310.289 63.5,308.5C 64.172,309.267 65.0053,309.934 66,310.5C 66.2565,307.443 66.7565,304.443 67.5,301.5C 71.2186,299.981 74.5519,297.981 77.5,295.5C 74.3806,300.084 75.7139,302.417 81.5,302.5C 79.7768,303.807 77.9435,303.807 76,302.5C 75.885,306.614 74.7183,310.281 72.5,313.5C 72.5,313.833 72.5,314.167 72.5,314.5C 72.4431,315.609 72.1098,316.609 71.5,317.5C 68.2245,322.806 63.5578,324.806 57.5,323.5C 55.7779,318.61 57.4446,315.61 62.5,314.5C 60.6258,316.115 59.2925,318.115 58.5,320.5C 60.5914,320.318 62.5914,320.652 64.5,321.5C 65.1321,319.263 66.4654,317.597 68.5,316.5C 67.0508,315.828 65.7175,315.161 64.5,314.5C 64.9382,314.565 65.2716,314.399 65.5,314C 64.2997,312.969 62.9663,312.135 61.5,311.5C 58.7199,312.457 56.0533,313.624 53.5,315C 47.2324,316.092 45.2324,313.592 47.5,307.5C 49.9585,306.081 52.6251,305.081 55.5,304.5C 54.6602,303.265 53.6602,302.265 52.5,301.5C 53.791,301.737 54.791,301.404 55.5,300.5C 56.1679,297.755 57.5012,295.255 59.5,293C 64.0212,291.515 66.3546,293.181 66.5,298C 66.101,299.728 65.4343,301.228 64.5,302.5 Z"/></g>
<g><path style="opacity:1" fill="#419fbe" d="M 64.5,302.5 C 64.1667,304.5 63.8333,306.5 63.5,308.5C 60.087,310.289 56.587,311.956 53,313.5C 50.4744,312.872 49.6411,311.539 50.5,309.5C 53.1934,307.73 56.1934,307.063 59.5,307.5C 58.7512,303.253 58.7512,299.087 59.5,295C 61.1124,294.28 62.6124,294.446 64,295.5C 64.4966,297.81 64.6633,300.143 64.5,302.5 Z"/></g>
<g><path style="opacity:0.667" fill="#7bacb8" d="M 101.5,290.5 C 102.167,290.5 102.833,290.5 103.5,290.5C 101.593,295.427 100.926,300.427 101.5,305.5C 97.5929,305.857 93.5929,305.857 89.5,305.5C 91.2922,304.691 93.2922,304.191 95.5,304C 94.1667,302.667 92.8333,301.333 91.5,300C 90.4232,299.53 89.4232,299.697 88.5,300.5C 89.8968,298.621 91.5635,296.954 93.5,295.5C 95.1271,297.63 96.9604,299.63 99,301.5C 99.2363,297.656 100.07,293.989 101.5,290.5 Z"/></g>
<g><path style="opacity:1" fill="#dfe1f0" d="M 212.5,284.5 C 211.526,283.365 210.359,282.365 209,281.5C 208.667,282.167 208.333,282.833 208,283.5C 205.998,281.497 204.498,279.164 203.5,276.5C 202.148,277.518 201.148,278.851 200.5,280.5C 199.575,281.641 198.741,281.641 198,280.5C 197.506,282.134 197.34,283.801 197.5,285.5C 197.5,286.167 197.167,286.5 196.5,286.5C 195.603,287.598 194.77,287.598 194,286.5C 192.627,290.706 189.793,293.373 185.5,294.5C 183.162,292.989 182.496,293.323 183.5,295.5C 180.64,296.18 178.14,297.513 176,299.5C 175.508,300.549 175.674,301.549 176.5,302.5C 175.833,303.167 175.167,303.833 174.5,304.5C 177.091,308.758 178.091,313.425 177.5,318.5C 174.843,318.838 172.51,318.171 170.5,316.5C 170.089,317.262 169.923,318.262 170,319.5C 169.586,319.043 169.086,318.709 168.5,318.5C 168.323,321.078 167.157,321.078 165,318.5C 163.513,320.272 163.18,322.272 164,324.5C 164.333,324.167 164.667,323.833 165,323.5C 166.512,325.957 167.846,325.957 169,323.5C 183.77,324.823 198.603,324.823 213.5,323.5C 213.167,322.833 212.833,322.167 212.5,321.5C 214.978,315.224 214.978,308.89 212.5,302.5C 211.703,306.842 210.87,311.176 210,315.5C 209.667,315.833 209.333,316.167 209,316.5C 207.277,311.584 207.11,306.584 208.5,301.5C 210.512,300.548 211.512,298.881 211.5,296.5C 212.419,292.644 212.753,288.977 212.5,285.5C 215.733,298.836 217.067,312.502 216.5,326.5C 193.157,326.833 169.824,326.5 146.5,325.5C 165.934,305.234 185.934,285.4 206.5,266C 207.449,265.383 208.282,265.549 209,266.5C 210.277,272.501 211.444,278.501 212.5,284.5 Z"/></g>
<g><path style="opacity:1" fill="#d1d4f2" d="M 197.5,285.5 C 200.545,285.342 203.379,286.009 206,287.5C 207.466,292.735 205.966,296.901 201.5,300C 198.975,300.896 196.808,300.396 195,298.5C 194.19,294.31 194.69,290.31 196.5,286.5C 197.167,286.5 197.5,286.167 197.5,285.5 Z"/></g>
<g><path style="opacity:1" fill="#75a9e7" d="M 306.5,296.5 C 308.167,296.5 309.833,296.5 311.5,296.5C 312.5,297.833 313.5,297.833 314.5,296.5C 318.167,296.5 321.833,296.5 325.5,296.5C 331.833,296.5 338.167,296.5 344.5,296.5C 344.842,297.338 345.508,297.672 346.5,297.5C 348.792,297.244 350.959,297.577 353,298.5C 353.442,310.038 353.609,321.371 353.5,332.5C 352.508,332.328 351.842,332.662 351.5,333.5C 349.612,332.725 347.612,332.725 345.5,333.5C 342.5,333.5 339.5,333.5 336.5,333.5C 334.833,333.5 333.167,333.5 331.5,333.5C 326.833,333.5 322.167,333.5 317.5,333.5C 313.299,332.264 308.965,332.264 304.5,333.5C 303.883,333.389 303.383,333.056 303,332.5C 302.333,321.167 302.333,309.833 303,298.5C 303.816,297.177 304.983,296.511 306.5,296.5 Z"/></g>
<g><path style="opacity:1" fill="#3d9dbe" d="M 72.5,313.5 C 69.4144,312.346 68.081,310.012 68.5,306.5C 68.6667,305.167 68.8333,303.833 69,302.5C 71.4798,300.91 73.3132,301.41 74.5,304C 72.9217,306.968 72.255,310.135 72.5,313.5 Z"/></g>
<g><path style="opacity:1" fill="#287897" d="M 103.5,290.5 C 103.833,290.5 104.167,290.5 104.5,290.5C 104.223,295.233 104.557,299.9 105.5,304.5C 104.37,305.622 103.703,306.956 103.5,308.5C 103.167,308.5 102.833,308.5 102.5,308.5C 101.5,309.167 100.5,309.833 99.5,310.5C 98.209,310.263 97.209,310.596 96.5,311.5C 92.3196,313.506 89.8196,312.173 89,307.5C 88.3457,308.696 87.8457,308.696 87.5,307.5C 87.8627,306.817 88.1961,306.15 88.5,305.5C 88.8333,305.5 89.1667,305.5 89.5,305.5C 93.5929,305.857 97.5929,305.857 101.5,305.5C 100.926,300.427 101.593,295.427 103.5,290.5 Z"/></g>
<g><path style="opacity:1" fill="#4d4d64" d="M 273.5,213.5 C 274.5,213.5 275.5,213.5 276.5,213.5C 276.172,224.014 276.506,234.347 277.5,244.5C 275.53,251.52 274.53,258.687 274.5,266C 274.515,269.576 275.182,272.742 276.5,275.5C 276.5,291.5 276.5,307.5 276.5,323.5C 276.285,325.179 276.952,326.179 278.5,326.5C 275.731,327.972 272.731,329.139 269.5,330C 267.963,331.707 266.296,333.207 264.5,334.5C 264.5,332.833 264.5,331.167 264.5,329.5C 267.209,326.792 269.542,323.792 271.5,320.5C 272.268,319.737 272.768,318.737 273,317.5C 273.5,282.835 273.667,248.168 273.5,213.5 Z"/></g>
<g><path style="opacity:1" fill="#429ebb" d="M 62.5,314.5 C 63.1667,314.5 63.8333,314.5 64.5,314.5C 65.7175,315.161 67.0508,315.828 68.5,316.5C 66.4654,317.597 65.1321,319.263 64.5,321.5C 62.5914,320.652 60.5914,320.318 58.5,320.5C 59.2925,318.115 60.6258,316.115 62.5,314.5 Z"/></g>
<g><path style="opacity:0.996" fill="#59a7c0" d="M 88.5,305.5 C 88.1961,306.15 87.8627,306.817 87.5,307.5C 87.8457,308.696 88.3457,308.696 89,307.5C 89.8196,312.173 92.3196,313.506 96.5,311.5C 96.3329,315.585 94.9996,319.251 92.5,322.5C 91.8182,321.757 91.1515,321.091 90.5,320.5C 89.7839,318.444 89.1172,316.277 88.5,314C 87.8333,313.333 87.1667,313.333 86.5,314C 85.9341,314.995 85.2674,315.828 84.5,316.5C 82.6036,318.837 81.2703,321.504 80.5,324.5C 79.241,329.941 75.9077,332.441 70.5,332C 67.0001,326.687 68.3334,323.187 74.5,321.5C 76.4352,320.85 78.4352,320.517 80.5,320.5C 80.7709,318.62 80.1042,317.287 78.5,316.5C 75.43,307.232 78.7633,303.565 88.5,305.5 Z M 90.5,320.5 C 90.631,321.239 90.4643,321.906 90,322.5C 87.9479,321.277 85.7812,320.277 83.5,319.5C 84.1272,318.583 84.4606,317.583 84.5,316.5C 85.2674,315.828 85.9341,314.995 86.5,314C 87.1667,313.333 87.8333,313.333 88.5,314C 89.1172,316.277 89.7839,318.444 90.5,320.5 Z"/></g>
<g><path style="opacity:1" fill="#55a1f8" d="M 309.5,298.5 C 309.539,299.583 309.873,300.583 310.5,301.5C 309.092,302.243 307.759,303.077 306.5,304C 306.833,304.333 307.167,304.667 307.5,305C 312.5,305.333 317.5,305.667 322.5,306C 319.042,307.415 315.375,307.915 311.5,307.5C 311.5,308.5 311.5,309.5 311.5,310.5C 318.508,310.334 325.508,310.5 332.5,311C 333.167,311.667 333.833,312.333 334.5,313C 326.841,313.5 319.174,313.666 311.5,313.5C 311.5,314.5 311.5,315.5 311.5,316.5C 323.5,316.5 335.5,316.5 347.5,316.5C 347.5,315.5 347.5,314.5 347.5,313.5C 334.167,312.833 334.167,312.167 347.5,311.5C 347.5,310.167 347.5,308.833 347.5,307.5C 341.158,307.666 334.825,307.5 328.5,307C 334.653,305.545 340.986,305.045 347.5,305.5C 347.5,304.167 347.5,302.833 347.5,301.5C 335.5,301.5 323.5,301.5 311.5,301.5C 311.5,300.5 311.5,299.5 311.5,298.5C 324.837,298.333 338.171,298.5 351.5,299C 352.531,309.966 352.531,320.8 351.5,331.5C 336.323,331.576 320.99,331.409 305.5,331C 304.348,320.91 304.181,310.744 305,300.5C 306.11,298.963 307.61,298.297 309.5,298.5 Z"/></g>
<g><path style="opacity:1" fill="#4590e3" d="M 309.5,298.5 C 310.167,298.5 310.833,298.5 311.5,298.5C 311.5,299.5 311.5,300.5 311.5,301.5C 323.5,301.5 335.5,301.5 347.5,301.5C 347.5,302.833 347.5,304.167 347.5,305.5C 340.986,305.045 334.653,305.545 328.5,307C 334.825,307.5 341.158,307.666 347.5,307.5C 347.5,308.833 347.5,310.167 347.5,311.5C 334.167,312.167 334.167,312.833 347.5,313.5C 347.5,314.5 347.5,315.5 347.5,316.5C 335.5,316.5 323.5,316.5 311.5,316.5C 311.5,315.5 311.5,314.5 311.5,313.5C 319.174,313.666 326.841,313.5 334.5,313C 333.833,312.333 333.167,311.667 332.5,311C 325.508,310.5 318.508,310.334 311.5,310.5C 311.5,309.5 311.5,308.5 311.5,307.5C 315.375,307.915 319.042,307.415 322.5,306C 317.5,305.667 312.5,305.333 307.5,305C 307.167,304.667 306.833,304.333 306.5,304C 307.759,303.077 309.092,302.243 310.5,301.5C 309.873,300.583 309.539,299.583 309.5,298.5 Z"/></g>
<g><path style="opacity:0.488" fill="#bad5d8" d="M 72.5,314.5 C 74.3863,315.361 76.2196,316.361 78,317.5C 78.3988,317.272 78.5654,316.938 78.5,316.5C 80.1042,317.287 80.7709,318.62 80.5,320.5C 78.4352,320.517 76.4352,320.85 74.5,321.5C 73.8776,319.878 72.8776,318.545 71.5,317.5C 72.1098,316.609 72.4431,315.609 72.5,314.5 Z"/></g>
<g><path style="opacity:0.875" fill="#83bbc8" d="M 99.5,310.5 C 98.5424,314.379 97.2091,318.045 95.5,321.5C 94.8333,322.167 94.1667,322.833 93.5,323.5C 87.5991,325.398 84.2658,329.398 83.5,335.5C 82.5655,334.432 82.2322,333.099 82.5,331.5C 83.8823,328.606 85.8823,326.106 88.5,324C 86.444,323.689 84.444,323.189 82.5,322.5C 81.8182,323.243 81.1515,323.909 80.5,324.5C 81.2703,321.504 82.6036,318.837 84.5,316.5C 84.4606,317.583 84.1272,318.583 83.5,319.5C 85.7812,320.277 87.9479,321.277 90,322.5C 90.4643,321.906 90.631,321.239 90.5,320.5C 91.1515,321.091 91.8182,321.757 92.5,322.5C 94.9996,319.251 96.3329,315.585 96.5,311.5C 97.209,310.596 98.209,310.263 99.5,310.5 Z"/></g>
<g><path style="opacity:1" fill="#cee1f6" d="M 271.5,320.5 C 269.542,323.792 267.209,326.792 264.5,329.5C 264.167,329.5 263.833,329.5 263.5,329.5C 263.5,328.5 263.5,327.5 263.5,326.5C 249.167,326.5 234.833,326.5 220.5,326.5C 220.334,320.158 220.5,313.825 221,307.5C 230.263,300.125 239.763,293.125 249.5,286.5C 255.204,280.836 261.538,275.836 268.5,271.5C 269.333,287.49 269.833,303.49 270,319.5C 270.383,320.056 270.883,320.389 271.5,320.5 Z"/></g>
<g><path style="opacity:1" fill="#aad5fd" d="M 249.5,286.5 C 255.105,283.265 260.772,279.932 266.5,276.5C 267.833,292.167 267.833,307.833 266.5,323.5C 262.906,325.017 259.906,324.184 257.5,321C 252.632,319.814 248.298,320.814 244.5,324C 237.808,324.831 231.142,324.664 224.5,323.5C 223.386,318.554 223.219,313.554 224,308.5C 232.31,302.358 240.476,296.024 248.5,289.5C 249.386,288.675 249.719,287.675 249.5,286.5 Z"/></g>
<g><path style="opacity:1" fill="#4994e9" d="M 311.5,319.5 C 323.5,319.5 335.5,319.5 347.5,319.5C 347.5,320.5 347.5,321.5 347.5,322.5C 348.552,322.351 349.552,322.517 350.5,323C 348.393,324.264 347.393,326.097 347.5,328.5C 335.5,328.5 323.5,328.5 311.5,328.5C 310.459,325.458 310.459,322.458 311.5,319.5 Z"/></g>
<g><path style="opacity:0.118" fill="#97b5d7" d="M 346.5,245.5 C 347.497,262.325 347.83,279.325 347.5,296.5C 350.365,296.055 352.865,296.722 355,298.5C 355.5,309.828 355.667,321.162 355.5,332.5C 354.833,332.5 354.167,332.5 353.5,332.5C 353.609,321.371 353.442,310.038 353,298.5C 350.959,297.577 348.792,297.244 346.5,297.5C 346.5,280.167 346.5,262.833 346.5,245.5 Z"/></g>
<g><path style="opacity:0.039" fill="#b4c1c6" d="M 102.5,308.5 C 102.833,308.5 103.167,308.5 103.5,308.5C 103.254,314.559 103.587,320.559 104.5,326.5C 100.936,325.577 97.2693,325.244 93.5,325.5C 93.5,324.833 93.5,324.167 93.5,323.5C 94.1667,322.833 94.8333,322.167 95.5,321.5C 97.2789,323.344 99.6122,324.01 102.5,323.5C 102.5,318.5 102.5,313.5 102.5,308.5 Z"/></g>
<g><path style="opacity:1" fill="#28293e" d="M 278.5,326.5 C 281.5,326.5 284.5,326.5 287.5,326.5C 287.5,329.833 287.5,333.167 287.5,336.5C 279.833,336.5 272.167,336.5 264.5,336.5C 264.5,335.833 264.5,335.167 264.5,334.5C 266.296,333.207 267.963,331.707 269.5,330C 272.731,329.139 275.731,327.972 278.5,326.5 Z"/></g>
<g><path style="opacity:1" fill="#717187" d="M 263.5,329.5 C 263.833,329.5 264.167,329.5 264.5,329.5C 264.5,331.167 264.5,332.833 264.5,334.5C 264.5,335.167 264.5,335.833 264.5,336.5C 261.873,337.092 259.206,337.425 256.5,337.5C 209.33,337.832 162.33,337.499 115.5,336.5C 127.538,336.772 139.538,336.438 151.5,335.5C 151.5,334.5 151.5,333.5 151.5,332.5C 141.985,332.827 132.652,332.494 123.5,331.5C 168.835,331.667 214.168,331.5 259.5,331C 260.563,329.812 261.897,329.312 263.5,329.5 Z"/></g>
<g><path style="opacity:1" fill="#4ca0bd" d="M 93.5,323.5 C 93.5,324.167 93.5,324.833 93.5,325.5C 93.233,327.965 92.5664,330.299 91.5,332.5C 90.133,336.459 87.4663,337.459 83.5,335.5C 84.2658,329.398 87.5991,325.398 93.5,323.5 Z"/></g>
<g><path style="opacity:1" fill="#484964" d="M 155.5,332.5 C 184.167,332.5 212.833,332.5 241.5,332.5C 241.5,333.833 241.5,335.167 241.5,336.5C 212.492,336.833 183.492,336.5 154.5,335.5C 154.291,334.914 153.957,334.414 153.5,334C 154.416,333.722 155.082,333.222 155.5,332.5 Z"/></g>
<g><path style="opacity:1" fill="#455478" d="M 317.5,333.5 C 314.018,334.651 311.185,336.651 309,339.5C 306.352,338.781 304.852,337.114 304.5,334.5C 304.5,334.167 304.5,333.833 304.5,333.5C 308.965,332.264 313.299,332.264 317.5,333.5 Z"/></g>
<g><path style="opacity:1" fill="#526080" d="M 351.5,333.5 C 353.194,336.639 352.194,338.639 348.5,339.5C 346.025,338.323 345.025,336.323 345.5,333.5C 347.612,332.725 349.612,332.725 351.5,333.5 Z"/></g>
<g><path style="opacity:1" fill="#4b4d60" d="M 287.5,326.5 C 287.833,326.5 288.167,326.5 288.5,326.5C 289.299,329.43 289.632,332.43 289.5,335.5C 285.42,336.768 281.086,337.435 276.5,337.5C 272.319,337.499 268.319,337.166 264.5,336.5C 272.167,336.5 279.833,336.5 287.5,336.5C 287.5,333.167 287.5,329.833 287.5,326.5 Z"/></g>
<g><path style="opacity:0.984" fill="#c4c7db" d="M 110.5,336.5 C 110.833,336.5 111.167,336.5 111.5,336.5C 112.833,336.5 114.167,336.5 115.5,336.5C 162.33,337.499 209.33,337.832 256.5,337.5C 252.353,338.325 248.019,338.825 243.5,339C 218.663,339.168 193.997,339.668 169.5,340.5C 145.833,340.5 122.167,340.5 98.5,340.5C 95.3107,339.834 91.9773,339.167 88.5,338.5C 95.9891,337.833 103.322,337.167 110.5,336.5 Z"/></g>
<g><path style="opacity:0.62" fill="#d7dee9" d="M 82.5,331.5 C 82.2322,333.099 82.5655,334.432 83.5,335.5C 87.4663,337.459 90.133,336.459 91.5,332.5C 91.4142,333.496 91.7476,334.329 92.5,335C 98.5484,335.252 104.548,335.752 110.5,336.5C 103.322,337.167 95.9891,337.833 88.5,338.5C 91.9773,339.167 95.3107,339.834 98.5,340.5C 68.8333,340.5 39.1667,340.5 9.5,340.5C 9.33003,339.178 9.66337,338.011 10.5,337C 29.1667,336.667 47.8333,336.333 66.5,336C 68,335.5 69.5,335 71,334.5C 74.3975,335.191 77.7308,335.524 81,335.5C 81.21,333.942 81.71,332.609 82.5,331.5 Z"/></g>
<g><path style="opacity:0.341" fill="#d2d6e3" d="M 351.5,333.5 C 351.842,332.662 352.508,332.328 353.5,332.5C 354.167,332.5 354.833,332.5 355.5,332.5C 354.2,333.601 353.7,334.934 354,336.5C 356.937,335.368 359.937,335.368 363,336.5C 364.871,336.709 366.038,337.709 366.5,339.5C 357.021,340.449 347.521,341.116 338,341.5C 281.984,340.679 225.818,340.346 169.5,340.5C 193.997,339.668 218.663,339.168 243.5,339C 248.019,338.825 252.353,338.325 256.5,337.5C 259.206,337.425 261.873,337.092 264.5,336.5C 268.319,337.166 272.319,337.499 276.5,337.5C 281.086,337.435 285.42,336.768 289.5,335.5C 291.641,336.163 293.975,336.497 296.5,336.5C 299.441,336.379 302.108,335.713 304.5,334.5C 304.852,337.114 306.352,338.781 309,339.5C 311.185,336.651 314.018,334.651 317.5,333.5C 322.167,333.5 326.833,333.5 331.5,333.5C 331.082,334.222 330.416,334.722 329.5,335C 334.5,335.667 339.5,335.667 344.5,335C 341.635,334.817 338.969,334.317 336.5,333.5C 339.5,333.5 342.5,333.5 345.5,333.5C 345.025,336.323 346.025,338.323 348.5,339.5C 352.194,338.639 353.194,336.639 351.5,333.5 Z M 331.5,333.5 C 333.167,333.5 334.833,333.5 336.5,333.5C 338.969,334.317 341.635,334.817 344.5,335C 339.5,335.667 334.5,335.667 329.5,335C 330.416,334.722 331.082,334.222 331.5,333.5 Z"/></g>
<g><path style="opacity:0.845" fill="#d3d6e2" d="M 375.5,336.5 C 383.507,336.334 391.507,336.5 399.5,337C 400.337,338.011 400.67,339.178 400.5,340.5C 391.833,340.5 383.167,340.5 374.5,340.5C 374.433,339.041 374.766,337.708 375.5,336.5 Z"/></g>
</svg>
