<?xml version="1.0" encoding="utf-8"?>
<!-- Generator: Adobe Illustrator 27.5.0, SVG Export Plug-In . SVG Version: 6.00 Build 0)  -->
<svg version="1.1" xmlns="http://www.w3.org/2000/svg" xmlns:xlink="http://www.w3.org/1999/xlink" x="0px" y="0px"
	 viewBox="0 0 500 500" style="enable-background:new 0 0 500 500;" xml:space="preserve">
<g id="BACKGROUND">
	<rect style="fill:#FFEEEE;" width="500" height="500"/>
</g>
<g id="OBJECTS">
	<g>
		<defs>
			<rect id="SVGID_1_" width="500" height="500"/>
		</defs>
		<clipPath id="SVGID_00000079483094612442948810000013032683350384914594_">
			<use xlink:href="#SVGID_1_"  style="overflow:visible;"/>
		</clipPath>
		<path style="clip-path:url(#SVGID_00000079483094612442948810000013032683350384914594_);fill:#A9DBD8;" d="M505.693,180.534
			c-16.671-3.555-34.187-2.039-50.108,4.006c-7.94,3.015-15.469,7.105-22.254,12.219c-3.318,2.501-6.462,5.228-9.383,8.184
			c-3.461,3.503-6.311,8.224-11.365,9.477c-4.815,1.194-10.116,0.837-15.04,1.493c-4.698,0.626-9.355,1.547-13.938,2.758
			c-9.357,2.473-18.414,6.156-26.84,10.918c-8.237,4.656-15.375,11.525-24.078,15.293c-10.563,4.574-20.148-0.279-29.673-4.954
			c-9.765-4.793-20.587-8.546-31.625-7.361c-8.841,0.949-17.266,5.042-22.565,12.274c-30.312-13.915-65.296-6.73-94.603,6.327
			c-16.51,7.356-32.099,16.549-47.889,25.296c-7.831,4.338-15.723,8.576-23.805,12.431c-8.475,4.043-17.368,8.277-26.927,8.529
			c-10.309,0.272-20.335-2.546-30.691-1.468c-8.648,0.9-16.994,3.546-24.6,7.72c-0.431-0.536-1.596-0.339-1.687,0.585
			c-0.016,0.158-0.029,0.317-0.044,0.475c-0.212,0.27-0.214,0.615-0.084,0.906c-0.828,8.792-1.275,17.615-1.286,26.447
			c-0.006,4.646,0.102,9.292,0.325,13.932c0.16,3.333-0.137,7.455,1.499,10.491c1.541,2.86,4.707,3.663,7.693,4.108
			c4.543,0.677,9.1,1.272,13.646,1.927c9.005,1.296,18.003,2.643,26.994,4.041c36.463,5.671,72.754,12.284,108.942,19.499
			c18.021,3.593,36.066,7.141,54.282,9.613c18.004,2.443,36.134,3.764,54.268,4.788c37.31,2.108,74.645,3.845,111.966,5.751
			c37.228,1.901,74.455,3.802,111.683,5.703c4.695,0.24,9.391,0.48,14.086,0.719c0.053,0.003,0.102-0.003,0.15-0.007v0.686
			c0,1.187,1.844,1.189,1.844,0V182.756c0-0.266-0.096-0.469-0.24-0.616c0.286,0.058,0.572,0.112,0.857,0.173
			C506.361,182.559,506.855,180.782,505.693,180.534z"/>
		<g style="clip-path:url(#SVGID_00000079483094612442948810000013032683350384914594_);">
			<path style="fill:#61B5B5;" d="M502.623,503.763V402.758c0.147-0.212,0.209-0.478,0.129-0.748
				c-0.038-0.128-0.082-0.253-0.129-0.377v-0.067c0-0.342-0.155-0.582-0.373-0.727c-0.97-1.71-2.795-2.885-4.783-3.002
				c-0.098-0.195-0.265-0.362-0.519-0.455c-22.752-8.332-46.953-11.827-71.076-11.066c0.096-0.743,0.184-1.487,0.257-2.233
				c0.336-3.434,0.327-6.869-0.113-10.293c-0.858-6.678-2.778-13.269-5.017-19.604c-1.262-3.572-2.691-7.086-4.266-10.531
				c-0.432-0.944-2.031-0.274-1.686,0.711c1.092,3.108,1.379,6.383,1.449,9.656c0.074,3.47,0.025,6.945,0.025,10.416
				c0,3.55,0.001,7.101,0.001,10.651c0,3.169-0.125,6.369,0.102,9.533c0.052,0.727,0.133,1.456,0.25,2.176
				c-1.108,0.083-2.215,0.172-3.322,0.273c-0.896-2.588-1.509-5.28-1.882-8c-0.856-6.231-0.44-12.575,0.318-18.793
				c0.786-6.446,1.899-12.847,2.685-19.294c0.772-6.336,1.311-12.712,1.291-19.099c-0.021-6.315-0.599-12.654-2.025-18.814
				c-0.181-0.781-0.376-1.558-0.583-2.332c-0.275-1.026-1.769-0.781-1.811,0.245c-0.262,6.366-0.764,12.721-1.51,19.048
				c-0.744,6.306-1.737,12.583-2.966,18.813c-1.231,6.238-2.857,12.392-4.037,18.639c-1.143,6.047-1.678,12.162-1.272,18.312
				c0.276,4.181,0.941,8.338,1.979,12.399c-1.028,0.143-2.055,0.292-3.08,0.45c-16.537,2.542-32.773,7.016-48.308,13.223
				c-7.522,3.005-14.886,6.406-22.042,10.204c-3.666,1.945-7.268,4.002-10.824,6.14c-4.222,2.539-8.546,5.046-13.66,4.434
				c-4.72-0.564-8.941-3.057-13.098-5.193c-4.028-2.069-8.105-4.04-12.228-5.913c-8.044-3.652-16.256-6.934-24.603-9.826
				c-17.114-5.93-34.794-10.225-52.724-12.792c-8.852-1.267-17.742-1.896-26.639-2.731c-9.22-0.865-18.545-2.311-26.89-6.543
				c-7.898-4.005-14.656-9.842-21.814-14.977c-4.215-3.023-8.546-5.882-12.978-8.578c0.754-3.914,1.439-7.841,1.945-11.796
				c0.759-5.933,1.102-11.947,0.558-17.915c-0.521-5.706-1.901-11.241-4.075-16.539c-2.072-5.049-4.704-9.835-7.493-14.518
				c-2.784-4.675-5.718-9.26-8.417-13.986c-0.341-0.596-0.677-1.195-1.01-1.796c-0.497-0.897-2.031-0.293-1.685,0.71
				c3.576,10.395,8.755,20.184,11.915,30.73c1.544,5.153,2.611,10.48,2.68,15.874c0.034,2.69-0.193,5.365-0.692,8.008
				c-0.513,2.716-1.231,5.387-1.797,8.092c-0.543,2.589-0.932,5.303-0.895,7.98c-20.574-11.156-43.003-18.882-66.075-22.807
				c0.609-5.72,1.052-11.458,1.322-17.204c0.315-6.685,0.399-13.38,0.253-20.071c-0.082-3.771-0.239-7.54-0.466-11.305
				c-0.057-0.943-1.189-1.216-1.718-0.465c-4.137,5.87-6.976,12.67-8.238,19.74c-0.658,3.684-1.021,7.53-0.615,11.262
				c0.2,1.841,0.61,3.627,1.227,5.372c0.589,1.668,1.308,3.287,2.004,4.912c0.968,2.258,1.97,4.663,2.3,7.13
				c-1.074-0.162-2.149-0.319-3.225-0.465c-0.559-1.405-1.118-2.81-1.672-4.217c-2.481-6.295-4.678-12.719-5.11-19.521
				c-0.438-6.905,0.531-13.795,1.521-20.612c1.014-6.981,1.876-13.972,2.406-21.008c0.529-7.037,0.778-14.095,0.745-21.151
				c-0.004-0.873-0.013-1.747-0.025-2.62c-0.014-1.018-1.562-1.28-1.811-0.245c-1.789,7.436-3.55,14.878-5.281,22.327
				c-1.685,7.251-3.467,14.498-4.736,21.837c-1.238,7.159-1.973,14.478-1.257,21.735c0.352,3.564,1.044,7.084,2.133,10.497
				c1.008,3.161,2.298,6.224,3.64,9.255c0.41,0.926,0.827,1.851,1.244,2.777c-4.906-0.469-9.829-0.772-14.758-0.893
				c-4.254-0.105-8.508-0.069-12.761,0.083c-1.183,0.042-1.189,1.887,0,1.844c0.409-0.015,0.818-0.022,1.227-0.034v180.445
				c0,0.203,0.057,0.369,0.147,0.503c0.011,0.262,0.029,0.522,0.053,0.783h-0.013c-1.186,0-1.188,1.844,0,1.844H500.23
				c0.757,0,1.03-0.75,0.82-1.294c0.595-0.811,1.045-1.718,1.319-2.675c0.153-0.148,0.255-0.357,0.255-0.633v-0.636
				c0.059-0.518,0.066-1.045,0.016-1.573C502.637,503.824,502.629,503.794,502.623,503.763z"/>
			<g>
				<polygon style="fill:#61B5B5;" points="441.381,288.223 441.384,288.222 441.379,288.222 441.38,288.222 				"/>
				<path style="fill:#61B5B5;" d="M442.448,318.332c0.622-0.359,1.059-1.111,1.198-1.891c0.139-0.78,0.131-1.602,0.157-2.392
					c0.027-0.816,0.04-1.633,0.051-2.449c0.045-3.214,0.051-6.475,0.888-9.603c1.471-5.496,5.411-10.296,5.042-16.226
					c-0.175-2.811-1.259-5.491-3.603-7.164c-0.513-0.366-1.182,0.034-1.354,0.551c-0.713,2.135-1.426,4.27-2.139,6.405
					c-0.164,0.491-0.327,0.981-0.491,1.471c-0.113,0.336-0.222,0.725-0.456,1.002c-0.053,0.062-0.11,0.115-0.185,0.151
					c-0.03,0.014-0.078,0.024-0.119,0.034c-0.004-0.001-0.023-0.001-0.052,0c0.009,0.001,0.018,0.003,0.027,0.006
					c-0.003,0.001-0.005,0.001-0.008,0.002c-0.007-0.002-0.014-0.005-0.023-0.008c0,0,0,0,0,0c-0.001,0-0.001,0-0.001-0.001
					c0,0-0.001,0-0.001,0c0,0,0,0,0.001,0c-0.002-0.001-0.003-0.001-0.005-0.003c-0.01-0.005-0.016-0.008-0.023-0.012
					c-0.024-0.023-0.056-0.059-0.074-0.078c-0.277-0.385-0.367-0.937-0.386-1.449c-0.03-0.818,0.167-1.429,0.346-2.269
					c0.453-2.128,0.765-4.29,0.94-6.458c0.173-2.147,0.205-4.305,0.093-6.455c-0.056-1.09-0.149-2.178-0.279-3.262
					c-0.1-0.839-0.206-1.664-0.514-2.456c-0.533-1.372-1.592-2.92-3.259-2.806c-1.689,0.115-2.503,1.591-2.538,3.135
					c-0.039,1.773,0.668,3.453,0.64,5.229c-0.02,1.28-0.303,2.526-0.808,3.683c-1.119-4.652-0.702-9.59-2.088-14.206
					c-0.697-2.321-1.824-4.585-3.608-6.264c-0.932-0.877-2.249-1.855-3.546-1.079c-0.961,0.574-1.232,1.809-1.253,2.847
					c-0.016,0.775,0.087,1.561,0.141,2.333c0.062,0.886,0.124,1.773,0.186,2.659c0.076,1.084,0.152,2.167,0.228,3.251
					c-1.51-1.722-2.345-4.031-3.067-6.167c-0.999-2.956-1.973-5.969-4.065-8.362c-1.123-1.285-2.585-2.268-4.252-2.679
					c-0.608-0.15-1.131,0.284-1.167,0.889c-0.399,6.596,1.254,13.31,4.688,18.958c-1.573-1.915-3.852-3.195-6.385-3.502
					c-0.499-0.06-0.917,0.472-0.922,0.922c-0.07,6.301,5.381,10.541,8.927,15.08c0.756,0.967,1.45,1.99,2.024,3.075
					c-0.926-0.104-1.829-0.98-2.415-1.601c-0.515-0.546-0.94-1.166-1.447-1.719c-0.545-0.595-1.173-1.137-1.863-1.557
					c-1.38-0.841-3.062-1.048-4.352,0.069c-1.135,0.983-1.2,2.616-0.739,3.948c0.525,1.516,1.528,2.709,2.622,3.85
					c1.148,1.196,2.378,2.309,3.627,3.398c2.513,2.189,5.127,4.286,7.36,6.771c0.542,0.604,1.067,1.226,1.542,1.884
					c0.457,0.633,0.944,1.354,1.015,2.154c0.045,0.493-0.136,1.048-0.548,1.347c-0.494,0.359-1.087-0.082-1.514-0.44
					c-1.511-1.269-2.99-2.579-4.483-3.868c-1.293-1.116-2.826-2.894-4.726-2.582c-1.564,0.257-2.439,1.934-2.286,3.413
					c0.182,1.771,1.508,3.164,2.57,4.493c1.96,2.455,4.013,4.877,6.447,6.879c2.402,1.975,5.179,3.545,8.277,4.067
					c2.964,0.5,7.355,0.049,8.915,3.301c0.256,0.533,0.326,1.111,0.181,1.684c-0.207,0.817,0.627,1.298,1.234,1.098
					c1.245,6.373,2.218,12.799,2.902,19.256c0.805,7.591,1.225,15.224,1.253,22.857c0.028,7.634-0.334,15.269-1.093,22.865
					c-0.094,0.937-0.194,1.872-0.299,2.808c-0.056,0.496,0.464,0.922,0.922,0.922c0.545,0,0.866-0.425,0.922-0.922
					c0.861-7.656,1.325-15.354,1.386-23.058c0.061-7.668-0.273-15.34-0.997-22.974C445.048,333.474,443.939,325.864,442.448,318.332
					z"/>
			</g>
			<g>
				<polygon style="fill:#61B5B5;" points="82.308,279.037 82.311,279.038 82.306,279.036 82.306,279.036 				"/>
				<path style="fill:#61B5B5;" d="M75.355,308.353c0.695-0.181,1.315-0.79,1.656-1.506c0.341-0.715,0.551-1.51,0.785-2.264
					c0.242-0.78,0.471-1.564,0.699-2.348c0.895-3.087,1.766-6.23,3.402-9.023c2.875-4.91,7.946-8.493,9.163-14.309
					c0.576-2.756,0.242-5.629-1.575-7.863c-0.397-0.489-1.149-0.28-1.452,0.172c-1.254,1.87-2.507,3.739-3.761,5.609
					c-0.288,0.43-0.575,0.859-0.864,1.289c-0.198,0.294-0.407,0.64-0.706,0.845c-0.067,0.046-0.137,0.082-0.218,0.097
					c-0.032,0.006-0.082,0.003-0.123,0.001c-0.004-0.003-0.022-0.008-0.05-0.014c0.008,0.004,0.016,0.008,0.025,0.013
					c-0.003,0-0.005,0-0.008,0c-0.006-0.004-0.012-0.008-0.02-0.014c0,0,0,0,0,0c-0.001,0-0.001,0-0.001-0.001
					c-0.001,0-0.001,0-0.001-0.001c0,0,0,0,0,0c-0.002-0.002-0.002-0.002-0.004-0.004c-0.008-0.007-0.013-0.012-0.019-0.018
					c-0.017-0.029-0.039-0.072-0.051-0.095c-0.165-0.445-0.106-1.001,0.012-1.499c0.188-0.797,0.54-1.333,0.935-2.096
					c1.001-1.932,1.874-3.934,2.618-5.978c0.736-2.024,1.338-4.096,1.801-6.199c0.235-1.066,0.434-2.14,0.596-3.219
					c0.126-0.836,0.242-1.659,0.155-2.505c-0.15-1.464-0.761-3.237-2.398-3.57c-1.659-0.337-2.835,0.871-3.278,2.351
					c-0.508,1.699-0.271,3.507-0.769,5.211c-0.359,1.229-0.962,2.355-1.755,3.337c0.154-4.782,1.865-9.433,1.753-14.251
					c-0.056-2.423-0.543-4.905-1.818-6.996c-0.666-1.093-1.677-2.384-3.133-1.98c-1.079,0.299-1.668,1.417-1.963,2.413
					c-0.22,0.743-0.33,1.528-0.483,2.287c-0.175,0.871-0.35,1.742-0.525,2.613c-0.214,1.065-0.428,2.13-0.642,3.195
					c-1-2.061-1.193-4.509-1.322-6.759c-0.179-3.115-0.32-6.278-1.703-9.14c-0.743-1.537-1.892-2.872-3.39-3.71
					c-0.547-0.306-1.165-0.026-1.361,0.548c-2.133,6.254-2.319,13.166-0.506,19.523c-1.009-2.264-2.867-4.102-5.228-5.069
					c-0.466-0.191-1.009,0.212-1.134,0.645c-1.738,6.057,2.394,11.59,4.61,16.907c0.472,1.133,0.871,2.303,1.137,3.502
					c-0.865-0.346-1.504-1.43-1.904-2.184c-0.352-0.663-0.597-1.374-0.939-2.041c-0.368-0.718-0.83-1.407-1.384-1.995
					c-1.107-1.177-2.674-1.822-4.215-1.087c-1.355,0.647-1.85,2.204-1.759,3.611c0.104,1.6,0.755,3.017,1.508,4.407
					c0.79,1.457,1.681,2.857,2.597,4.238c1.843,2.777,3.808,5.492,5.302,8.48c0.363,0.726,0.704,1.465,0.988,2.226
					c0.273,0.732,0.551,1.556,0.408,2.346c-0.088,0.488-0.409,0.975-0.885,1.154c-0.571,0.215-1.026-0.367-1.343-0.826
					c-1.121-1.624-2.199-3.279-3.298-4.918c-0.951-1.419-1.958-3.54-3.872-3.742c-1.576-0.167-2.864,1.219-3.109,2.685
					c-0.294,1.756,0.616,3.45,1.287,5.014c1.239,2.887,2.576,5.766,4.393,8.342c1.792,2.541,4.055,4.791,6.903,6.116
					c2.725,1.267,7.079,1.997,7.721,5.546c0.105,0.582,0.02,1.158-0.272,1.672c-0.417,0.733,0.261,1.418,0.899,1.386
					c-0.489,6.475-1.254,12.929-2.306,19.337c-1.236,7.533-2.855,15.004-4.851,22.372c-1.996,7.368-4.369,14.634-7.115,21.757
					c-0.339,0.878-0.683,1.754-1.033,2.628c-0.185,0.463,0.203,1.012,0.645,1.134c0.525,0.144,0.948-0.18,1.133-0.645
					c2.86-7.154,5.348-14.454,7.449-21.866c2.092-7.378,3.803-14.864,5.129-22.417C73.847,323.642,74.795,316.01,75.355,308.353z"/>
			</g>
			<g>
				<polygon style="fill:#61B5B5;" points="482.574,304.252 482.576,304.253 482.572,304.251 482.573,304.251 				"/>
				<path style="fill:#61B5B5;" d="M476.821,326.369c0.53-0.126,1.01-0.578,1.28-1.115c0.27-0.537,0.442-1.136,0.633-1.704
					c0.197-0.587,0.383-1.178,0.568-1.769c0.73-2.327,1.441-4.695,2.728-6.787c2.26-3.676,6.165-6.31,7.183-10.701
					c0.482-2.081,0.275-4.264-1.065-5.988c-0.293-0.377-0.866-0.231-1.104,0.107c-0.981,1.397-1.963,2.794-2.944,4.192
					c-0.225,0.321-0.45,0.642-0.676,0.963c-0.155,0.22-0.319,0.479-0.549,0.63c-0.052,0.034-0.105,0.06-0.167,0.07
					c-0.025,0.004-0.062,0.001-0.094-0.001c-0.003-0.002-0.017-0.006-0.038-0.012c0.006,0.003,0.012,0.006,0.018,0.01
					c-0.002,0-0.004,0-0.006-0.001c-0.004-0.003-0.009-0.007-0.015-0.01c0,0,0,0,0,0c0,0,0,0-0.001-0.001c0,0-0.001,0-0.001-0.001
					c0,0,0,0,0,0c-0.001-0.001-0.002-0.002-0.003-0.003c-0.006-0.006-0.009-0.009-0.014-0.014c-0.012-0.022-0.028-0.055-0.037-0.073
					c-0.118-0.34-0.064-0.761,0.034-1.137c0.156-0.601,0.432-1.002,0.744-1.574c0.79-1.449,1.486-2.952,2.083-4.491
					c0.591-1.523,1.082-3.084,1.468-4.672c0.195-0.804,0.364-1.615,0.504-2.431c0.109-0.632,0.211-1.254,0.159-1.897
					c-0.09-1.113-0.524-2.467-1.76-2.746c-1.253-0.283-2.165,0.614-2.524,1.729c-0.413,1.28-0.263,2.655-0.668,3.939
					c-0.292,0.926-0.768,1.771-1.386,2.502c0.195-3.624,1.569-7.123,1.563-10.778c-0.003-1.838-0.332-3.728-1.264-5.335
					c-0.487-0.84-1.232-1.836-2.344-1.553c-0.823,0.209-1.288,1.047-1.528,1.798c-0.179,0.56-0.275,1.153-0.404,1.726
					c-0.147,0.658-0.294,1.315-0.441,1.973c-0.18,0.804-0.359,1.608-0.539,2.412c-0.724-1.579-0.831-3.438-0.892-5.147
					c-0.085-2.365-0.14-4.766-1.142-6.959c-0.538-1.178-1.387-2.209-2.51-2.869c-0.409-0.241-0.883-0.039-1.041,0.393
					c-1.72,4.707-1.974,9.946-0.703,14.796c-0.728-1.733-2.107-3.158-3.882-3.93c-0.35-0.152-0.769,0.144-0.87,0.47
					c-1.417,4.565,1.626,8.828,3.219,12.896c0.34,0.867,0.622,1.76,0.805,2.674c-0.65-0.277-1.117-1.109-1.408-1.687
					c-0.256-0.509-0.43-1.051-0.679-1.563c-0.267-0.55-0.606-1.081-1.016-1.536c-0.82-0.91-1.998-1.426-3.179-0.893
					c-1.038,0.468-1.439,1.641-1.393,2.709c0.053,1.215,0.523,2.301,1.071,3.367c0.575,1.118,1.227,2.194,1.9,3.256
					c1.352,2.136,2.797,4.227,3.882,6.517c0.263,0.556,0.51,1.123,0.712,1.704c0.195,0.559,0.392,1.189,0.271,1.785
					c-0.075,0.368-0.326,0.732-0.69,0.861c-0.436,0.154-0.772-0.295-1.004-0.648c-0.824-1.25-1.614-2.523-2.42-3.784
					c-0.698-1.091-1.427-2.716-2.875-2.901c-1.192-0.152-2.192,0.877-2.402,1.985c-0.251,1.327,0.41,2.626,0.893,3.823
					c0.892,2.209,1.859,4.415,3.195,6.398c1.318,1.956,2.996,3.7,5.135,4.751c2.046,1.006,5.336,1.63,5.765,4.332
					c0.07,0.443-0.004,0.878-0.234,1.263c-0.328,0.549,0.175,1.079,0.659,1.066c-0.477,4.902-1.163,9.784-2.066,14.626
					c-1.061,5.692-2.411,11.331-4.045,16.886c-1.634,5.555-3.553,11.026-5.752,16.382c-0.271,0.66-0.547,1.319-0.826,1.976
					c-0.148,0.348,0.137,0.771,0.47,0.87c0.396,0.118,0.722-0.121,0.87-0.47c2.286-5.378,4.292-10.873,6.007-16.459
					c1.707-5.561,3.127-11.209,4.257-16.915C475.427,337.938,476.271,332.167,476.821,326.369z"/>
			</g>
		</g>
		<g style="clip-path:url(#SVGID_00000079483094612442948810000013032683350384914594_);">
			<path style="fill:#32767C;" d="M446.679,429.891c-0.161-7.706-0.583-15.406-1.186-23.09c-0.603-7.68-1.387-15.346-2.279-22.997
				c-0.111-0.949-0.223-1.898-0.337-2.846c-0.059-0.494-0.382-0.922-0.922-0.922c-0.452,0-0.982,0.424-0.922,0.922
				c0.912,7.608,1.728,15.229,2.374,22.864c0.646,7.646,1.122,15.307,1.35,22.976c0.228,7.642,0.211,15.292-0.132,22.93
				c-0.341,7.591-0.999,15.174-2.073,22.698c-1.076,7.53-2.556,15.005-4.503,22.359c-0.244,0.923-0.497,1.843-0.755,2.762
				c-0.322,1.144,1.457,1.633,1.778,0.49c2.072-7.363,3.674-14.854,4.853-22.411c1.18-7.561,1.955-15.183,2.388-22.823
				C446.744,445.174,446.839,437.529,446.679,429.891z"/>
			<path style="fill:#32767C;" d="M474.303,382.484c-0.032-1.006-0.071-2.013-0.115-3.018c-0.052-1.182-1.896-1.189-1.844,0
				c0.347,7.903,0.316,15.822-0.096,23.722c-0.411,7.889-1.196,15.76-2.361,23.573c-1.167,7.824-2.705,15.594-4.606,23.273
				c-1.901,7.679-4.165,15.268-6.786,22.732c-2.63,7.491-5.619,14.854-8.966,22.054c-0.409,0.881-0.824,1.758-1.244,2.634
				c-0.51,1.065,1.079,2.002,1.592,0.931c3.451-7.206,6.559-14.578,9.304-22.082c2.73-7.463,5.101-15.057,7.107-22.746
				c2.015-7.724,3.661-15.545,4.93-23.427c1.271-7.891,2.174-15.843,2.691-23.819C474.423,398.381,474.557,390.427,474.303,382.484z
				"/>
			<path style="fill:#32767C;" d="M432.449,480.309c-1.338-6.181-2.917-12.369-2.766-18.741c0.081-3.445,0.533-6.875,0.479-10.325
				c-0.047-2.975-0.438-5.944-1.066-8.849c-1.257-5.822-3.468-11.383-5.735-16.872c-2.304-5.577-4.711-11.135-6.377-16.945
				c-0.202-0.704-0.392-1.412-0.571-2.123c-0.111-0.441-0.572-0.727-1.012-0.661c-0.484,0.073-0.749,0.436-0.8,0.906
				c-0.681,6.297-0.476,12.665,0.569,18.912c0.515,3.077,1.251,6.107,2.168,9.089c0.915,2.977,1.951,5.93,2.529,8.998
				c0.593,3.145,0.42,6.293,0.093,9.457c-0.321,3.103-0.616,6.183-0.505,9.307c0.217,6.107,1.565,12.126,3.464,17.917
				c1.922,5.86,4.395,11.524,6.935,17.138c0.316,0.699,0.634,1.397,0.951,2.095c0.206,0.453,0.863,0.564,1.262,0.331
				c0.194-0.114,0.316-0.274,0.382-0.454c0.066,0.039,0.137,0.072,0.218,0.095c0.442,0.121,1.052-0.15,1.134-0.644
				C434.842,492.689,433.774,486.43,432.449,480.309z"/>
			<path style="fill:#32767C;" d="M484.123,428.527c-3.683,9.836-5.99,20.098-8.766,30.207c-2.512,9.149-5.459,18.258-10.102,26.576
				c-2.521,4.516-5.532,8.748-9.148,12.454c-0.829,0.85,0.473,2.155,1.304,1.304c0.159-0.163,0.312-0.332,0.469-0.497
				c0.247,0.351,0.699,0.546,1.173,0.256c8.198-5.021,13.219-13.539,17.931-21.633c2.741-4.708,5.293-9.471,6.51-14.825
				c1.16-5.102,1.357-10.36,1.426-15.572c0.079-5.931-0.022-11.912,0.98-17.78C486.102,427.848,484.542,427.408,484.123,428.527z"/>
			<path style="fill:#32767C;" d="M383.174,498.981c-0.072-0.223-0.211-0.438-0.424-0.551c-0.051-0.021-0.102-0.043-0.153-0.064
				c0.015-7.512-0.457-15.024-1.42-22.474c-0.978-7.559-2.435-15.052-4.393-22.419c-1.099-4.135-2.353-8.228-3.756-12.27
				c-0.331-0.954-1.808-0.838-1.811,0.245c-0.026,9.176-0.052,18.352,0.1,27.527c0.122,7.397,0.025,15.12,2.385,22.224
				c1.223,3.681,3.168,7.119,6.044,9.759c0.654,0.6,1.552,0.02,1.593-0.647c0.04-0.005,0.081-0.005,0.122-0.016l1.069-0.179
				c0.12-0.029,0.225-0.084,0.314-0.165c0.1-0.065,0.18-0.151,0.238-0.259c0.067-0.106,0.104-0.22,0.109-0.343
				C383.218,499.226,383.213,499.103,383.174,498.981z"/>
			<path style="fill:#32767C;" d="M48.562,474.922c-2.592-7.335-6.351-14.268-8.351-21.808c-2.09-7.878-1.36-16.016-1.334-24.066
				c0.025-7.77-0.791-15.542-2.417-23.141c-1.623-7.581-4.067-14.977-7.261-22.041c-0.395-0.874-0.803-1.741-1.221-2.605
				c-0.393-0.812-1.785-0.432-1.718,0.465l1.91,25.648c0.637,8.549,1.274,17.099,1.91,25.648l0.951,12.766
				c0.304,4.075,0.58,8.179,1.463,12.179c1.466,6.642,5.075,12.348,8.743,17.97c3.417,5.237,7.009,10.637,8.263,16.867
				c0.154,0.762,0.267,1.529,0.34,2.303c0.035,0.365,0.23,0.69,0.543,0.838c0.049,0.202,0.105,0.403,0.177,0.597
				c0.249,0.669,0.587,1.25,1.029,1.808c0.177,0.223,0.518,0.292,0.797,0.25c0.153,0.269,0.409,0.458,0.769,0.458
				c0.448,0,0.987-0.425,0.922-0.922C53.046,490.229,51.219,482.443,48.562,474.922z"/>
			<path style="fill:#32767C;" d="M69.744,476.507c-1.141-7.52-2.994-14.907-4.273-22.402c-1.273-7.461-2.036-15.007-2.307-22.571
				c-0.27-7.537-0.049-15.092,0.66-22.6c0.709-7.499,1.917-14.949,3.609-22.289c0.213-0.923,0.434-1.844,0.662-2.764
				c0.285-1.152-1.493-1.644-1.778-0.49c-1.815,7.331-3.145,14.778-3.997,22.282c-0.851,7.494-1.214,15.043-1.086,22.584
				c0.129,7.588,0.761,15.163,1.874,22.669c1.115,7.518,2.903,14.904,4.244,22.38c1.314,7.331,2.182,14.913,1.05,22.33
				c-0.142,0.933-0.317,1.86-0.518,2.782c-0.253,1.157,1.525,1.651,1.778,0.49C71.276,491.515,70.871,483.938,69.744,476.507z"/>
			<path style="fill:#32767C;" d="M92.17,424.678c-0.192-6.185-0.612-12.364-1.26-18.518c-0.081-0.773-0.167-1.546-0.255-2.318
				c-0.056-0.495-0.383-0.922-0.922-0.922c-0.454,0-0.979,0.424-0.922,0.922c0.7,6.119,1.178,12.262,1.428,18.416
				c0.25,6.154,0.275,12.316,0.076,18.471c-0.199,6.156-0.622,12.304-1.269,18.428c-0.644,6.102-1.514,12.18-2.605,18.218
				c-1.095,6.06-2.412,12.081-3.95,18.044c-0.194,0.753-0.392,1.504-0.593,2.255c-0.307,1.148,1.472,1.637,1.778,0.49
				c1.599-5.979,2.979-12.015,4.134-18.095c1.159-6.102,2.091-12.247,2.804-18.417c0.71-6.148,1.196-12.321,1.455-18.504
				C92.327,436.996,92.361,430.834,92.17,424.678z"/>
			<path style="fill:#AF466E;" d="M81.954,365.827c-1.088-0.977-2.482-0.794-3.645-0.075c-0.448,0.277-0.871,0.661-1.375,0.829
				c-0.108,0.036-0.245,0.065-0.369,0.081c1.643-2.275,4.132-3.82,6.225-5.644c2.104-1.833,3.873-4.286,4.197-7.129
				c0.175-1.537-0.127-3.101-1.077-4.35c-0.377-0.495-0.973-0.59-1.451-0.165c-1.574,1.399-3.148,2.799-4.723,4.198
				c-0.562,0.5-1.168,1.203-1.906,1.443c-0.28,0.091-0.465,0.071-0.648-0.047c-0.014-0.009-0.028-0.02-0.043-0.031
				c3.781-3.681,6.366-8.563,7.369-13.739c0.516-2.66,0.639-5.409,0.287-8.098c-0.16-1.226-0.603-2.533-1.602-3.334
				c-0.525-0.421-1.159-0.637-1.83-0.506c-0.364,0.071-0.777,0.233-0.967,0.574c-0.199,0.356-0.258,0.845-0.374,1.235
				c-0.631,2.113-1.47,4.155-2.492,6.104c0.159-2.086,0.318-4.173,0.477-6.259l0.39-5.125c0.063-0.824,0.125-1.647,0.188-2.471
				c0.056-0.73,0.157-1.472,0.131-2.206c-0.038-1.108-0.315-2.456-1.213-3.202c-1.017-0.844-2.481-0.62-3.291,0.395
				c-0.865,1.082-1.021,2.566-1.296,3.877c-0.347,1.653-0.693,3.307-1.039,4.96c-0.467,2.229-0.934,4.459-1.402,6.688
				c-0.004-0.022-0.008-0.045-0.012-0.068l-0.407-2.26c-0.119-0.662-0.209-1.345-0.547-1.94c-0.602-1.059-1.845-1.439-2.93-0.915
				c-0.91,0.439-1.586,1.377-1.984,2.282c-0.52,1.184-0.66,2.514-0.839,3.784c-0.21,1.487-0.357,2.985-0.437,4.484
				c-0.078,1.476-0.089,2.955-0.033,4.432c0.048,1.268,0.203,2.53,0.231,3.798c0.024,1.105-0.036,2.211-0.391,3.267
				c-0.091,0.27-0.208,0.512-0.349,0.728c0.164-3.756-0.832-7.523-2.921-10.68c-0.345-0.522-1.307-0.651-1.594,0.027
				c-1.521,3.6-2.234,7.505-2.034,11.412c0.098,1.914,0.407,3.828,0.929,5.673c0.494,1.745,1.2,3.421,1.574,5.202
				c0.253,1.203,0.398,2.686-0.222,3.781c-0.699-1.551-1.399-3.102-2.098-4.653c-0.424-0.94-0.848-1.88-1.272-2.82
				c-0.371-0.824-0.721-1.77-1.562-2.231c-1.679-0.921-3.063,0.767-3.402,2.262c-0.367,1.613-0.298,3.316-0.01,4.933
				c1.192,6.704,6.476,11.551,9.989,17.066c1.917,3.009,3.405,6.36,3.165,10.001c-0.033,0.497,0.483,0.909,0.947,0.896
				c0.034-0.001,0.065-0.008,0.097-0.012c0.323,0.369,0.894,0.516,1.321,0.051c3.717-4.05,7.237-8.279,10.539-12.673
				c1.647-2.191,3.245-4.419,4.786-6.687c0.776-1.142,1.685-2.328,1.961-3.713C83.214,368.033,82.911,366.685,81.954,365.827z"/>
			<path style="fill:#AF466E;" d="M101.999,416.655c-1.298-0.673-2.602-0.147-3.548,0.84c-0.365,0.381-0.678,0.858-1.124,1.147
				c-0.096,0.062-0.22,0.124-0.337,0.171c1.021-2.614,3.044-4.733,4.614-7.023c1.578-2.301,2.677-5.12,2.278-7.953
				c-0.215-1.532-0.899-2.97-2.132-3.942c-0.489-0.385-1.09-0.327-1.446,0.204c-1.174,1.749-2.348,3.498-3.521,5.247
				c-0.419,0.624-0.83,1.457-1.484,1.874c-0.249,0.159-0.432,0.186-0.639,0.117c-0.015-0.005-0.032-0.012-0.049-0.019
				c2.739-4.51,4.019-9.885,3.694-15.146c-0.167-2.704-0.736-5.396-1.75-7.911c-0.462-1.147-1.218-2.301-2.386-2.827
				c-0.613-0.276-1.281-0.327-1.898-0.032c-0.335,0.16-0.694,0.42-0.793,0.798c-0.103,0.395-0.038,0.883-0.053,1.289
				c-0.082,2.204-0.383,4.391-0.884,6.533c-0.368-2.06-0.737-4.119-1.106-6.179l-0.905-5.059c-0.145-0.813-0.291-1.626-0.436-2.439
				c-0.129-0.721-0.217-1.464-0.425-2.168c-0.315-1.063-0.92-2.299-1.977-2.796c-1.196-0.562-2.557,0.021-3.088,1.206
				c-0.566,1.264-0.346,2.74-0.284,4.078c0.078,1.687,0.157,3.375,0.236,5.062c0.106,2.275,0.212,4.551,0.318,6.826
				c-0.009-0.021-0.019-0.042-0.029-0.062l-0.96-2.086c-0.281-0.611-0.539-1.25-1.016-1.741c-0.848-0.874-2.146-0.931-3.065-0.152
				c-0.771,0.653-1.191,1.73-1.349,2.706c-0.207,1.277-0.01,2.599,0.135,3.874c0.169,1.492,0.401,2.979,0.7,4.451
				c0.294,1.448,0.653,2.883,1.077,4.299c0.364,1.215,0.83,2.399,1.174,3.619c0.3,1.064,0.519,2.149,0.439,3.26
				c-0.02,0.284-0.073,0.548-0.156,0.793c-0.782-3.677-2.689-7.075-5.502-9.608c-0.465-0.419-1.429-0.303-1.536,0.425
				c-0.57,3.866-0.284,7.825,0.888,11.558c0.574,1.828,1.353,3.604,2.32,5.259c0.915,1.566,2.019,3.012,2.826,4.643
				c0.546,1.101,1.058,2.501,0.732,3.716c-1.065-1.326-2.131-2.653-3.196-3.98c-0.646-0.804-1.292-1.608-1.937-2.412
				c-0.566-0.705-1.141-1.533-2.07-1.769c-1.856-0.472-2.773,1.51-2.727,3.042c0.049,1.653,0.541,3.285,1.225,4.779
				c2.833,6.192,9.162,9.561,13.944,14.022c2.609,2.433,4.889,5.304,5.568,8.89c0.093,0.49,0.695,0.759,1.142,0.631
				c0.033-0.009,0.061-0.024,0.091-0.036c0.405,0.276,0.995,0.275,1.292-0.282c2.584-4.852,4.933-9.827,7.03-14.908
				c1.046-2.534,2.035-5.091,2.959-7.672c0.465-1.3,1.048-2.676,0.968-4.086C103.771,418.475,103.14,417.246,101.999,416.655z"/>
			<path style="fill:#AF466E;" d="M487.692,364.485c-1.214-0.814-2.569-0.437-3.619,0.438c-0.405,0.338-0.77,0.777-1.245,1.014
				c-0.102,0.051-0.233,0.099-0.354,0.132c1.307-2.483,3.554-4.363,5.37-6.463c1.825-2.111,3.232-4.788,3.153-7.648
				c-0.043-1.547-0.561-3.052-1.678-4.155c-0.442-0.437-1.046-0.447-1.46,0.041c-1.362,1.607-2.724,3.214-4.086,4.82
				c-0.486,0.573-0.988,1.355-1.684,1.697c-0.265,0.13-0.45,0.136-0.648,0.044c-0.015-0.007-0.031-0.016-0.046-0.025
				c3.226-4.176,5.099-9.373,5.364-14.638c0.136-2.706-0.128-5.445-0.855-8.057c-0.331-1.191-0.953-2.423-2.055-3.076
				c-0.579-0.343-1.237-0.468-1.883-0.244c-0.351,0.122-0.737,0.34-0.877,0.704c-0.147,0.381-0.137,0.873-0.197,1.275
				c-0.327,2.181-0.871,4.321-1.609,6.393c-0.136-2.088-0.272-4.176-0.408-6.264l-0.334-5.129c-0.054-0.824-0.107-1.648-0.161-2.473
				c-0.048-0.731-0.052-1.479-0.18-2.202c-0.194-1.091-0.657-2.388-1.652-3c-1.125-0.693-2.543-0.265-3.203,0.853
				c-0.704,1.193-0.65,2.684-0.738,4.021c-0.111,1.685-0.221,3.371-0.332,5.057c-0.149,2.273-0.298,4.546-0.447,6.818
				c-0.007-0.022-0.014-0.043-0.022-0.065l-0.721-2.18c-0.211-0.639-0.396-1.302-0.815-1.844c-0.745-0.963-2.029-1.165-3.029-0.494
				c-0.839,0.563-1.377,1.587-1.643,2.538c-0.349,1.245-0.3,2.582-0.299,3.865c0.001,1.502,0.066,3.005,0.198,4.501
				c0.13,1.472,0.327,2.938,0.59,4.393c0.226,1.248,0.557,2.476,0.762,3.728c0.18,1.091,0.275,2.194,0.072,3.289
				c-0.052,0.28-0.134,0.536-0.243,0.77c-0.366-3.742-1.881-7.331-4.394-10.163c-0.415-0.468-1.386-0.461-1.574,0.251
				c-0.999,3.778-1.157,7.744-0.409,11.585c0.366,1.881,0.942,3.733,1.718,5.486c0.734,1.659,1.669,3.219,2.29,4.929
				c0.419,1.155,0.772,2.603,0.312,3.775c-0.911-1.437-1.821-2.875-2.732-4.312c-0.552-0.871-1.104-1.742-1.655-2.613
				c-0.484-0.763-0.963-1.651-1.86-1.989c-1.792-0.676-2.924,1.19-3.05,2.718c-0.136,1.648,0.171,3.325,0.683,4.885
				c2.123,6.47,8.035,10.525,12.289,15.492c2.321,2.71,4.265,5.818,4.54,9.457c0.038,0.497,0.606,0.832,1.064,0.754
				c0.034-0.006,0.063-0.017,0.095-0.026c0.372,0.32,0.958,0.385,1.315-0.136c3.11-4.532,6.001-9.214,8.653-14.029
				c1.322-2.401,2.592-4.831,3.798-7.293c0.608-1.24,1.34-2.542,1.419-3.952C489.249,366.492,488.759,365.2,487.692,364.485z"/>
			<path style="fill:#AF466E;" d="M455.246,376.454c-1.29-0.688-2.6-0.178-3.557,0.799c-0.369,0.377-0.688,0.85-1.137,1.134
				c-0.097,0.061-0.222,0.122-0.339,0.167c1.052-2.602,3.099-4.697,4.696-6.968c1.605-2.283,2.737-5.088,2.371-7.925
				c-0.198-1.535-0.864-2.981-2.086-3.966c-0.484-0.391-1.086-0.34-1.448,0.187c-1.194,1.735-2.388,3.47-3.583,5.205
				c-0.426,0.619-0.847,1.448-1.506,1.857c-0.25,0.156-0.435,0.181-0.64,0.109c-0.016-0.005-0.032-0.012-0.049-0.02
				c2.792-4.478,4.135-9.837,3.872-15.102c-0.135-2.706-0.673-5.405-1.657-7.931c-0.449-1.152-1.191-2.315-2.353-2.854
				c-0.61-0.283-1.278-0.341-1.898-0.054c-0.337,0.156-0.699,0.412-0.802,0.788c-0.108,0.393-0.048,0.882-0.068,1.289
				c-0.108,2.203-0.435,4.386-0.961,6.522c-0.344-2.064-0.689-4.128-1.033-6.191l-0.846-5.07c-0.136-0.815-0.272-1.63-0.408-2.444
				c-0.12-0.723-0.2-1.467-0.4-2.173c-0.302-1.067-0.893-2.31-1.943-2.819c-1.189-0.576-2.557-0.009-3.102,1.17
				c-0.581,1.258-0.378,2.736-0.331,4.074c0.059,1.688,0.117,3.376,0.176,5.065c0.079,2.276,0.159,4.553,0.238,6.829
				c-0.009-0.021-0.019-0.042-0.028-0.063l-0.936-2.097c-0.274-0.615-0.524-1.256-0.995-1.753c-0.837-0.884-2.135-0.956-3.063-0.188
				c-0.779,0.644-1.211,1.716-1.381,2.69c-0.222,1.274-0.04,2.599,0.089,3.875c0.152,1.494,0.366,2.983,0.648,4.459
				c0.277,1.452,0.62,2.891,1.027,4.311c0.35,1.219,0.802,2.408,1.132,3.633c0.288,1.067,0.493,2.156,0.401,3.265
				c-0.024,0.284-0.079,0.547-0.165,0.791c-0.739-3.686-2.605-7.106-5.389-9.672c-0.46-0.424-1.425-0.32-1.541,0.407
				c-0.616,3.859-0.376,7.821,0.752,11.568c0.552,1.835,1.311,3.62,2.258,5.286c0.897,1.577,1.983,3.035,2.772,4.675
				c0.533,1.108,1.028,2.513,0.689,3.724c-1.05-1.339-2.1-2.678-3.15-4.017c-0.636-0.811-1.273-1.623-1.909-2.434
				c-0.557-0.711-1.123-1.546-2.049-1.793c-1.85-0.493-2.791,1.477-2.763,3.009c0.03,1.654,0.503,3.291,1.169,4.793
				c2.76,6.225,9.049,9.668,13.778,14.184c2.58,2.464,4.827,5.362,5.464,8.954c0.087,0.491,0.686,0.767,1.134,0.644
				c0.033-0.009,0.061-0.023,0.092-0.035c0.402,0.281,0.992,0.287,1.295-0.267c2.641-4.821,5.048-9.769,7.205-14.825
				c1.075-2.522,2.095-5.066,3.049-7.637c0.48-1.294,1.079-2.663,1.016-4.074C456.996,378.296,456.379,377.059,455.246,376.454z"/>
		</g>
	</g>
	<g>
		<defs>
			<rect id="SVGID_00000116196016088443806830000012140259573514313372_" width="500" height="296.686"/>
		</defs>
		<clipPath id="SVGID_00000110471190196497328960000017585999017738442885_">
			<use xlink:href="#SVGID_00000116196016088443806830000012140259573514313372_"  style="overflow:visible;"/>
		</clipPath>
		<g style="clip-path:url(#SVGID_00000110471190196497328960000017585999017738442885_);">
			<path style="fill:#78C1D8;" d="M506.015,29.538c-11.63-5.861-25.658-6.525-37.856-2.009
				c-11.878,4.398-21.39,13.736-26.402,25.333c-2.625,6.074-4.033,12.648-3.947,19.268c-6.22-0.619-12.532,0.458-18.298,2.845
				c-6.186,2.561-11.763,6.476-16.424,11.272c-4.879,5.02-8.613,10.933-11.28,17.392c-2.945,7.131-4.535,14.755-5.202,22.424
				c-0.672,7.723-0.397,15.508,0.441,23.207c0.07,0.641,0.149,1.28,0.226,1.92c-3.876-1.593-8.61-0.635-11.759,2.115
				c-0.481,0.42-0.921,0.89-1.314,1.398c-2.287-7.375-6.31-14.172-11.542-19.845c-5.648-6.125-12.73-10.949-20.577-13.776
				c-7.891-2.843-16.448-3.466-24.639-1.616c-8.071,1.823-15.618,5.887-21.698,11.483c-6.063,5.58-10.694,12.824-12.718,20.846
				c-0.243,0.964-0.446,1.937-0.613,2.917c-0.084,0.49,0.13,0.993,0.644,1.134c0.443,0.122,1.05-0.15,1.134-0.644
				c1.343-7.876,5.233-15.106,10.733-20.864c5.511-5.771,12.538-10.097,20.194-12.361c7.727-2.285,15.89-2.278,23.627-0.041
				c7.726,2.233,14.794,6.523,20.552,12.114c5.789,5.621,10.311,12.591,12.851,20.264c0.317,0.956,0.601,1.922,0.857,2.896
				c0.189,0.719,1.341,0.958,1.685,0.22c2.227-4.769,8.804-6.698,13.233-3.821c0.834,0.542,1.613-0.482,1.269-1.21
				c0.029-0.09,0.046-0.184,0.033-0.283c-0.952-7.544-1.407-15.168-1.005-22.768c0.395-7.467,1.648-14.912,4.13-21.98
				c2.28-6.495,5.624-12.586,10.163-17.78c4.298-4.918,9.514-9.043,15.401-11.893c5.704-2.761,12.051-4.217,18.397-3.849
				c0.817,0.047,1.631,0.126,2.443,0.229c0.483,0.062,0.938-0.472,0.922-0.922c-0.433-11.942,4.165-23.866,12.264-32.621
				c8.434-9.117,20.438-14.091,32.818-14.115c7.023-0.014,14.046,1.546,20.326,4.711C506.142,31.663,507.077,30.073,506.015,29.538z
				"/>
			<path style="fill:#78C1D8;" d="M186.914,174.889c-5.361-6.351-12.659-10.819-20.574-13.237
				c-8.041-2.456-16.675-2.839-24.937-1.36c-8.519,1.524-16.414,5.191-23.241,10.483c-7.139,5.533-12.942,12.7-17.272,20.604
				c-4.376,7.988-7.321,16.769-8.747,25.76c-0.104,0.653-0.197,1.308-0.285,1.963c-5.128-1.926-11.426,0.221-14.739,4.533
				c-0.665,0.865-1.205,1.823-1.589,2.842c-3.426-4.744-7.73-8.816-12.621-12.037c-5.447-3.588-11.632-6.121-18.044-7.327
				c-6.397-1.203-12.971-1.074-19.308,0.423c-6.237,1.474-12.19,4.219-17.392,7.957c-5.213,3.745-9.719,8.469-13.082,13.945
				c-0.413,0.673-0.807,1.357-1.185,2.05c-0.568,1.043,1.024,1.974,1.592,0.931c2.965-5.441,7.055-10.199,11.904-14.05
				c4.813-3.822,10.398-6.711,16.297-8.432c5.957-1.738,12.228-2.245,18.382-1.419c6.267,0.84,12.35,2.996,17.795,6.2
				c5.393,3.174,10.208,7.405,13.909,12.462c0.46,0.628,0.902,1.27,1.33,1.921c0.392,0.597,1.546,0.619,1.685-0.22
				c0.912-5.503,6.711-9.081,12.052-8.599c1.037,0.094,2.075,0.386,3.041,0.844c0.167,0.184,0.406,0.309,0.639,0.33
				c0.166,0.095,0.329,0.195,0.489,0.301c0.993,0.655,1.918-0.941,0.931-1.592c-0.115-0.076-0.233-0.146-0.35-0.217
				c1.091-8.612,3.597-17.088,7.447-24.87c3.897-7.878,9.184-15.086,15.83-20.867c6.357-5.529,13.87-9.572,22.079-11.527
				c7.857-1.871,16.183-1.921,24.041-0.032c7.734,1.859,15.021,5.638,20.618,11.341c0.695,0.708,1.361,1.443,2.001,2.201
				c0.321,0.381,0.973,0.331,1.304,0C187.291,175.816,187.236,175.271,186.914,174.889z"/>
			<path style="fill:#78C1D8;" d="M272.585,99.523c-0.748-4.756-3.138-9.385-6.899-12.449c-0.341-0.278-0.693-0.54-1.051-0.794
				c0.531-9.954-0.581-20.48-6.347-28.903c-2.507-3.662-5.8-6.839-9.767-8.878c-4.382-2.252-9.343-3.064-14.236-2.842
				c-5.23,0.237-10.367,1.531-15.267,3.339c-0.008-0.135-0.047-0.277-0.134-0.421c-4.321-7.142-10.538-13.04-17.739-17.231
				c-7.212-4.198-15.409-6.714-23.744-7.194c-8.354-0.482-16.699,1.232-24.183,4.976c-7.412,3.709-13.832,9.272-18.755,15.922
				c-4.915,6.639-8.318,14.486-9.505,22.678c-0.082,0.563-0.152,1.127-0.216,1.692c-5.011-2.976-10.58-4.98-16.369-5.721
				c-5.676-0.727-11.54-0.117-16.859,2.035c-4.938,1.998-9.419,5.173-12.698,9.396c-3.305,4.257-5.207,9.387-5.406,14.781
				c-0.19,5.164,1.194,10.492,4.229,14.711c-2.939-0.005-5.784,1.117-8.121,2.968c-2.985,2.364-4.889,5.849-5.242,9.636
				c-0.361,3.881,0.907,7.857,3.114,11.031c2.383,3.427,5.777,5.885,9.686,7.306c4.545,1.651,9.535,1.811,14.263,0.96
				c0.063-0.011,0.123-0.032,0.179-0.059c7.327,6.165,16.379,10.148,25.871,11.42c9.676,1.297,19.567-0.39,28.347-4.632
				c4.886-2.361,9.388-5.522,13.26-9.324c0.027-0.027,0.046-0.055,0.069-0.082c6.192,4.124,13.617,6.248,21.055,6.042
				c7.769-0.215,15.525-2.688,22.309-6.415c3.505-1.925,6.748-4.391,9.031-7.715c0.028-0.041,0.048-0.086,0.067-0.131
				c0.069-0.044,0.137-0.096,0.201-0.167c0.57-0.632,1.177-1.228,1.827-1.778c0.609-0.516,1.279-1.08,2.001-1.427
				c0.694-0.333,1.216,0.196,1.822,0.502c0.466,0.235,0.951,0.421,1.448,0.565c0.075,0.147,0.186,0.272,0.341,0.344
				c5.994,2.76,12.646,3.467,19.179,3.061c3.254-0.202,6.495-0.657,9.697-1.264c2.829-0.536,5.638-1.22,8.355-2.183
				c5.273-1.87,10.354-4.877,13.467-9.658C272.561,109.483,273.345,104.35,272.585,99.523z M267.415,113.883
				c-3.006,3.752-7.291,6.154-11.776,7.71c-4.89,1.697-10.109,2.64-15.253,3.126c-5.52,0.522-11.179,0.378-16.52-1.23
				c-0.944-0.284-1.873-0.613-2.783-0.99c-0.068-0.34-0.299-0.669-0.648-0.716c-0.964-0.13-1.826-0.436-2.666-0.921
				c-0.928-0.535-1.841-0.776-2.863-0.332c-0.859,0.373-1.626,1.004-2.349,1.59c-0.765,0.62-1.475,1.302-2.134,2.033
				c-0.1,0.11-0.166,0.228-0.205,0.346c-0.136,0.079-0.257,0.187-0.351,0.324c-1.897,2.761-4.582,4.856-7.45,6.533
				c-3.115,1.822-6.473,3.272-9.898,4.401c-7.101,2.34-14.725,3.1-22.022,1.208c-3.906-1.012-7.596-2.708-10.922-4.993
				c-0.411-0.282-1.023-0.077-1.261,0.331c-0.01,0.018-0.016,0.036-0.025,0.054c-0.203,0.004-0.41,0.08-0.597,0.262
				c-6.676,6.555-15.253,11.046-24.413,12.916c-9.242,1.887-18.903,0.871-27.633-2.661c-4.911-1.987-9.51-4.805-13.502-8.288
				c-0.375-0.327-0.935-0.369-1.304,0c-0.052,0.052-0.094,0.114-0.132,0.178c-7.423,1.296-15.831-0.32-20.861-6.311
				c-2.209-2.63-3.662-6.017-3.778-9.469c-0.115-3.425,1.159-6.651,3.593-9.066c2.536-2.516,6.216-4.038,9.795-3.285
				c0.915,0.192,1.515-0.84,0.897-1.541c-3.259-3.696-4.95-8.582-5.104-13.474c-0.158-4.996,1.247-9.902,4.049-14.041
				c2.813-4.156,6.876-7.379,11.402-9.496c4.846-2.267,10.227-3.12,15.548-2.75c5.753,0.399,11.387,2.222,16.416,5.016
				c0.648,0.36,1.286,0.737,1.916,1.129c0.141,0.087,0.279,0.128,0.411,0.138c0.158,0.11,0.345,0.177,0.529,0.177
				c0.532,0,0.882-0.424,0.922-0.922c0.648-7.986,3.493-15.701,7.869-22.389c4.384-6.698,10.337-12.385,17.277-16.385
				c6.969-4.016,14.853-6.169,22.9-6.182c8.02-0.013,16.023,1.983,23.159,5.625c7.131,3.64,13.473,8.925,18.052,15.517
				c0.556,0.8,1.085,1.618,1.589,2.452c0.068,0.112,0.149,0.197,0.236,0.264c-0.136,0.203-0.193,0.453-0.118,0.724
				c0.122,0.444,0.667,0.824,1.134,0.644c5.078-1.955,10.436-3.42,15.897-3.644c5.218-0.214,10.473,0.794,14.927,3.615
				c4.114,2.604,7.28,6.501,9.465,10.816c2.515,4.968,3.646,10.541,3.974,16.068c0.088,1.485,0.121,2.973,0.108,4.46
				c-0.006,0.744-0.023,1.487-0.05,2.23c-0.013,0.343-0.027,0.685-0.043,1.028c-0.019,0.389-0.127,0.89-0.022,1.271
				c0.147,0.535,0.887,0.853,1.304,1.172c0.408,0.312,0.797,0.652,1.171,1.003c0.717,0.673,1.386,1.407,1.971,2.198
				c2.403,3.25,3.701,7.25,3.78,11.262C271.104,106.632,269.958,110.707,267.415,113.883z"/>
		</g>
	</g>
	<g>
		<defs>
			<rect id="SVGID_00000092435239235389966560000001561106962294541706_" x="89.045" y="-0.914" width="320.576" height="500"/>
		</defs>
		<clipPath id="SVGID_00000145050254058139971180000018234570741278846115_">
			<use xlink:href="#SVGID_00000092435239235389966560000001561106962294541706_"  style="overflow:visible;"/>
		</clipPath>
		<g style="clip-path:url(#SVGID_00000145050254058139971180000018234570741278846115_);">
			<path style="fill:#AF466E;" d="M260.073,180.743c-0.368-0.215-0.763-0.16-1.073,0.057c-2.328-3.48-5.024-6.717-8.053-9.608
				c-0.812-0.775-1.637-1.63-2.565-2.268c-1.147-0.788-2.251-0.258-3.243,0.476c-1.805,1.337-3.337,2.964-4.732,4.716
				c-2.96,3.717-5.659,7.668-8.351,11.581c-2.753,4.003-5.428,8.06-8.021,12.169c-2.934,4.649-5.764,9.364-8.488,14.139
				c-0.256,0.449-0.152,0.864,0.11,1.141c-1.183,2.322-2.314,4.674-3.48,7.004c-2.825,5.644-5.986,11.236-10.578,15.649
				c-2.152,2.069-4.619,3.832-7.358,5.029c-0.456-0.402-1.161-0.435-1.706-0.162c-0.672,0.336-1.077,1.011-1.498,1.604
				c-1.722,2.431-3.25,4.992-4.753,7.562c-2.9,4.958-5.737,9.965-7.964,15.269c-2.104,5.012-3.644,10.336-3.913,15.789
				c-0.23,4.674,0.45,9.482,2.236,13.822c1.012,2.458,2.341,4.747,4.055,6.784c0.813,0.966,1.712,1.861,2.686,2.666
				c0.516,0.426,1.106,0.89,1.74,1.218c0.078,0.16,0.2,0.302,0.379,0.406c0.281,0.164,0.685,0.17,0.996,0.018
				c0.375,0.029,0.758-0.018,1.145-0.172c0.506-0.202,0.862-0.675,0.706-1.242c-0.085-0.307-0.359-0.59-0.679-0.703
				c4.118-9.17,8.392-18.269,12.836-27.285c4.697-9.528,9.574-18.967,14.629-28.31c1.853-3.425,3.739-6.831,5.639-10.23
				c4.76-6.69,9.52-13.38,14.28-20.069c5.419-7.616,10.837-15.231,16.256-22.847l9.122-12.821
				C260.752,181.68,260.514,181.001,260.073,180.743z"/>
			<path style="fill:#ED6044;" d="M185.624,309.774c0,0,16.326-37.634,26.288-55.898c9.962-18.264,32.93-50.917,32.93-50.917
				s16.05-21.861,16.05-21.031c0,0.83,30.439,38.187,30.439,38.187s42.062,61.155,44.275,63.923
				c2.214,2.767,24.075,39.294,22.138,59.772c-1.937,20.477-11.622,38.188-56.174,46.766l1.66,16.88l-1.107,35.42l8.578,58.665
				H132.494c0,0-5.811-145.002-5.811-155.24c0-10.239,8.025-58.665,8.025-58.665L185.624,309.774z"/>
			<path style="fill:#BA775A;" d="M211.012,110.895c-4.185-0.13-7.62-3.012-10.146-6.107c-2.814-3.45-4.898-7.446-7.982-10.686
				c-1.445-1.519-3.115-2.887-5.006-3.811c-2.017-0.985-4.197-1.426-6.405-1.733c-2.188-0.304-4.409-0.506-6.532-1.148
				c-2.095-0.633-3.908-1.83-5.577-3.221c-3.458-2.881-6.711-6.418-7.71-10.938c-0.15-0.68-0.778-0.838-1.287-0.646
				c-0.278-0.209-0.653-0.271-1.042-0.022c-7.692,4.916-11.281,13.834-12.665,22.512c-0.441,2.765-0.71,5.553-0.915,8.344
				c-0.016,0.063-0.029,0.128-0.036,0.195c-1.109,9.247-0.452,18.703,1.914,27.711c0.562,2.138,1.163,4.305,2.116,6.307
				c0.904,1.899,2.248,3.504,4.014,4.654c3.758,2.448,8.421,2.493,12.73,2.105c2.587-0.233,5.173-0.497,7.757-0.769
				c1.952,3.331,3.903,6.663,5.854,9.995c0.449,0.766,1.406,0.534,1.757-0.049c1.708,0.468,3.481-0.254,4.972-1.187
				c1.645-1.031,3.209-2.206,4.696-3.452c2.937-2.461,5.533-5.313,7.745-8.439c0.876-1.237,1.68-2.522,2.421-3.844
				c0.31,0.009,0.615-0.138,0.801-0.512c2.941-5.934,4.998-12.295,6.017-18.842c0.235-1.509,0.305-3.153,0.952-4.56
				c0.508,0.084,1.025,0.145,1.555,0.161C212.312,112.955,212.311,110.935,211.012,110.895z"/>
			<path style="fill:#1D1D1B;" d="M193.07,129.948c-0.507-0.296-1.065-0.083-1.382,0.362c-3.218,4.52-7.705,8.07-12.783,10.286
				c-1.42,0.62-2.902,1.108-4.401,1.497c-1.257,0.326-0.724,2.275,0.537,1.948c5.721-1.485,11.011-4.567,15.139-8.797
				c1.186-1.216,2.267-2.531,3.252-3.914C193.749,130.886,193.511,130.206,193.07,129.948z"/>
			<path style="fill:#8F3251;" d="M181.356,111.604c-1.27-1.615-3.146-2.69-5.187-2.933c-1.951-0.232-3.979,0.462-5.415,1.796
				c-1.076,0.999-1.665,2.296-1.889,3.677c-0.863,2.243-0.701,4.85,0.745,6.983c1.141,1.683,2.916,2.855,4.916,3.241
				c2.019,0.389,4.365,0.121,6.06-1.123C184.137,120.64,183.872,114.804,181.356,111.604z"/>
			<path style="fill:#8F3251;" d="M154.899,108.38c-0.856-1.615-2.12-2.69-3.496-2.933c-1.316-0.232-2.682,0.462-3.65,1.796
				c-0.725,0.999-1.122,2.296-1.273,3.677c-0.581,2.243-0.473,4.85,0.502,6.983c0.77,1.683,1.966,2.855,3.314,3.241
				c1.361,0.389,2.942,0.121,4.085-1.123C156.774,117.415,156.595,111.58,154.899,108.38z"/>
			<path style="fill:#4B4466;" d="M227.585,135.853c-1.615-4.265-4.003-8.159-6.264-12.099c-1.804-3.142-3.534-6.369-4.633-9.811
				c2.132-5.735,1.881-12.033,0.551-17.966c-1.335-5.956-3.62-11.844-6.86-17.027c-3.216-5.146-7.537-9.657-12.923-12.537
				c-5.743-3.07-12.407-4.337-18.885-3.852c-6.686,0.5-13.167,2.749-18.908,6.176c-0.706,0.421-1.4,0.862-2.085,1.318
				c-0.178,0.118-0.294,0.266-0.367,0.424c-0.448,0.172-0.82,0.73-0.628,1.212c2.111,5.299,5.231,10.157,9.223,14.239
				c1.991,2.036,4.199,3.979,6.664,5.422c1.236,0.723,2.571,1.321,3.96,1.678c1.335,0.344,2.723,0.453,4.094,0.557
				c2.351,0.179,4.985,0.315,6.686,2.175c1.595,1.744,1.908,4.37,2.358,6.59c0.48,2.365,1.205,4.611,2.526,6.649
				c1.295,1.998,2.978,3.7,4.912,5.082c3.718,2.657,8.379,3.947,12.922,3.402c-0.248,5.252-2.71,10.156-5.46,14.595
				c-1.61,2.599-3.327,5.14-5.082,7.643c-1.647,2.349-3.385,4.639-5.362,6.723c-2.207,2.325-4.7,4.339-7.58,5.769
				c-0.363,0.18-0.514,0.474-0.514,0.775c-3.059,1.008-6.216,2.096-9.264,3.411c-7.602,1.44-14.782,5.483-19.226,11.865
				c-3.387,4.865-4.533,10.772-4.548,16.614c-0.008,3.153,0.281,6.298,0.621,9.43c0.319,2.939,0.654,5.897,0.499,8.858
				c-0.036,0.694-0.106,1.386-0.213,2.071c-1.995,3.01-4.765,5.519-7.691,7.587c-3.552,2.511-7.432,4.473-11.272,6.498
				c-2.49,0.612-4.969,1.262-7.333,2.255c-9.693,4.069-17.461,12.349-20.887,22.291c-3.622,10.512-2.007,22.655,3.98,31.989
				c0.738,1.15,1.547,2.252,2.406,3.315c0.235,0.291,0.65,0.347,1.004,0.241c0.193,0.467,0.385,0.935,0.586,1.399
				c0.056,0.129,0.146,0.231,0.257,0.308c0.053,0.231,0.2,0.447,0.473,0.597c5.825,3.201,11.696,6.319,17.612,9.35
				c5.944,3.046,11.934,6.005,17.965,8.875c3.383,1.61,6.78,3.192,10.189,4.747c0.496,0.226,1.087,0.142,1.382-0.362
				c0.195-0.333,0.169-0.832-0.077-1.151c0.028-0.013,0.056-0.021,0.085-0.037c1.283-0.714,2.692-1.343,4.174-1.467
				c1.577-0.132,3.105,0.326,4.609,0.746c3.042,0.848,6.031,1.903,8.921,3.177c1.657,0.73,3.282,1.529,4.877,2.388
				c0.373,0.201,0.926,0.184,1.224-0.158c0.351-0.403,0.702-0.806,1.054-1.209c0.466-0.535,0.334-1.177-0.204-1.586
				c-1.136-0.865-2.098-1.951-2.857-3.156c-0.451-0.716-1.349-0.531-1.727-0.012c-3.276-3.742-5.584-8.295-6.822-13.133
				c-1.921-7.512-1.267-15.52,1.051-22.866c1.083-3.43,2.579-6.706,4.545-9.721c1.629-2.498,3.541-4.791,5.591-6.951
				c4.217-4.444,8.977-8.32,13.503-12.435c4.501-4.092,8.843-8.492,11.978-13.749c0.387-0.649,0.752-1.31,1.099-1.981
				c0.336-0.65-0.071-1.258-0.597-1.459c1.387-4.219,2.514-8.557,2.704-13.008c0.105-2.459-0.113-4.935-0.697-7.327
				c-0.572-2.342-1.456-4.59-2.24-6.865c-0.768-2.228-1.459-4.51-1.624-6.873c-0.158-2.258,0.081-4.515,0.623-6.71
				c0.821-3.325,2.271-6.423,4.04-9.335c0.123-0.018,0.251-0.06,0.38-0.137c7.357-4.401,12.12-12.36,13.127-20.807
				C229.716,144.208,229.114,139.892,227.585,135.853z M119.346,230.512c-3.36,3.9-5.873,8.467-7.515,13.338
				c-3.373,10.004-2.75,20.944,0.457,30.912c-5.143-8.045-6.879-18.256-4.565-27.526c2.46-9.853,9.462-18.333,18.515-22.871
				c0.049-0.024,0.099-0.046,0.148-0.07C123.812,226.084,121.416,228.109,119.346,230.512z M160.316,169.971
				c-2.504,4.845-2.793,10.337-2.828,15.686c-0.033,4.966,0.141,10.098-1.411,14.868c-0.103-3.254-0.619-6.536-0.889-9.713
				c-0.508-5.97-0.581-12.331,1.937-17.906c1.93-4.273,5.149-7.706,9.019-10.212C163.81,164.706,161.806,167.087,160.316,169.971z"
				/>
			<path style="fill:#ED6044;" d="M246.244,165.989c-2.772-2.551-5.545-5.102-8.317-7.653c-1.307-1.203-2.632-2.39-3.915-3.619
				c-1.174-1.125-2.284-2.31-3.134-3.704c-0.676-1.108-2.424-0.094-1.744,1.02c0.091,0.149,0.186,0.295,0.282,0.44
				c-0.158,0.115-0.287,0.286-0.359,0.522c-1.041,3.407-2.611,6.624-4.644,9.55c-1.969,2.835-4.469,5.12-6.865,7.575
				c-2.45,2.509-4.577,5.358-5.105,8.914c-0.589,3.967,0.365,7.971,1.06,11.863l2.507,14.045c0.02,0.114,0.07,0.216,0.134,0.307
				c-0.109,0.189-0.219,0.378-0.328,0.568c-0.646,1.131,1.099,2.15,1.744,1.02c3.2-5.601,6.585-11.096,10.154-16.469
				c3.481-5.241,7.08-10.452,10.993-15.382c2.087-2.63,4.359-5.176,7.049-7.206c0.087-0.066,0.163-0.143,0.231-0.224
				C246.525,167.257,246.826,166.525,246.244,165.989z"/>
			<path style="fill:#BA775A;" d="M203.351,321.197c-0.025-0.007-0.052-0.008-0.078-0.013c-0.054-0.056-0.112-0.108-0.177-0.155
				c-5.374-3.842-10.852-7.537-16.43-11.076c-2.71-1.719-5.426-3.448-8.212-5.04c-2.569-1.467-5.382-2.757-8.388-2.847
				c-2.952-0.088-5.876,0.997-7.694,3.381c-0.294,0.386-0.118,0.978,0.227,1.281c-0.364,0.568-0.681,1.163-0.949,1.761
				c-1.036,2.309-1.892,4.835-1.971,7.39c-2.505,0.917-4.559,3.17-4.94,5.834c-0.043,0.302,0.01,0.625,0.172,0.87
				c-0.945,2.017-1.47,4.259-1.615,6.447c-1.667,1.018-2.931,2.565-3.712,4.392c-0.548,1.284-0.85,2.625-1.02,4.008
				c-0.17,1.381-0.106,2.754-0.18,4.137c-0.07,1.32-0.999,2.345-1.523,3.514c-0.557,1.241-0.94,2.539-1.019,3.904
				c-0.138,2.403,0.888,4.662,2.591,6.323c1.803,1.759,4.157,2.873,6.53,3.636c0.181,0.058,0.345,0.062,0.492,0.032
				c0.729,0.432,1.465,0.85,2.217,1.24c3.718,1.931,7.995,3.402,12.222,2.57c1.654-0.326,3.331-1.048,4.522-2.261
				c0.511,0.214,1.185,0.068,1.378-0.62c0.344-1.228,2.307-0.5,3.059-0.246c1.555,0.525,3.135,0.901,4.763,1.117
				c3.013,0.399,6.084,0.219,9.032-0.508c0.506,0.364,1.377,0.291,1.631-0.489c3.102-9.54,5.773-19.219,7.995-29.002
				c0.629-2.772,1.222-5.553,1.781-8.34C204.164,321.905,203.903,321.348,203.351,321.197z"/>
			<path style="fill:#ED6044;" d="M229.259,142.578c0,0,29.836-7.916,57.237-8.525l1.624,14.005l7.104,12.178
				c0,0,10.148,39.376-0.812,65.761c0,0-22.732-31.46-29.227-38.564c-6.495-7.104-17.455-20.906-20.905-22.935
				c-3.451-2.03-14.817-14.411-14.817-14.411L229.259,142.578z"/>
			<path style="fill:#AF466E;" d="M226.669,395.088c0,0,27.678,15.048,30.634,16.392c2.956,1.344,49.981,22.572,49.981,22.572
				s20.691,1.881,36.008-2.956c15.317-4.837,39.77-12.63,47.831-26.872c8.062-14.242,6.449-37.62,6.449-37.62l0.806-9.405
				c0,0,2.15,1.075,4.299-5.374c2.15-6.449,2.418-12.63,1.612-18.81c-0.806-6.181-7.524-36.008-10.749-48.906
				c-3.225-12.898-2.687-22.841-19.885-28.484c0,0-1.881-9.405-4.568-17.735c-2.687-8.33-14.242-31.171-25.797-36.008
				s-44.338,6.449-44.338,6.449l-4.543,17.667c0,0,39.476,54.618,48.343,69.935c8.868,15.317,19.616,40.307,12.361,59.655
				c-7.255,19.347-18.683,25.371-53.546,34.989l1.683,18.754l-33.321-16.929L226.669,395.088z"/>
			<path style="fill:#32767C;" d="M345.923,176.773c-0.368-1.23-0.81-2.438-1.322-3.617c-0.245-3.226-1.252-6.358-2.719-9.241
				c-1.645-3.232-3.85-6.11-6.803-8.244c-1.432-1.035-2.986-1.889-4.566-2.675c-1.668-0.83-3.359-1.634-5.072-2.368
				c-1.766-0.757-3.578-1.416-5.488-1.69c-1.908-0.274-3.836-0.206-5.718,0.219c-0.95,0.215-1.863,0.534-2.756,0.921
				c-0.797,0.345-1.569,0.757-2.42,0.957c-0.864,0.203-1.77,0.112-2.65,0.15c-0.852,0.037-1.709,0.158-2.536,0.364
				c-1.587,0.395-3.125,1.108-4.44,2.081c-1.36,1.005-2.683,2.292-3.43,3.832c-0.904,1.864-0.513,3.743-0.105,5.681
				c0.41,1.95,0.784,3.908,1.124,5.872c0.675,3.904,1.209,7.83,1.601,11.772c0.794,7.998,1.016,16.053,0.659,24.082
				c-0.008,0.166-0.019,0.332-0.027,0.498c-0.084,0-0.167,0.006-0.244,0.027c-0.578,0.159-0.786,0.701-0.706,1.243
				c0.792,5.299,4.013,10.16,8.536,13.018c1.271,0.803,2.624,1.4,3.74,2.429c1.123,1.035,2.177,2.118,3.389,3.053
				c2.186,1.686,4.905,3.034,7.738,2.796c2.147-0.18,4.211-1.124,5.505-2.781c2.622,0.757,5.47,0.166,7.635-1.565
				c1.716-1.372,2.813-3.401,3.235-5.552c4.359-2.234,6.856-6.988,6.454-11.752C347.255,196.73,348.827,186.47,345.923,176.773z"/>
			<path style="fill:#AF466E;" d="M357.815,256.621c-3.291-10.638-6.582-21.276-9.873-31.914c-0.932-3.012-1.863-6.024-2.796-9.036
				c-0.297-0.959-1.53-0.856-1.893-0.182c-0.391-0.043-0.823,0.118-0.994,0.484c-0.6,1.285-2.085,1.772-3.205,2.504
				c-1.461,0.954-2.337,2.333-3.201,3.812c-0.815,1.395-1.761,2.623-3.14,3.502c-1.196,0.763-3.072,1.671-4.461,0.914
				c-0.315-0.171-0.707-0.192-1.02,0c-1.391,0.855-2.782,1.709-4.172,2.564c-0.063,0.038-0.116,0.081-0.165,0.126
				c-0.687-0.265-1.652,0.259-1.376,1.172c1.975,6.525,3.951,13.051,5.926,19.576c1.966,6.493,3.931,12.986,5.897,19.479
				c0.282,0.932,0.564,1.864,0.847,2.797c0.229,0.758,0.374,1.831,1.12,2.277c0.022,0.013,0.044,0.022,0.066,0.034
				c-0.013,0.011-0.026,0.022-0.039,0.033c-0.422,0.347-0.359,1.069,0,1.428c0.417,0.417,1.006,0.348,1.428,0
				c5.319-4.375,10.563-8.84,15.728-13.396c1.476-1.301,2.945-2.611,4.408-3.927c0.357-0.322,0.387-0.718,0.234-1.047
				C357.618,257.687,358.007,257.244,357.815,256.621z"/>
			<path style="fill:#AF466E;" d="M403.24,322.983c-1.392-6.501-3.049-12.946-4.495-19.436c-1.452-6.515-2.823-13.048-4.112-19.598
				c-1.154-5.863-2.01-12.04-5.092-17.274c-2.753-4.674-7.227-8.157-12.171-10.276c-0.64-0.275-1.286-0.534-1.941-0.772
				c-0.513-0.186-1.106,0.21-1.242,0.705c-0.154,0.562,0.191,1.055,0.706,1.243c0.101,0.037,0.2,0.077,0.301,0.115
				c-0.17,0.214-0.256,0.5-0.178,0.84c2.869,12.453,5.746,24.903,8.632,37.352c2.87,12.384,5.748,24.765,8.633,37.145
				c1.618,6.943,3.239,13.886,4.863,20.828c0.085,0.363,0.307,0.574,0.572,0.665c-0.592,0.917,0.445,2.3,1.608,1.649
				c0.465-0.26,0.795-0.782,1.112-1.196c0.299-0.392,0.583-0.795,0.847-1.211c1.073-1.693,1.849-3.584,2.378-5.513
				c0.481-1.75,0.754-3.535,0.887-5.332c0.043-0.076,0.077-0.156,0.09-0.247C405.525,336.065,404.626,329.456,403.24,322.983z"/>
			<path style="fill:#AF466E;" d="M390.217,405.195c-2.379-1.977-4.914-3.762-7.598-5.3c-1.363-0.781-2.778-1.509-4.359-1.69
				c-1.579-0.181-3.049,0.4-4.469,1.016c-6.068,2.633-12.092,5.369-18.089,8.157c-3.362,1.563-6.714,3.148-10.056,4.754
				c-0.128,0.062-0.231,0.156-0.309,0.268c-1.271,0.438-2.541,0.876-3.812,1.314c-3.708,1.278-7.417,2.555-11.126,3.834
				c-3.536,1.22-7.065,2.464-10.5,3.95c-1.88,0.814-3.695,1.747-5.527,2.66c-1.747,0.87-3.535,1.636-5.473,1.949
				c-0.539,0.087-0.839,0.758-0.706,1.242c0.064,0.232,0.193,0.403,0.357,0.522c-0.227,1.666-0.456,3.332-0.678,4.999
				c-0.109,0.819-0.014,1.682,0.729,2.186c0.684,0.464,1.605,0.417,2.398,0.472c3.296,0.228,6.597,0.345,9.901,0.268
				c6.172-0.143,12.334-0.887,18.372-2.166c5.989-1.269,11.862-3.076,17.541-5.362c5.725-2.305,11.259-5.071,16.529-8.283
				c5.292-3.225,10.319-6.891,15.015-10.934c0.573-0.493,1.14-0.993,1.704-1.497c0.353-0.317,0.386-0.706,0.24-1.033
				C390.58,406.142,390.603,405.516,390.217,405.195z"/>
			<path style="fill:#FFEEEE;" d="M183.358,477.402c-2.358-1.615-5.962-0.781-7.403,1.679c-0.854,1.457-0.718,3.285,0.247,4.656
				c0.027,0.038,0.056,0.074,0.084,0.112c0.218,0.741,0.606,1.434,1.184,1.996c2.103,2.043,5.724,1.425,7.434-0.804
				C186.763,482.62,185.759,479.047,183.358,477.402z"/>
			<path style="fill:#FFEEEE;" d="M183.852,445.787c-2.358-1.615-5.962-0.781-7.403,1.679c-0.854,1.457-0.718,3.285,0.247,4.657
				c0.027,0.038,0.056,0.074,0.084,0.112c0.218,0.741,0.606,1.434,1.184,1.996c2.103,2.043,5.724,1.425,7.434-0.804
				C187.257,451.005,186.253,447.432,183.852,445.787z"/>
			<path style="fill:#FFEEEE;" d="M184.839,412.196c-2.358-1.615-5.962-0.781-7.403,1.679c-0.854,1.457-0.718,3.285,0.247,4.657
				c0.027,0.038,0.056,0.074,0.084,0.112c0.218,0.741,0.606,1.434,1.184,1.996c2.103,2.043,5.724,1.425,7.434-0.804
				C188.245,417.414,187.241,413.841,184.839,412.196z"/>
			<path style="fill:#FFEEEE;" d="M219.912,327.726c-2.358-1.615-5.962-0.781-7.403,1.679c-0.854,1.457-0.718,3.285,0.247,4.657
				c0.027,0.038,0.056,0.074,0.084,0.112c0.218,0.741,0.606,1.434,1.184,1.996c2.104,2.043,5.724,1.425,7.434-0.804
				C223.317,332.943,222.314,329.37,219.912,327.726z"/>
			<path style="fill:#1D1D1B;" d="M215.873,106.076c-2.013-3.375-6.19-3.574-9.309-5.378c-3.305-1.911-4.457-5.92-6.117-9.11
				c-0.964-1.853-2.173-3.55-3.764-4.917c-1.675-1.439-3.598-2.533-5.624-3.398c-4.376-1.869-9.134-2.635-13.494-4.537
				c-4.127-1.801-8.146-4.996-8.803-9.723c-0.075-0.541-0.766-0.836-1.243-0.705c-0.582,0.16-0.781,0.7-0.705,1.243
				c0.586,4.212,3.746,7.598,7.285,9.693c4.234,2.506,9.16,3.375,13.76,4.952c3.939,1.351,7.82,3.372,10.063,7.022
				c2.024,3.295,2.998,7.364,5.967,10.018c1.621,1.449,3.638,2.16,5.649,2.889c1.731,0.628,3.611,1.329,4.59,2.971
				C214.794,108.211,216.541,107.197,215.873,106.076z"/>
			<path style="fill:#1D1D1B;" d="M154.371,98.842c-0.018-0.605-0.236-1.147-0.621-1.608c-0.31-0.372-0.807-0.644-1.282-0.724
				c-0.308-0.052-0.57-0.064-0.876-0.023c-0.302,0.041-0.551,0.12-0.831,0.25c-0.434,0.201-0.844,0.587-1.049,1.022
				c-0.253,0.538-0.315,1.111-0.172,1.69c0.116,0.471,0.394,0.952,0.769,1.264c0.449,0.374,1.016,0.618,1.612,0.556
				c0.077-0.008,0.152-0.028,0.228-0.042c0.033-0.004,0.066-0.008,0.1-0.013c0.127-0.017,0.243-0.034,0.363-0.08
				c0.135-0.052,0.257-0.114,0.364-0.196c0.312-0.104,0.603-0.274,0.818-0.52C154.174,99.983,154.388,99.425,154.371,98.842z"/>
			<path style="fill:#1D1D1B;" d="M176.325,101.343c-0.018-0.605-0.237-1.147-0.622-1.608c-0.31-0.372-0.807-0.644-1.282-0.724
				c-0.308-0.052-0.57-0.064-0.876-0.022c-0.303,0.041-0.551,0.12-0.831,0.25c-0.434,0.201-0.844,0.587-1.049,1.022
				c-0.253,0.538-0.315,1.111-0.172,1.69c0.116,0.471,0.394,0.952,0.769,1.264c0.45,0.374,1.016,0.618,1.612,0.556
				c0.078-0.008,0.152-0.028,0.229-0.042c0.033-0.004,0.067-0.008,0.1-0.013c0.127-0.017,0.243-0.034,0.363-0.08
				c0.135-0.052,0.257-0.114,0.364-0.196c0.312-0.104,0.603-0.274,0.818-0.52C176.128,102.484,176.342,101.927,176.325,101.343z"/>
			<path style="fill:#1D1D1B;" d="M157.138,114.973c0.729-1.826,1.458-3.652,2.187-5.478c1.47-3.683,2.941-7.366,4.411-11.049
				c0.202-0.507-0.221-1.109-0.705-1.243c-0.575-0.158-1.039,0.197-1.242,0.705c-1.569,3.931-3.138,7.861-4.707,11.792
				c-0.773,1.935-1.637,3.858-2.323,5.825c-0.391,1.121,0.033,1.951,0.872,2.693c0.792,0.701,1.586,1.398,2.379,2.097
				c0.409,0.361,1.025,0.403,1.428,0c0.368-0.368,0.411-1.066,0-1.428c-0.743-0.655-1.487-1.311-2.23-1.966
				c-0.156-0.137-0.425-0.301-0.533-0.481c-0.086-0.143-0.123,0.05-0.025-0.214C156.804,115.806,156.972,115.39,157.138,114.973z"/>
			<path style="fill:#1D1D1B;" d="M167.955,126.225c-0.255-0.436-0.938-0.684-1.382-0.362c-3.285,2.379-8.133,2.238-11.176-0.506
				c-0.963-0.869-2.397,0.556-1.428,1.428c3.671,3.31,9.587,3.745,13.624,0.822C168.034,127.287,168.25,126.728,167.955,126.225z"/>
			<path style="fill:#1D1D1B;" d="M387.013,402.435c-1.168-0.788-2.335-1.576-3.503-2.364c-1.118-0.754-2.216-1.562-3.372-2.258
				c-1.094-0.659-2.252-0.967-3.519-0.685c-1.303,0.29-2.568,0.972-3.797,1.481c-5.151,2.133-10.303,4.265-15.454,6.398
				l-30.723,12.719c-5.758,2.384-11.517,4.768-17.275,7.152c0.363-4.373,0.445-8.768,0.215-13.155
				c-0.046-0.889-1.015-1.171-1.594-0.838c-1.461-0.738-2.921-1.476-4.382-2.214c0.159-0.161,0.261-0.389,0.248-0.69
				c-0.236-5.804-0.471-11.609-0.707-17.413c0.705-0.119,1.41-0.242,2.113-0.38c6.202-1.219,12.212-3.259,18.038-5.687
				c5.392-2.248,10.777-4.689,15.825-7.639c4.619-2.699,8.96-5.982,12.215-10.271c3.567-4.7,5.298-10.408,6.51-16.106
				c0.251-1.181,0.482-2.366,0.709-3.551c0.097-0.142,0.164-0.315,0.176-0.526c0.825-14.833-3.93-29.165-10.675-42.192
				c-7.117-13.746-16.29-26.333-25.069-39.042c0.071-0.195,0.09-0.414,0.049-0.632c-2.215-11.739-5.49-23.274-9.787-34.421
				c-0.666-1.728-1.359-3.445-2.073-5.154c0.926,1.307,2.127,2.418,3.524,3.217c1.463,0.837,3.106,1.294,4.77,1.37
				c4.171,12.583,8.111,25.243,11.814,37.972c1.038,3.567,2.056,7.141,3.057,10.719c0.22,0.786,1.116,0.915,1.688,0.446
				c7.855-6.441,15.425-13.228,22.676-20.342c0.289-0.283,0.571-0.543,0.571-0.985c0-0.334-0.145-0.703-0.225-1.022
				c-0.158-0.628-0.318-1.256-0.479-1.883c-0.323-1.254-0.653-2.507-0.989-3.758c-0.656-2.439-1.338-4.872-2.044-7.297
				c-1.431-4.912-2.967-9.794-4.604-14.642c-1.845-5.461-3.821-10.878-5.922-16.245c-0.041-0.106-0.098-0.203-0.162-0.292
				c0.694-1.97,0.86-4.125,0.344-6.203c-0.313-1.261-2.262-0.727-1.948,0.537c1.086,4.373-1.642,9.347-5.935,10.751
				c-0.304,0.099-0.658,0.359-0.706,0.705c-0.403,2.968-2.584,5.483-5.389,6.491c-0.677,0.243-1.387,0.42-2.103,0.469
				c-0.382,0.026-0.765,0.027-1.146-0.001c-0.412-0.03-0.874-0.206-1.276-0.151c-0.516,0.07-0.876,0.581-1.272,0.885
				c-0.316,0.243-0.656,0.458-1.002,0.656c-0.751,0.429-1.549,0.737-2.389,0.941c-3.282,0.798-6.63-0.393-8.797-2.949
				c-0.527-0.622-0.962-1.335-1.298-2.076c-0.146-0.323-0.251-0.658-0.363-0.993c-0.23-0.692-0.675-0.812-1.308-1.011
				c-1.565-0.492-3.035-1.279-4.343-2.268c-2.935-2.219-4.993-5.51-5.674-9.123c-0.059-0.311-0.302-0.54-0.591-0.655
				c0.314-2.722,0.5-5.46,0.574-8.197c0.237-8.727-0.615-17.443-1.824-26.076c-0.686-4.897-1.498-9.775-2.325-14.65
				c-0.091-0.538-0.755-0.84-1.243-0.706c-0.57,0.157-0.797,0.703-0.706,1.243c1.444,8.512,2.849,17.043,3.588,25.651
				c0.727,8.473,0.842,17.078-0.456,25.504c-0.66,4.284-1.684,8.508-3.11,12.601c-8.644-12.202-17.533-24.243-27.025-35.802
				c-1.702-2.072-3.425-4.128-5.168-6.166c-0.049-0.157-0.13-0.307-0.242-0.411c-0.07-0.064-0.156-0.117-0.247-0.163
				c-4.048-4.716-8.213-9.331-12.511-13.818c0.161-0.372,0.089-0.859-0.208-1.132c-0.317-0.291-0.724-0.357-1.086-0.213
				c-3.899-4.022-7.908-7.937-12.043-11.72c-1.409-1.289-2.834-2.562-4.271-3.821c-0.615-0.538-1.411-0.171-1.67,0.389
				c0.574-3.921,0.379-7.966-0.409-11.859c-0.702-3.467-1.887-6.835-3.447-10.008c-1.649-3.356-3.92-6.284-5.883-9.449
				c-0.888-1.431-1.667-2.91-2.211-4.498c-0.137-0.685-0.285-1.368-0.449-2.048c-0.043-0.177-0.119-0.315-0.216-0.424
				c0.32-0.245,0.506-0.67,0.376-1.071c-0.166-0.513-0.7-0.866-1.243-0.705c-0.985,0.291-1.971,0.582-2.956,0.873
				c-0.113-0.076-0.249-0.127-0.407-0.148c0.069-0.132,0.111-0.281,0.111-0.449c0-0.513-0.463-1.053-1.01-1.01
				c-4.255,0.337-7.713-2.63-10.213-5.754c-2.668-3.332-4.455-7.272-7.219-10.543c-1.343-1.59-2.933-3.017-4.778-4
				c-2.119-1.129-4.469-1.628-6.82-2.006c-2.324-0.374-4.683-0.664-6.91-1.463c-1.869-0.67-3.629-1.71-5.166-2.964
				c-3.681-3.003-6.318-7.076-8.33-11.335c-0.233-0.493-0.941-0.621-1.382-0.362c-0.505,0.295-0.596,0.887-0.362,1.382
				c1.856,3.929,4.258,7.705,7.445,10.693c1.566,1.468,3.332,2.758,5.268,3.696c2.139,1.037,4.405,1.581,6.742,1.961
				c2.335,0.379,4.713,0.655,6.951,1.458c2.004,0.719,3.711,1.98,5.161,3.522c2.958,3.144,4.742,7.138,7.327,10.558
				c2.885,3.816,7.046,7.515,12.148,7.185c-0.001,0.003-0.002,0.005-0.003,0.007c-0.515,0.152-1.03,0.304-1.544,0.456
				c-0.403,0.119-0.714,0.502-0.741,0.919c-0.587-0.188-1.36,0.117-1.371,0.92c-0.178,12.721-6.334,25.048-16.173,33.067
				c-4.926,4.015-10.854,6.171-16.229,9.447c-2.621,1.597-5.042,3.519-6.868,6.006c-1.986,2.704-2.993,5.969-3.484,9.254
				c-0.519,3.479-0.562,6.997-0.849,10.497c-0.291,3.546-0.985,7.035-2.108,10.412c-2.29,6.885-6.298,12.949-11.486,17.99
				c-5.208,5.061-11.199,9.239-16.338,14.376c-4.793,4.792-8.978,10.295-11.956,16.4c-3,6.153-4.75,12.906-4.65,19.775
				c0.101,6.998,1.998,13.971,5.461,20.054c0.844,1.483,1.787,2.906,2.813,4.27c0.772,1.027,2.527,0.021,1.744-1.02
				c-4.196-5.58-6.913-12.251-7.727-19.194c-0.804-6.853,0.264-13.716,2.859-20.094c2.544-6.255,6.473-11.926,11.051-16.861
				c4.944-5.328,10.837-9.581,16.21-14.443c5.301-4.797,9.703-10.372,12.535-16.973c1.4-3.262,2.442-6.667,3.048-10.167
				c0.595-3.435,0.7-6.91,0.935-10.38c0.228-3.374,0.594-6.869,1.999-9.987c1.304-2.893,3.468-5.201,6.047-7.01
				c5.099-3.577,11.114-5.562,16.181-9.207c10.264-7.383,17.151-19.061,18.697-31.603c0.186-1.507,0.284-3.022,0.307-4.539
				c0.193,0.08,0.411,0.103,0.631,0.038c1.508-0.446,3.016-0.891,4.524-1.337c-0.013,0.115-0.01,0.237,0.021,0.369
				c0.067,0.279,0.126,0.56,0.189,0.841c-0.027,0.142-0.023,0.298,0.026,0.469c0.069,0.24,0.144,0.477,0.223,0.712
				c1.491,7.541,1.297,15.594-1.12,22.834c-0.428,0.11-0.84,0.518-0.783,0.978c0.039,0.317,0.063,0.631,0.082,0.945
				c-1.691,4.247-4.195,8.16-7.634,11.447c-8.829,8.438-22.244,12.78-27.67,24.455c-3.322,7.146-2.754,15.151-3.972,22.759
				c-1.168,7.297-3.899,14.293-7.891,20.507c-2.032,3.162-4.389,6.096-7.024,8.775c-2.865,2.913-5.995,5.55-8.846,8.478
				c-4.677,4.805-8.235,10.525-10.535,16.822c-4.489,12.289-4.087,26.395,1.499,38.264c0.679,1.443,1.439,2.844,2.269,4.205
				c0.675,1.109,2.423,0.095,1.744-1.02c-6.834-11.216-8.237-25.221-4.596-37.761c1.81-6.233,4.885-12.134,9.157-17.038
				c2.643-3.034,5.694-5.672,8.606-8.438c2.775-2.636,5.342-5.446,7.601-8.54c4.328-5.929,7.503-12.744,9.202-19.888
				c1.785-7.501,1.151-15.408,3.317-22.818c3.754-12.844,17.429-17.751,26.784-25.728c2.823-2.407,5.214-5.186,7.131-8.271
				c-1.007,3.029-2.782,5.83-4.876,8.299c-3.772,4.444-8.503,7.808-13.027,11.422c-4.299,3.434-8.55,7.212-11.244,12.089
				c-3.162,5.725-3.281,12.224-3.704,18.586c-0.81,12.2-5.216,23.991-13.013,33.467c-7.539,9.162-18.251,15.765-22.54,27.311
				c-4.607,12.405-1.504,25.942,3.705,37.616c0.674,1.511,1.388,3.005,2.126,4.486c0.58,1.164,2.323,0.142,1.744-1.02
				c-5.726-11.487-10.007-24.674-6.59-37.515c1.579-5.933,4.916-10.897,9.087-15.323c4.046-4.295,8.593-8.094,12.513-12.51
				c7.99-9,13.105-20.39,14.602-32.323c0.803-6.402,0.245-13.111,2.618-19.231c2.01-5.186,6.099-9.214,10.288-12.709
				c4.349-3.628,9.08-6.814,13.03-10.9c3.919-4.053,7.331-9.018,8.064-14.731c0.12-0.937,0.154-1.875,0.115-2.813
				c0.281-0.72,0.542-1.452,0.779-2.195c1.779-5.597,2.283-11.543,1.811-17.387c0.828,1.299,1.715,2.566,2.572,3.847
				c1.996,2.981,3.643,6.164,4.81,9.562c2.268,6.606,2.897,13.974,0.621,20.668c-1.132,3.328-3.027,6.225-5.397,8.8
				c-2.396,2.604-5.06,4.956-7.201,7.787c-2.222,2.939-3.501,6.343-3.684,10.031c-0.197,3.974,0.759,7.927,1.773,11.739
				c1.04,3.912,2.259,7.831,2.601,11.883c0.338,4.014-0.074,8.067-1.211,11.931c-2.103,7.143-6.737,12.855-12.093,17.861
				c-5.126,4.792-10.774,9.021-15.608,14.126c-4.573,4.829-8.073,10.414-9.913,16.835c-3.557,12.413-1.163,26.599,6.75,36.875
				c0.981,1.274,2.037,2.482,3.172,3.62c0.594,0.596,1.396,0.209,1.645-0.386c0.194-0.078,0.359-0.213,0.443-0.409
				c3.535-8.281,7.281-16.472,11.236-24.56c3.955-8.089,8.118-16.076,12.482-23.951c4.364-7.875,8.931-15.639,13.692-23.281
				c4.781-7.672,9.759-15.221,14.928-22.637c5.14-7.374,10.466-14.62,15.982-21.718c0.68-0.875,1.362-1.747,2.047-2.617
				c0.001-0.001,0.002-0.003,0.003-0.004c0.06-0.041,0.117-0.09,0.165-0.151c0.861-1.096,1.721-2.191,2.582-3.287
				c0.276,0.324,0.554,0.647,0.829,0.973c9.91,11.712,19.127,23.989,28.046,36.466c9.22,12.899,18.157,25.999,27.161,39.048
				c8.956,12.98,18.375,25.775,26.201,39.486c7.251,12.703,13.134,26.701,13.569,41.516c0.045,1.539,0.026,3.078-0.043,4.615
				c-1.074,5.624-2.171,11.405-4.946,16.479c-2.575,4.708-6.574,8.372-11.02,11.293c-4.641,3.048-9.715,5.43-14.776,7.688
				c-5.636,2.514-11.433,4.716-17.424,6.225c-6.344,1.598-12.842,2.212-19.353,2.656c-6.614,0.452-13.231,0.87-19.846,1.303
				c-0.039,0.003-0.077,0.005-0.116,0.008c-0.268-0.087-0.521-0.057-0.737,0.049c-12.864,0.849-25.734,1.832-38.626,2.117
				c-1.923,0.042-3.846,0.066-5.77,0.071c4.204-9.108,7.365-18.688,9.398-28.513c2.142-10.352,3.069-20.964,2.713-31.53
				c-0.194-5.775-0.781-11.534-1.733-17.233c3.744,0.013,7.487,0.024,11.231,0.038c12.009,0.046,24.092,0.152,35.991,1.951
				c6.622,1.001,13.168,2.534,19.469,4.818c0.513,0.186,1.106-0.209,1.242-0.705c0.154-0.562-0.191-1.056-0.705-1.243
				c-8.426-3.055-17.246-4.736-26.142-5.666c-0.011-0.017-0.017-0.036-0.029-0.053c-0.164-0.219-0.327-0.44-0.491-0.66
				c10.531-2.116,21.409-4.199,32.131-2.311c2.921,0.514,5.814,1.307,8.546,2.469c0.501,0.213,1.082,0.15,1.382-0.362
				c0.248-0.424,0.142-1.167-0.362-1.382c-10.601-4.507-22.305-3.899-33.427-2.026c-3.213,0.541-6.407,1.182-9.6,1.825
				c-5.366-7.201-10.659-14.456-15.867-21.772c-5.798-8.145-11.497-16.36-17.095-24.643c-3.147-4.656-6.261-9.334-9.344-14.032
				c-0.71-1.083-2.46-0.072-1.744,1.02c5.485,8.359,11.07,16.651,16.756,24.874s11.472,16.377,17.356,24.46
				c3.007,4.131,6.044,8.241,9.103,12.334c-2.238-0.197-4.478-0.351-6.717-0.47c-12.386-0.661-24.821-0.46-37.22-0.502
				c-7.078-0.024-14.156-0.048-21.235-0.072c-0.184-0.164-0.432-0.263-0.699-0.297c-2.845-0.362-5.822,0.744-7.794,2.814
				c-0.002,0.002-0.003,0.004-0.005,0.006c-4.78-3.352-9.648-6.581-14.772-9.387c-3.522-1.929-7.163-3.647-10.924-5.059
				c-1.837-0.69-3.808-1.469-5.809-1.276c-1.783,0.172-3.381,0.94-4.748,2.081c-3.425,2.859-4.315,7.427-5.013,11.601
				c-0.023,0.14-0.024,0.281-0.003,0.416c-1.046,0.53-1.889,1.362-2.552,2.39c-0.911,1.413-1.707,2.959-2.39,4.493
				c-0.743,1.669-1.28,3.383-1.379,5.217c-0.019,0.347,0.113,0.598,0.316,0.759c-0.228,0.145-0.453,0.3-0.67,0.477
				c-1.105,0.901-1.882,2.173-2.508,3.436c-0.689,1.392-1.263,2.86-1.584,4.383c-0.357,1.695-0.404,3.426-0.028,5.117
				c-1.324,1.452-1.856,3.318-2.206,5.21c-0.358,1.937-0.718,3.997-0.187,5.939c0.546,1.998,2.047,3.306,3.698,4.429
				c1.736,1.181,3.536,2.272,5.381,3.274c1.266,0.688,2.558,1.33,3.867,1.933c-1.806,17.894-3.376,35.811-4.703,53.746
				c-1.33,17.967-2.419,35.952-3.268,53.948c-0.48,10.192-0.883,20.387-1.209,30.585c-0.042,1.3,1.979,1.299,2.02,0
				c0.579-18.099,1.4-36.19,2.465-54.267c1.06-17.985,2.361-35.956,3.902-53.906c0.838-9.757,1.749-19.507,2.728-29.251
				c1.965,0.829,3.974,1.591,6.095,1.901c2.288,0.334,4.531,0.103,6.653-0.83c0.666-0.293,1.295-0.652,1.882-1.067
				c-0.703,18.019-1.405,36.037-2.108,54.056c-0.715,18.337-1.43,36.675-2.145,55.012c-0.403,10.344-0.807,20.688-1.21,31.033
				c-0.051,1.3,1.97,1.298,2.02,0c0.719-18.432,1.437-36.863,2.156-55.294c0.715-18.337,1.43-36.675,2.145-55.012
				c0.404-10.344,0.807-20.688,1.21-31.033c0.008-0.205-0.04-0.374-0.119-0.514c0.219-0.246,0.433-0.497,0.632-0.761
				c2.167,0.8,4.359,1.483,6.612,1.876c0.942,0.165,1.887,0.276,2.832,0.334c-2.003,6.908-2.57,14.233-1.628,21.364
				c0.281,2.131,0.681,4.24,1.217,6.322c0.176,0.683,0.829,0.835,1.339,0.632c5.455,2.421,11.38,3.26,17.287,3.792
				c6.699,0.604,13.428,0.818,20.152,0.786c0.604-0.003,1.207-0.017,1.811-0.024c-0.026,0.331,0.108,0.667,0.488,0.88
				c9.895,5.542,19.913,10.863,30.048,15.953c10.077,5.061,20.268,9.896,30.563,14.499c5.845,2.613,11.723,5.15,17.632,7.616
				c0.3,0.126,0.636,0.018,0.888-0.189c0.012,0.442,0.257,0.849,0.723,0.977c0.491,0.135,1.144-0.166,1.243-0.705
				c0.475-2.59,0.841-5.197,1.109-7.814c0.211,0.105,0.45,0.142,0.671,0.05c10.117-4.188,20.234-8.377,30.35-12.565
				c10.117-4.188,20.233-8.377,30.35-12.565c1.427-0.591,2.855-1.182,4.282-1.773c1.147-0.475,2.439-1.257,3.683-0.702
				c0.578,0.258,1.101,0.648,1.623,1l2.002,1.351c1.279,0.863,2.558,1.726,3.837,2.59
				C387.074,404.909,388.086,403.159,387.013,402.435z M323.236,229.066c1.439-0.454,2.766-1.191,3.905-2.174
				c5.02,0.748,10.366-2.823,11.339-7.865c2.166-0.869,3.965-2.447,5.199-4.385c4.182,10.83,7.855,21.856,10.984,33.036
				c0.871,3.111,1.696,6.235,2.484,9.369c-5.582,5.468-11.346,10.75-17.289,15.824c-1.32,1.127-2.651,2.24-3.988,3.346
				c-3.453-12.276-7.117-24.492-11.004-36.637c-1.083-3.382-2.184-6.759-3.3-10.13C322.129,229.365,322.688,229.239,323.236,229.066
				z M214.102,175.22c1.67-3.084,4.258-5.516,6.693-7.987c2.446-2.481,4.755-5.082,6.331-8.218c1.242-2.471,2.045-5.098,2.485-7.789
				c0.027,0.192,0.124,0.385,0.318,0.555c5.608,4.911,10.992,10.066,16.182,15.411c-0.668,0.595-1.335,1.19-2.003,1.785
				c-0.033,0.029-0.059,0.064-0.086,0.098c-0.087,0.05-0.172,0.111-0.252,0.199c-4.251,4.638-8.273,9.481-12.061,14.505
				c-3.79,5.027-7.335,10.238-10.618,15.609c-1.493,2.444-2.929,4.923-4.313,7.431c-0.13-2.917-0.638-5.797-1.35-8.647
				C213.601,190.848,210.183,182.457,214.102,175.22z M256.976,185.444c-0.002,0.002-0.003,0.005-0.005,0.007
				c-0.06,0.041-0.116,0.088-0.163,0.148c-5.599,7.115-11.022,14.37-16.251,21.762c-5.22,7.38-10.25,14.894-15.084,22.533
				c-4.834,7.639-9.471,15.402-13.905,23.279c-4.435,7.877-8.667,15.868-12.691,23.963c-4.024,8.095-7.839,16.293-11.439,24.585
				c-0.367,0.845-0.731,1.692-1.093,2.54c-8.503-9.167-11.774-22.599-9.242-34.775c1.35-6.492,4.358-12.343,8.736-17.31
				c4.618-5.239,10.193-9.496,15.369-14.149c5.236-4.706,10.109-9.961,12.886-16.524c1.528-3.612,2.422-7.468,2.661-11.382
				c0.303,0,0.602-0.147,0.793-0.501c2.956-5.49,6.174-10.837,9.644-16.017c3.456-5.158,7.159-10.151,11.101-14.948
				c2.229-2.713,4.533-5.363,6.905-7.951c0.041-0.045,0.072-0.091,0.103-0.138c0.082-0.043,0.161-0.094,0.235-0.159l1.975-1.76
				c4.169,4.35,8.213,8.82,12.146,13.386C258.763,183.169,257.87,184.307,256.976,185.444z M295.57,225.595
				c0.026-0.05,0.051-0.1,0.071-0.154c1.599-4.297,2.722-8.742,3.464-13.255c1.531,3.953,4.607,7.268,8.414,9.129
				c0.008,0.16,0.045,0.323,0.114,0.478c4.783,10.78,8.579,21.999,11.35,33.463c0.488,2.019,0.939,4.046,1.363,6.079
				C312.121,249.398,303.927,237.439,295.57,225.595z M207.311,316.938c0.08-0.284,0.038-0.529-0.074-0.727
				c8.413,0.029,16.827,0.057,25.24,0.086c0,0.001,0,0.002,0,0.003c1.753,10.244,2.227,20.7,1.486,31.065
				c-0.011,0.154-0.025,0.309-0.036,0.463c-8.59-1.409-17.141-3.059-25.637-4.956c-2.452-0.547-4.899-1.116-7.342-1.703
				c-0.121-0.029-0.232-0.032-0.338-0.023c0.76-2.789,1.516-5.579,2.285-8.366C204.352,327.495,205.824,322.214,207.311,316.938z
				 M177.414,358.574c-4.476-1.621-8.772-3.75-13.396-4.946c-2.571-0.665-5.237-1.032-7.894-0.861
				c-0.544,0.035-1.01,0.439-1.01,1.01c0,0.52,0.463,1.045,1.01,1.01c6.682-0.431,12.678,2.526,18.795,4.953
				c-1.855,2.203-4.698,3.413-7.579,3.299c-1.9-0.075-3.75-0.649-5.513-1.326c-1.749-0.671-3.456-1.455-5.129-2.296
				c-1.689-0.85-3.34-1.774-4.947-2.768c-1.444-0.893-3.081-1.788-4.197-3.096c-1.085-1.272-1.104-3.003-0.93-4.58
				c0.095-0.862,0.259-1.721,0.435-2.57c0.175-0.842,0.384-1.701,0.776-2.471c1.293-2.542,4.699-3.858,7.339-2.694
				c0.499,0.22,1.085,0.146,1.382-0.362c0.251-0.429,0.139-1.161-0.362-1.382c-2.318-1.021-5.049-0.826-7.213,0.427
				c-0.317-2.939,0.798-6.053,2.36-8.481c0.83-1.291,1.955-2.171,3.459-2.524c1.568-0.368,3.231-0.215,4.819-0.079
				c0.544,0.046,1.01-0.497,1.01-1.01c0-0.585-0.464-0.964-1.01-1.01c-1.987-0.169-4.066-0.256-5.941,0.34
				c0.174-2.991,1.795-5.866,3.317-8.376c0.7-1.155,1.57-1.952,2.916-2.236c1.329-0.28,2.753-0.084,4.084,0.088
				c0.542,0.07,1.01-0.514,1.01-1.01c0-0.604-0.467-0.94-1.01-1.01c-1.307-0.168-2.636-0.294-3.945-0.127
				c0.551-3.274,1.226-6.795,3.592-9.254c1.041-1.083,2.354-1.925,3.853-2.182c1.766-0.302,3.554,0.442,5.178,1.042
				c7.225,2.669,13.935,6.561,20.338,10.803c3.624,2.401,7.163,4.927,10.692,7.464c-2.073,7.415-4.124,14.836-6.139,22.268
				c-1.384,5.108-2.752,10.22-4.109,15.335c-0.008,0.003-0.015,0.007-0.023,0.01c-0.11,0.044-0.224,0.076-0.339,0.1
				c-0.089,0.005-0.178,0.005-0.268-0.002c-0.004-0.001-0.007-0.001-0.011-0.002c-0.263-0.059-0.541-0.037-0.778,0.102
				c-0.116,0.063-0.21,0.148-0.281,0.257c-0.162-0.056-0.346-0.075-0.551-0.032C186.544,361.373,181.794,360.161,177.414,358.574z
				 M221.915,393.576c-3.894-0.022-7.788-0.131-11.676-0.359c-6.136-0.361-12.43-0.793-18.341-2.594
				c-1.346-0.41-2.661-0.902-3.941-1.485c2.402-9.44,4.851-18.868,7.347-28.284c1.58-5.96,3.186-11.914,4.803-17.865
				c0.088,0.054,0.186,0.101,0.304,0.129c8.679,2.086,17.417,3.921,26.203,5.497c2.379,0.427,4.761,0.833,7.146,1.222
				c-0.858,9.467-2.75,18.839-5.628,27.899C226.414,383.148,224.338,388.441,221.915,393.576z M285.368,392.307
				c5.265-0.345,10.549-0.671,15.773-1.428c0.229,5.631,0.458,11.262,0.686,16.893c-7.921-4.001-15.841-8.003-23.762-12.004
				c-1.742-0.88-3.484-1.76-5.226-2.64C277.017,392.854,281.193,392.58,285.368,392.307z M306.318,432.989
				c-0.134-0.178-0.326-0.32-0.549-0.413c-10.386-4.335-20.672-8.906-30.852-13.705c-10.2-4.809-20.292-9.846-30.266-15.109
				c-5.085-2.683-10.137-5.428-15.159-8.226c11.895-0.243,23.772-1.125,35.64-1.903c1.25-0.082,2.5-0.164,3.75-0.246
				c9.978,5.041,19.957,10.082,29.935,15.123l8.636,4.363c0.053,0.027,0.105,0.044,0.158,0.061
				C307.878,419.644,307.454,426.371,306.318,432.989z"/>
			<path style="fill:#1D1D1B;" d="M284.431,133.508c-7.063,0.201-14.115,0.737-21.126,1.611c-7.004,0.874-13.967,2.068-20.858,3.599
				c-3.891,0.865-7.759,1.836-11.598,2.909c-1.25,0.349-0.719,2.299,0.537,1.948c6.743-1.884,13.572-3.451,20.463-4.688
				c6.866-1.233,13.788-2.136,20.741-2.706c3.941-0.324,7.89-0.539,11.842-0.652C285.728,135.492,285.733,133.471,284.431,133.508z"
				/>
			<path style="fill:#1D1D1B;" d="M337.764,184.968c-0.777-1.294-1.845-2.35-3.153-3.042c3.027-6.305,0.298-14.84-5.931-18.125
				c-0.936-0.493-1.945-0.917-3.023-0.893c-0.562,0.013-1.128,0.154-1.588,0.438c-1.423-1.606-3.119-2.94-5.135-3.752
				c-2.287-0.92-4.782-0.941-7.039,0.066c-2.043,0.911-3.82,2.723-4.316,4.951c-0.151,0.679-0.17,1.366-0.159,2.058
				c0.01,0.654,0.052,1.334-0.201,1.953c-0.468,1.147-1.517,2.027-2.162,3.075c-2.455,3.993-2.514,9.275-0.354,13.402
				c0.567,1.084,1.32,2.004,2.12,2.921c0.293,0.335,0.642,0.732,0.654,1.197c0.016,0.597-0.427,1.168-0.7,1.671
				c-1.029,1.895-1.506,4.06-1.423,6.212c0.175,4.499,2.638,9.007,6.669,11.141c-0.212,2.939,1.083,5.815,3.293,7.784
				c2.671,2.38,6.261,3.083,9.73,2.491c1.991-0.34,3.914-1.133,5.611-2.22c1.091-0.699,0.079-2.448-1.02-1.744
				c-2.501,1.602-5.612,2.55-8.592,2.039c-2.724-0.467-5.056-2.106-6.306-4.591c-0.625-1.241-0.909-2.698-0.67-4.076
				c0.071-0.408-0.038-0.946-0.464-1.141c-3.418-1.564-5.664-4.994-6.149-8.66c-0.24-1.814-0.052-3.697,0.667-5.405
				c0.441-1.048,1.22-1.996,1.349-3.172c0.156-1.423-0.771-2.433-1.642-3.425c-2.733-3.114-3.339-7.751-1.925-11.583
				c0.349-0.945,0.853-1.851,1.463-2.653c0.744-0.979,1.616-1.883,1.919-3.115c0.31-1.259-0.04-2.572,0.289-3.819
				c0.242-0.914,0.772-1.699,1.459-2.339c1.665-1.552,4.024-2.032,6.196-1.459c2.418,0.637,4.492,2.327,5.986,4.291
				c0.48,0.631,1.636,0.693,1.846-0.241c0.039-0.174-0.017-0.061,0.082-0.176c-0.049,0.057,0.017-0.006,0.098-0.032
				c0.242-0.078,0.621-0.081,0.875-0.04c0.692,0.113,1.321,0.454,1.927,0.806c1.256,0.729,2.374,1.741,3.235,2.899
				c1.825,2.455,2.733,5.493,2.534,8.521c-0.107,1.635-0.611,3.282-1.479,4.72c-0.352,0.583-0.002,1.283,0.604,1.484
				c2.576,0.854,3.845,3.539,4.35,6.034c0.296,1.464,0.327,2.98,0.177,4.463c-0.159,1.574-0.638,3.285-1.747,4.463
				c-1.089,1.156-2.708,1.829-4.263,1.294c-1.128-0.388-1.694,1.242-0.778,1.846c0.479,0.316,0.562,0.972,0.492,1.57
				c-0.074,0.634-0.382,1.278-0.756,1.775c-0.873,1.158-2.221,1.843-3.628,2.089c-1.306,0.228-2.746-0.02-3.874-0.813
				c-1.165-0.818-1.83-2.158-2.075-3.537c-0.261-1.471,0.078-3.176,1.087-4.358c0.531-0.623,0.276-1.388-0.446-1.688
				c-3.687-1.534-5.871-5.955-4.799-9.796c0.516-1.849,1.702-3.552,3.269-4.667c0.826-0.588,1.732-1.038,2.716-1.291
				c0.441-0.113,0.978-0.255,1.392,0.005c0.422,0.265,0.682,0.794,0.903,1.22c1.154,2.219,1.171,5.014,0.07,7.255
				c-0.24,0.49-0.132,1.093,0.362,1.382c0.445,0.26,1.14,0.129,1.382-0.362c1.25-2.544,1.452-5.59,0.401-8.243
				c-0.52-1.312-1.271-2.785-2.7-3.266c-1.348-0.454-2.978,0.168-4.196,0.756c-4.654,2.248-7.107,7.906-5.26,12.78
				c0.901,2.378,2.551,4.339,4.722,5.582c-1.735,3.074-1.154,7.364,1.688,9.625c3.117,2.48,8.053,1.768,10.491-1.343
				c0.924-1.179,1.492-2.877,1.188-4.335c1.126-0.115,2.223-0.569,3.128-1.252c1.639-1.238,2.601-3.098,3.014-5.087
				C339.961,192.038,339.602,188.027,337.764,184.968z"/>
			<path style="fill:#1D1D1B;" d="M405.325,339.117c-0.056-2.219-0.232-4.431-0.408-6.643c-0.043-0.544-0.433-1.01-1.01-1.01
				c-0.513,0-1.054,0.463-1.01,1.01c0.539,6.751,1.141,14.042-2.045,20.285c-0.626,1.227-1.387,2.364-2.287,3.396
				c-0.455-3.796-1.129-7.57-1.914-11.308c-1.586-7.551-3.536-15.028-5.371-22.521l-5.617-22.945
				c-1.863-7.611-3.726-15.221-5.59-22.832c-1.872-7.648-3.745-15.296-5.617-22.945l-0.692-2.826
				c-0.309-1.262-2.258-0.728-1.948,0.537c1.863,7.611,3.726,15.221,5.59,22.832c1.863,7.611,3.726,15.221,5.589,22.832
				c1.854,7.573,3.708,15.146,5.562,22.719c1.842,7.523,3.768,15.033,5.471,22.589c1.664,7.387,3.007,14.886,3.132,22.477
				c0.015,0.939,0.011,1.878-0.01,2.817c-0.03,1.301,1.991,1.3,2.02,0c0.068-3-0.065-5.994-0.345-8.976
				c0.165-0.038,0.328-0.12,0.478-0.27C404.326,353.307,405.497,345.935,405.325,339.117z"/>
		</g>
	</g>
</g>
</svg>
