<?xml version="1.0" encoding="utf-8"?>
<!-- Generator: Adobe Illustrator 27.5.0, SVG Export Plug-In . SVG Version: 6.00 Build 0)  -->
<svg version="1.1" xmlns="http://www.w3.org/2000/svg" xmlns:xlink="http://www.w3.org/1999/xlink" x="0px" y="0px"
	 viewBox="0 0 500 500" style="enable-background:new 0 0 500 500;" xml:space="preserve">
<g id="Floor">
	<path style="fill:#F5F5F5;" d="M409.038,255.092c-88.41-51.043-231.282-51.043-319.117,0.001
		C2.081,306.141,2.546,388.898,90.956,439.942c88.415,51.047,231.288,51.046,319.128-0.002
		C497.919,388.896,497.454,306.139,409.038,255.092z"/>
</g>
<g id="Shadows_1_">
	<path style="fill:#E6E6E6;" d="M69.237,329.482c-6.205-3.582-16.232-3.582-22.397,0c-6.165,3.583-6.132,9.391,0.073,12.973
		c6.205,3.583,16.233,3.583,22.397,0C75.475,338.872,75.442,333.064,69.237,329.482z"/>
	<polygon style="fill:#E6E6E6;" points="302.074,229.663 72.805,363.737 62.164,357.593 291.432,223.52 	"/>
	<path style="fill:#E6E6E6;" d="M416.048,352.124L365.32,322.74c-2.836-1.643-6.333-1.645-9.171-0.006l-46.251,26.714
		l-47.515-27.329c-1.889-1.088-4.214-1.086-6.101,0.004l-82.746,47.793c-0.679,0.392-0.678,1.372,0.001,1.763l139.238,80.157
		c1.889,1.088,4.214,1.086,6.101-0.004l82.745-47.793c0.679-0.392,0.678-1.372-0.001-1.763l-33.2-19.121l47.626-27.508
		C417.401,354.864,417.403,352.908,416.048,352.124z"/>
	<path style="fill:#E6E6E6;" d="M451.378,352.883c-6.539-3.776-17.107-3.776-23.604,0c-6.497,3.776-6.463,9.897,0.077,13.673
		c6.54,3.776,17.108,3.776,23.605,0C457.952,362.78,457.918,356.659,451.378,352.883z"/>
</g>
<g id="Pictures">
	<g>
		<g>
			<g>
				<polygon style="fill:none;" points="400.298,80.313 432.207,98.736 432.138,123.124 400.229,104.701 				"/>
				<polygon style="fill:#F0F0F0;" points="400.298,80.313 400.229,104.701 397.273,106.419 397.352,78.612 				"/>
				<polygon style="fill:#F5F5F5;" points="432.138,123.124 432.129,126.543 397.273,106.419 400.229,104.701 				"/>
				<path style="fill:#E0E0E0;" d="M393.69,108.461l41.999,24.248l0.102-36.009l-41.999-24.248L393.69,108.461z M397.273,106.419
					l0.079-27.807l2.946,1.701l31.91,18.423l-0.069,24.388l-0.01,3.419L397.273,106.419z"/>
				<polygon style="fill:#F5F5F5;" points="393.792,72.452 396.747,70.734 438.747,94.982 435.791,96.7 				"/>
				<polygon style="fill:#F0F0F0;" points="438.747,94.982 438.645,130.991 435.689,132.709 435.791,96.7 				"/>
			</g>
			<g>
				<g style="enable-background:new    ;">
					<g>
						<polygon style="fill:#E0E0E0;" points="410.437,89.573 401.734,96.425 401.715,103.118 430.659,119.829 430.678,113.135 
							425.162,102.18 420.209,106.025 421.96,111.466 419.419,106.635 						"/>
					</g>
					<g>
						<path style="fill:#E0E0E0;" d="M419.944,92.947c-1.362-0.786-2.471-0.155-2.475,1.41c-0.004,1.565,1.097,3.472,2.459,4.259
							c1.362,0.786,2.471,0.155,2.475-1.41C422.407,95.64,421.306,93.733,419.944,92.947z"/>
					</g>
				</g>
			</g>
		</g>
		<g>
			<g>
				<polygon style="fill:none;" points="400.319,135.046 432.229,153.469 432.16,177.857 400.25,159.434 				"/>
				<polygon style="fill:#F0F0F0;" points="400.319,135.046 400.25,159.434 397.295,161.152 397.374,133.345 				"/>
				<polygon style="fill:#F5F5F5;" points="432.16,177.857 432.15,181.276 397.295,161.152 400.25,159.434 				"/>
				<path style="fill:#E0E0E0;" d="M393.711,163.194l41.999,24.248l0.102-36.009l-41.999-24.248L393.711,163.194z M397.295,161.152
					l0.079-27.807l2.946,1.701l31.91,18.423l-0.069,24.388l-0.01,3.419L397.295,161.152z"/>
				<polygon style="fill:#F5F5F5;" points="393.813,127.185 396.769,125.467 438.768,149.715 435.812,151.433 				"/>
				<polygon style="fill:#F0F0F0;" points="438.768,149.715 438.666,185.724 435.71,187.442 435.812,151.433 				"/>
			</g>
			<g>
				<g style="enable-background:new    ;">
					<g>
						<polygon style="fill:#E0E0E0;" points="410.458,144.306 401.756,151.158 401.737,157.851 430.681,174.562 430.699,167.868 
							425.184,156.913 420.231,160.758 421.982,166.199 419.44,161.368 						"/>
					</g>
					<g>
						<path style="fill:#E0E0E0;" d="M419.965,147.68c-1.362-0.786-2.471-0.155-2.475,1.41c-0.004,1.565,1.097,3.472,2.459,4.259
							c1.362,0.787,2.47,0.155,2.475-1.41C422.428,150.373,421.327,148.466,419.965,147.68z"/>
					</g>
				</g>
			</g>
		</g>
		<g>
			<path style="fill:none;" d="M350.997,95.354c-0.002-0.001-0.004-0.002-0.005-0.002c-0.381-0.181-0.763-0.367-1.145-0.561l0,0
				C350.23,94.986,350.614,95.173,350.997,95.354z"/>
			<path style="fill:none;" d="M351.411,95.554c0,0,0.001,0,0.001,0.001c-0.14-0.065-0.28-0.136-0.421-0.203
				c0.001,0.001,0.003,0.002,0.005,0.002C351.135,95.42,351.273,95.49,351.411,95.554z"/>
			<polygon style="fill:none;" points="337.978,47.835 346.704,52.874 355.572,57.993 346.704,52.874 			"/>
			<polygon style="fill:none;" points="337.896,76.599 337.919,68.504 337.94,61.107 337.919,68.504 			"/>
			<path style="fill:none;" d="M349.847,94.791c-0.08-0.041-0.159-0.076-0.239-0.117C349.688,94.715,349.767,94.75,349.847,94.791
				L349.847,94.791z"/>
			<polygon style="fill:none;" points="337.796,112.091 337.815,105.32 337.832,99.397 337.815,105.32 			"/>
			<path style="fill:none;" d="M354.8,96.949c-1.122-0.402-2.252-0.869-3.388-1.394c0,0-0.001,0-0.001-0.001
				C352.547,96.079,353.678,96.547,354.8,96.949z"/>
			<polygon style="fill:none;" points="363.893,72.817 363.819,98.823 363.776,113.894 363.819,98.823 			"/>
			<path style="fill:#EBEBEB;" d="M337.815,105.32l0.017-5.922c0.09,0.051,0.18,0.102,0.271,0.154
				c0.164,0.095,0.329,0.192,0.494,0.291c4.377,2.641,8.766,6.793,12.855,11.28c0.677,0.743,1.347,1.495,2.006,2.252
				c3.446,3.949,6.818,8.126,10.285,12.039l-0.027,9.57l-4.174-2.41C353.906,121.934,346.163,112.226,337.815,105.32z"/>
			<path style="fill:#EBEBEB;" d="M337.773,120.005l0.023-7.915c3.515,3.675,6.619,8.246,8.877,13.052L337.773,120.005z"/>
			<path style="fill:#FAFAFA;" d="M346.672,125.143c-2.258-4.806-5.361-9.377-8.877-13.052l0.019-6.771
				c8.348,6.906,16.091,16.615,21.727,27.254L346.672,125.143L346.672,125.143z"/>
			
				<line style="fill:none;stroke:#808080;stroke-width:0;stroke-linecap:round;stroke-linejoin:round;" x1="351.411" y1="95.554" x2="351.412" y2="95.555"/>
			
				<line style="fill:none;stroke:#808080;stroke-width:0;stroke-linecap:round;stroke-linejoin:round;" x1="350.997" y1="95.354" x2="350.992" y2="95.352"/>
			<path style="fill:#FAFAFA;" d="M355.403,97.16c-0.201-0.068-0.402-0.139-0.603-0.211c-1.122-0.402-2.253-0.869-3.389-1.395
				c-0.138-0.064-0.276-0.134-0.414-0.2c-0.383-0.182-0.767-0.368-1.15-0.564c-0.66-0.336-1.321-0.686-1.982-1.061
				c0.661,0.375,1.322,0.725,1.982,1.061c-0.08-0.041-0.159-0.076-0.239-0.117c-0.581-0.299-1.162-0.614-1.744-0.944
				c-0.125-0.07-0.249-0.141-0.374-0.213c-0.101-0.058-0.203-0.117-0.304-0.177c-3.006-1.762-6.009-3.914-8.933-6.401
				c-0.129-0.11-0.258-0.22-0.386-0.331l0.028-10.009c6.349,3.25,12.6,4.26,17.641,2.692c3.429-1.065,6.268-3.314,8.355-6.474
				l-0.074,26.007C361.128,98.692,358.302,98.146,355.403,97.16z"/>
			<path style="fill:#FAFAFA;" d="M351.452,111.123c-4.09-4.487-8.479-8.638-12.855-11.28c-0.164-0.099-0.329-0.197-0.494-0.291
				c-0.091-0.052-0.18-0.104-0.271-0.154l0.016-5.736c7.935,4.588,15.861,10.61,23.39,17.809c0.848,0.809,1.69,1.633,2.538,2.424
				l-0.033,11.52c-3.467-3.913-6.839-8.09-10.285-12.039C352.798,112.618,352.129,111.866,351.452,111.123z"/>
			<path style="fill:#EBEBEB;" d="M337.848,93.662l0.02-7.054c0.128,0.111,0.257,0.221,0.386,0.331
				c2.924,2.488,5.927,4.64,8.933,6.401c0.101,0.059,0.203,0.118,0.304,0.177c0.125,0.072,0.249,0.143,0.374,0.213
				c0.581,0.33,1.163,0.644,1.744,0.944c0.08,0.041,0.159,0.077,0.239,0.117c0.053,0.027,0.107,0.059,0.16,0.085
				c0.007,0.003,0.013,0.007,0.02,0.011c-0.007-0.004-0.013-0.007-0.02-0.011c-0.053-0.027-0.107-0.058-0.16-0.085
				c0.382,0.194,0.764,0.38,1.145,0.561c0.14,0.067,0.28,0.138,0.421,0.203c1.135,0.525,2.266,0.992,3.388,1.394
				c-0.212-0.076-0.425-0.155-0.638-0.236c0.213,0.081,0.426,0.16,0.638,0.236c0.201,0.072,0.403,0.143,0.603,0.211
				c2.898,0.986,5.725,1.533,8.416,1.664l-0.043,15.071c-0.848-0.791-1.69-1.615-2.538-2.424
				C353.709,104.272,345.783,98.249,337.848,93.662z"/>
			<path style="fill:#FAFAFA;" d="M337.919,68.504l0.021-7.397c4.011-0.94,7.125-3.862,8.764-8.233l8.868,5.12
				C352.058,64.953,345.678,68.799,337.919,68.504z"/>
			<path style="fill:#EBEBEB;" d="M355.538,79.29c-5.041,1.569-11.292,0.558-17.641-2.692l0.023-8.095
				c7.759,0.296,14.139-3.55,17.653-10.51l8.349,4.82l-0.028,10.003C361.806,75.977,358.967,78.226,355.538,79.29z"/>
			<path style="fill:#FFFFFF;" d="M336.308,120.837l28.87,16.668l0.214-75.52l-28.87-16.668L336.308,120.837z M359.542,132.573
				l-12.869-7.43v0l-8.899-5.138l0.023-7.915l0.019-6.771l0.017-5.922l0.016-5.736l0.02-7.054l0.028-10.009l0.023-8.095l0.021-7.397
				l0.038-13.271l8.726,5.038l8.868,5.12l8.349,4.82l-0.028,10.003l-0.074,26.007l-0.043,15.071l-0.033,11.52l-0.027,9.57
				L359.542,132.573z"/>
			<path style="fill:none;stroke:#808080;stroke-width:0;stroke-linecap:round;stroke-linejoin:round;" d="M350.027,94.887
				c-0.007-0.004-0.013-0.007-0.02-0.011"/>
			<path style="fill:none;stroke:#808080;stroke-width:0;stroke-linecap:round;stroke-linejoin:round;" d="M350.007,94.876
				c-0.053-0.027-0.107-0.058-0.16-0.085"/>
			<path style="fill:none;stroke:#808080;stroke-width:0;stroke-linecap:round;stroke-linejoin:round;" d="M347.865,93.73
				c0.661,0.375,1.322,0.725,1.982,1.061"/>
			
				<line style="fill:none;stroke:#808080;stroke-width:0;stroke-linecap:round;stroke-linejoin:round;" x1="349.847" y1="94.791" x2="349.847" y2="94.791"/>
			<path style="fill:none;stroke:#808080;stroke-width:0;stroke-linecap:round;stroke-linejoin:round;" d="M354.8,96.949
				c-0.212-0.076-0.425-0.155-0.638-0.236"/>
			<path style="fill:#EBEBEB;" d="M337.94,61.107l0.038-13.271l8.726,5.038C345.065,57.245,341.951,60.167,337.94,61.107z"/>
			<polygon style="fill:#CACACA;" points="336.308,120.837 365.178,137.505 365.172,139.512 334.573,121.845 			"/>
			<polygon style="fill:#F0F0F0;" points="336.522,45.317 336.308,120.837 334.573,121.845 334.793,44.319 			"/>
			<path style="fill:#E0E0E0;" d="M329.901,124.507l39.912,23.043l0.25-88.228L330.151,36.28L329.901,124.507z M334.573,121.845
				l0.22-77.526l1.729,0.998l28.87,16.668l-0.214,75.52l-0.006,2.006L334.573,121.845z"/>
			<polygon style="fill:#F5F5F5;" points="330.151,36.28 333.444,34.511 373.356,57.555 370.064,59.323 			"/>
			<polygon style="fill:#F0F0F0;" points="373.356,57.555 373.106,145.782 369.814,147.551 370.064,59.323 			"/>
		</g>
	</g>
</g>
<g id="Plants">
	<g>
		<g>
			<path style="fill:#FFFFFF;" d="M73.099,308.868l-15.023,0.438l-15.023-0.438c-0.647,10.145,1.334,20.484,4.065,25.535
				l0.011-0.001c0.489,1.108,1.472,2.159,2.974,3.026c4.433,2.559,11.596,2.559,16,0c1.527-0.887,2.509-1.967,2.972-3.104
				C71.784,329.246,73.742,318.963,73.099,308.868z"/>
			<g>
				<path style="fill:#EBEBEB;" d="M68.663,302.715c5.886,3.398,5.917,8.908,0.07,12.306c-5.848,3.398-15.36,3.398-21.246,0
					c-5.886-3.398-5.917-8.908-0.069-12.306C53.266,299.317,62.778,299.317,68.663,302.715z"/>
			</g>
			<g>
				<path style="fill:#E0E0E0;" d="M66.336,304.068c4.592,2.651,4.617,6.95,0.054,9.601c-4.562,2.651-11.983,2.651-16.575,0
					c-4.592-2.651-4.616-6.949-0.054-9.601C54.323,301.417,61.744,301.417,66.336,304.068z"/>
			</g>
			<g style="opacity:0.15;">
				<path d="M66.336,304.068c4.592,2.651,4.617,6.95,0.054,9.601c-4.562,2.651-11.983,2.651-16.575,0
					c-4.592-2.651-4.616-6.949-0.054-9.601C54.323,301.417,61.744,301.417,66.336,304.068z"/>
			</g>
		</g>
		<g>
			<path style="fill:#BA68C8;" d="M50.413,278.124c-2.443-3.038-5.281-5.759-7.521-8.949c-1.528-2.177-2.806-4.84-2.164-7.421
				c0.596-2.395,2.834-4.175,5.259-4.629c2.426-0.454,4.965,0.271,7.06,1.575c2.095,1.304,3.798,3.149,5.336,5.079
				c8.406,10.549,12.5,24.434,11.164,37.856c-0.153,1.539-0.411,3.157-1.394,4.35c-1.054,1.28-2.901,1.844-4.491,1.373
				c-4.092-1.215-3.549-6.743-4.219-9.995c-0.917-4.457-2.509-8.775-4.701-12.763C53.491,282.321,52.043,280.15,50.413,278.124z"/>
			<path style="opacity:0.1;" d="M50.413,278.124c-2.443-3.038-5.281-5.759-7.521-8.949c-1.528-2.177-2.806-4.84-2.164-7.421
				c0.596-2.395,2.834-4.175,5.259-4.629c2.426-0.454,4.965,0.271,7.06,1.575c2.095,1.304,3.798,3.149,5.336,5.079
				c8.406,10.549,12.5,24.434,11.164,37.856c-0.153,1.539-0.411,3.157-1.394,4.35c-1.054,1.28-2.901,1.844-4.491,1.373
				c-4.092-1.215-3.549-6.743-4.219-9.995c-0.917-4.457-2.509-8.775-4.701-12.763C53.491,282.321,52.043,280.15,50.413,278.124z"/>
			<g>
				<path style="fill:#F0F0F0;" d="M63.917,303.238c-0.158-0.031-0.281-0.167-0.289-0.336c-0.286-6.57-2.422-28.993-17.875-41.715
					c-0.153-0.126-0.174-0.352-0.049-0.504c0.126-0.153,0.351-0.174,0.504-0.049c15.681,12.911,17.846,35.592,18.136,42.237
					c0.008,0.198-0.145,0.365-0.342,0.374C63.973,303.245,63.945,303.243,63.917,303.238z"/>
			</g>
			<g>
				<path style="fill:#BA68C8;" d="M66.175,303.949c-0.468,2.578-2.683,5.77-5.018,6.958c-2.315,1.178-5.003,1.493-7.593,1.271
					c-2.637-0.227-5.199-0.983-7.708-1.828c-1.239-0.417-2.616-0.98-2.748-2.515c-0.07-0.81,0.294-1.594,0.876-2.161
					c0.244-0.238,0.513-0.47,0.8-0.688c0.583-0.446,0.309-1.372-0.423-1.423c-0.737-0.051-1.471-0.133-2.197-0.272
					c-1.677-0.32-3.329-0.96-4.612-2.086c-0.964-0.846-1.694-1.949-2.13-3.155c-0.373-1.032-0.477-2.327,0.304-3.098
					c0.448-0.442,1.093-0.61,1.708-0.743c0.549-0.119,1.1-0.22,1.652-0.306c0.734-0.114,0.856-1.116,0.17-1.401l-2.331-0.971
					c-0.647-0.27-1.321-0.559-1.769-1.098c-0.714-0.861-0.663-2.113-0.449-3.211c0.285-1.459,0.789-2.866,1.132-4.312
					c0.343-1.446,0.523-2.973,0.154-4.413c4.352-0.441,8.823-0.234,13.055,0.872c1.264,0.33,2.543,0.744,3.563,1.56
					c1.453,1.163,1.832,2.908,1.677,4.799c-0.029,0.359,0.463,0.494,0.635,0.178l1.489-2.746c0.449-0.827,1.464-1.139,2.315-0.74
					c1.285,0.603,2.432,1.569,3.406,2.678c1.05,1.196,1.586,2.772,1.457,4.359c-0.174,2.145-0.548,4.318-1.086,6.399
					c-0.141,0.545,0.47,0.956,0.927,0.626l0.071-0.051c0.407-0.294,0.906-0.47,1.404-0.409c1.316,0.163,1.653,1.497,1.74,2.633
					C66.777,300.3,66.486,302.237,66.175,303.949z"/>
				<path style="opacity:0.2;" d="M66.175,303.949c-0.468,2.578-2.683,5.77-5.018,6.958c-2.315,1.178-5.003,1.493-7.593,1.271
					c-2.637-0.227-5.199-0.983-7.708-1.828c-1.239-0.417-2.616-0.98-2.748-2.515c-0.07-0.81,0.294-1.594,0.876-2.161
					c0.244-0.238,0.513-0.47,0.8-0.688c0.583-0.446,0.309-1.372-0.423-1.423c-0.737-0.051-1.471-0.133-2.197-0.272
					c-1.677-0.32-3.329-0.96-4.612-2.086c-0.964-0.846-1.694-1.949-2.13-3.155c-0.373-1.032-0.477-2.327,0.304-3.098
					c0.448-0.442,1.093-0.61,1.708-0.743c0.549-0.119,1.1-0.22,1.652-0.306c0.734-0.114,0.856-1.116,0.17-1.401l-2.331-0.971
					c-0.647-0.27-1.321-0.559-1.769-1.098c-0.714-0.861-0.663-2.113-0.449-3.211c0.285-1.459,0.789-2.866,1.132-4.312
					c0.343-1.446,0.523-2.973,0.154-4.413c4.352-0.441,8.823-0.234,13.055,0.872c1.264,0.33,2.543,0.744,3.563,1.56
					c1.453,1.163,1.832,2.908,1.677,4.799c-0.029,0.359,0.463,0.494,0.635,0.178l1.489-2.746c0.449-0.827,1.464-1.139,2.315-0.74
					c1.285,0.603,2.432,1.569,3.406,2.678c1.05,1.196,1.586,2.772,1.457,4.359c-0.174,2.145-0.548,4.318-1.086,6.399
					c-0.141,0.545,0.47,0.956,0.927,0.626l0.071-0.051c0.407-0.294,0.906-0.47,1.404-0.409c1.316,0.163,1.653,1.497,1.74,2.633
					C66.777,300.3,66.486,302.237,66.175,303.949z"/>
				<path style="fill:#F0F0F0;" d="M59.252,310.549c-0.018-0.091-0.92-4.46-3.511-10.176c0-0.103-0.043-0.199-0.124-0.268
					c-0.081-0.177-0.161-0.353-0.246-0.532c0.744-6.835,3.451-11.604,3.478-11.651c0.099-0.172,0.04-0.39-0.131-0.489
					c-0.171-0.096-0.39-0.04-0.489,0.132c-0.027,0.046-2.517,4.432-3.429,10.83c-2.972-5.96-7.714-12.932-15.033-18.026
					c-0.163-0.112-0.385-0.073-0.499,0.089c-0.113,0.162-0.073,0.385,0.089,0.499c7.55,5.254,12.314,12.538,15.21,18.582
					c-5.899-2.872-12.166-1.737-12.445-1.684c-0.194,0.037-0.321,0.224-0.285,0.419c0.028,0.148,0.143,0.257,0.282,0.284
					c0.044,0.009,0.09,0.009,0.136,0c0.068-0.013,6.901-1.255,12.809,2.048c2.572,5.658,3.466,9.99,3.484,10.081
					c0.029,0.147,0.144,0.255,0.282,0.282c0.045,0.009,0.091,0.009,0.138,0C59.164,310.93,59.29,310.742,59.252,310.549z"/>
			</g>
		</g>
	</g>
	<g>
		<g>
			<path style="fill:#FFFFFF;" d="M455.448,331.158l-15.833,0.461l-15.833-0.461c-0.682,10.692,1.406,21.589,4.284,26.912
				l0.011-0.002c0.515,1.168,1.551,2.276,3.134,3.189c4.672,2.697,12.222,2.697,16.863,0c1.609-0.935,2.644-2.073,3.132-3.272
				C454.062,352.635,456.126,341.798,455.448,331.158z"/>
			<g>
				<path style="fill:#EBEBEB;" d="M450.773,324.673c6.204,3.582,6.236,9.388,0.073,12.97c-6.163,3.582-16.188,3.582-22.392,0
					c-6.203-3.581-6.236-9.388-0.072-12.97C434.546,321.092,444.57,321.092,450.773,324.673z"/>
			</g>
			<g>
				<path style="fill:#E0E0E0;" d="M448.32,326.099c4.84,2.794,4.866,7.325,0.057,10.119c-4.808,2.794-12.629,2.794-17.469,0
					c-4.84-2.794-4.865-7.324-0.057-10.119C435.66,323.305,443.481,323.305,448.32,326.099z"/>
			</g>
			<g style="opacity:0.15;">
				<path d="M448.32,326.099c4.84,2.794,4.866,7.325,0.057,10.119c-4.808,2.794-12.629,2.794-17.469,0
					c-4.84-2.794-4.865-7.324-0.057-10.119C435.66,323.305,443.481,323.305,448.32,326.099z"/>
			</g>
		</g>
		<g>
			<path style="fill:#BA68C8;" d="M465.646,263.595c-35.681,11.683-36.004,35.553-27.96,52.552
				c2.029,3.441,8.168,5.289,13.512-15.852l-9.372,1.202l10.922-5.536l2.837-8.48l-9.106,0.676l11.559-4.861
				C462.296,270.414,465.646,263.595,465.646,263.595z"/>
			<path style="opacity:0.2;" d="M465.646,263.595c-35.681,11.683-36.004,35.553-27.96,52.552
				c2.029,3.441,8.168,5.289,13.512-15.852l-9.372,1.202l10.922-5.536l2.837-8.48l-9.106,0.676l11.559-4.861
				C462.296,270.414,465.646,263.595,465.646,263.595z"/>
			<path style="opacity:0.2;fill:#FFFFFF;" d="M465.646,263.595c-35.681,11.683-36.004,35.553-27.96,52.552
				c2.029,3.441,8.168,5.289,13.512-15.852l-9.372,1.202l10.922-5.536l2.837-8.48l-9.106,0.676l11.559-4.861
				C462.296,270.414,465.646,263.595,465.646,263.595z"/>
			<path style="fill:#FFFFFF;" d="M455.554,269.565c-18.816,14.281-20.515,30.654-15.199,47.746
				C438.475,302.26,436.443,287.042,455.554,269.565z"/>
		</g>
		<g>
			<path style="fill:#BA68C8;" d="M405.212,287.843c35.171,4.952,39.438,27.129,34.771,44.297
				c-1.317,3.542-6.728,6.283-15.217-12.518l8.928-0.438l-11.091-3.341l-4.051-7.426l8.593-0.883l-11.573-2.607
				C409.466,293.637,405.212,287.843,405.212,287.843z"/>
			<path style="opacity:0.2;fill:#FFFFFF;" d="M405.212,287.843c35.171,4.952,39.438,27.129,34.771,44.297
				c-1.317,3.542-6.728,6.283-15.217-12.518l8.928-0.438l-11.091-3.341l-4.051-7.426l8.593-0.883l-11.573-2.607
				C409.466,293.637,405.212,287.843,405.212,287.843z"/>
			<path style="opacity:0.1;" d="M405.212,287.843c35.171,4.952,39.438,27.129,34.771,44.297
				c-1.317,3.542-6.728,6.283-15.217-12.518l8.928-0.438l-11.091-3.341l-4.051-7.426l8.593-0.883l-11.573-2.607
				C409.466,293.637,405.212,287.843,405.212,287.843z"/>
			<path style="fill:#FFFFFF;" d="M415.603,291.726c19.896,10.174,24.199,25.14,22.088,41.942
				C436.941,319.338,436.306,304.827,415.603,291.726z"/>
		</g>
		<g>
			<path style="fill:#BA68C8;" d="M475.94,296.154c-32.254,0.527-38.582,20.038-36.297,36.034c0.791,3.34,5.361,6.416,15.116-9.58
				l-7.998-1.394l10.371-1.77l4.482-6.24l-7.646-1.758l10.722-1.055C471.458,300.9,475.94,296.154,475.94,296.154z"/>
			<path style="fill:#FFFFFF;" d="M466.141,298.49c-19.071,6.943-24.624,19.95-24.602,35.33
				C443.817,320.989,446.015,307.982,466.141,298.49z"/>
			<path style="opacity:0.2;fill:#FFFFFF;" d="M475.94,296.154c-32.254,0.527-38.582,20.038-36.297,36.034
				c0.791,3.34,5.361,6.416,15.116-9.58l-7.998-1.394l10.371-1.77l4.482-6.24l-7.646-1.758l10.722-1.055
				C471.458,300.9,475.94,296.154,475.94,296.154z"/>
		</g>
	</g>
</g>
<g id="Window">
	<g>
		<g>
			<path style="fill:#455A64;" d="M89.681,268.738c-0.263,0.152-0.52,0.267-0.769,0.355
				C89.161,269.007,89.417,268.89,89.681,268.738z"/>
			<path style="fill:#455A64;" d="M88.371,269.219c-0.053,0.009-0.109,0.03-0.161,0.036
				C88.261,269.249,88.318,269.228,88.371,269.219z"/>
			<path style="fill:#455A64;" d="M87.002,269.078v-0.012l0,0c-0.016-0.008-0.035-0.01-0.05-0.019L87.002,269.078z"/>
			<path style="fill:#BA68C8;" d="M284.365,33.17v0.007c-0.722-0.449-1.731-0.411-2.852,0.236L82.526,148.339
				c-2.186,1.262-3.947,4.32-3.94,6.832l0.021,7.373l0.011,0.004l-0.035,0.02l0.001,0.295l0.035,12.503l0.001,0.284l0.419,86.733
				c0.004,1.223,0.433,2.084,1.121,2.506l-0.004,0.004l0.035,0.021c0.009,0.005,0.018,0.011,0.028,0.017l6.582,4.024
				c-0.664-0.43-1.08-1.276-1.083-2.475l-0.42-87.017l0,0l-0.036-12.798l0.025-0.024l-0.021-7.373
				c-0.007-2.512,1.753-5.57,3.94-6.832L288.191,37.509c1.074-0.62,2.049-0.683,2.764-0.292L284.365,33.17z"/>
			<path style="opacity:0.2;fill:#FFFFFF;" d="M78.586,155.171l0.021,7.373l0.011,0.004l-0.035,0.02l0.001,0.295l0.035,12.503
				l0.001,0.284l0.419,86.733c0.004,1.223,0.433,2.084,1.121,2.506l-0.004,0.004l0.035,0.021c0.009,0.005,0.018,0.011,0.028,0.017
				l6.582,4.024c-0.664-0.43-1.08-1.276-1.083-2.475l-0.42-87.017l0,0l-0.036-12.798l0.025-0.024l-0.021-7.373
				c-0.003-1.07,0.328-2.234,0.863-3.321l-6.771-3.909C78.875,153.069,78.583,154.162,78.586,155.171z"/>
			<path style="opacity:0.4;fill:#FFFFFF;" d="M85.271,170.962l-0.012-4.298l0.025-0.024l-0.021-7.373
				c-0.003-1.07,0.328-2.234,0.863-3.321l-6.771-3.909c-0.48,1.033-0.772,2.126-0.769,3.135l0.021,7.373l0.011,0.004l-0.035,0.02
				l0.001,0.295l0.012,4.244l6.664,3.862L85.271,170.962z"/>
			<path style="opacity:0.5;fill:#FFFFFF;" d="M284.365,33.17v0.007c-0.722-0.449-1.731-0.411-2.852,0.236L82.526,148.339
				c-1.308,0.755-2.455,2.157-3.171,3.697l6.771,3.909c0.72-1.465,1.822-2.786,3.077-3.511L288.191,37.509
				c1.074-0.62,2.049-0.683,2.764-0.292L284.365,33.17z"/>
		</g>
		<path style="fill:#BA68C8;" d="M292.152,47.195l0.025-0.045l-0.021-7.373c-0.007-2.512-1.786-3.526-3.965-2.268L89.202,152.435
			c-2.186,1.262-3.947,4.32-3.94,6.832l0.021,7.345l-0.025,0.053l0.012,4.298l206.893-119.49L292.152,47.195z"/>
		<path style="opacity:0.2;fill:#FFFFFF;" d="M292.152,47.195l0.025-0.045l-0.021-7.373c-0.007-2.512-1.786-3.526-3.965-2.268
			L89.202,152.435c-2.186,1.262-3.947,4.32-3.94,6.832l0.021,7.345l-0.025,0.053l0.012,4.298l206.893-119.49L292.152,47.195z"/>
		<path style="fill:#BA68C8;" d="M292.189,59.989l-0.024-8.517L85.271,170.962l0.024,8.499v0l0.42,87.017
			c0.007,2.504,1.779,3.522,3.965,2.26l198.988-114.926c2.179-1.258,3.947-4.319,3.94-6.824L292.189,59.989L292.189,59.989z"/>
		<g>
			<g>
				<path style="fill:#FFFFFF;" d="M102.77,176.028c0.374-0.216,0.673-0.046,0.674,0.371l0.021,7.456
					c0.001,0.436-0.284,0.944-0.658,1.16l-0.053,0.03c-0.321,0.186-0.521,0.105-0.709-0.062l-3.992-3.616l0.016,5.629
					c0.001,0.423-0.296,0.938-0.664,1.15c-0.374,0.216-0.673,0.046-0.674-0.378l-0.021-7.442c-0.001-0.437,0.296-0.965,0.682-1.188
					l0.146-0.084c0.333-0.192,0.521-0.106,0.709,0.048l3.88,3.519l-0.015-5.454C102.11,176.752,102.407,176.237,102.77,176.028z"/>
			</g>
			<g>
				<path style="fill:#FFFFFF;" d="M109.535,175.029c0.434,0.234,0.635,0.831,0.637,1.704l0.009,3.298
					c0.001,0.416-0.284,0.904-0.653,1.117c-0.386,0.223-0.65,0.066-0.651-0.277l-0.001-0.255c-0.396,0.78-1.003,1.561-1.897,2.077
					c-1.093,0.631-2.065,0.466-2.069-0.878l0-0.027c-0.004-1.444,0.976-2.723,2.402-3.546c0.649-0.375,1.111-0.527,1.567-0.622
					l0-0.168c-0.003-0.947-0.513-1.164-1.454-0.621c-0.503,0.29-0.923,0.634-1.291,1.014c-0.076,0.064-0.14,0.115-0.204,0.152
					c-0.31,0.179-0.568,0.052-0.569-0.304c-0.001-0.282,0.168-0.622,0.367-0.824c0.549-0.559,1.11-1.031,1.875-1.473
					C108.475,174.894,109.125,174.781,109.535,175.029z M108.908,179.023l-0.001-0.457c-0.345,0.051-0.796,0.197-1.328,0.504
					c-0.859,0.496-1.367,1.206-1.365,1.905l0,0.027c0.002,0.645,0.5,0.727,1.137,0.359
					C108.234,180.852,108.911,179.876,108.908,179.023"/>
			</g>
			<g>
				<path style="fill:#FFFFFF;" d="M118.588,169.001c1.268-0.732,2.043-0.251,2.047,1.388l0.01,3.573
					c0.001,0.43-0.284,0.931-0.658,1.147c-0.374,0.216-0.673,0.052-0.674-0.378l-0.009-3.11c-0.003-1.061-0.437-1.383-1.185-0.951
					c-0.731,0.422-1.249,1.307-1.246,2.381l0.009,3.083c0.001,0.43-0.296,0.938-0.658,1.147c-0.374,0.216-0.673,0.052-0.674-0.378
					l-0.009-3.117c-0.003-1.041-0.449-1.369-1.185-0.944c-0.742,0.429-1.249,1.354-1.246,2.381l0.009,3.083
					c0.001,0.43-0.296,0.938-0.67,1.154c-0.362,0.209-0.661,0.046-0.663-0.384l-0.015-5.3c-0.001-0.43,0.284-0.938,0.658-1.154
					c0.374-0.216,0.673-0.046,0.674,0.384l0.001,0.316c0.378-0.817,0.879-1.665,1.774-2.181c0.842-0.486,1.439-0.36,1.751,0.173
					C117.087,170.339,117.705,169.511,118.588,169.001z"/>
			</g>
			<g>
				<path style="fill:#FFFFFF;" d="M127.564,167.122c0.001,0.43-0.284,0.904-0.629,1.103l-3.654,2.109
					c0.149,1.004,0.823,1.227,1.683,0.731c0.561-0.324,1.005-0.809,1.378-1.381c0.099-0.145,0.187-0.249,0.344-0.34
					c0.298-0.172,0.527-0.035,0.528,0.321c0.001,0.188-0.075,0.4-0.174,0.572c-0.53,0.851-1.19,1.575-2.096,2.098
					c-1.689,0.975-2.997,0.317-3.003-1.751l0-0.027c-0.005-1.914,1.177-4.171,2.843-5.133
					C126.637,164.354,127.56,165.577,127.564,167.122z M123.267,169.328l2.993-1.728c-0.09-0.943-0.601-1.422-1.484-0.913
					C123.957,167.159,123.386,168.216,123.267,169.328"/>
			</g>
		</g>
		<g>
			<path style="fill:#FFFFFF;" d="M280.21,90.879c1.795-1.036,3.255-0.204,3.261,1.858l0.041,14.549
				c0.006,2.062-1.445,4.575-3.24,5.611L99.407,217.32c-1.795,1.036-3.255,0.204-3.261-1.858l-0.041-14.549
				c-0.006-2.062,1.445-4.575,3.24-5.611L280.21,90.879z"/>
		</g>
		<g>
			<g>
				<path style="fill:#E0E0E0;" d="M108.041,196.224c0.345-0.199,0.585-0.082,0.686,0.23l1.765,5.063l1.76-7.138
					c0.098-0.373,0.332-0.75,0.659-0.939c0.368-0.213,0.673-0.059,0.674,0.357c0,0.101-0.029,0.245-0.063,0.353l-2.265,8.681
					c-0.122,0.46-0.372,0.861-0.705,1.053l-0.129,0.074c-0.333,0.193-0.579,0.092-0.698-0.243l-1.741-4.801l-1.708,6.792
					c-0.116,0.471-0.372,0.861-0.705,1.053l-0.129,0.074c-0.333,0.192-0.574,0.089-0.709-0.236l-2.306-6.042
					c-0.035-0.067-0.053-0.171-0.054-0.272c-0.001-0.43,0.314-0.941,0.694-1.161c0.327-0.189,0.585-0.096,0.674,0.183l1.794,5.073
					l1.725-7.078c0.11-0.434,0.343-0.824,0.682-1.02L108.041,196.224z"/>
			</g>
			<g>
				<path style="fill:#E0E0E0;" d="M117.377,193.021c0.421-0.243,0.667-0.069,0.668,0.374c0.001,0.41-0.232,0.807-0.53,1.046
					c-0.947,0.735-1.599,1.952-1.594,3.538l0.006,1.975c0.001,0.423-0.296,0.938-0.67,1.154c-0.362,0.209-0.662,0.052-0.663-0.384
					l-0.015-5.3c-0.001-0.43,0.284-0.938,0.658-1.154c0.374-0.216,0.673-0.045,0.674,0.384l0.002,0.685
					C116.221,194.32,116.792,193.358,117.377,193.021z"/>
			</g>
			<g>
				<path style="fill:#E0E0E0;" d="M119.866,189.115c0.433-0.25,0.767-0.147,0.768,0.31l0,0.074
					c0.001,0.457-0.331,0.958-0.764,1.208c-0.427,0.246-0.761,0.13-0.762-0.327l0-0.074
					C119.107,189.849,119.439,189.361,119.866,189.115z"/>
			</g>
			<g>
				<path style="fill:#E0E0E0;" d="M119.873,191.593c0.38-0.219,0.679-0.049,0.68,0.381l0.015,5.3
					c0.001,0.437-0.296,0.938-0.676,1.157c-0.362,0.209-0.661,0.052-0.663-0.384l-0.015-5.3
					C119.214,192.317,119.499,191.809,119.873,191.593z"/>
			</g>
			<g>
				<path style="fill:#E0E0E0;" d="M123.241,187.819c0.362-0.209,0.661-0.039,0.663,0.378l0.003,1.142l1.046-0.604
					c0.322-0.186,0.585-0.049,0.587,0.321c0.001,0.369-0.261,0.81-0.583,0.996l-1.046,0.604l0.009,3.291
					c0.002,0.591,0.265,0.681,0.721,0.418c0.152-0.088,0.286-0.199,0.327-0.223c0.298-0.172,0.568-0.052,0.569,0.304
					c0.001,0.282-0.168,0.608-0.355,0.804c-0.286,0.28-0.561,0.499-0.917,0.705c-0.982,0.567-1.679,0.478-1.683-0.993l-0.01-3.533
					l-0.216,0.125c-0.322,0.186-0.579,0.045-0.58-0.324c-0.001-0.369,0.255-0.807,0.577-0.992l0.216-0.125l-0.003-1.142
					C122.564,188.553,122.861,188.038,123.241,187.819z"/>
			</g>
			<g>
				<path style="fill:#E0E0E0;" d="M131.977,187.841c0.001,0.437-0.284,0.904-0.629,1.103l-3.654,2.109
					c0.143,1.007,0.823,1.227,1.682,0.731c0.561-0.324,1.005-0.809,1.378-1.381c0.099-0.145,0.187-0.249,0.344-0.34
					c0.298-0.172,0.527-0.035,0.528,0.321c0.001,0.188-0.075,0.4-0.174,0.571c-0.53,0.851-1.19,1.575-2.096,2.098
					c-1.689,0.975-2.997,0.317-3.003-1.751c-0.006-1.935,1.171-4.195,2.843-5.16C131.05,185.073,131.972,186.296,131.977,187.841z
					 M127.679,190.046l2.993-1.728c-0.091-0.943-0.601-1.422-1.484-0.913C128.37,187.878,127.799,188.934,127.679,190.046"/>
			</g>
			<g>
				<path style="fill:#E0E0E0;" d="M141.215,179.271c0.357-0.206,0.644-0.055,0.645,0.347c0,0.128-0.034,0.316-0.052,0.4
					l-2.117,7.109c-0.493,1.657-1.023,2.468-1.959,3.008c-0.374,0.216-0.655,0.318-0.93,0.349c-0.199,0.034-0.416-0.029-0.417-0.399
					c-0.001-0.376,0.249-0.776,0.536-0.942c0.111-0.064,0.176-0.074,0.246-0.095c0.152-0.034,0.275-0.064,0.462-0.173
					c0.398-0.23,0.607-0.546,0.828-1.191l0.04-0.165l-2.178-4.306c-0.047-0.087-0.077-0.225-0.077-0.326
					c-0.001-0.43,0.284-0.911,0.659-1.127c0.345-0.199,0.533-0.079,0.65,0.21l1.585,3.546l1.443-5.294
					C140.69,179.837,140.876,179.467,141.215,179.271z"/>
			</g>
			<g>
				<path style="fill:#E0E0E0;" d="M145.681,176.626c1.789-1.033,3.103-0.224,3.108,1.691v0.027
					c0.005,1.901-1.311,4.249-3.112,5.288c-1.777,1.026-3.097,0.227-3.102-1.681C142.57,180.01,143.892,177.658,145.681,176.626z
					 M147.456,179.133v-0.02c-0.003-1.182-0.748-1.734-1.795-1.13c-1.07,0.618-1.751,1.98-1.748,3.148l0,0.027
					c0.003,1.162,0.743,1.717,1.783,1.117C146.778,181.65,147.46,180.288,147.456,179.133"/>
			</g>
			<g>
				<path style="fill:#E0E0E0;" d="M154.642,171.519c0.368-0.213,0.679-0.049,0.68,0.381l0.015,5.3
					c0.001,0.423-0.296,0.938-0.676,1.157c-0.363,0.209-0.673,0.059-0.674-0.378l-0.001-0.342c-0.372,0.854-0.914,1.712-1.815,2.232
					c-1.315,0.759-2.084,0.187-2.088-1.371l-0.01-3.567c-0.001-0.43,0.296-0.944,0.664-1.157c0.374-0.216,0.673-0.046,0.674,0.384
					l0.009,3.11c0.003,1.041,0.455,1.359,1.25,0.9c0.777-0.449,1.314-1.364,1.311-2.405l-0.009-3.083
					C153.971,172.25,154.268,171.735,154.642,171.519z"/>
			</g>
			<g>
				<path style="fill:#E0E0E0;" d="M163.457,166.363c1.309-0.756,2.078-0.184,2.082,1.368l0.01,3.573
					c0.001,0.437-0.284,0.931-0.664,1.15c-0.374,0.216-0.673,0.059-0.674-0.378l-0.009-3.103c-0.003-1.041-0.455-1.379-1.25-0.92
					c-0.771,0.445-1.313,1.384-1.311,2.419l0.009,3.083c0.001,0.437-0.296,0.938-0.67,1.154c-0.362,0.209-0.661,0.052-0.663-0.384
					l-0.015-5.3c-0.001-0.43,0.284-0.938,0.658-1.154c0.374-0.216,0.673-0.046,0.674,0.384l0.001,0.329
					C162.009,167.75,162.551,166.886,163.457,166.363z"/>
			</g>
			<g>
				<path style="fill:#E0E0E0;" d="M171.398,162.579c0.428,0.237,0.629,0.835,0.631,1.708l0.009,3.298
					c0.001,0.416-0.284,0.904-0.647,1.114c-0.386,0.223-0.65,0.065-0.651-0.277l-0.001-0.249c-0.396,0.774-1.003,1.555-1.897,2.071
					c-1.093,0.631-2.065,0.466-2.069-0.877l0-0.027c-0.004-1.444,0.976-2.723,2.396-3.543c0.655-0.378,1.117-0.53,1.573-0.626
					l0-0.168c-0.003-0.947-0.513-1.164-1.454-0.621c-0.508,0.294-0.929,0.637-1.291,1.015c-0.076,0.071-0.14,0.115-0.21,0.155
					c-0.31,0.179-0.562,0.049-0.563-0.307c-0.001-0.282,0.162-0.612,0.361-0.82c0.555-0.556,1.115-1.034,1.875-1.473
					C170.332,162.447,170.987,162.331,171.398,162.579z M170.765,166.577l-0.001-0.457c-0.339,0.048-0.796,0.197-1.322,0.501
					c-0.865,0.499-1.373,1.21-1.371,1.908l0,0.027c0.002,0.645,0.5,0.727,1.143,0.356
					C170.097,168.403,170.767,167.43,170.765,166.577"/>
			</g>
			<g>
				<path style="fill:#E0E0E0;" d="M180.45,156.552c1.269-0.732,2.043-0.251,2.047,1.388l0.01,3.573
					c0.001,0.437-0.284,0.931-0.658,1.147c-0.374,0.216-0.673,0.059-0.674-0.378l-0.009-3.103c-0.003-1.068-0.437-1.389-1.191-0.954
					c-0.725,0.419-1.243,1.303-1.24,2.378l0.009,3.083c0.001,0.437-0.296,0.938-0.658,1.147c-0.38,0.219-0.679,0.062-0.68-0.374
					l-0.009-3.117c-0.003-1.041-0.443-1.372-1.186-0.944c-0.736,0.425-1.243,1.35-1.24,2.378l0.009,3.083
					c0.001,0.437-0.296,0.938-0.67,1.154c-0.368,0.213-0.667,0.056-0.669-0.381l-0.015-5.3c-0.001-0.43,0.284-0.938,0.664-1.157
					c0.374-0.216,0.673-0.046,0.674,0.384l0.001,0.316c0.372-0.814,0.879-1.665,1.774-2.181c0.842-0.486,1.439-0.36,1.745,0.176
					C178.949,157.889,179.561,157.065,180.45,156.552z"/>
			</g>
			<g>
				<path style="fill:#E0E0E0;" d="M189.421,154.676c0.001,0.437-0.284,0.904-0.623,1.1l-3.653,2.109
					c0.143,1.007,0.817,1.23,1.682,0.731c0.561-0.324,1.005-0.809,1.378-1.381c0.099-0.145,0.187-0.249,0.339-0.337
					c0.298-0.172,0.533-0.038,0.534,0.318c0.001,0.188-0.075,0.4-0.174,0.572c-0.53,0.851-1.19,1.575-2.096,2.098
					c-1.689,0.975-2.997,0.317-3.003-1.751c-0.005-1.934,1.171-4.195,2.837-5.156C188.499,151.904,189.416,153.131,189.421,154.676z
					 M185.129,156.878l2.993-1.728c-0.096-0.94-0.601-1.422-1.49-0.909C185.82,154.71,185.249,155.766,185.129,156.878"/>
			</g>
			<g>
				<path style="fill:#E0E0E0;" d="M194.753,145.805c0.374-0.216,0.673-0.046,0.674,0.371l0.008,2.895
					c0.372-0.834,0.915-1.699,1.82-2.222c1.309-0.756,2.078-0.184,2.083,1.368l0.01,3.573c0.001,0.437-0.284,0.931-0.664,1.151
					c-0.374,0.216-0.673,0.059-0.674-0.378l-0.009-3.103c-0.003-1.041-0.455-1.379-1.25-0.92c-0.777,0.449-1.314,1.384-1.311,2.418
					l0.009,3.083c0.001,0.437-0.296,0.938-0.67,1.154c-0.368,0.213-0.667,0.055-0.668-0.381l-0.022-7.865
					C194.087,146.532,194.373,146.024,194.753,145.805z"/>
			</g>
			<g>
				<path style="fill:#E0E0E0;" d="M206.25,144.96c0.001,0.437-0.284,0.904-0.629,1.103l-3.653,2.109
					c0.149,1.004,0.823,1.227,1.682,0.731c0.567-0.327,1.005-0.809,1.378-1.381c0.099-0.145,0.193-0.252,0.344-0.34
					c0.298-0.172,0.533-0.038,0.534,0.318c0,0.188-0.081,0.403-0.18,0.575c-0.525,0.848-1.19,1.575-2.09,2.095
					c-1.689,0.975-2.997,0.317-3.003-1.751c-0.005-1.934,1.171-4.195,2.837-5.157C205.323,142.191,206.245,143.415,206.25,144.96z
					 M201.953,147.165l2.993-1.728c-0.09-0.944-0.601-1.422-1.484-0.913C202.643,144.997,202.072,146.053,201.953,147.165"/>
			</g>
			<g>
				<path style="fill:#E0E0E0;" d="M210.414,139.306c0.421-0.243,0.661-0.066,0.663,0.378c0.001,0.41-0.226,0.803-0.524,1.043
					c-0.952,0.738-1.599,1.952-1.594,3.538l0.005,1.975c0.001,0.423-0.296,0.938-0.67,1.154c-0.368,0.213-0.667,0.056-0.668-0.381
					l-0.015-5.3c-0.001-0.43,0.284-0.938,0.664-1.157c0.374-0.216,0.673-0.046,0.674,0.384l0.002,0.685
					C209.259,140.605,209.83,139.643,210.414,139.306z"/>
			</g>
			<g>
				<path style="fill:#E0E0E0;" d="M217.28,138.591c0.001,0.437-0.284,0.904-0.629,1.103l-3.654,2.109
					c0.149,1.004,0.823,1.227,1.683,0.731c0.567-0.327,1.005-0.809,1.378-1.381c0.099-0.145,0.187-0.249,0.344-0.34
					c0.298-0.172,0.533-0.038,0.534,0.317c0.001,0.188-0.081,0.403-0.18,0.575c-0.525,0.848-1.19,1.575-2.096,2.098
					c-1.684,0.972-2.991,0.314-2.997-1.755c-0.005-1.934,1.171-4.195,2.837-5.156C216.353,135.823,217.276,137.046,217.28,138.591z
					 M212.983,140.796l2.993-1.728c-0.09-0.943-0.601-1.422-1.484-0.913C213.674,138.628,213.103,139.684,212.983,140.796"/>
			</g>
		</g>
		<g>
			<g>
				<path style="fill:#BA68C8;" d="M145.551,202.538c5.39-3.112,9.769-0.616,9.787,5.577c0.018,6.194-4.333,13.729-9.723,16.841
					l-39.199,22.632c-5.383,3.108-9.769,0.616-9.787-5.577c-0.018-6.193,4.34-13.734,9.723-16.841L145.551,202.538z"/>
			</g>
			<g style="opacity:0.3;">
				<path style="fill:#FFFFFF;" d="M145.551,202.538c5.39-3.112,9.769-0.616,9.787,5.577c0.018,6.194-4.333,13.729-9.723,16.841
					l-39.199,22.632c-5.383,3.108-9.769,0.616-9.787-5.577c-0.018-6.193,4.34-13.734,9.723-16.841L145.551,202.538z"/>
			</g>
			<g>
				<g>
					<path style="fill:#FFFFFF;" d="M107.082,231.844c1.097-0.633,1.822-0.68,2.44-0.485c0.137,0.037,0.245,0.172,0.245,0.428
						c0.001,0.395-0.27,0.857-0.614,1.056c-0.172,0.099-0.294,0.104-0.38,0.079c-0.489-0.172-1.02-0.145-1.701,0.248
						c-1.348,0.778-2.34,2.638-2.336,4.236c0.005,1.622,0.99,2.357,2.352,1.571c0.753-0.434,1.261-1.008,1.783-1.813
						c0.086-0.148,0.222-0.293,0.372-0.38c0.315-0.182,0.589-0.035,0.59,0.328c0.001,0.222-0.085,0.445-0.199,0.626
						c-0.672,1.064-1.43,1.923-2.577,2.585c-2.079,1.2-3.625,0.237-3.632-2.11C103.418,235.866,104.925,233.09,107.082,231.844z"/>
				</g>
				<g>
					<path style="fill:#FFFFFF;" d="M113.56,230.126c1.649-0.952,2.864-0.218,2.869,1.553c0.005,1.771-1.209,3.932-2.872,4.892
						c-1.634,0.943-2.85,0.21-2.854-1.544v-0.025C110.698,233.239,111.919,231.073,113.56,230.126z M115.197,232.431l0-0.025
						c-0.003-1.087-0.687-1.592-1.654-1.033c-0.982,0.567-1.61,1.821-1.607,2.9v0.016c0.003,1.079,0.687,1.583,1.64,1.033
						C114.572,234.747,115.2,233.494,115.197,232.431"/>
				</g>
				<g>
					<path style="fill:#FFFFFF;" d="M120.578,226.074c1.211-0.699,1.909-0.17,1.913,1.255l0.009,3.294
						c0.001,0.404-0.256,0.849-0.607,1.052c-0.344,0.199-0.617,0.059-0.618-0.344l-0.008-2.858c-0.003-0.955-0.42-1.267-1.151-0.845
						c-0.717,0.414-1.21,1.268-1.207,2.231l0.008,2.833c0.001,0.404-0.27,0.857-0.622,1.06c-0.33,0.19-0.61,0.055-0.611-0.348
						l-0.014-4.876c-0.001-0.404,0.263-0.87,0.607-1.068c0.351-0.203,0.624-0.047,0.626,0.356l0.001,0.297
						C119.246,227.346,119.746,226.554,120.578,226.074z"/>
				</g>
				<g>
					<path style="fill:#FFFFFF;" d="M124.845,221.985c0.33-0.19,0.61-0.039,0.611,0.348l0.003,1.054l0.96-0.554
						c0.301-0.174,0.546-0.051,0.546,0.287c0.001,0.338-0.242,0.75-0.543,0.924l-0.961,0.555l0.009,3.023
						c0.001,0.552,0.246,0.633,0.662,0.393c0.143-0.083,0.265-0.186,0.301-0.207c0.28-0.161,0.524-0.047,0.525,0.283
						c0.001,0.255-0.156,0.552-0.328,0.734c-0.265,0.26-0.516,0.463-0.838,0.649c-0.91,0.526-1.549,0.441-1.553-0.918l-0.009-3.245
						l-0.201,0.116c-0.294,0.17-0.531,0.034-0.532-0.303c-0.001-0.338,0.235-0.738,0.529-0.907l0.201-0.116l-0.003-1.054
						C124.222,222.658,124.494,222.188,124.845,221.985z"/>
				</g>
				<g>
					<path style="fill:#FFFFFF;" d="M128.828,219.083c0.394-0.228,0.696-0.13,0.697,0.29l0,0.074
						c0.001,0.42-0.299,0.874-0.693,1.101c-0.401,0.232-0.703,0.125-0.704-0.294l0-0.074
						C128.127,219.761,128.427,219.315,128.828,219.083z"/>
				</g>
				<g>
					<path style="fill:#FFFFFF;" d="M128.835,221.365c0.344-0.199,0.617-0.043,0.618,0.361l0.014,4.876
						c0.001,0.403-0.27,0.857-0.614,1.056c-0.337,0.194-0.617,0.059-0.618-0.344l-0.014-4.876
						C128.219,222.034,128.483,221.568,128.835,221.365z"/>
				</g>
				<g>
					<path style="fill:#FFFFFF;" d="M133.966,218.344c1.211-0.699,1.909-0.17,1.913,1.255l0.009,3.294
						c0.001,0.404-0.263,0.853-0.607,1.052c-0.344,0.199-0.617,0.059-0.618-0.344l-0.008-2.858c-0.003-0.955-0.42-1.267-1.151-0.845
						c-0.717,0.414-1.21,1.268-1.207,2.231l0.008,2.833c0.001,0.404-0.277,0.861-0.622,1.06c-0.337,0.195-0.61,0.055-0.611-0.348
						l-0.014-4.876c-0.001-0.404,0.263-0.87,0.607-1.068c0.344-0.199,0.624-0.047,0.626,0.356l0.001,0.297
						C132.635,219.616,133.128,218.828,133.966,218.344z"/>
				</g>
				<g>
					<path style="fill:#FFFFFF;" d="M141.507,214.048c0.337-0.195,0.624-0.047,0.626,0.357l0.014,4.876
						c0.001,0.387-0.278,0.862-0.622,1.06c-0.337,0.194-0.617,0.059-0.618-0.344l-0.001-0.313c-0.35,0.788-0.843,1.576-1.674,2.056
						c-1.211,0.699-1.916,0.166-1.92-1.267l-0.009-3.278c-0.001-0.404,0.27-0.874,0.607-1.068c0.344-0.199,0.624-0.047,0.626,0.356
						l0.008,2.858c0.003,0.955,0.42,1.259,1.151,0.837c0.71-0.41,1.21-1.268,1.207-2.223l-0.008-2.833
						C140.891,214.717,141.163,214.247,141.507,214.048z"/>
				</g>
				<g>
					<path style="fill:#FFFFFF;" d="M148.554,212.966c0.001,0.395-0.263,0.829-0.579,1.011l-3.369,1.945
						c0.139,0.926,0.757,1.13,1.553,0.671c0.516-0.298,0.924-0.748,1.267-1.268c0.093-0.136,0.172-0.231,0.315-0.314
						c0.272-0.157,0.488-0.034,0.489,0.295c0.001,0.173-0.071,0.363-0.164,0.523c-0.486,0.784-1.094,1.449-1.926,1.929
						c-1.555,0.898-2.756,0.296-2.762-1.607v-0.025c-0.005-1.763,1.073-3.837,2.614-4.727
						C147.7,210.415,148.55,211.541,148.554,212.966z M144.597,214.987l2.752-1.589c-0.081-0.86-0.549-1.308-1.366-0.836
						C145.23,212.996,144.701,213.969,144.597,214.987"/>
				</g>
			</g>
		</g>
		<g>
			<g>
				<path style="fill:#FFFFFF;" d="M267.975,53.953c1.647-0.951,2.989-0.19,2.994,1.702c0.005,1.896-1.328,4.201-2.974,5.152
					c-1.647,0.951-2.989,0.19-2.994-1.706C264.995,57.209,266.328,54.904,267.975,53.953z"/>
			</g>
			<g>
				<path style="fill:#FFFFFF;" d="M276.389,49.095c1.65-0.953,2.988-0.19,2.994,1.702c0.005,1.896-1.324,4.199-2.975,5.152
					c-1.647,0.951-2.985,0.188-2.99-1.708C273.413,52.349,274.742,50.046,276.389,49.095z"/>
			</g>
			<g>
				<path style="fill:#FFFFFF;" d="M284.806,44.236c1.647-0.951,2.989-0.19,2.994,1.702c0.005,1.896-1.328,4.201-2.975,5.152
					c-1.646,0.951-2.988,0.19-2.994-1.706C281.826,47.491,283.16,45.186,284.806,44.236z"/>
			</g>
		</g>
	</g>
</g>
<g id="Character">
	<g>
		<g>
			<g>
				<path style="fill:#37474F;" d="M360.568,275.208h6.607c0,0,7.677,50.408,8.206,60.07c-0.001,0.249-0.167,0.499-0.497,0.689
					c-0.659,0.38-1.724,0.38-2.379,0c-0.289-0.168-0.428-0.384-0.46-0.603l-0.028,0.001
					C371.098,329.599,360.568,275.208,360.568,275.208z"/>
				<path style="opacity:0.3;" d="M367.176,275.208c0,0,0.33,2.168,0.853,5.658c-1.053,2.27-3.346,4.742-5.442,4.789
					c-0.818-4.239-2.018-10.447-2.018-10.447H367.176z"/>
			</g>
			<g>
				<path style="fill:#37474F;" d="M367.975,317.481h-6.607c0,0-7.677,50.408-8.206,60.071c0.001,0.249,0.167,0.499,0.497,0.689
					c0.659,0.38,1.724,0.38,2.379,0c0.289-0.168,0.427-0.383,0.46-0.603l0.028,0.001
					C357.446,371.872,367.975,317.481,367.975,317.481z"/>
				<path style="opacity:0.3;" d="M361.368,317.481c0,0-0.33,2.168-0.853,5.658c1.942,0.791,4.025,1.226,6.121,1.273
					c0.819-4.239,1.34-6.932,1.34-6.932H361.368z"/>
			</g>
			<g>
				<path style="fill:#37474F;" d="M396.805,295.645h6.607c0,0,7.677,50.408,8.206,60.071c-0.001,0.249-0.167,0.499-0.496,0.689
					c-0.659,0.381-1.724,0.381-2.379,0c-0.289-0.168-0.428-0.384-0.46-0.603l-0.028,0.001
					C407.335,350.036,396.805,295.645,396.805,295.645z"/>
				<path style="opacity:0.3;" d="M403.412,295.645c0,0,0.33,2.168,0.853,5.658c-1.053,2.27-3.346,4.742-5.442,4.789
					c-0.818-4.239-2.018-10.447-2.018-10.447H403.412z"/>
			</g>
			<g>
				<path style="fill:#37474F;" d="M328.876,294.953h-6.607c0,0-7.677,50.408-8.206,60.071c0.001,0.249,0.167,0.499,0.496,0.689
					c0.659,0.38,1.724,0.38,2.379,0c0.289-0.168,0.427-0.383,0.46-0.603l0.028,0.001
					C318.347,349.344,328.876,294.953,328.876,294.953z"/>
				<path style="opacity:0.3;" d="M322.269,294.953c0,0-0.33,2.168-0.853,5.658c1.125,1.333,3.606,3.396,5.702,3.443
					c0.818-4.239,1.758-9.101,1.758-9.101H322.269z"/>
			</g>
			<polygon style="fill:#37474F;" points="401.101,250.867 398.204,287.613 401.734,290.268 404.902,252.416 			"/>
			<polygon style="fill:#37474F;" points="363.846,229.842 360.95,266.588 364.48,269.242 367.647,231.391 			"/>
			<g>
				<path style="fill:#BA68C8;" d="M354.942,261.822c0,0-22.084,6.212-39.099,22.574v6.699c3.138,3.762,27.032,22.375,52.132,30.098
					c16.774-7.723,33.375-20.697,36.237-24.226v-6.699C397.903,277.929,354.942,261.822,354.942,261.822z"/>
				<path style="opacity:0.2;fill:#FFFFFF;" d="M315.843,284.396v6.699c3.138,3.762,27.032,22.375,52.132,30.098v-6.698
					C342.874,306.771,318.98,288.158,315.843,284.396z"/>
				<path style="opacity:0.2;" d="M367.975,314.494v6.698c16.774-7.723,33.375-20.697,36.237-24.226v-6.699
					C401.35,293.797,384.749,306.771,367.975,314.494z"/>
			</g>
			<path style="fill:#BA68C8;" d="M413.05,243.326c-0.006-0.511-0.132-1.028-0.431-1.497
				c-14.715-23.068-45.222-30.189-51.982-28.443l-3.161,3.195v16.539c23.532,2.995,43.715,18.334,51.861,30.169l1.085-0.427
				c1.592-0.627,2.638-2.164,2.638-3.875v-15.67L413.05,243.326z"/>
			<path style="opacity:0.1;" d="M413.05,243.326c0.013,1.187-0.695,2.34-1.912,2.777l-1.801,0.647v16.539l1.085-0.427
				c1.592-0.627,2.638-2.164,2.638-3.875v-15.67L413.05,243.326z"/>
			<path style="opacity:0.3;fill:#FFFFFF;" d="M409.337,246.749l1.801-0.647c1.217-0.437,1.925-1.59,1.912-2.777
				c-0.006-0.511-0.132-1.028-0.431-1.497c-14.715-23.068-45.222-30.189-51.982-28.443l-3.161,3.195
				C364.264,215.328,397.789,222.035,409.337,246.749z"/>
			<path style="opacity:0.3;" d="M357.476,216.58v16.539c23.532,2.995,43.715,18.334,51.861,30.169v-16.539
				C397.789,222.035,364.264,215.328,357.476,216.58z"/>
		</g>
		<g>
			<g>
				<g>
					<path style="fill:#455A64;" d="M313.425,394.185l0.913,5.478c4.349-2.071,5.747-4.401,5.747-4.401
						c0.112-4.206,0.063-8.533,0.027-10.641c-1.155,2.56-3.686,4.286-5.261,6.644C314.243,392.175,313.794,393.16,313.425,394.185z"
						/>
					<path style="fill:#455A64;" d="M312.028,399.069l2.31,0.594l-0.913-5.478C312.857,395.762,312.481,397.433,312.028,399.069z"/>
					<path style="opacity:0.2;" d="M313.425,394.185l0.913,5.478c4.349-2.071,5.747-4.401,5.747-4.401
						c0.112-4.206,0.063-8.533,0.027-10.641c-1.155,2.56-3.686,4.286-5.261,6.644C314.243,392.175,313.794,393.16,313.425,394.185z"
						/>
					<path style="opacity:0.3;" d="M312.028,399.069l2.31,0.594l-0.913-5.478C312.857,395.762,312.481,397.433,312.028,399.069z"/>
					<path style="fill:#455A64;" d="M320.322,378.55c-0.422-1.46-1.087-2.832-1.798-4.179c0.033,2.187-0.839,4.416-2.014,6.31
						c-1.565,2.524-3.654,4.696-5.157,7.257c-1.829,3.118-2.777,6.786-5.18,9.486c-2.338,2.627-5.971,4.042-9.47,3.687
						c-1.296-0.131-2.652-0.544-3.471-1.557c-0.37-0.458-0.563-1.062-0.574-1.652c-1.187,1.265-2.481,2.423-3.907,3.42
						c-1.58,1.104-3.475,2.266-3.735,4.176c-0.215,1.58,0.875,3.112,2.269,3.886c1.394,0.774,3.036,0.941,4.627,1.033
						c3.417,0.198,6.9,0.118,10.177-0.87c3.277-0.987,6.354-2.966,8.122-5.896c0.852-1.412,1.371-2.98,1.815-4.582
						c0.453-1.636,0.829-3.307,1.397-4.884c0.369-1.025,0.818-2.01,1.426-2.92c1.575-2.358,4.107-4.084,5.261-6.644
						c0.062-0.137,0.137-0.266,0.19-0.409C320.979,382.415,320.855,380.395,320.322,378.55z"/>
					<path style="fill:#C97777;" d="M296.703,401.112c3.499,0.354,7.132-1.06,9.47-3.687c2.403-2.7,3.351-6.369,5.18-9.486
						c1.503-2.561,3.592-4.734,5.157-7.257c1.175-1.894,2.047-4.124,2.014-6.31c0.417-1.63,1.255-3.571,1.065-3.924
						c-4.501-0.396-7.501-1.521-12.543-2.229c-1.526,4.739-6.607,17.272-8.879,21.702c-1.478,2.882-3.298,5.626-5.509,7.982
						c0.01,0.591,0.203,1.194,0.574,1.652C294.051,400.567,295.407,400.98,296.703,401.112z"/>
				</g>
				<path style="fill:#37474F;" d="M326.316,345.09c-0.547,8.72-2.772,15.038-4.48,26.926c0,0-10.44,3.116-16.944-1.431
					l-0.271-18.311L326.316,345.09z"/>
			</g>
			<g>
				<g>
					<path style="fill:#455A64;" d="M280.875,381.601l0.913,5.478c4.349-2.071,5.747-4.401,5.747-4.401
						c0.112-4.206,0.063-8.533,0.027-10.641c-1.155,2.56-3.686,4.286-5.261,6.644C281.693,379.591,281.244,380.576,280.875,381.601z
						"/>
					<path style="fill:#455A64;" d="M279.478,386.485l2.311,0.594l-0.913-5.478C280.307,383.178,279.931,384.849,279.478,386.485z"
						/>
					<path style="opacity:0.2;" d="M280.875,381.601l0.913,5.478c4.349-2.071,5.747-4.401,5.747-4.401
						c0.112-4.206,0.063-8.533,0.027-10.641c-1.155,2.56-3.686,4.286-5.261,6.644C281.693,379.591,281.244,380.576,280.875,381.601z
						"/>
					<path style="opacity:0.3;" d="M279.478,386.485l2.311,0.594l-0.913-5.478C280.307,383.178,279.931,384.849,279.478,386.485z"/>
					<path style="fill:#455A64;" d="M287.771,365.966c-0.422-1.46-1.087-2.832-1.798-4.179c0.033,2.186-0.839,4.416-2.014,6.31
						c-1.565,2.524-3.654,4.696-5.157,7.257c-1.829,3.117-2.777,6.786-5.18,9.486c-2.338,2.627-5.971,4.041-9.47,3.687
						c-1.296-0.131-2.652-0.544-3.471-1.557c-0.37-0.458-0.563-1.062-0.574-1.652c-1.187,1.265-2.481,2.423-3.907,3.419
						c-1.58,1.104-3.475,2.266-3.735,4.176c-0.215,1.58,0.875,3.112,2.269,3.886c1.394,0.774,3.036,0.941,4.627,1.033
						c3.417,0.198,6.9,0.118,10.177-0.87c3.277-0.988,6.354-2.966,8.122-5.896c0.852-1.412,1.371-2.98,1.815-4.582
						c0.453-1.636,0.829-3.307,1.397-4.884c0.369-1.025,0.818-2.01,1.426-2.92c1.575-2.358,4.107-4.084,5.261-6.644
						c0.062-0.137,0.137-0.266,0.19-0.409C288.429,369.831,288.305,367.811,287.771,365.966z"/>
					<path style="fill:#C97777;" d="M264.153,388.528c3.499,0.354,7.132-1.06,9.47-3.687c2.403-2.7,3.351-6.369,5.18-9.486
						c1.503-2.561,3.592-4.734,5.157-7.257c1.175-1.894,2.047-4.124,2.014-6.31c0.417-1.63,1.255-3.571,1.065-3.924
						c-4.501-0.396-7.501-1.521-12.543-2.229c-1.526,4.739-6.607,17.272-8.879,21.702c-1.478,2.882-3.298,5.626-5.509,7.982
						c0.01,0.591,0.203,1.194,0.574,1.652C261.501,387.983,262.857,388.396,264.153,388.528z"/>
				</g>
				<path style="fill:#37474F;" d="M297.089,334.878c-2.016,8.501-5.278,14.352-8.974,25.779c0,0-10.817,1.304-16.457-4.279
					l4.854-29.854L297.089,334.878z"/>
			</g>
		</g>
		<g>
			<path style="fill:#37474F;" d="M363.299,311.312c6.243-2.689,34.5-16.755,15.794-44.066l-46.365-6.656
				c-1.515,14.549-14.889,24.081-14.889,24.081L363.299,311.312z"/>
			<g>
				<path style="fill:#263238;" d="M347.185,221.693c-6.172,2.097-13.613-0.514-17.121-6.008c-1.442-2.258-2.343-5.561-1.142-7.956
					c-2.734-0.869-4.862-3.405-5.244-6.249c-0.382-2.844,1.441-6.339,3.85-7.899c-1.489-0.938-2.391-2.735-2.253-4.489
					s1.395-3.37,3.012-4.065c-1.666-1.968-2.188-4.84-1.321-7.268c0.868-2.428,3.092-4.319,5.628-4.785
					c-1.415-3.304-0.172-7.681,2.626-9.937c2.798-2.256,7.11-2.385,10.039-0.3c1.181-2.353,3.537-3.916,6.167-4.041
					c2.63-0.125,5.279,1.258,6.679,3.488c1.526-1.76,4.474-2.388,6.707-1.727c2.233,0.661,3.992,2.704,4.314,5.01
					c3.217-0.192,6.479,1.467,8.219,4.179c1.74,2.712,1.887,6.37,0.37,9.213c1.699,0.923,3.158,3.404,3.454,5.315
					c0.295,1.911-0.349,3.944-1.69,5.337c2.374,1.145,4.157,3.443,4.677,6.027c0.52,2.583-0.236,5.392-1.982,7.366
					c1.785,1.454,2.598,4.331,1.925,6.533c-0.673,2.202-2.76,3.897-5.053,4.104c0.796,4.363-1.703,9.111-5.75,10.925
					s-9.254,0.521-11.982-2.975c-1.53,2.114-3.837,3.415-6.443,3.541C352.266,225.159,348.911,223.649,347.185,221.693z"/>
				<path style="fill:#C97777;" d="M354.01,275.693c8.918-0.496,17.666-3.473,25.083-8.447c-1.838-3.33-4.192-6.746-7.162-10.29
					l-41.395,3.723c-0.405,3.428-0.71,6.82-0.926,10.165C337.17,274.458,345.642,276.159,354.01,275.693z"/>
				<g>
					<path style="fill:#C97777;" d="M339.378,224.349c1.202,0.991,2.866,1.178,4.424,1.177c4.25-0.003,8.494-1.117,12.196-3.202
						c2.936-1.654,5.517-3.922,7.563-6.599l-4.392-0.381v-14.123l-15.26,5.89v8.157h-3.906c-0.786,1.017-1.471,2.098-1.872,3.313
						C337.476,220.567,337.764,223.019,339.378,224.349z"/>
					<path style="fill:#A65353;" d="M358.1,201.634c-2.481,5.591-7.417,10.389-14.191,11.182v-5.705L358.1,201.634z"/>
				</g>
				<path style="fill:#BA68C8;" d="M376.411,240.766c1.197-2.129,0.993-10.685,0.659-16.956c-0.212-3.985-3.323-7.202-7.299-7.547
					l-6.21-0.538c-2.046,2.677-4.627,4.945-7.563,6.599c-3.703,2.086-7.947,3.2-12.196,3.202c-2.309,0.001-4.852-0.411-5.777-3.24
					c-0.254-0.778-0.313-1.617-0.196-2.427c0.253-1.756,1.124-3.231,2.175-4.591h-3.798h0c-3.622,3.222-9.803,14.241-12.457,23.057
					c-0.685,2.275-1.138,4.405-1.249,6.214c-0.269,4.427,3.149,6.598,5.505,7.974c0,0,1.606,6.536-0.784,18.661
					c11.636,8.207,38.733,9.066,53.612-3.277C372.954,256.05,372.482,247.753,376.411,240.766z"/>
				<path style="opacity:0.2;fill:#FFFFFF;" d="M376.411,240.766c1.197-2.129,0.993-10.685,0.659-16.956
					c-0.212-3.985-3.323-7.202-7.299-7.547l-6.21-0.538c-2.046,2.677-4.627,4.945-7.563,6.599c-3.703,2.086-7.947,3.2-12.196,3.202
					c-2.309,0.001-4.852-0.411-5.777-3.24c-0.254-0.778-0.313-1.617-0.196-2.427c0.253-1.756,1.124-3.231,2.175-4.591h-3.798h0
					c-3.622,3.222-9.803,14.241-12.457,23.057c-0.685,2.275-1.138,4.405-1.249,6.214c-0.269,4.427,3.149,6.598,5.505,7.974
					c0,0,1.606,6.536-0.784,18.661c11.636,8.207,38.733,9.066,53.612-3.277C372.954,256.05,372.482,247.753,376.411,240.766z"/>
				<path style="fill:none;" d="M362.753,276.426c1.938-0.144,3.752-0.762,5.321-1.742c-2.84,0.919-5.797,1.577-8.784,2
					L362.753,276.426z"/>
				<path style="fill:#BA68C8;" d="M359.29,276.684l-7.749,0.577C354.108,277.239,356.708,277.05,359.29,276.684z"/>
				<path style="opacity:0.2;" d="M374.66,267.215l0.69-9.991c-2.21-6.517-1.567-11.784,1.061-16.458
					c1.099-1.954,1.017-9.321,0.737-15.369l-14.3,4.545l-9.973,28.808l-19.82,9.29l-5.524,1.437
					c-0.097,0.557-0.195,1.115-0.31,1.698c5.573,3.931,15.933,7.384,25.558,7.301l7.749-0.577c2.016-0.286,4.017-0.678,5.979-1.185
					c3.486-0.901,6.418-3.409,7.629-6.799c0.011-0.03,0.022-0.061,0.032-0.091C374.46,268.985,374.599,268.101,374.66,267.215z"/>
				<path style="opacity:0.2;" d="M361.521,244.466c-2.115,3.038-5.287,5.323-8.838,6.366c-3.551,1.044-7.455,0.838-10.877-0.572
					c2.898,2.833,7.33,4.144,11.254,3.135C356.984,252.387,360.348,248.345,361.521,244.466z"/>
				<path style="fill:#C97777;" d="M368.929,194.811c-0.659-2.284-3.278-3.8-5.587-3.236c-2.309,0.565-3.932,3.119-3.463,5.449
					c-0.885,0.185-1.752-0.087-2.409-0.71c-0.656-0.623-1.039-1.496-1.185-2.388c-0.123-0.748,0.295-5.467,0.524-7.503
					c-1.109,0.332-2.294,0.413-3.432,0.191c-2.076-0.406-4.049-1.925-5.049-3.789c-1.096,0.525-2.388,0.628-3.553,0.284
					c-1.166-0.344-2.347-1.316-2.983-2.352c-1.785,0.42-3.772-0.163-5.048-1.481c-0.841-0.869-1.344-2.037-1.457-3.24
					c-1.019,1.363-1.889,2.844-2.593,4.409c-1.012,2.247-1.705,4.655-2.097,7.084c-0.658,4.075-0.545,8.231-0.095,12.321
					c0.355,3.231,0.563,6.502,3.365,8.672c1.597,1.237,3.623,1.819,5.635,1.987c7.409,0.619,15.318-3.694,19.853-9.444
					c0.938,1.641,2.928,2.494,4.703,1.846c1.5-0.812,2.922-1.845,3.895-3.247C368.926,198.264,369.402,196.45,368.929,194.811z"/>
				<g>
					<polygon style="fill:#F28F8F;" points="340.316,190.882 335.243,197.136 339.961,198.757 					"/>
					<polygon style="fill:#A65353;" points="340.316,190.882 335.243,197.136 339.961,198.757 					"/>
					<path style="fill:#F28F8F;" d="M344.292,201.803c-1.316,0.417-2.633,0.835-3.949,1.252c0.414,0.916,1.712,1.479,2.679,1.204
						C343.988,203.985,344.421,202.8,344.292,201.803z"/>
					<path style="fill:#A65353;" d="M344.292,201.803c-1.316,0.417-2.633,0.835-3.949,1.252c0.414,0.916,1.712,1.479,2.679,1.204
						C343.988,203.985,344.421,202.8,344.292,201.803z"/>
					<path style="fill:#F28F8F;" d="M341.724,204.193c0.432,0.143,0.893,0.182,1.297,0.067c0.759-0.215,1.184-0.992,1.271-1.799
						c-0.524-0.074-1.073,0.02-1.527,0.292C342.242,203.068,341.871,203.602,341.724,204.193z"/>
					<path style="fill:#263238;" d="M347.302,192.184c-0.035,0.777-0.693,1.379-1.47,1.344c-0.777-0.035-1.379-0.693-1.344-1.47
						c0.035-0.777,0.693-1.379,1.47-1.343C346.736,190.748,347.337,191.407,347.302,192.184z"/>
					<path style="fill:#263238;" d="M335.51,191.196c-0.035,0.777-0.693,1.378-1.47,1.344c-0.777-0.035-1.379-0.693-1.344-1.47
						c0.035-0.777,0.693-1.379,1.47-1.344C334.944,189.761,335.546,190.419,335.51,191.196z"/>
					<path style="fill:#263238;" d="M334.394,185.535c-1.072,0.672-2.144,1.344-3.216,2.016c-0.275-0.754,0.065-1.701,0.709-2.18
						C332.53,184.891,333.75,185.056,334.394,185.535z"/>
					<path style="fill:#263238;" d="M346.449,185.909c1.007,0.765,2.014,1.531,3.022,2.297c0.342-0.726,0.088-1.7-0.51-2.235
						C348.363,185.435,347.133,185.49,346.449,185.909z"/>
				</g>
			</g>
		</g>
		<g>
			<g>
				<polygon style="fill:#455A64;" points="182.946,283.364 182.946,373.433 186.131,371.59 186.131,281.521 				"/>
				<polygon style="fill:#37474F;" points="182.946,283.364 182.946,373.433 179.761,371.59 179.761,281.521 				"/>
				<polygon style="fill:#455A64;" points="186.131,307.381 260.674,264.344 260.674,260.922 186.131,303.959 				"/>
				<polygon style="fill:#37474F;" points="186.131,300.345 257.489,259.083 260.674,260.922 186.131,303.959 				"/>
			</g>
			<g>
				<polygon style="fill:#455A64;" points="390.852,313.702 390.852,403.771 394.036,401.928 394.036,311.86 				"/>
				<polygon style="fill:#37474F;" points="390.852,313.702 390.852,403.771 387.667,401.928 387.667,311.86 				"/>
				<polygon style="fill:#455A64;" points="313.124,358.594 313.124,448.663 316.309,446.82 316.309,356.751 				"/>
				<polygon style="fill:#37474F;" points="313.124,358.594 313.124,448.663 309.94,446.82 309.94,356.751 				"/>
				<polygon style="fill:#455A64;" points="316.309,382.611 390.852,339.574 390.852,336.152 316.309,379.189 				"/>
				<polygon style="fill:#37474F;" points="316.309,375.575 387.667,334.313 390.852,336.152 316.309,379.189 				"/>
			</g>
			<g style="opacity:0.2;">
				<polygon style="fill:#FFFFFF;" points="390.852,313.702 390.852,403.771 394.036,401.928 394.036,311.86 				"/>
				<polygon style="fill:#FFFFFF;" points="390.852,313.702 390.852,403.771 387.667,401.928 387.667,311.86 				"/>
				<polygon style="fill:#FFFFFF;" points="313.124,358.594 313.124,448.663 316.309,446.82 316.309,356.751 				"/>
				<polygon style="fill:#FFFFFF;" points="313.124,358.594 313.124,448.663 309.94,446.82 309.94,356.751 				"/>
				<polygon style="fill:#FFFFFF;" points="316.309,382.611 390.852,339.574 390.852,336.152 316.309,379.189 				"/>
				<polygon style="fill:#FFFFFF;" points="316.309,375.575 387.667,334.313 390.852,336.152 316.309,379.189 				"/>
			</g>
			<g style="opacity:0.2;">
				<polygon style="fill:#FFFFFF;" points="182.946,283.364 182.946,373.433 186.131,371.59 186.131,281.521 				"/>
				<polygon style="fill:#FFFFFF;" points="182.946,283.364 182.946,373.433 179.761,371.59 179.761,281.521 				"/>
				<polygon style="fill:#FFFFFF;" points="186.131,307.381 260.674,264.344 260.674,260.922 186.131,303.959 				"/>
				<polygon style="fill:#FFFFFF;" points="186.131,300.345 257.489,259.083 260.674,260.922 186.131,303.959 				"/>
			</g>
			<g>
				<polygon style="fill:#BA68C8;" points="313.124,349.897 179.756,273.084 260.668,226.349 394.036,303.162 				"/>
				<polygon style="fill:#BA68C8;" points="313.124,358.594 179.756,281.522 179.756,273.084 313.124,349.897 				"/>
				<polygon style="fill:#BA68C8;" points="313.124,349.887 394.036,303.152 394.036,311.86 313.124,358.594 				"/>
				<polygon style="opacity:0.4;fill:#FFFFFF;" points="313.124,349.897 179.756,273.084 260.668,226.349 394.036,303.162 				"/>
				<polygon style="opacity:0.3;fill:#FFFFFF;" points="313.124,349.887 394.036,303.152 394.036,311.86 313.124,358.594 				"/>
				<polygon style="opacity:0.2;fill:#FFFFFF;" points="313.124,358.594 179.756,281.522 179.756,273.084 313.124,349.897 				"/>
			</g>
		</g>
		<g>
			<path style="fill:#E0E0E0;" d="M248.222,268.798l31.441-18.271c1.777-1.033,4.664-1.033,6.452,0l51.872,29.949
				c0.852,0.492,1.288,1.129,1.333,1.774l0.014,0.002v1.995l-0.029-0.004c-0.004,0.139,0.001,0.278-0.04,0.415
				c-0.004,0.013-0.004,0.027-0.009,0.041c-0.049,0.15-0.127,0.297-0.221,0.441c-0.01,0.016-0.015,0.032-0.026,0.048
				c-0.104,0.15-0.236,0.294-0.389,0.432c-0.009,0.008-0.015,0.017-0.024,0.026c-0.166,0.146-0.358,0.285-0.58,0.413l-31.44,18.271
				c-0.275,0.16-0.582,0.286-0.902,0.397c-0.113,0.039-0.229,0.073-0.346,0.106c-0.151,0.042-0.301,0.082-0.457,0.114
				c-0.184,0.038-0.37,0.072-0.559,0.096c-0.045,0.006-0.088,0.014-0.133,0.019c-0.254,0.027-0.512,0.04-0.77,0.042
				c-0.041,0-0.082,0.001-0.123,0c-0.254-0.002-0.508-0.016-0.759-0.042c-0.038-0.004-0.076-0.008-0.114-0.013
				c-0.249-0.03-0.494-0.072-0.734-0.126c-0.044-0.01-0.088-0.022-0.132-0.032c-0.217-0.054-0.428-0.119-0.632-0.193
				c-0.038-0.014-0.077-0.024-0.114-0.038c-0.245-0.095-0.479-0.203-0.696-0.328l-51.872-29.949
				c-0.224-0.129-0.42-0.269-0.588-0.416c-0.059-0.051-0.096-0.108-0.147-0.161c-0.097-0.099-0.2-0.196-0.273-0.3
				c-0.045-0.064-0.065-0.131-0.101-0.196c-0.054-0.098-0.118-0.195-0.151-0.295c-0.024-0.071-0.023-0.143-0.036-0.215
				c-0.019-0.097-0.048-0.194-0.048-0.292v-1.84C246.888,269.991,247.331,269.315,248.222,268.798z"/>
			<path style="opacity:0.2;" d="M248.222,268.798l31.441-18.271c1.777-1.033,4.664-1.033,6.452,0l51.872,29.949
				c0.852,0.492,1.288,1.129,1.333,1.774l0.014,0.002v1.995l-0.029-0.004c-0.004,0.139,0.001,0.278-0.04,0.415
				c-0.004,0.013-0.004,0.027-0.009,0.041c-0.049,0.15-0.127,0.297-0.221,0.441c-0.01,0.016-0.015,0.032-0.026,0.048
				c-0.104,0.15-0.236,0.294-0.389,0.432c-0.009,0.008-0.015,0.017-0.024,0.026c-0.166,0.146-0.358,0.285-0.58,0.413l-31.44,18.271
				c-0.275,0.16-0.582,0.286-0.902,0.397c-0.113,0.039-0.229,0.073-0.346,0.106c-0.151,0.042-0.301,0.082-0.457,0.114
				c-0.184,0.038-0.37,0.072-0.559,0.096c-0.045,0.006-0.088,0.014-0.133,0.019c-0.254,0.027-0.512,0.04-0.77,0.042
				c-0.041,0-0.082,0.001-0.123,0c-0.254-0.002-0.508-0.016-0.759-0.042c-0.038-0.004-0.076-0.008-0.114-0.013
				c-0.249-0.03-0.494-0.072-0.734-0.126c-0.044-0.01-0.088-0.022-0.132-0.032c-0.217-0.054-0.428-0.119-0.632-0.193
				c-0.038-0.014-0.077-0.024-0.114-0.038c-0.245-0.095-0.479-0.203-0.696-0.328l-51.872-29.949
				c-0.224-0.129-0.42-0.269-0.588-0.416c-0.059-0.051-0.096-0.108-0.147-0.161c-0.097-0.099-0.2-0.196-0.273-0.3
				c-0.045-0.064-0.065-0.131-0.101-0.196c-0.054-0.098-0.118-0.195-0.151-0.295c-0.024-0.071-0.023-0.143-0.036-0.215
				c-0.019-0.097-0.048-0.194-0.048-0.292v-1.84C246.888,269.991,247.331,269.315,248.222,268.798z"/>
			<path style="opacity:0.3;" d="M339.321,282.249c0.013,0.19,0.002,0.381-0.055,0.568c-0.004,0.014-0.004,0.028-0.009,0.041
				c-0.049,0.15-0.127,0.297-0.221,0.441c-0.01,0.016-0.015,0.032-0.026,0.047c-0.104,0.15-0.236,0.294-0.389,0.433
				c-0.009,0.008-0.015,0.017-0.024,0.025c-0.166,0.146-0.358,0.285-0.58,0.413l-31.44,18.271c-0.275,0.16-0.582,0.286-0.902,0.397
				c-0.113,0.039-0.229,0.073-0.346,0.106c-0.151,0.042-0.301,0.082-0.457,0.114c-0.184,0.038-0.37,0.072-0.559,0.096
				c-0.045,0.005-0.088,0.014-0.133,0.018c-0.254,0.027-0.512,0.04-0.77,0.042c-0.041,0-0.082,0.001-0.123,0.001
				c-0.254-0.002-0.508-0.016-0.759-0.043c-0.038-0.004-0.076-0.008-0.114-0.013c-0.249-0.03-0.494-0.072-0.734-0.126
				c-0.044-0.01-0.088-0.022-0.132-0.032c-0.217-0.054-0.428-0.119-0.632-0.193c-0.038-0.013-0.077-0.024-0.114-0.038
				c-0.245-0.095-0.479-0.203-0.696-0.328l-51.872-29.948c-0.224-0.129-0.42-0.269-0.588-0.416
				c-0.059-0.051-0.096-0.108-0.147-0.161c-0.097-0.099-0.2-0.196-0.273-0.3c-0.045-0.064-0.065-0.131-0.101-0.196
				c-0.054-0.098-0.118-0.195-0.151-0.295c-0.024-0.071-0.023-0.143-0.036-0.215c-0.019-0.097-0.048-0.194-0.048-0.292v1.84
				c0,0.098,0.029,0.194,0.048,0.292c0.014,0.072,0.013,0.144,0.036,0.215c0.034,0.1,0.097,0.197,0.151,0.295
				c0.036,0.065,0.056,0.132,0.101,0.196c0.073,0.104,0.177,0.201,0.273,0.3c0.052,0.053,0.088,0.11,0.147,0.161
				c0.168,0.147,0.364,0.286,0.588,0.416l51.872,29.948c0.217,0.125,0.451,0.234,0.696,0.328c0.037,0.014,0.076,0.025,0.114,0.038
				c0.204,0.074,0.415,0.139,0.632,0.193c0.044,0.011,0.088,0.022,0.132,0.032c0.24,0.054,0.485,0.096,0.734,0.126
				c0.038,0.005,0.076,0.009,0.114,0.013c0.251,0.026,0.505,0.04,0.759,0.042c0.041,0,0.082,0,0.123,0
				c0.258-0.002,0.516-0.015,0.77-0.042c0.045-0.005,0.089-0.013,0.133-0.019c0.189-0.024,0.375-0.058,0.559-0.096
				c0.156-0.032,0.307-0.072,0.457-0.114c0.117-0.033,0.233-0.067,0.346-0.106c0.319-0.111,0.627-0.237,0.902-0.397l31.44-18.271
				c0.221-0.128,0.414-0.267,0.58-0.413c0.009-0.008,0.015-0.018,0.024-0.026c0.153-0.138,0.285-0.283,0.389-0.432
				c0.011-0.016,0.016-0.032,0.026-0.048c0.094-0.144,0.172-0.291,0.221-0.441c0.005-0.014,0.005-0.028,0.009-0.041
				c0.041-0.137,0.036-0.276,0.04-0.415l0.029,0.004v-1.995L339.321,282.249z"/>
			<path style="fill:#E0E0E0;" d="M251.292,270.666l50.393,29.095c0.052,0.031,0.108,0.057,0.198,0.095l0.109,0.037
				c0.094,0.035,0.192,0.066,0.394,0.115c0.135,0.032,0.272,0.054,0.277,0.058l0.191,0.018c0.134,0.014,0.28,0.021,0.491,0.025
				h0.044c0.155-0.002,0.311-0.009,0.516-0.034c0.108-0.014,0.212-0.034,0.329-0.058c0.078-0.015,0.408-0.109,0.408-0.109
				c0.12-0.041,0.24-0.08,0.349-0.145l16.21-9.425l-52.054-30.053L251.292,270.666z"/>
			<path style="fill:#263238;" d="M303.403,300.111c-0.023,0-0.036-0.001-0.057-0.001h-0.019L303.403,300.111z"/>
			<path style="fill:#E0E0E0;" d="M299.233,262.663l-9.48,5.576c-0.633,0.373-0.63,1.29,0.007,1.657l14.176,8.184
				c0.492,0.284,1.098,0.281,1.587-0.007l9.48-5.576c0.633-0.372,0.63-1.29-0.007-1.657l-14.175-8.185
				C300.329,262.372,299.723,262.375,299.233,262.663z"/>
			<path style="opacity:0.4;" d="M251.292,270.666l50.393,29.095c0.052,0.031,0.108,0.057,0.198,0.095l0.109,0.037
				c0.094,0.035,0.192,0.066,0.394,0.115c0.135,0.032,0.272,0.054,0.277,0.058l0.191,0.018c0.134,0.014,0.28,0.021,0.491,0.025
				h0.044c0.155-0.002,0.311-0.009,0.516-0.034c0.108-0.014,0.212-0.034,0.329-0.058c0.078-0.015,0.408-0.109,0.408-0.109
				c0.12-0.041,0.24-0.08,0.349-0.145l16.21-9.425l-52.054-30.053L251.292,270.666z"/>
			<path style="opacity:0.4;" d="M299.233,262.663l-9.48,5.576c-0.633,0.373-0.63,1.29,0.007,1.657l14.176,8.184
				c0.492,0.284,1.098,0.281,1.587-0.007l9.48-5.576c0.633-0.372,0.63-1.29-0.007-1.657l-14.175-8.185
				C300.329,262.372,299.723,262.375,299.233,262.663z"/>
		</g>
		<g>
			<path style="fill:#263238;" d="M321.829,271.883c-2.875,3.886-0.5,10.001,3.208,10.709
				C331.288,279.05,326.829,272.465,321.829,271.883z"/>
			<g>
				<path style="fill:#F28F8F;" d="M308.549,273.391l-5.825,2.537c-0.577,0.251-0.93,0.844-0.875,1.471l0,0
					c0.066,0.757,0.7,1.339,1.46,1.339h5.484L308.549,273.391z"/>
				<path style="fill:#A65353;" d="M308.549,273.391l-5.825,2.537c-0.577,0.251-0.93,0.844-0.875,1.471l0,0
					c0.066,0.757,0.7,1.339,1.46,1.339h5.484L308.549,273.391z"/>
				<path style="fill:#C97777;" d="M316.923,274.256l-5.181-2.407c-1.298-0.603-2.832-0.348-3.865,0.643l-3.686,3.537
					c-0.496,0.475-0.804,1.112-0.871,1.796l-0.367,3.773c-0.065,0.671,0.371,1.289,1.025,1.453h0
					c0.806,0.202,1.602-0.359,1.685-1.185l0.33-3.303l1.93-2.142l-1.066,1.647c-0.283,0.437-0.425,0.949-0.408,1.469l0.093,2.842
					c0.029,0.904,0.56,1.716,1.376,2.106l4.492,2.146c0.771,0.368,1.678,0.303,2.389-0.171c0,0,1.426-0.974,1.958-1.505
					c0.521-0.521,0.167-1.295,0.167-1.295l2.063-1.491l41.462-7.103l-9.994-12.981L316.923,274.256z"/>
				<path style="fill:#A65353;" d="M316.924,283.659c-1.896,0.774-2.854,0.482-2.854,0.482c0.333-1.021,0.104-2.813,0.104-2.813
					c0.854,1.229,0.833,2.125,0.833,2.125S315.715,283.905,316.924,283.659z"/>
			</g>
			<path style="fill:#BA68C8;" d="M372.785,216.327c-3.857-0.274-7.339,2.302-8.204,6.071l-8.657,37.701l-5.469,1.985l-28.625,9.798
				c4.875,3.668,3.208,10.709,3.208,10.709l35.411-7.527c6.174-1.058,11.049-5.828,12.239-11.979l7.245-37.442
				C380.825,221.024,377.479,216.661,372.785,216.327z"/>
			<path style="opacity:0.2;fill:#FFFFFF;" d="M372.785,216.327c-3.857-0.274-7.339,2.302-8.204,6.071l-8.657,37.701l-5.469,1.985
				l-28.625,9.798c4.875,3.668,3.208,10.709,3.208,10.709l35.411-7.527c6.174-1.058,11.049-5.828,12.239-11.979l7.245-37.442
				C380.825,221.024,377.479,216.661,372.785,216.327z"/>
			<path style="opacity:0.1;" d="M355.923,260.099c3.822,0.035,6.822,3.951,7.197,5.41c0.75-7.708-3.726-8.007-6.884-6.775
				L355.923,260.099z"/>
		</g>
		<g>
			<path style="fill:#BA68C8;" d="M336.206,215.269L336.206,215.269l-2.088-0.048c-6.263-0.145-12.353,2.067-17.063,6.198
				l-21.515,18.87c-1.392,1.221-2.608,2.629-3.612,4.184l-11.223,17.374l11.25,7.466l12.013-17.336l19.781-13.651
				C326.403,229.51,332.584,218.49,336.206,215.269z"/>
			<path style="opacity:0.2;fill:#FFFFFF;" d="M336.206,215.269L336.206,215.269l-2.088-0.048
				c-6.263-0.145-12.353,2.067-17.063,6.198l-21.515,18.87c-1.392,1.221-2.608,2.629-3.612,4.184l-11.223,17.374l11.25,7.466
				l12.013-17.336l19.781-13.651C326.403,229.51,332.584,218.49,336.206,215.269z"/>
			<path style="opacity:0.2;" d="M323.208,232.38c-1.902,2.905-3.249,6.118-4.446,9.387l4.986-3.441
				c1.136-3.774,2.92-7.949,4.871-11.745C326.49,228.142,324.659,230.164,323.208,232.38z"/>
		</g>
		<g>
			<path style="fill:#E0E0E0;" d="M239.752,232.172l-0.013-0.005l1.241-0.62l0.002,0.009c0.424-0.177,0.925-0.182,1.388,0.087
				l52.231,30.368c1.641,0.954,2.764,2.596,3.059,4.471l5.37,34.147c0.117,0.746-0.294,1.367-0.877,1.652l0.022,0.004l-1.203,0.592
				l0-0.006c-0.415,0.158-0.898,0.15-1.344-0.109l-52.231-30.368c-1.641-0.954-2.764-2.596-3.059-4.471l-5.37-34.147
				C238.859,233.071,239.221,232.477,239.752,232.172z"/>
			<path style="opacity:0.2;" d="M239.752,232.172l-0.013-0.005l1.241-0.62l0.002,0.009c0.424-0.177,0.925-0.182,1.388,0.087
				l52.231,30.368c1.641,0.954,2.764,2.596,3.059,4.471l5.37,34.147c0.117,0.746-0.294,1.367-0.877,1.652l0.022,0.004l-1.203,0.592
				l0-0.006c-0.415,0.158-0.898,0.15-1.344-0.109l-52.231-30.368c-1.641-0.954-2.764-2.596-3.059-4.471l-5.37-34.147
				C238.859,233.071,239.221,232.477,239.752,232.172z"/>
			<g>
				<path style="fill:#FFFFFF;" d="M268.238,263.419c2.531,1.461,4.843,4.802,5.183,7.466c0.34,2.664-1.419,3.654-3.95,2.193
					c-2.519-1.454-4.843-4.802-5.183-7.466C263.947,262.948,265.719,261.965,268.238,263.419z"/>
			</g>
			<path style="opacity:0.3;" d="M301.979,301.154l-5.37-34.147c-0.295-1.875-1.418-3.517-3.059-4.471l-52.231-30.368
				c-0.53-0.308-1.11-0.258-1.567,0.004l-0.013-0.005l1.241-0.62l0.002,0.009c0.424-0.177,0.925-0.182,1.388,0.087l52.231,30.368
				c1.641,0.954,2.764,2.596,3.059,4.471l5.37,34.147c0.117,0.746-0.294,1.367-0.877,1.652l0.022,0.004l-1.203,0.592l0-0.006
				C301.626,302.622,302.105,301.956,301.979,301.154z"/>
		</g>
	</g>
</g>
</svg>
