<svg width="327" height="424" viewBox="0 0 327 424" fill="none" xmlns="http://www.w3.org/2000/svg">
<path d="M98.2 47.3923C76.8913 50.202 56.3332 56.1909 38.1055 65.5715C16.6175 76.6313 -5.32973 93.8701 1.15698 116.415C13.1221 158.035 70.539 158.796 59.078 186.781C46.0934 218.483 54.7984 255.669 113.067 266.013C223.744 285.658 357.534 170.729 319.958 107.583C296.566 68.2693 211.364 32.4594 98.2 47.3811V47.3923Z" fill="#6C022A"/>
<path opacity="0.9" d="M98.2 47.3923C76.8913 50.202 56.3332 56.1909 38.1055 65.5715C16.6175 76.6313 -5.32973 93.8701 1.15698 116.415C13.1221 158.035 70.539 158.796 59.078 186.781C46.0934 218.483 54.7984 255.669 113.067 266.013C223.744 285.658 357.534 170.729 319.958 107.583C296.566 68.2693 211.364 32.4594 98.2 47.3811V47.3923Z" fill="white"/>
<path d="M318.637 417.457C318.637 420.804 247.888 423.513 160.625 423.513C73.3626 423.513 2.61377 420.804 2.61377 417.457C2.61377 414.11 73.3626 411.401 160.625 411.401C247.888 411.401 318.637 414.11 318.637 417.457Z" fill="#F5F5F5"/>
<path d="M190.539 131.953C190.539 131.953 188.018 128.807 184.276 128.27C180.534 127.732 176.747 130.62 176.535 132.244C176.322 133.878 178.069 134.281 178.069 134.281C178.069 134.281 176.871 135.423 177.162 136.341C177.453 137.247 179.492 139.139 181.509 139.005C183.525 138.87 190.505 133.408 190.651 133.285C190.796 133.173 190.528 131.941 190.528 131.941L190.539 131.953Z" fill="#FFC3BD"/>
<path d="M191.67 132.456C191.67 132.456 194.684 129.781 195.031 126.02C195.378 122.258 192.286 118.632 190.65 118.508C189.015 118.374 188.69 120.154 188.69 120.154C188.69 120.154 187.48 119.023 186.584 119.359C185.687 119.695 184.063 121.822 184.152 123.837C184.455 131.18 190.213 132.523 190.337 132.658C190.46 132.792 191.67 132.467 191.67 132.467V132.456Z" fill="#FFC3BD"/>
<path d="M189.34 133.094C189.34 133.094 182.842 135.915 182.966 141.255C183.089 146.595 184.243 146.639 185.352 146.281C186.461 145.923 187.29 145.845 187.29 145.845C187.29 145.845 187.682 147.837 189.587 147.143C191.491 146.449 192.388 144.859 193.53 141.96C194.662 139.05 191.671 133.553 190.987 132.949C190.987 132.949 191.054 132.143 189.34 133.094Z" fill="#FFC3BD"/>
<path d="M192.085 132.512C192.085 132.512 192.478 128.505 195.312 126.009C198.146 123.512 202.897 123.859 203.972 125.113C205.048 126.356 203.804 127.665 203.804 127.665C203.804 127.665 205.429 127.979 205.686 128.897C205.944 129.815 205.261 132.512 203.502 133.509C201.743 134.494 192.903 133.733 192.724 133.71C192.534 133.688 192.097 132.524 192.097 132.524L192.085 132.512Z" fill="#FFC3BD"/>
<path d="M193.508 133.094C193.508 133.094 200.487 131.908 203.311 136.453C206.123 140.986 205.193 141.658 204.061 141.96C202.93 142.262 202.202 142.654 202.202 142.654C202.202 142.654 202.963 144.535 200.98 144.994C198.997 145.453 197.384 144.613 194.841 142.8C192.298 140.986 191.805 134.751 192.04 133.867C192.04 133.867 191.536 133.229 193.508 133.094Z" fill="#FFC3BD"/>
<path d="M194.919 131.65C195.501 133.688 193.877 135.635 191.771 135.434C190.594 135.322 189.575 134.471 189.25 133.341C188.667 131.303 190.292 129.355 192.398 129.557C193.574 129.669 194.594 130.52 194.919 131.65Z" fill="#EB7E7B"/>
<path opacity="0.2" d="M197.014 133.016C199.535 132.736 202.212 134.438 203.008 136.844C201.014 135.277 199.277 134.158 197.014 133.016Z" fill="white"/>
<path opacity="0.2" d="M191.894 119.919C194.101 121.161 195.288 124.105 194.538 126.523C193.832 124.094 193.07 122.169 191.894 119.919Z" fill="white"/>
<path opacity="0.2" d="M181.644 128.829C183.918 127.71 187.01 128.393 188.59 130.374C186.181 129.579 184.164 129.12 181.644 128.829Z" fill="white"/>
<path opacity="0.2" d="M183.212 141.635C182.73 139.15 184.209 136.341 186.55 135.356C185.15 137.471 184.175 139.296 183.212 141.635Z" fill="white"/>
<path d="M230.466 91.6088C230.466 91.6088 231.508 83.7617 227.195 77.7393C222.882 71.7057 213.639 70.2617 211.04 72.1759C208.441 74.0789 210.233 77.1237 210.233 77.1237C210.233 77.1237 206.984 76.9893 206.088 78.6349C205.192 80.2804 205.292 85.7431 208.205 88.4185C211.129 91.0939 228.36 93.5566 228.73 93.6125C229.088 93.6573 230.466 91.62 230.466 91.62V91.6088Z" fill="#FFC3BD"/>
<path d="M231.295 93.9037C231.295 93.9037 239.182 94.5306 244.986 89.9186C250.789 85.3067 251.753 76.0044 249.702 73.5081C247.663 71.0118 244.717 72.9596 244.717 72.9596C244.717 72.9596 244.683 69.7133 242.992 68.9073C241.3 68.1014 236.079 68.6834 233.323 71.5379C223.307 81.926 229.234 91.9224 229.212 92.2806C229.189 92.65 231.295 93.9037 231.295 93.9037Z" fill="#FFC3BD"/>
<path d="M227.229 91.4521C227.229 91.4521 214.401 86.0902 206.996 93.5118C199.59 100.934 201.081 102.624 203.097 103.71C205.114 104.795 206.346 105.859 206.346 105.859C206.346 105.859 204.049 109.116 207.634 110.874C211.208 112.643 214.681 111.747 220.35 109.407C226.019 107.068 229.75 95.3589 229.683 93.579C229.683 93.579 230.926 92.5827 227.229 91.4521Z" fill="#FFC3BD"/>
<path d="M231.777 94.5642C231.777 94.5642 237.995 89.6724 245.389 90.2993C252.783 90.9261 258.732 98.1351 258.419 101.348C258.105 104.561 254.565 104.561 254.565 104.561C254.565 104.561 256.335 107.281 255.371 108.893C254.408 110.505 249.658 113.202 245.871 112.061C242.073 110.908 231.161 97.3515 230.937 97.0717C230.713 96.7806 231.766 94.5642 231.766 94.5642H231.777Z" fill="#FFC3BD"/>
<path d="M232.876 97.3851C232.876 97.3851 244.034 105.68 241.424 115.822C238.813 125.964 236.595 125.561 234.634 124.374C232.674 123.187 231.128 122.684 231.128 122.684C231.128 122.684 229.492 126.311 226.154 124.139C222.815 121.967 221.807 118.531 220.933 112.464C220.059 106.396 228.237 97.2172 229.806 96.3665C229.806 96.3665 230.03 94.7881 232.887 97.3851H232.876Z" fill="#FFC3BD"/>
<path d="M236.18 98.3476C234.074 100.766 230.41 101.023 227.99 98.9185C225.57 96.8141 225.313 93.1536 227.419 90.7357C229.525 88.3177 233.189 88.0603 235.609 90.1648C238.029 92.2693 238.286 95.9297 236.18 98.3476Z" fill="#EB7E7B"/>
<path opacity="0.2" d="M237.76 102.232C240.998 105.814 242.107 111.389 240.471 115.934C240.673 111.109 239.799 106.62 237.76 102.232Z" fill="white"/>
<path opacity="0.2" d="M249.389 77.1798C249.927 81.9709 247.585 87.1537 243.608 89.8963C246.588 86.1015 248.493 81.9261 249.389 77.1798Z" fill="white"/>
<path opacity="0.2" d="M222.826 74.7841C227.094 77.0453 230.041 81.9035 230.063 86.7281C228.607 82.1274 226.243 78.1983 222.826 74.7841Z" fill="white"/>
<path opacity="0.2" d="M206.771 94.3851C210.076 90.8701 215.555 89.3142 220.215 90.5791C215.387 90.7582 210.973 92.0119 206.771 94.3851Z" fill="white"/>
<path d="M41.3886 263.315C41.3886 263.315 34.9804 257.774 27.0484 258.065C19.1165 258.367 12.3721 265.778 12.5513 269.225C12.7306 272.673 16.5061 272.863 16.5061 272.863C16.5061 272.863 14.4783 275.684 15.4194 277.453C16.3605 279.222 21.3123 282.356 25.4239 281.315C29.5356 280.274 41.904 266.337 42.1505 266.035C42.4081 265.733 41.3886 263.315 41.3886 263.315Z" fill="#FFC3BD"/>
<path d="M43.9317 263.919C43.9317 263.919 49.1413 257.236 48.4243 249.333C47.7185 241.43 39.9546 235.094 36.5152 235.453C33.0757 235.811 33.087 239.583 33.087 239.583C33.087 239.583 30.1629 237.703 28.4376 238.733C26.7235 239.774 24.1579 244.777 25.099 248.919C28.5048 263.986 40.9293 264.58 41.243 264.815C41.5566 265.05 43.9205 263.908 43.9205 263.908L43.9317 263.919Z" fill="#FFC3BD"/>
<path d="M39.3391 266.113C39.3391 266.113 26.9819 274.419 29.2674 285.401C31.5528 296.382 33.9391 296.058 36.1014 294.893C38.2636 293.729 39.9329 293.259 39.9329 293.259C39.9329 293.259 41.4902 297.222 45.1872 295.061C48.8731 292.901 50.1167 289.285 51.3715 282.837C52.615 276.401 44.3358 266.158 42.7001 265.173C42.7001 265.173 42.5433 263.483 39.3503 266.113H39.3391Z" fill="#FFC3BD"/>
<path d="M44.8057 263.875C44.8057 263.875 44.0999 255.434 49.007 249.199C53.9252 242.964 63.885 241.889 66.5737 244.061C69.2625 246.233 67.1899 249.389 67.1899 249.389C67.1899 249.389 70.6742 249.412 71.548 251.214C72.4219 253.016 72.041 258.86 68.7808 261.569C65.5206 264.278 46.9568 266.046 46.5647 266.08C46.1725 266.113 44.8169 263.863 44.8169 263.863L44.8057 263.875Z" fill="#FFC3BD"/>
<path d="M47.9767 264.557C47.9767 264.557 61.9696 259.464 69.5095 267.781C77.0493 276.099 75.3688 277.834 73.1618 278.886C70.9435 279.938 69.5767 281.024 69.5767 281.024C69.5767 281.024 71.8622 284.617 67.941 286.33C64.0199 288.031 60.3564 286.912 54.4186 284.125C48.4697 281.337 45.0751 268.621 45.2319 266.718C45.2319 266.718 43.9547 265.587 47.9655 264.557H47.9767Z" fill="#FFC3BD"/>
<path d="M50.7767 262.173C51.6953 265.475 49.7684 268.901 46.4634 269.819C43.1584 270.737 39.7302 268.811 38.8115 265.509C37.8929 262.207 39.8198 258.781 43.1248 257.863C46.4298 256.946 49.858 258.871 50.7767 262.173Z" fill="#EB7E7B"/>
<path opacity="0.2" d="M55.1914 263.046C60.3001 262.319 65.913 264.591 69.0499 268.688C64.8935 265.621 60.3113 263.751 55.1914 263.046Z" fill="white"/>
<path opacity="0.2" d="M39.6294 237.904C44.2115 240.289 47.4381 245.404 47.5949 250.565C46.0041 245.65 43.3713 241.464 39.6294 237.904Z" fill="white"/>
<path opacity="0.2" d="M21.8276 260.225C26.3762 257.796 32.426 258.02 36.784 260.796C31.8322 259.341 26.8803 259.139 21.8276 260.225Z" fill="white"/>
<path opacity="0.2" d="M29.9163 286.117C28.7736 281.091 30.5885 275.315 34.4312 271.856C31.7088 276.244 30.2188 280.957 29.9163 286.117Z" fill="white"/>
<path d="M177.666 298.308C176.254 295.61 173.722 293.651 170.988 292.319C168.804 291.255 166.474 290.539 164.143 289.834C163.269 289.565 162.396 290.237 162.429 291.143C162.53 294.054 162.844 296.976 163.662 299.763C164.647 303.155 166.429 306.39 169.14 308.651C171.661 310.755 175.772 311.808 179.01 311.349C179.391 309.144 179.055 307.05 179.066 304.823C179.077 302.573 178.719 300.289 177.677 298.296L177.666 298.308Z" fill="#6C022A"/>
<path d="M183.413 317.83C180.567 311.091 176.556 304.912 171.582 299.55C170.932 298.845 169.891 299.897 170.529 300.602C175.414 305.875 179.335 311.964 182.125 318.591C182.494 319.465 183.771 318.714 183.402 317.841L183.413 317.83Z" fill="#6C022A"/>
<path opacity="0.3" d="M183.413 317.83C180.567 311.091 176.556 304.912 171.582 299.55C170.932 298.845 169.891 299.897 170.529 300.602C175.414 305.875 179.335 311.964 182.125 318.591C182.494 319.465 183.771 318.714 183.402 317.841L183.413 317.83Z" fill="black"/>
<path d="M117.279 265.934C127.653 262.173 137.366 255.972 143.875 247.072C149.936 238.778 152.917 227.975 150.822 217.979C143.875 217.251 136.885 216.535 129.905 216.949C122.892 217.363 115.834 218.964 109.84 222.613C101.717 227.55 96.127 235.845 92.5307 244.643C88.9345 253.431 87.1083 262.822 84.8677 272.046C95.8693 271.196 106.916 269.707 117.29 265.946L117.279 265.934Z" fill="#6C022A"/>
<path d="M119.789 240.099C133.614 228.054 149.511 218.483 166.619 211.901C167.504 211.565 167.112 210.132 166.226 210.468C152.704 215.662 139.91 222.681 128.303 231.334C125.021 233.785 121.828 236.36 118.736 239.046C118.019 239.673 119.072 240.714 119.789 240.099Z" fill="#6C022A"/>
<path opacity="0.3" d="M119.789 240.099C133.614 228.054 149.511 218.483 166.619 211.901C167.504 211.565 167.112 210.132 166.226 210.468C152.704 215.662 139.91 222.681 128.303 231.334C125.021 233.785 121.828 236.36 118.736 239.046C118.019 239.673 119.072 240.714 119.789 240.099Z" fill="black"/>
<path d="M65.4874 203.483C71.6604 199.016 78.9874 195.871 86.6056 195.602C93.7085 195.356 102.223 197.863 107.13 202.945C104.845 207.199 101.372 211.442 98.4251 215.27C95.4674 219.121 91.8151 222.524 87.401 224.55C81.4297 227.281 74.506 227.248 68.0753 225.904C61.6446 224.55 55.5613 221.953 49.4106 219.658C54.1608 213.703 59.3032 207.96 65.4762 203.494L65.4874 203.483Z" fill="#6C022A"/>
<path d="M74.7305 211.587C91.9836 205.162 110.267 201.781 128.686 201.636C129.638 201.636 129.638 200.147 128.686 200.158C110.155 200.303 91.7035 203.684 74.3384 210.154C73.4534 210.479 73.8343 211.912 74.7305 211.587Z" fill="#6C022A"/>
<path opacity="0.3" d="M74.7305 211.587C91.9836 205.162 110.267 201.781 128.686 201.636C129.638 201.636 129.638 200.147 128.686 200.158C110.155 200.303 91.7035 203.684 74.3384 210.154C73.4534 210.479 73.8343 211.912 74.7305 211.587Z" fill="black"/>
<path d="M41.4453 117.367C49.0412 118.072 56.6146 120.523 62.5299 125.337C68.0308 129.826 72.781 137.326 73.1283 144.378C68.6021 146.079 63.1909 146.975 58.4519 147.927C53.6905 148.878 48.6939 149.035 44.0445 147.647C37.7482 145.766 32.5611 141.188 28.6176 135.938C24.674 130.688 21.806 124.732 18.7026 118.956C26.2088 117.602 33.8607 116.673 41.4453 117.378V117.367Z" fill="#6C022A"/>
<path d="M43.1705 129.591C60.3115 136.083 76.265 145.576 90.1571 157.542C90.8741 158.158 91.9273 157.117 91.2102 156.49C80.2422 147.042 68.0194 139.072 54.9003 132.938C51.192 131.202 47.4053 129.613 43.5738 128.158C42.6775 127.822 42.2966 129.255 43.1817 129.591H43.1705Z" fill="#6C022A"/>
<path opacity="0.3" d="M43.1705 129.591C60.3115 136.083 76.265 145.576 90.1571 157.542C90.8741 158.158 91.9273 157.117 91.2102 156.49C80.2422 147.042 68.0194 139.072 54.9003 132.938C51.192 131.202 47.4053 129.613 43.5738 128.158C42.6775 127.822 42.2966 129.255 43.1817 129.591H43.1705Z" fill="black"/>
<path d="M65.5653 97.7769C69.9009 99.803 73.8669 102.859 76.3316 106.967C78.6283 110.784 79.8383 116.225 78.5499 120.467C75.5138 120.512 72.1192 119.896 69.1279 119.449C66.1142 119.001 63.1229 118.027 60.6694 116.225C57.3532 113.773 55.2582 109.967 54.0483 106.027C52.8383 102.087 52.4126 97.956 51.7964 93.8813C56.513 94.6761 61.2408 95.7508 65.5764 97.7769H65.5653Z" fill="#6C022A"/>
<path d="M60.2991 102.389C69.0713 109.9 76.4655 118.867 82.1568 128.919C82.6273 129.747 83.9045 129.009 83.434 128.169C77.6979 118.027 70.2029 108.926 61.3522 101.337C60.6352 100.721 59.5821 101.762 60.2991 102.389Z" fill="#6C022A"/>
<path opacity="0.3" d="M60.2991 102.389C69.0713 109.9 76.4655 118.867 82.1568 128.919C82.6273 129.747 83.9045 129.009 83.434 128.169C77.6979 118.027 70.2029 108.926 61.3522 101.337C60.6352 100.721 59.5821 101.762 60.2991 102.389Z" fill="black"/>
<path d="M249.68 279.569L232.359 257.46L247.473 247.554L262.216 276.972L249.68 279.569Z" fill="#6C022A"/>
<path opacity="0.7" d="M249.68 279.569L232.359 257.46L247.473 247.554L262.216 276.972L249.68 279.569Z" fill="white"/>
<path d="M255.696 292.117L262.496 289.531C262.496 289.531 263.605 288.323 264.457 288.11C265.297 287.897 268.288 287.337 268.288 287.337L286.359 280.475C285.945 279.815 285.519 279.255 285.105 278.774C284.6 278.181 284.085 277.711 283.581 277.341C281.811 276.054 280.052 276.02 278.349 276.558C275.761 277.375 265.902 275.416 265.902 275.416C265.902 275.416 262.653 275.561 261.398 272.74C260.928 271.677 258.721 271.005 257.869 271.207C256.133 271.61 255.584 272.942 255.942 274.576L256.357 276.479L252.324 277.375C252.324 277.375 247.742 277.017 248.604 278.729C249.097 279.703 251.483 283.979 253.254 287.416C253.668 288.211 254.06 288.972 254.408 289.643C255.169 291.121 255.696 292.129 255.696 292.129V292.117Z" fill="#263238"/>
<g opacity="0.7">
<path d="M286.359 280.464L268.288 287.326C268.288 287.326 265.297 287.886 264.457 288.099C263.616 288.311 262.496 289.52 262.496 289.52L255.696 292.106C255.696 292.106 255.169 291.099 254.407 289.621L285.104 278.751C285.519 279.233 285.945 279.804 286.359 280.453V280.464Z" fill="white"/>
</g>
<path d="M270.574 275.74C270.461 275.696 270.327 275.74 270.249 275.83C269.913 276.278 269.677 276.815 269.61 277.408C269.576 277.722 270.081 277.822 270.114 277.498C270.17 276.972 270.372 276.502 270.663 276.11C270.764 275.975 270.719 275.796 270.562 275.74H270.574Z" fill="white"/>
<path d="M268.837 275.494C268.725 275.449 268.591 275.494 268.512 275.584C268.176 276.031 267.941 276.569 267.874 277.162C267.84 277.475 268.344 277.576 268.378 277.252C268.434 276.725 268.636 276.255 268.927 275.864C269.028 275.729 268.983 275.55 268.826 275.494H268.837Z" fill="white"/>
<path d="M267.067 275.315C266.955 275.27 266.821 275.315 266.742 275.405C266.406 275.852 266.171 276.39 266.104 276.983C266.07 277.297 266.574 277.397 266.608 277.073C266.664 276.546 266.865 276.076 267.157 275.685C267.258 275.55 267.213 275.371 267.056 275.315H267.067Z" fill="white"/>
<path d="M235.317 261.378L249.478 251.561L251.013 254.628L237.636 264.199L235.317 261.378Z" fill="#6C022A"/>
<path d="M238.297 265.184L251.517 255.613L252.066 256.722L239.283 266.427L238.297 265.184Z" fill="#6C022A"/>
<path d="M217.885 183.882C198.537 171.535 144.492 160.475 141.68 159.613C138.084 158.516 127.71 154.094 127.71 154.094L114.949 164.124L135.989 188.538L148.402 192.714L148.447 192.77C149.511 192.915 159.594 196.453 170.607 198.4C185.015 200.964 199.198 207.859 203.086 208.856L240.034 271.419L259.416 260.46C259.416 260.46 226.176 189.165 217.885 183.882Z" fill="#263238"/>
<path d="M84.0392 115.285C79.1322 127.677 78.6281 141.613 81.5633 154.542C84.465 167.348 91.0973 179.561 100.564 188.718C111.476 199.274 125.861 205.117 140.392 208.722C154.564 212.248 169.14 213.86 183.256 217.587C186.65 218.483 190.011 219.49 193.316 220.666C194.952 221.248 196.576 221.886 198.19 222.535C198.828 222.793 197.63 222.3 197.641 222.3C197.82 222.39 198.01 222.457 198.19 222.535C198.559 222.692 198.918 222.86 199.276 223.017C200.117 223.397 200.957 223.8 201.786 224.214C204.844 225.737 207.813 227.461 210.614 229.42C210.939 229.643 211.253 229.878 211.578 230.102C211.757 230.237 212.799 231.031 212.059 230.449C211.32 229.867 212.339 230.673 212.519 230.819C212.922 231.143 213.337 231.479 213.729 231.826C215.028 232.934 216.283 234.11 217.482 235.341C218.031 235.912 218.58 236.505 219.106 237.099C219.375 237.401 219.633 237.703 219.879 238.005C220.003 238.162 220.137 238.308 220.26 238.464C220.395 238.632 221.123 239.561 220.518 238.778C219.946 238.039 220.742 239.091 220.876 239.27C221.112 239.595 221.347 239.92 221.571 240.244C222.098 241.005 222.602 241.789 223.095 242.584C223.957 243.994 224.753 245.461 225.481 246.949C225.683 247.364 225.884 247.789 226.075 248.214C226.164 248.427 226.702 249.636 226.321 248.763C225.94 247.89 226.456 249.11 226.534 249.323C226.702 249.759 226.87 250.196 227.016 250.632C228.181 253.89 228.988 257.259 229.514 260.673C229.581 261.076 229.536 261.782 229.458 260.226C229.458 260.427 229.503 260.629 229.525 260.819C229.57 261.211 229.604 261.614 229.649 262.005C229.727 262.867 229.783 263.729 229.817 264.591C229.884 266.315 229.861 268.039 229.749 269.763C229.693 270.625 229.615 271.487 229.514 272.338C229.492 272.539 229.458 272.729 229.447 272.931C229.447 272.965 229.649 271.599 229.525 272.282C229.447 272.741 229.38 273.2 229.301 273.659C228.999 275.338 228.618 276.994 228.136 278.629C227.677 280.185 227.128 281.718 226.534 283.229C226.12 284.282 227.038 282.121 226.568 283.14C226.388 283.532 226.209 283.935 226.019 284.326C225.671 285.065 225.302 285.782 224.921 286.498C224.159 287.931 223.319 289.319 222.422 290.674C221.974 291.345 221.504 292.017 221.033 292.666C220.899 292.856 220.126 293.864 220.72 293.091C221.313 292.319 220.428 293.45 220.271 293.64C218.21 296.159 215.924 298.476 213.426 300.569C213.135 300.815 212.855 301.05 212.552 301.286C212.407 301.397 212.261 301.521 212.115 301.633C211.6 302.058 212.653 301.23 212.62 301.241C211.891 301.722 211.208 302.282 210.491 302.774C209.147 303.692 207.768 304.543 206.346 305.315C205.685 305.674 205.024 306.021 204.351 306.356C203.959 306.547 203.567 306.737 203.164 306.916C202.996 306.995 202.817 307.073 202.649 307.151C201.898 307.498 202.839 307.073 203.086 306.972C201.573 307.543 200.083 308.136 198.548 308.606C192.431 310.476 186.068 311.338 179.771 312.312C173.621 313.263 167.381 314.248 161.544 316.487C154.642 319.118 148.794 323.058 144.347 329.024C139.406 335.651 137.849 344.226 139.003 352.275C140.045 359.484 144.212 366.457 149.903 370.991C153.096 373.532 156.457 375.435 160.345 376.722C163.403 377.73 167.19 375.558 167.907 372.435C168.68 369.055 166.888 365.965 163.616 364.879C163.258 364.756 162.899 364.644 162.552 364.51C162.373 364.443 162.205 364.375 162.025 364.308C161.398 364.073 162.653 364.577 162.63 364.566C161.913 364.096 161.04 363.804 160.3 363.368C159.65 362.987 159.023 362.584 158.407 362.148C158.25 362.036 158.104 361.924 157.947 361.812C157.41 361.431 158.463 362.215 158.452 362.193C158.16 361.879 157.768 361.622 157.443 361.342C156.838 360.804 156.256 360.234 155.696 359.629C155.438 359.349 155.191 359.069 154.945 358.79C154.822 358.644 154.71 358.498 154.586 358.353C154.06 357.771 155.303 359.349 154.855 358.711C153.914 357.368 153.04 356.025 152.335 354.547C152.256 354.39 152.2 354.189 152.099 354.032C152.077 354.01 152.581 355.263 152.346 354.637C152.211 354.29 152.077 353.942 151.954 353.584C151.674 352.789 151.438 351.984 151.248 351.166C151.147 350.707 151.046 350.26 150.968 349.801C150.934 349.61 150.923 349.398 150.878 349.207C150.878 349.196 151.013 350.539 150.979 349.845C150.934 348.984 150.845 348.122 150.845 347.248C150.845 346.454 150.878 345.648 150.957 344.853C150.979 344.651 151.001 344.45 151.024 344.26C151.102 343.42 150.8 345.525 150.968 344.707C151.057 344.248 151.136 343.789 151.237 343.33C151.405 342.547 151.618 341.775 151.864 341.013C151.987 340.633 152.122 340.252 152.256 339.883C152.323 339.692 152.402 339.513 152.469 339.323C152.749 338.562 151.954 340.409 152.323 339.681C153.13 338.125 153.948 336.659 154.956 335.215C155.337 334.666 154.609 335.663 154.609 335.663C154.743 335.562 154.867 335.349 154.979 335.215C155.214 334.946 155.449 334.677 155.684 334.42C156.233 333.827 156.816 333.245 157.421 332.707C157.679 332.472 157.936 332.248 158.205 332.036C158.34 331.924 158.485 331.823 158.608 331.711C158.653 331.666 157.51 332.517 158.037 332.148C158.642 331.722 159.236 331.286 159.852 330.883C161.096 330.088 162.395 329.383 163.74 328.767C164.053 328.621 164.367 328.498 164.681 328.353C164.748 328.319 163.381 328.879 164.008 328.644C164.165 328.588 164.333 328.521 164.49 328.454C165.241 328.163 166.003 327.883 166.776 327.636C168.176 327.177 169.588 326.774 171.022 326.416C174.08 325.655 177.195 325.095 180.298 324.592C186.505 323.584 192.767 322.823 198.862 321.278C205.427 319.61 211.779 316.857 217.325 312.961C228.864 304.856 237.681 292.722 240.762 278.864C243.978 264.367 241.367 248.662 233.502 236.035C225.548 223.252 212.877 215.013 199.052 209.707C185.788 204.613 171.716 202.509 157.835 199.878C150.632 198.524 143.45 197.013 136.437 194.863C134.667 194.326 132.919 193.744 131.183 193.106C130.387 192.815 129.592 192.513 128.796 192.21C128.404 192.054 128.012 191.897 127.62 191.74C127.284 191.606 126.657 191.214 127.911 191.863C127.665 191.74 127.396 191.64 127.138 191.528C123.845 190.084 120.64 188.416 117.593 186.501C116.092 185.561 114.647 184.531 113.213 183.49C112.675 183.098 113.784 183.938 113.739 183.904C113.605 183.792 113.459 183.681 113.313 183.569C113.033 183.345 112.753 183.121 112.473 182.886C111.879 182.393 111.286 181.878 110.703 181.363C108.395 179.281 106.255 177.009 104.317 174.591C104.205 174.457 104.093 174.311 103.981 174.166C103.555 173.651 104.418 174.748 104.396 174.703C104.183 174.412 103.959 174.132 103.746 173.841C103.287 173.214 102.838 172.576 102.401 171.938C101.528 170.651 100.699 169.33 99.9255 167.986C99.1413 166.632 98.4131 165.255 97.7409 163.856C97.4272 163.207 97.1247 162.557 96.8334 161.897C96.7326 161.673 96.2396 160.531 96.643 161.471C97.0463 162.423 96.5085 161.113 96.4077 160.867C95.265 157.968 94.3239 154.979 93.5957 151.945C93.2484 150.49 92.9459 149.012 92.6994 147.535C92.6322 147.121 92.565 146.706 92.5089 146.292C92.3409 145.173 92.6658 147.624 92.5314 146.494C92.4417 145.721 92.3521 144.949 92.2849 144.165C92.016 141.121 91.9712 138.065 92.1392 135.02C92.1841 134.247 92.2401 133.475 92.3185 132.691C92.3521 132.333 92.3857 131.975 92.4305 131.617C92.4529 131.438 92.4753 131.259 92.4977 131.08C92.5986 130.229 92.4529 131.438 92.4193 131.65C92.6994 130.117 92.9123 128.583 93.2596 127.072C93.9094 124.15 94.8056 121.285 95.9148 118.497C96.4637 117.109 96.0156 115.005 95.2986 113.762C94.5479 112.486 93.0915 111.277 91.6239 110.941C88.0836 110.135 85.3388 112.027 84.0617 115.229L84.0392 115.285Z" fill="#934E42"/>
<path d="M89.9104 96.098C89.9104 96.098 88.51 89.6166 83.4125 86.0793C78.315 82.5419 70.6071 84.0084 69.0947 86.2472C67.5822 88.486 69.8565 90.3778 69.8565 90.3778C69.8565 90.3778 67.2573 91.1838 67.0108 92.7397C66.7756 94.2845 68.3889 98.5719 71.4474 99.8592C74.5059 101.146 88.8013 98.2248 89.1038 98.1689C89.4062 98.1129 89.9104 96.1092 89.9104 96.1092V96.098Z" fill="#FFC3BD"/>
<path d="M91.2212 97.6763C91.2212 97.6763 97.6183 95.9412 100.901 90.6688C104.172 85.3964 102.301 77.7844 99.9822 76.3963C97.6631 75.0083 95.893 77.3702 95.893 77.3702C95.893 77.3702 94.9519 74.818 93.3835 74.6612C91.815 74.5045 87.8602 76.4299 86.5046 79.4635C81.5416 90.4897 89.0366 96.6912 89.115 96.9934C89.1934 97.2845 91.21 97.6875 91.21 97.6875L91.2212 97.6763Z" fill="#FFC3BD"/>
<path d="M87.3118 96.8928C87.3118 96.8928 75.6716 96.2771 71.9297 104.225C68.1878 112.162 69.8347 113.079 71.7393 113.37C73.6326 113.65 74.9098 114.154 74.9098 114.154C74.9098 114.154 74.0247 117.367 77.3409 117.747C80.6571 118.128 83.1442 116.449 86.9533 113.012C90.7625 109.564 90.404 99.2771 89.8438 97.8891C89.8438 97.8891 90.5384 96.7585 87.3118 96.904V96.8928Z" fill="#FFC3BD"/>
<path d="M91.7816 98.0569C91.7816 98.0569 95.3107 92.4487 101.316 90.8591C107.321 89.2696 114.054 93.2771 114.715 95.8965C115.376 98.5159 112.586 99.5234 112.586 99.5234C112.586 99.5234 114.748 101.169 114.446 102.714C114.143 104.258 111.163 107.729 107.847 107.885C104.531 108.053 92.0953 100.43 91.8376 100.273C91.58 100.105 91.7816 98.0681 91.7816 98.0681V98.0569Z" fill="#FFC3BD"/>
<path d="M93.4512 99.9709C93.4512 99.9709 104.599 103.363 105.405 112.105C106.212 120.848 104.341 121.15 102.459 120.77C100.577 120.389 99.2209 120.423 99.2209 120.423C99.2209 120.423 98.9633 123.747 95.7031 122.975C92.4541 122.202 90.6952 119.773 88.2865 115.24C85.8778 110.706 89.7429 101.158 90.7288 100.038C90.7288 100.038 90.46 98.7396 93.4512 99.9709Z" fill="#FFC3BD"/>
<path d="M96.5877 98.874C95.9491 102.299 92.1288 103.967 89.1823 102.12C87.5467 101.09 86.6616 99.0755 87.0089 97.1837C87.6475 93.7583 91.4678 92.0904 94.4143 93.9374C96.05 94.9672 96.935 96.9822 96.5877 98.874Z" fill="#EB7E7B"/>
<path opacity="0.2" d="M98.6714 102.411C102.301 104.225 104.8 108.389 104.676 112.452C103.366 108.613 101.439 105.389 98.6714 102.411Z" fill="white"/>
<path opacity="0.2" d="M100.767 79.3853C102.66 82.9786 102.257 87.8144 99.792 91.0383C100.968 87.1427 101.282 83.4151 100.767 79.3853Z" fill="white"/>
<path opacity="0.2" d="M79.1323 84.9823C83.1655 85.4525 86.941 88.5084 88.2182 92.3592C85.6638 89.1913 82.7622 86.8293 79.1323 84.9823Z" fill="white"/>
<path opacity="0.2" d="M72.0078 104.975C73.5315 101.214 77.475 98.3817 81.5418 98.1802C77.8111 99.8033 74.7526 101.975 72.0078 104.975Z" fill="white"/>
<path d="M62.3835 166.531C62.3835 166.531 57.7341 160.732 50.8329 159.736C43.9316 158.74 36.952 164.068 36.5487 167.079C36.1566 170.079 39.3831 170.841 39.3831 170.841C39.3831 170.841 37.1761 172.956 37.7138 174.635C38.2516 176.315 42.0159 179.796 45.7354 179.55C49.4549 179.303 62.3275 169.217 62.5963 169.005C62.8652 168.792 62.3723 166.531 62.3723 166.531H62.3835Z" fill="#FFC3BD"/>
<path d="M64.4782 167.46C64.4782 167.46 70.035 162.512 70.6736 155.583C71.3122 148.654 65.6209 141.96 62.596 141.714C59.5711 141.479 58.9885 144.736 58.9885 144.736C58.9885 144.736 56.7591 142.654 55.1122 143.27C53.4653 143.897 50.4628 147.815 50.6197 151.531C51.1686 165.076 61.8118 167.55 62.0358 167.807C62.2711 168.065 64.4894 167.449 64.4894 167.449L64.4782 167.46Z" fill="#FFC3BD"/>
<path d="M60.1655 168.624C60.1655 168.624 48.1892 173.841 48.4133 183.68C48.6485 193.52 50.766 193.621 52.805 192.949C54.8552 192.277 56.3676 192.143 56.3676 192.143C56.3676 192.143 57.0846 195.815 60.6137 194.527C64.1427 193.251 65.7896 190.319 67.8846 184.957C69.9796 179.595 64.4564 169.453 63.2016 168.345C63.2016 168.345 63.3361 166.856 60.1655 168.624Z" fill="#FFC3BD"/>
<path d="M65.2402 167.55C65.2402 167.55 65.9572 160.15 71.1892 155.55C76.4211 150.949 85.1821 151.598 87.1651 153.893C89.1369 156.188 86.8514 158.594 86.8514 158.594C86.8514 158.594 89.8539 159.165 90.3244 160.856C90.795 162.546 89.5402 167.527 86.3024 169.352C83.0535 171.177 66.7527 169.766 66.4166 169.733C66.0693 169.699 65.2514 167.538 65.2514 167.538L65.2402 167.55Z" fill="#FFC3BD"/>
<path d="M67.8618 168.647C67.8618 168.647 80.7456 166.464 85.9439 174.837C91.131 183.199 89.4169 184.442 87.3331 185.001C85.2493 185.561 83.9049 186.277 83.9049 186.277C83.9049 186.277 85.3053 189.748 81.6531 190.598C78.0008 191.449 75.0207 189.904 70.3265 186.557C65.6323 183.21 64.7137 171.703 65.1618 170.08C65.1618 170.08 64.2431 168.904 67.8618 168.647Z" fill="#FFC3BD"/>
<path d="M70.663 167.035C70.9431 170.035 68.7249 172.677 65.7336 172.956C62.7311 173.236 60.0871 171.02 59.8071 168.031C59.527 165.042 61.7452 162.389 64.7365 162.109C67.739 161.841 70.383 164.046 70.663 167.035Z" fill="#EB7E7B"/>
<path opacity="0.2" d="M74.3374 168.479C78.8747 168.568 83.4121 171.457 85.4063 175.542C82.2245 172.296 78.6283 169.99 74.3374 168.479Z" fill="white"/>
<path opacity="0.2" d="M64.8813 144.322C68.5224 147.042 70.5278 152.024 69.7548 156.501C69.0714 152.012 67.4805 148.038 64.8813 144.322Z" fill="white"/>
<path opacity="0.2" d="M45.9814 160.766C50.2835 159.3 55.5379 160.464 58.798 163.621C54.6976 161.651 50.53 160.721 45.9814 160.766Z" fill="white"/>
<path opacity="0.2" d="M48.8723 184.397C48.5922 179.863 51.1129 175.117 55.0229 172.8C52.0428 176.225 50.0262 179.997 48.8723 184.397Z" fill="white"/>
<path d="M111.364 108.277L95.5111 148.486L106.748 183.009L96.8555 183.49C96.8555 183.49 79.8937 152.415 80.5996 147.781C81.3054 143.147 94.0883 104.639 94.0883 104.639L111.364 108.288V108.277Z" fill="#FFC3BD"/>
<path d="M104.586 179.896C104.586 179.896 108.294 180.344 110.176 182.785C112.058 185.236 114.209 186.691 115.486 188.605C116.764 190.52 113.761 189.691 112.26 188.919C110.759 188.158 109.045 187.296 108.652 188.516C108.26 189.736 110.546 200.527 109.806 202.162C109.067 203.796 108.148 202.162 108.148 202.162C108.148 202.162 108.63 204.792 107.644 205.273C107.386 205.397 106.591 205.273 106.176 204.098C105.258 201.479 103.6 195.87 103.6 195.87C103.701 196.195 105.247 203.259 105.336 204.344C105.459 205.766 104.787 206.505 103.958 206.538C102.782 206.606 100.564 197.897 100.216 197.606C100.216 197.606 101.662 202.576 100.575 203.639C99.4993 204.714 98.4126 201.635 97.9869 198.747C97.5835 196.094 96.1159 191.001 95.9703 188.258C95.791 184.889 96.4296 182.583 99.2416 181.128C102.054 179.673 104.563 179.874 104.563 179.874L104.586 179.896Z" fill="#FFC3BD"/>
<path d="M130.566 309.804L139.26 283.095L155.919 290.102L139.73 318.737L130.566 309.804Z" fill="#6C022A"/>
<path opacity="0.7" d="M130.566 309.804L139.26 283.095L155.919 290.102L139.73 318.737L130.566 309.804Z" fill="white"/>
<path d="M124.281 321.748L132.885 325.767C132.885 325.767 134.521 325.655 135.283 326.08C136.045 326.506 138.599 328.151 138.599 328.151L156.087 335.539C156.233 334.778 156.323 334.084 156.345 333.446C156.379 332.674 156.345 331.98 156.222 331.364C155.819 329.215 154.922 328.017 153.32 327.233C150.878 326.047 145.063 317.853 145.063 317.853C145.063 317.853 142.599 315.726 143.629 312.815C144.01 311.718 142.879 309.715 142.117 309.278C140.582 308.382 139.271 308.976 138.397 310.397L137.389 312.065L133.849 309.95C133.849 309.95 130.768 306.547 130.219 308.382C129.905 309.435 126.802 312.95 125.738 316.655C125.491 317.517 125.256 318.345 125.043 319.062C124.584 320.662 124.27 321.759 124.27 321.759L124.281 321.748Z" fill="#263238"/>
<path opacity="0.7" d="M156.098 335.539L138.609 328.151C138.609 328.151 136.044 326.506 135.293 326.08C134.531 325.655 132.896 325.767 132.896 325.767L124.292 321.748C124.292 321.748 124.605 320.651 125.065 319.05L156.367 333.435C156.333 334.073 156.255 334.767 156.109 335.528L156.098 335.539Z" fill="white"/>
<path d="M148.234 321.3C148.178 321.188 148.054 321.132 147.942 321.144C147.382 321.233 146.856 321.468 146.396 321.849C146.161 322.05 146.452 322.465 146.699 322.263C147.102 321.927 147.573 321.715 148.054 321.636C148.222 321.614 148.312 321.446 148.245 321.3H148.234Z" fill="white"/>
<path d="M147.147 319.924C147.091 319.812 146.967 319.756 146.844 319.767C146.284 319.856 145.758 320.091 145.298 320.472C145.063 320.674 145.354 321.088 145.601 320.886C146.004 320.55 146.475 320.338 146.956 320.259C147.124 320.237 147.214 320.069 147.147 319.924Z" fill="white"/>
<path d="M145.981 318.58C145.925 318.468 145.802 318.412 145.69 318.424C145.13 318.513 144.603 318.748 144.144 319.129C143.909 319.33 144.2 319.744 144.446 319.543C144.85 319.207 145.32 318.994 145.802 318.916C145.97 318.894 146.06 318.726 145.992 318.58H145.981Z" fill="white"/>
<path d="M137.657 287.741L153.711 293.987L152.031 296.976L136.615 291.233L137.657 287.741Z" fill="#6C022A"/>
<path d="M136.156 292.33L151.482 297.938L150.877 299.024L135.674 293.841L136.156 292.33Z" fill="#6C022A"/>
<path d="M163.863 190.464L170.148 163.9C167.997 160.811 162.586 150.926 162.586 150.926L116.484 159.333C116.484 159.333 114.748 166.811 115.162 173.091C116.742 196.643 149.724 227.527 151.024 236.046C146.206 255.613 129.715 301.778 129.715 301.778L150.52 308.942C150.52 308.942 176.915 254.259 177.777 239.001C178.64 223.744 161.297 193.397 161.297 193.397L163.863 190.464Z" fill="#263238"/>
<path d="M139.181 95.4821C141.668 99.109 145.567 103.049 153.443 99.1762C158.742 96.568 165.823 88.956 175.502 80.7955L160.725 68.2021C154.855 73.1052 151.034 75.8477 143.17 82.6985C132.851 93.3553 139.181 95.4821 139.181 95.4821Z" fill="#6C022A"/>
<path d="M160.356 106.609C158.9 101.683 156.838 95.5715 155.124 90.6797C153.287 85.4185 148.884 81.6684 143.316 81.7692C134.768 81.9147 125.771 81.9371 111.353 85.7879L108.205 110.84L115.991 150.814C115.991 150.814 115.946 160.52 113.929 169.329C134.779 175.699 160.446 174.277 173.004 165.781C173.004 165.781 163.291 116.516 160.356 106.609Z" fill="#6C022A"/>
<path opacity="0.7" d="M120.069 83.8286C120.069 83.8286 126.6 91.0376 136.224 88.8548C145.848 86.6719 143.629 81.7689 143.629 81.7689C143.629 81.7689 142.61 81.7913 141.019 81.8025C136.627 81.8361 127.474 82.0824 120.069 83.8286Z" fill="#263238"/>
<path d="M111.667 85.8103C111.667 85.8103 103.421 85.105 99.2425 93.5342C95.3998 101.303 85.877 118.307 85.877 118.307L105.707 126.702L116.72 107.124L111.667 85.8103Z" fill="#6C022A"/>
<path d="M122.735 84.4893C127.631 79.8101 126.656 67.0937 125.346 60.5339L140.75 72.3997C140.437 73.1721 140.179 73.9556 139.977 74.7616C139.563 76.2056 139.518 77.728 139.865 79.1833C140.201 80.381 141.747 83.6945 141.747 83.6945C141.747 83.6945 142.7 87.4445 132.706 87.8363C128.337 88.4856 122.724 84.5005 122.724 84.5005L122.735 84.4893Z" fill="#FFC3BD"/>
<path d="M122.5 54.9035C124.842 63.9259 125.973 69.064 131.62 72.814C140.123 78.4558 150.699 72.2543 151.181 62.6946C151.618 54.0863 147.719 40.7877 137.815 38.9631C128.057 37.1721 120.159 45.8922 122.489 54.9147L122.5 54.9035Z" fill="#FFC3BD"/>
<path d="M118.556 42.6347C118.904 37.0041 132.773 34.3399 137.176 36.366C137.837 36.6683 130.387 42.2205 130.846 41.9407L127.228 43.9668C126.612 43.9556 125.57 44.8511 125.301 46.7541C125.301 46.7541 128.628 61.6199 125.099 66.7692C121.268 65.7617 119.923 59.8736 118.131 56.5602C115.464 51.6124 112.003 44.2802 118.545 42.6347H118.556Z" fill="#263238"/>
<path d="M120.259 63.2096C121.469 65.4148 123.609 66.8701 125.648 67.4186C128.718 68.247 129.188 65.0678 128.37 62.2469C127.631 59.7059 126.242 56.6947 123.15 57.1088C120.102 57.523 118.881 60.6798 120.259 63.2096Z" fill="#FFC3BD"/>
<path d="M135.271 54.6348C135.451 55.5639 136.112 56.2244 136.739 56.1013C137.366 55.9781 137.736 55.1162 137.557 54.1871C137.378 53.258 136.717 52.5975 136.089 52.7206C135.462 52.8438 135.092 53.7057 135.271 54.6348Z" fill="#263238"/>
<path d="M144.784 53.5378C144.963 54.467 145.624 55.1274 146.251 55.0043C146.879 54.8811 147.248 54.0192 147.069 53.0901C146.89 52.161 146.229 51.5005 145.601 51.6237C144.974 51.7468 144.604 52.6087 144.784 53.5378Z" fill="#263238"/>
<path d="M142.779 53.4929C142.779 53.4929 146.722 57.5676 148.067 59.2691C146.958 60.6907 144.538 60.59 144.538 60.59L142.779 53.4929Z" fill="#BA4D3C"/>
<path d="M133.267 51.064C133.423 51.0976 133.591 51.0417 133.703 50.9185C135.059 49.4185 136.74 49.6088 136.751 49.62C136.997 49.6536 137.232 49.4857 137.277 49.2394C137.311 48.9931 137.143 48.7693 136.896 48.7357C136.807 48.7245 134.712 48.4782 133.02 50.3364C132.852 50.5267 132.874 50.8066 133.054 50.9633C133.11 51.0193 133.188 51.0528 133.267 51.064Z" fill="#263238"/>
<path opacity="0.2" d="M126.735 62.4595C126.634 62.4595 126.533 62.3923 126.5 62.2916C126.265 61.564 125.839 60.9035 125.267 60.3886C124.898 60.0528 124.304 59.6386 123.598 59.605C122.96 59.5826 122.355 59.9072 122.142 60.3886C122.086 60.5117 121.94 60.5677 121.817 60.5117C121.694 60.4557 121.638 60.3102 121.694 60.1871C121.996 59.5154 122.78 59.0677 123.632 59.1125C124.483 59.1572 125.178 59.6274 125.615 60.0192C126.253 60.6013 126.724 61.3289 126.982 62.146C127.026 62.2804 126.948 62.4147 126.825 62.4595C126.802 62.4595 126.78 62.4707 126.746 62.4707L126.735 62.4595Z" fill="black"/>
<path d="M149.355 48.713C149.433 48.6794 149.511 48.6234 149.556 48.5451C149.702 48.3436 149.646 48.0637 149.433 47.9294C147.338 46.5637 145.4 47.3809 145.31 47.4145C145.075 47.5152 144.974 47.7727 145.064 48.0077C145.164 48.2316 145.422 48.3324 145.657 48.2428C145.736 48.2092 147.237 47.5936 148.918 48.6906C149.052 48.7801 149.209 48.7801 149.343 48.7242L149.355 48.713Z" fill="#263238"/>
<path d="M144.37 63.7356C143.642 64.799 142.992 65.9072 142.421 67.0602C142.208 66.993 141.984 66.9371 141.771 66.8587C138.835 65.9296 137.771 64.5415 137.502 63.2654C137.379 62.6385 137.413 62.0005 137.581 61.3848C137.67 61.0378 137.805 60.702 137.995 60.3997C139.261 61.8214 141.916 62.896 143.373 63.4109C144.011 63.6012 144.37 63.7467 144.37 63.7467V63.7356Z" fill="#263238"/>
<path d="M143.406 63.3773L142.801 64.34C140.045 63.4669 138.219 62.4818 137.614 61.3512C137.704 61.0042 137.838 60.6683 138.029 60.3661C139.295 61.7989 141.95 62.8624 143.406 63.3773Z" fill="white"/>
<path d="M141.805 66.8363C138.869 65.9072 137.805 64.5192 137.547 63.243C138.656 63.6124 139.687 64.1834 140.606 64.911C141.2 65.4147 141.625 66.0863 141.816 66.8363H141.805Z" fill="#C15854"/>
<path d="M123.026 41.0676C123.026 41.0676 127.284 27.1533 140.033 27.4779C138.879 27.9593 137.837 28.6533 136.941 29.5153C136.941 29.5153 147.483 26.6048 152.211 33.5116L149.937 32.6944C149.937 32.6944 153.813 38.4146 151.371 43.1049L150.396 41.1571C150.396 41.1571 147.013 47.3922 140.167 47.0564L142.218 45.478C142.218 45.478 130.88 47.2131 127.608 44.8624C125.939 43.7653 124.404 42.4892 123.015 41.0452L123.026 41.0676Z" fill="#263238"/>
<path d="M213.371 341.606H99.377V360.334H213.371V341.606Z" fill="#CC753A"/>
<path d="M106.928 354.088C105.405 353.17 117.941 417.458 117.941 417.458H194.224L205.876 354.077H106.928V354.088Z" fill="#CC753A"/>
<path d="M162.06 69.3438L181.553 54.0527L188.376 22.9331L196.073 26.9518C196.073 26.9518 195.121 58.0154 192.533 61.2057C189.933 64.396 174.025 79.5528 174.025 79.5528L162.06 69.355V69.3438Z" fill="#FFC3BD"/>
<path d="M195.805 35.0115L196.466 24.0301C196.466 24.0301 198.034 22.2838 198.841 20.7838C199.647 19.295 200.577 17.3473 199.905 14.6047C199.233 11.8622 197.944 13.5077 197.944 13.5077C196.891 10.8547 194.684 11.9181 194.684 11.9181C193.833 9.57857 191.379 10.4965 191.379 10.4965C191.379 10.4965 188.466 11.1233 187.447 12.0301C186.427 12.9368 186.125 17.8398 186.125 17.8398L188.377 22.9107L186.629 33.7354C186.82 33.7578 195.805 35.0003 195.805 35.0003V35.0115Z" fill="#FFC3BD"/>
<path opacity="0.3" d="M199.568 17.213C199.568 17.6943 199.199 18.1533 198.706 18.1981C198.179 18.2428 197.731 17.851 197.642 17.3473C197.541 16.7764 197.742 16.1495 197.798 15.5786C197.866 14.9182 197.877 14.2577 197.843 13.5973C197.832 13.3174 197.384 13.3062 197.395 13.5973C197.44 14.4368 197.406 15.2764 197.283 16.116C197.182 16.7764 197.048 17.5376 197.507 18.1085C197.877 18.5675 198.538 18.769 199.087 18.5675C199.647 18.3548 200.017 17.8063 200.017 17.2242C200.017 16.9331 199.58 16.9331 199.568 17.2242V17.213Z" fill="black"/>
<path opacity="0.3" d="M196.857 16.4965C196.465 16.9442 195.894 17.2912 195.278 17.2129C194.706 17.1457 194.225 16.6979 194.213 16.1159C194.213 15.78 194.314 15.4442 194.37 15.1084C194.426 14.7838 194.471 14.4591 194.493 14.1233C194.549 13.4069 194.505 12.7017 194.404 11.9964C194.359 11.7166 193.933 11.8397 193.978 12.1196C194.112 12.9815 194.112 13.8658 193.978 14.739C193.877 15.433 193.564 16.1942 193.956 16.8547C194.247 17.3472 194.818 17.6606 195.39 17.6718C196.084 17.6942 196.723 17.3136 197.171 16.8099C197.361 16.5972 197.048 16.2838 196.857 16.4965Z" fill="black"/>
<path opacity="0.3" d="M193.305 15.2541C192.902 15.6011 192.275 15.6907 191.793 15.4444C191.311 15.1981 191.009 14.6832 191.031 14.1459C191.031 13.8549 190.594 13.8549 190.583 14.1459C190.561 14.8399 190.964 15.5452 191.602 15.8474C192.263 16.1608 193.059 16.0489 193.619 15.5675C193.832 15.3772 193.518 15.0638 193.305 15.2541Z" fill="black"/>
<path d="M158.194 14.0115L165.645 39.5899L191.446 32.6384L182.651 6.98157L158.194 14.0115Z" fill="#EDB24A"/>
<path d="M151.304 21.0525L151.416 16.4853C151.416 16.4853 147.148 20.6383 145.882 25.3286L150.262 23.4032L166.227 36.5227L165.196 28.1271L151.304 21.0413V21.0525Z" fill="#EDB24A"/>
<path d="M165.23 15.1084C164.625 12.1308 163.964 8.95168 164.939 5.97405C165.734 3.56733 167.638 1.55239 170.305 1.47403C173.061 1.38448 175.402 3.09717 176.792 5.36957C178.36 7.94421 178.719 10.989 178.752 13.9442C178.763 14.8957 180.242 14.8957 180.231 13.9442C180.175 9.07481 178.943 3.22031 174.114 0.858359C171.929 -0.216273 169.241 -0.361796 167.09 0.880747C165.151 1.98896 163.897 4.02628 163.348 6.14196C162.53 9.22034 163.18 12.4554 163.796 15.5002C163.986 16.4293 165.409 16.0375 165.23 15.1084Z" fill="#EDB24A"/>
<path d="M182.248 11.4479C184.051 9.98151 186.55 9.4442 188.757 10.2726C190.897 11.0785 192.364 13.0151 192.622 15.2763C193.171 20.0114 190.359 25.642 185.687 27.1868C184.791 27.4891 185.172 28.9107 186.079 28.6197C188.846 27.7017 191.053 25.6644 192.398 23.101C193.776 20.4704 194.594 17.1233 193.922 14.1905C193.339 11.627 191.367 9.57852 188.88 8.76136C186.214 7.88822 183.312 8.6718 181.183 10.4069C180.444 11.0114 181.497 12.0524 182.237 11.4591L182.248 11.4479Z" fill="#EDB24A"/>
<path d="M189.104 21.8251C192.824 20.4258 192.017 16.1273 190.46 15.4445C190.662 14.5489 190.695 14.3251 190.897 13.4407C191.468 13.4295 192.611 12.7691 193.149 12.5452C193.686 12.3325 194.056 11.8848 193.821 11.2803C193.608 10.743 193.451 10.631 188.208 11.6497" fill="#FFC3BD"/>
<path d="M148.64 77.6873L148.14 70.6873C144.54 74.2873 141.306 75.1873 140.14 75.1873C139.34 75.5873 140.473 79.6873 141.14 81.6873H144.14L148.64 77.6873Z" fill="#263238" stroke="#263238"/>
<path d="M256.975 179.393C247.777 180.781 238.714 184.285 231.857 190.565C225.471 196.408 221.281 206.74 221.348 215.36C226.973 217.117 231.207 219.099 237.044 219.916C242.904 220.744 250.354 218.461 255.911 216.446C263.439 213.725 269.444 207.781 273.881 201.121C278.317 194.46 281.398 187.005 284.782 179.751C275.55 178.621 266.162 178.016 256.964 179.404L256.975 179.393Z" fill="#6C022A"/>
<path d="M215.242 220.61C229.067 208.565 244.965 198.994 262.072 192.412C262.957 192.076 262.565 190.643 261.68 190.979C248.158 196.173 235.364 203.192 223.757 211.845C220.474 214.296 217.281 216.871 214.189 219.558C213.472 220.185 214.525 221.226 215.242 220.61Z" fill="#6C022A"/>
<path opacity="0.3" d="M215.242 220.61C229.067 208.565 244.965 198.994 262.072 192.412C262.957 192.076 262.565 190.643 261.68 190.979C248.158 196.173 235.364 203.192 223.757 211.845C220.474 214.296 217.281 216.871 214.189 219.558C213.472 220.185 214.525 221.226 215.242 220.61Z" fill="black"/>
<path d="M198.391 169.945C194.974 176.136 192.913 183.233 193.54 190.285C194.123 196.845 198.436 204.143 203.679 208.083C207.343 205.498 210.502 203.852 213.695 200.718C216.899 197.561 218.961 192.009 220.316 187.71C222.153 181.9 221.336 175.531 219.353 169.777C217.37 164.012 214.289 158.718 211.466 153.311C206.514 158.371 201.808 163.755 198.402 169.945H198.391Z" fill="#6C022A"/>
<path d="M201.215 218.897C205.764 206.438 208.105 193.24 208.127 179.986C208.127 179.035 206.649 179.035 206.649 179.986C206.626 193.128 204.296 206.169 199.792 218.505C199.467 219.401 200.901 219.793 201.226 218.897H201.215Z" fill="#6C022A"/>
<path opacity="0.3" d="M201.215 218.897C205.764 206.438 208.105 193.24 208.127 179.986C208.127 179.035 206.649 179.035 206.649 179.986C206.626 193.128 204.296 206.169 199.792 218.505C199.467 219.401 200.901 219.793 201.226 218.897H201.215Z" fill="black"/>
<path d="M210.671 270.58C209.281 265.218 205.573 260.707 201.26 257.214C197.82 254.427 193.978 252.211 190.135 250.005C188.69 249.177 186.864 250.005 186.55 251.64C185.542 256.856 184.892 262.151 185.194 267.457C185.553 273.882 187.39 280.341 191.266 285.468C194.885 290.248 201.742 293.785 207.679 294.3C209.248 290.539 209.517 286.7 210.458 282.737C211.41 278.752 211.69 274.543 210.659 270.58H210.671Z" fill="#6C022A"/>
<path d="M212.306 307.812C210.032 294.748 205.472 282.155 198.862 270.648C198.392 269.819 197.103 270.569 197.585 271.398C204.128 282.793 208.62 295.263 210.872 308.204C211.04 309.144 212.463 308.741 212.306 307.812Z" fill="#6C022A"/>
<path opacity="0.3" d="M212.306 307.812C210.032 294.748 205.472 282.155 198.862 270.648C198.392 269.819 197.103 270.569 197.585 271.398C204.128 282.793 208.62 295.263 210.872 308.204C211.04 309.144 212.463 308.741 212.306 307.812Z" fill="black"/>
<path d="M251.775 307.722C245.602 306.468 239.014 306.591 233.177 308.987C227.744 311.226 223.072 315.602 221.111 321.099C224.282 323.528 227.475 325.957 230.993 327.838C234.533 329.729 238.454 331.05 242.465 331.062C247.898 331.073 253.097 328.7 257.477 325.487C261.858 322.274 265.544 318.244 269.398 314.416C263.785 311.55 257.948 308.987 251.775 307.722Z" fill="#6C022A"/>
<path d="M245.243 319.822C232.169 321.211 218.938 320.337 206.177 317.181C205.247 316.957 204.855 318.378 205.785 318.614C218.669 321.793 232.045 322.711 245.243 321.3C246.184 321.199 246.195 319.722 245.243 319.822Z" fill="#6C022A"/>
<path opacity="0.3" d="M245.243 319.822C232.169 321.211 218.938 320.337 206.177 317.181C205.247 316.957 204.855 318.378 205.785 318.614C218.669 321.793 232.045 322.711 245.243 321.3C246.184 321.199 246.195 319.722 245.243 319.822Z" fill="black"/>
<path d="M203.254 216.748C203.254 216.748 202.347 212.259 198.852 209.774C195.356 207.289 190.035 208.229 188.959 209.774C187.895 211.308 189.452 212.628 189.452 212.628C189.452 212.628 187.648 213.166 187.469 214.229C187.29 215.293 188.365 218.27 190.471 219.177C192.578 220.095 202.47 218.203 202.672 218.158C202.885 218.113 203.243 216.748 203.243 216.748H203.254Z" fill="#FFC3BD"/>
<path d="M204.14 217.845C204.14 217.845 208.576 216.703 210.884 213.087C213.192 209.471 211.971 204.199 210.38 203.225C208.789 202.24 207.545 203.863 207.545 203.863C207.545 203.863 206.918 202.095 205.842 201.971C204.767 201.848 202.011 203.147 201.047 205.229C197.53 212.796 202.65 217.151 202.694 217.352C202.75 217.554 204.14 217.856 204.14 217.856V217.845Z" fill="#FFC3BD"/>
<path d="M201.451 217.274C201.451 217.274 193.418 216.748 190.763 222.199C188.108 227.651 189.239 228.3 190.55 228.513C191.861 228.725 192.735 229.083 192.735 229.083C192.735 229.083 192.096 231.289 194.382 231.591C196.667 231.893 198.404 230.751 201.059 228.401C203.725 226.061 203.557 218.942 203.187 217.99C203.187 217.99 203.68 217.218 201.44 217.285L201.451 217.274Z" fill="#FFC3BD"/>
<path d="M204.521 218.113C204.521 218.113 207.008 214.274 211.165 213.222C215.321 212.181 219.937 215.002 220.374 216.815C220.811 218.628 218.873 219.3 218.873 219.3C218.873 219.3 220.351 220.453 220.127 221.516C219.903 222.58 217.82 224.953 215.523 225.031C213.226 225.11 204.712 219.748 204.532 219.636C204.353 219.524 204.521 218.113 204.521 218.113Z" fill="#FFC3BD"/>
<path d="M205.651 219.457C205.651 219.457 213.315 221.897 213.796 227.942C214.278 233.987 212.978 234.177 211.69 233.897C210.391 233.617 209.449 233.628 209.449 233.628C209.449 233.628 209.237 235.923 206.996 235.364C204.755 234.804 203.568 233.114 201.943 229.957C200.319 226.8 203.075 220.24 203.769 219.479C203.769 219.479 203.59 218.572 205.651 219.457Z" fill="#FFC3BD"/>
<path d="M207.646 219.356C206.951 221.069 204.991 221.897 203.277 221.203C201.563 220.509 200.734 218.55 201.428 216.837C202.123 215.125 204.083 214.296 205.798 214.99C207.512 215.684 208.341 217.643 207.646 219.356Z" fill="#EB7E7B"/>
<path opacity="0.2" d="M209.237 221.192C211.87 222.3 213.64 225.345 213.304 228.177C212.206 225.546 210.996 223.442 209.237 221.192Z" fill="white"/>
<path opacity="0.2" d="M210.895 205.296C212.385 207.725 212.049 211.24 210.122 213.334C210.772 210.557 211.007 208.14 210.895 205.296Z" fill="white"/>
<path opacity="0.2" d="M195.905 208.968C198.75 209.113 201.462 211.363 202.111 214.139C200.184 212.035 198.325 210.479 195.905 208.968Z" fill="white"/>
<path opacity="0.2" d="M190.808 222.714C191.704 220.005 194.594 217.99 197.451 218.102C194.908 219.412 192.914 220.789 190.808 222.714Z" fill="white"/>
<path d="M222.647 284.024C222.647 284.024 220.608 281.483 217.594 281.046C214.581 280.61 211.522 282.938 211.343 284.259C211.175 285.569 212.587 285.905 212.587 285.905C212.587 285.905 211.623 286.834 211.858 287.561C212.094 288.289 213.741 289.823 215.365 289.711C216.989 289.599 222.625 285.188 222.748 285.099C222.86 285.009 222.647 284.013 222.647 284.013V284.024Z" fill="#FFC3BD"/>
<path d="M223.566 284.427C223.566 284.427 225.997 282.267 226.277 279.233C226.557 276.199 224.07 273.267 222.737 273.166C221.415 273.065 221.157 274.487 221.157 274.487C221.157 274.487 220.183 273.569 219.466 273.849C218.749 274.117 217.438 275.841 217.494 277.464C217.74 283.386 222.39 284.472 222.491 284.584C222.591 284.696 223.566 284.427 223.566 284.427Z" fill="#FFC3BD"/>
<path d="M221.684 284.942C221.684 284.942 216.441 287.225 216.541 291.535C216.642 295.845 217.572 295.878 218.468 295.587C219.365 295.296 220.026 295.24 220.026 295.24C220.026 295.24 220.339 296.841 221.885 296.281C223.431 295.722 224.148 294.446 225.067 292.095C225.986 289.744 223.566 285.311 223.017 284.819C223.017 284.819 223.073 284.169 221.684 284.942Z" fill="#FFC3BD"/>
<path d="M223.902 284.472C223.902 284.472 224.216 281.237 226.502 279.222C228.787 277.207 232.63 277.487 233.492 278.494C234.355 279.502 233.358 280.554 233.358 280.554C233.358 280.554 234.669 280.8 234.87 281.55C235.072 282.289 234.523 284.472 233.111 285.267C231.689 286.061 224.563 285.446 224.406 285.435C224.261 285.423 223.902 284.472 223.902 284.472Z" fill="#FFC3BD"/>
<path d="M225.045 284.942C225.045 284.942 230.68 283.99 232.955 287.651C235.229 291.311 234.478 291.849 233.56 292.095C232.652 292.341 232.058 292.655 232.058 292.655C232.058 292.655 232.675 294.166 231.073 294.546C229.47 294.916 228.171 294.244 226.121 292.778C224.07 291.311 223.667 286.274 223.858 285.569C223.858 285.569 223.454 285.054 225.034 284.942H225.045Z" fill="#FFC3BD"/>
<path d="M226.277 284.237C226.4 285.547 225.425 286.711 224.115 286.823C222.804 286.946 221.639 285.972 221.527 284.662C221.403 283.353 222.378 282.188 223.689 282.076C225 281.953 226.165 282.927 226.277 284.237Z" fill="#EB7E7B"/>
<path opacity="0.2" d="M227.879 284.875C229.929 284.517 232.192 285.949 232.719 287.964C230.993 286.778 229.683 285.927 227.879 284.875Z" fill="white"/>
<path opacity="0.2" d="M223.745 274.308C225.627 275.214 226.624 277.688 225.873 279.636C225.167 277.677 224.585 276.211 223.745 274.308Z" fill="white"/>
<path opacity="0.2" d="M215.477 281.505C217.28 280.464 219.891 281.035 221.089 282.759C219.062 282.233 217.538 281.886 215.477 281.505Z" fill="white"/>
<path opacity="0.2" d="M216.732 291.838C216.205 289.823 217.449 287.461 219.42 286.767C218.378 288.58 217.639 289.957 216.732 291.838Z" fill="white"/>
<path d="M189.384 298.811C189.384 298.811 188.039 297.132 186.034 296.841C184.029 296.55 182.012 298.095 181.889 298.968C181.777 299.841 182.707 300.054 182.707 300.054C182.707 300.054 182.068 300.669 182.225 301.151C182.382 301.632 183.468 302.651 184.555 302.572C185.631 302.505 189.373 299.572 189.44 299.516C189.518 299.449 189.373 298.8 189.373 298.8L189.384 298.811Z" fill="#FFC3BD"/>
<path d="M189.988 299.08C189.988 299.08 191.601 297.647 191.781 295.632C191.96 293.617 190.313 291.681 189.439 291.614C188.565 291.546 188.386 292.487 188.386 292.487C188.386 292.487 187.736 291.882 187.266 292.061C186.784 292.24 185.921 293.382 185.966 294.457C186.123 298.386 189.215 299.102 189.282 299.181C189.349 299.259 189.999 299.08 189.999 299.08H189.988Z" fill="#FFC3BD"/>
<path d="M188.745 299.416C188.745 299.416 185.272 300.927 185.339 303.781C185.407 306.636 186.023 306.658 186.617 306.468C187.21 306.278 187.647 306.233 187.647 306.233C187.647 306.233 187.86 307.296 188.88 306.927C189.899 306.558 190.381 305.707 190.986 304.151C191.591 302.595 189.989 299.651 189.63 299.326C189.63 299.326 189.664 298.89 188.745 299.405V299.416Z" fill="#FFC3BD"/>
<path d="M190.213 299.102C190.213 299.102 190.426 296.953 191.938 295.621C193.451 294.289 195.994 294.479 196.565 295.14C197.137 295.811 196.476 296.505 196.476 296.505C196.476 296.505 197.349 296.673 197.484 297.166C197.618 297.658 197.26 299.102 196.319 299.629C195.378 300.155 190.65 299.752 190.549 299.74C190.448 299.74 190.213 299.102 190.213 299.102Z" fill="#FFC3BD"/>
<path d="M190.974 299.427C190.974 299.427 194.716 298.8 196.217 301.218C197.719 303.647 197.226 304.005 196.621 304.162C196.016 304.33 195.624 304.531 195.624 304.531C195.624 304.531 196.027 305.539 194.974 305.785C193.909 306.031 193.047 305.584 191.691 304.61C190.336 303.636 190.067 300.3 190.19 299.83C190.19 299.83 189.921 299.494 190.974 299.416V299.427Z" fill="#FFC3BD"/>
<path d="M191.792 298.957C191.87 299.83 191.232 300.591 190.358 300.67C189.484 300.748 188.722 300.11 188.644 299.237C188.565 298.364 189.204 297.602 190.078 297.524C190.952 297.446 191.713 298.084 191.792 298.957Z" fill="#EB7E7B"/>
<path opacity="0.2" d="M190.112 292.364C191.535 292.789 192.263 294.614 191.523 295.901C190.806 294.602 190.493 293.796 190.112 292.364Z" fill="white"/>
<path opacity="0.2" d="M184.633 297.143C185.787 296.214 187.703 296.64 188.352 297.972C186.873 297.826 186.033 297.636 184.633 297.143Z" fill="white"/>
<path opacity="0.2" d="M185.462 303.994C184.869 302.64 185.787 300.905 187.244 300.636C186.717 302.024 186.303 302.785 185.462 303.994Z" fill="white"/>
<path opacity="0.1" d="M107.488 360.334H204.621L203.467 367.118H108.586L107.488 360.334Z" fill="black"/>
<path opacity="0.3" d="M109.863 119.314L112.474 114.366L111.712 128.829L109.863 119.314Z" fill="black"/>
<path opacity="0.3" d="M157.208 96.7695L155.494 89.7844L159.124 95.2247L157.208 96.7695Z" fill="black"/>
</svg>
