<svg xml:space="preserve" viewBox="0 0 100 100" y="0" x="0" xmlns="http://www.w3.org/2000/svg" id="Layer_1" version="1.1" preserveAspectRatio="xMidYMid" width="400" height="400" xmlns:xlink="http://www.w3.org/1999/xlink" style="margin-top:0px;margin-right:0px;margin-bottom:0px;margin-left:0px;display:block;shape-rendering:auto;background-position-x:0%;background-position-y:0%;background-size:auto;background-origin:padding-box;background-clip:border-box;background:scroll rgb(255, 255, 255) none repeat;width:400px;height:400px;;animation:none">
    <g class="ldl-scale" style="transform-origin:50px 50px;transform:matrix(0.8, 0, 0, 0.8, 0, 0);;animation:none">
        <g class="ldl-ani">
            <g class="ldl-layer">
                <g class="ldl-ani" style="transform-origin:50px 50px;transform:matrix(1.00333, 0, 0, 1.00333, 0, 0);animation-duration:1s;animation-timing-function:linear;animation-delay:-0.666667s;animation-iteration-count:infinite;animation-direction:normal;animation-fill-mode:forwards;animation-play-state:paused;animation-name:animate;animation-timeline:auto;animation-range-start:normal;animation-range-end:normal;transform-box:view-box;;animation:none">
                    <path fill="#f4e6c8" d="M50.5 25.1c-.2-.4-.8-.4-1 0L18.2 74.3c-.1.2-.1.5.1.7l.1.2h62.8c.1 0 .4 0 .5-.3.2-.3 0-.6 0-.6L50.5 25.1z" style="stroke-width:1px;fill:rgb(244, 230, 200);;animation:none"></path>
                </g>
            </g>
            <g class="ldl-layer">
                <g class="ldl-ani">
                    <g>
                        <g class="ldl-layer">
                            <g class="ldl-ani" style="transform-origin:50px 50px;transform:matrix(0.935119, 0, 0, 0.935119, 0, 0);animation-duration:1s;animation-timing-function:linear;animation-delay:-0.833333s;animation-iteration-count:infinite;animation-direction:normal;animation-fill-mode:forwards;animation-play-state:paused;animation-name:animate;animation-timeline:auto;animation-range-start:normal;animation-range-end:normal;transform-box:view-box;;animation:none">
                                <path fill="#e15c64" d="M49.3 40.7h1.4c1.8 0 3.3 1.5 3.3 3.3v2.9l-1.3 12.5c-.2 1.4-1.4 2.5-2.8 2.5s-2.6-1.1-2.8-2.5L46 46.9V44c0-1.8 1.5-3.3 3.3-3.3zm.3 23.1h.9c1.8 0 3.3 1.5 3.3 3.3 0 1.8-1.5 3.3-3.3 3.3h-.9c-1.8 0-3.3-1.5-3.3-3.3-.1-1.9 1.4-3.3 3.3-3.3z" style="stroke-width:1px;fill:rgb(225, 92, 100);;animation:none"></path>
                            </g>
                        </g>
                    </g>
                </g>
            </g>
            <g class="ldl-layer">
                <g class="ldl-ani" style="transform-origin:50px 50px;transform:matrix(0.91, 0, 0, 0.91, 0, 0);animation-duration:1s;animation-timing-function:linear;animation-delay:-1s;animation-iteration-count:infinite;animation-direction:normal;animation-fill-mode:forwards;animation-play-state:paused;animation-name:animate;animation-timeline:auto;animation-range-start:normal;animation-range-end:normal;transform-box:view-box;;animation:none">
                    <path fill="#c33837" d="M57.2 20.6c-1.6-2.4-4.3-3.9-7.2-3.9-2.9 0-5.6 1.4-7.3 3.9L11.5 69.7c-1.8 2.7-2 6.1-.5 9 1.5 2.9 4.5 4.6 7.7 4.6h62.5c3.2 0 6.2-1.8 7.7-4.6 1.5-2.9 1.4-6.3-.4-9L57.2 20.6zm24.6 54.2c-.2.3-.4.3-.5.3H18.5l-.2-.1c-.2-.2-.2-.4-.1-.7l31.3-49.2c.3-.4.8-.4 1 0l31.3 49.1c0 .1.2.3 0 .6z" style="stroke-width:1px;fill:rgb(195, 56, 55);;animation:none"></path>
                </g>
            </g>
        </g>
    </g>
    <metadata xmlns:d="https://loading.io/stock/"></metadata>
</svg>
