<svg width="270" height="80" viewBox="0 0 270 80" fill="none" xmlns="http://www.w3.org/2000/svg">
<mask id="mask0_177_2219" style="mask-type:luminance" maskUnits="userSpaceOnUse" x="11" y="9" width="56" height="61">
<path d="M11.7324 9.59229H66.1917V69.0738H11.7324V9.59229Z" fill="white"/>
</mask>
<g mask="url(#mask0_177_2219)">
<path d="M46.7474 13.7503C51.9569 13.7503 56.863 15.0429 61.1665 17.3214C62.8057 16.5849 64.3452 15.8485 65.6542 15.1273C60.2029 11.6253 53.7151 9.59229 46.7474 9.59229C27.4107 9.59229 11.7324 25.2538 11.7324 44.5785C11.7324 53.792 15.3026 62.1732 21.1302 68.4217C21.1801 66.6649 21.3912 64.7432 21.8903 62.8407C18.1243 57.7276 15.8938 51.4138 15.8938 44.5785C15.8938 27.5514 29.7102 13.7503 46.7474 13.7503Z" fill="#FFC3A9"/>
</g>
<mask id="mask1_177_2219" style="mask-type:luminance" maskUnits="userSpaceOnUse" x="27" y="20" width="55" height="60">
<path d="M27.8184 20.6509H81.6404V79.4381H27.8184V20.6509Z" fill="white"/>
</mask>
<g mask="url(#mask1_177_2219)">
<path d="M72.3697 20.7354C72.316 22.4921 72.1048 24.41 71.6096 26.3164C75.3756 31.4295 77.6022 37.7432 77.6022 44.5786C77.6022 61.6056 63.7897 75.4068 46.7486 75.4068C41.5391 75.4068 36.633 74.1141 32.3295 71.8357C30.6941 72.5683 29.1547 73.3086 27.8418 74.0297C33.2969 77.5318 39.7848 79.5648 46.7486 79.5648C66.0892 79.5648 81.7636 63.8994 81.7636 44.5786C81.7636 35.365 78.1972 26.9838 72.3697 20.7354Z" fill="#C4E4FF"/>
</g>
<path d="M59.6855 44.1377C57.72 44.9777 56.1307 46.5159 55.2439 48.4606C48.1265 64.0416 27.1121 60.1828 38.1184 56.6999C49.3857 53.1364 44.1455 48.2305 43.7962 47.9159L43.7808 47.9236C43.8269 48.2458 44.1378 51.7978 35.6768 52.7682C18.5359 54.7398 23.2732 75.407 23.2732 75.407C27.2234 71.0496 43.7386 66.2357 49.1707 62.4344C55.4166 58.0693 59.6855 44.1377 59.6855 44.1377Z" fill="#C4E4FF"/>
<path d="M52.1565 51.9008C52.8053 47.3785 54.9167 44.3367 53.6575 44.6934C51.6421 45.2649 50.5518 50.2476 49.999 54.0911C50.7515 53.4428 51.477 52.714 52.1565 51.9008Z" fill="#C4E4FF"/>
<path d="M48.4104 55.327C48.1762 49.1859 51.6044 44.6136 50.0765 45.0509C47.6388 45.7413 46.5485 52.9143 46.1416 56.6848C46.9017 56.2936 47.6657 55.8448 48.4104 55.327Z" fill="#C4E4FF"/>
<path d="M33.8145 45.0193C35.7762 44.1754 37.3693 42.6411 38.2561 40.6964C45.3735 25.1116 66.3879 28.9742 55.3778 32.4571C44.1143 36.0206 49.3545 40.9265 49.7038 41.2411L49.7154 41.2334C49.6693 40.9112 49.3622 37.3593 57.8232 36.3888C74.9641 34.4172 70.2268 13.75 70.2268 13.75C66.2766 18.1075 49.7614 22.9214 44.3293 26.7188C38.0834 31.0877 33.8145 45.0193 33.8145 45.0193Z" fill="#FFC3A9"/>
<path d="M41.3424 37.2527C40.6936 41.7751 38.5822 44.8207 39.8414 44.464C41.853 43.8886 42.9471 38.9098 43.4961 35.0625C42.7475 35.7146 42.0219 36.4395 41.3424 37.2527Z" fill="#FFC3A9"/>
<path d="M45.0897 33.831C45.3239 39.9721 41.8918 44.5405 43.4197 44.1071C45.8613 43.4128 46.9516 36.2437 47.3585 32.4731C46.5945 32.8606 45.8344 33.3132 45.0897 33.831Z" fill="#FFC3A9"/>
<path d="M13.798 69.1596L13.1492 68.2965L9.39854 69.5278L9.39086 69.5202L11.629 66.2713L10.984 65.4082L6.39648 66.7968L6.91474 67.4872L10.7115 66.2943L10.7153 66.2981L8.458 69.5432L9.1183 70.4216L12.8613 69.1596L12.8689 69.1673L10.6616 72.4776L11.1836 73.1757L13.798 69.1596Z" fill="white"/>
<path d="M8.10167 59.6822C7.41833 58.1517 6.07854 57.5188 4.76178 58.1056C3.44503 58.6925 3.01506 60.1156 3.6984 61.6422C4.37789 63.1689 5.72536 63.798 7.04212 63.2111C8.35887 62.6242 8.78116 61.205 8.10167 59.6822ZM7.47208 59.9583C7.94811 61.0247 7.63715 62.0258 6.70045 62.4439C5.75991 62.8659 4.80785 62.4286 4.33182 61.3622C3.85579 60.2959 4.16675 59.2947 5.10345 58.8766C6.04399 58.4585 6.99605 58.892 7.47208 59.9583Z" fill="white"/>
<path d="M6.06812 54.9601L5.89537 54.1776L2.45951 54.9294L2.45567 54.9141L5.53067 52.5052L5.36175 51.7304L1.55736 50.8251L1.55352 50.8136L4.99706 50.0618L4.82814 49.2793L0.428711 50.2382L0.674403 51.3698L4.63236 52.2904L4.63619 52.2981L1.423 54.7952L1.66869 55.919L6.06812 54.9601Z" fill="white"/>
<path d="M4.61825 46.7914L4.49924 42.9326L3.8543 42.9556L3.94644 45.9974L2.58361 46.0396L2.49915 43.3124L1.90028 43.3315L1.98474 46.0588L0.748594 46.0971L0.65646 43.1167L0 43.1359L0.119007 46.9295L4.61825 46.7914Z" fill="white"/>
<path d="M4.60343 40.623L4.71476 39.8213L1.16758 39.3342V39.3265L5.07946 37.19L5.2215 36.1582L0.760649 35.5444L0.64932 36.3461L4.20418 36.8371V36.8448L0.28462 38.9736L0.142578 40.0055L4.60343 40.623Z" fill="white"/>
<path d="M7.88081 28.3038C8.36836 27.1569 8.16106 26.1673 7.35488 25.8259C6.71378 25.5497 6.14561 25.8681 5.53138 26.85L5.05919 27.5904C4.7252 28.112 4.45264 28.2808 4.16088 28.1542C3.79234 28.0008 3.7002 27.4714 3.95741 26.8692C4.21078 26.2747 4.71752 25.8949 5.23578 25.8949L5.14365 25.2352C4.44496 25.2198 3.73859 25.7607 3.37389 26.6199C2.92858 27.6671 3.12052 28.6068 3.90751 28.9444C4.53326 29.2091 5.04383 28.9367 5.60816 28.0545L6.09187 27.3065C6.49496 26.6851 6.80591 26.4856 7.11687 26.6199C7.50076 26.781 7.60057 27.341 7.30881 28.0238C6.96715 28.8255 6.2723 29.3433 5.612 29.2704L5.67342 29.957C6.5487 30.0376 7.42782 29.3702 7.88081 28.3038Z" fill="white"/>
<path d="M9.46663 24.5678L9.94265 23.8313L9.3553 22.9299L10.649 20.9238L11.7124 21.0964L12.1923 20.3561L7.32449 19.5928L6.7832 20.429L9.46663 24.5678ZM8.95605 22.4159L7.6009 20.3829L7.60474 20.3714L10.0156 20.7742L8.95605 22.4159Z" fill="white"/>
<path d="M13.5939 18.6417L14.1582 18.0203L12.7724 16.7621L14.3963 14.9746L13.9356 14.5565L12.3117 16.344L11.3366 15.4618L13.2139 13.3943L12.7033 12.9302L10.2617 15.6152L13.5939 18.6417Z" fill="white"/>
<path d="M17.717 14.3802L20.7191 11.956L20.3121 11.4535L17.9397 13.3675L17.0836 12.305L19.2065 10.5904L18.8341 10.1263L16.7074 11.8409L15.9319 10.8781L18.2506 9.00242L17.8398 8.49609L14.8877 10.8781L17.717 14.3802Z" fill="white"/>
<path d="M23.9012 9.93766L24.6306 9.51956L22.7342 6.21695L24.2276 5.36157L23.882 4.76318L20.1621 6.89204L20.5076 7.49426L22.0048 6.63505L23.9012 9.93766Z" fill="white"/>
<path d="M29.6585 7.15738L30.4455 6.86203L29.8735 5.33539L30.6452 1.98291L29.7622 2.31279L29.2439 4.8329H29.2363L27.1517 3.29091L26.2803 3.61696L29.0865 5.62691L29.6585 7.15738Z" fill="white"/>
<path d="M37.6094 4.93299L38.4808 4.85244L38.8263 3.83212L41.2026 3.60581L41.7247 4.54558L42.6038 4.46119L40.1891 0.168945L39.1949 0.264841L37.6094 4.93299ZM38.9837 3.19538L39.7362 0.87473H39.7515L40.9301 3.01126L38.9837 3.19538Z" fill="white"/>
<path d="M44.8086 4.48403L45.6378 4.54924L45.7645 2.95355L47.5419 3.09548C48.6168 3.17987 49.3194 2.67354 49.3961 1.79515C49.4652 0.901409 48.851 0.287683 47.7761 0.203297L45.1618 0L44.8086 4.48403ZM45.8106 2.33599L45.9411 0.682769L47.5765 0.813186C48.2253 0.863052 48.6015 1.21594 48.5592 1.72227C48.5209 2.22859 48.0986 2.51244 47.4459 2.46257L45.8106 2.33599Z" fill="white"/>
<path d="M51.417 5.21529L52.2232 5.41859L52.6147 3.86893L54.3461 4.30621C55.3903 4.57088 56.1696 4.19114 56.3923 3.33576C56.6111 2.46887 56.1082 1.75925 55.0602 1.49458L52.5188 0.854004L51.417 5.21529ZM52.7683 3.26671L53.1714 1.65952L54.7607 2.06228C55.3941 2.21954 55.7051 2.63381 55.5784 3.12479C55.4556 3.61577 54.991 3.82674 54.3538 3.66563L52.7683 3.26671Z" fill="white"/>
<path d="M103.365 51.8412C107.376 51.8412 109.972 49.4739 109.972 46.2216C109.972 43.8039 108.258 42.1921 104.83 41.433L101.953 40.7782C99.7102 40.2745 98.7524 39.4183 98.7524 37.9072C98.7524 36.0652 100.29 34.68 102.71 34.68C104.982 34.68 106.67 36.1695 106.922 38.3353L108.914 37.8316C108.409 34.8563 105.939 32.8164 102.684 32.8164C99.0549 32.8164 96.6568 35.0578 96.6568 38.2598C96.6568 40.6271 98.1439 42.0626 101.298 42.7965L104.171 43.4513C106.771 44.0557 107.88 44.9875 107.88 46.549C107.88 48.4917 106.166 49.9776 103.365 49.9776C100.265 49.9776 97.9171 48.0096 97.7406 45.2394L95.6738 45.6171C96.0771 49.2724 99.2565 51.8412 103.365 51.8412Z" fill="#FFC3A9"/>
<path d="M115.896 51.7155C118.165 51.7155 119.932 50.7081 120.84 49.0963H120.865L120.89 49.6755C120.966 50.834 121.747 51.7155 122.982 51.7155C123.965 51.7155 125.024 51.1866 125.553 50.4059L124.52 49.1971C124.243 49.6504 123.839 49.9526 123.486 49.9526C123.083 49.9526 122.806 49.6 122.806 49.0963V42.6456C122.806 39.7962 120.512 37.9829 117.257 37.9829C113.955 37.9829 111.482 39.9473 111.255 42.0376L112.994 42.7715C113.095 41.2568 114.787 39.7206 117.182 39.7206C119.4 39.7206 120.915 40.7532 120.915 42.3434C120.915 42.8974 120.512 43.25 119.882 43.3255L116.728 43.7033C112.591 44.207 110.978 45.844 110.978 47.8839C110.978 50.154 112.994 51.7155 115.896 51.7155ZM116.224 49.9778C114.283 49.9778 112.893 49.1467 112.893 47.8587C112.893 46.7002 113.854 45.718 116.929 45.3403L120.865 44.8618V45.7684C120.865 48.2401 118.895 49.9778 116.224 49.9778Z" fill="#FFC3A9"/>
<path d="M128.348 51.2124H130.268L130.242 40.0738H135.741V38.4872H130.242V36.5984C130.242 35.0334 131.2 33.9756 132.536 33.9756C133.796 33.9756 134.858 34.9578 135.136 36.271L136.824 35.5622C136.371 33.6734 134.707 32.3135 132.46 32.3135C129.99 32.3135 128.323 33.9253 128.323 36.271V38.4872H125.525V40.0738H128.323L128.348 51.2124Z" fill="#FFC3A9"/>
<path d="M144.612 51.7155C147.464 51.7155 149.858 50.28 150.69 48.2401L149.026 47.5565C148.321 48.9452 146.632 49.9778 144.637 49.9778C141.89 49.9778 139.845 48.1357 139.567 45.4914H150.287C150.312 45.2395 150.312 44.9625 150.312 44.7359C150.261 40.8035 147.817 37.9829 144.083 37.9829C140.302 37.9829 137.576 40.8035 137.576 44.7107C137.576 48.7689 140.554 51.7155 144.612 51.7155ZM139.593 43.804C139.949 41.3828 141.688 39.7458 144.057 39.7458C146.38 39.7458 148.018 41.2065 148.27 43.804H139.593Z" fill="#FFC3A9"/>
<path d="M161.437 51.8412C164.613 51.8412 167.238 50.305 168.775 47.783H168.801L169.002 51.2116H170.766V41.4078H158.737V43.275H168.624C168.624 47.103 165.52 49.9776 161.614 49.9776C157.35 49.9776 154.272 46.7504 154.272 42.3432C154.272 37.8568 157.199 34.68 161.286 34.68C163.932 34.68 166.251 36.3962 167.087 38.8138L169.027 38.1842C167.969 35.0578 164.84 32.8164 161.311 32.8164C156.014 32.8164 152.18 36.8243 152.18 42.3432C152.18 47.8334 156.065 51.8412 161.437 51.8412Z" fill="#C4E4FF"/>
<path d="M177.62 51.7162C179.838 51.7162 181.43 50.8599 182.514 49.3237H182.539L182.715 51.2125H184.454V38.4873H182.539V45.6684C182.539 48.266 180.695 50.054 178.15 50.054C176.133 50.054 174.848 48.6689 174.848 46.4995V38.4873H172.903V46.7009C172.903 49.8526 174.693 51.7162 177.62 51.7162Z" fill="#C4E4FF"/>
<path d="M191.134 51.7155C193.403 51.7155 195.171 50.7081 196.078 49.0963H196.103L196.129 49.6755C196.204 50.834 196.986 51.7155 198.221 51.7155C199.204 51.7155 200.262 51.1866 200.791 50.4059L199.758 49.1971C199.481 49.6504 199.078 49.9526 198.725 49.9526C198.321 49.9526 198.044 49.6 198.044 49.0963V42.6456C198.044 39.7962 195.75 37.9829 192.495 37.9829C189.194 37.9829 186.72 39.9473 186.493 42.0376L188.232 42.7715C188.333 41.2568 190.025 39.7206 192.42 39.7206C194.638 39.7206 196.154 40.7532 196.154 42.3434C196.154 42.8974 195.75 43.25 195.12 43.3255L191.966 43.7033C187.829 44.207 186.216 45.844 186.216 47.8839C186.216 50.154 188.232 51.7155 191.134 51.7155ZM191.462 49.9778C189.521 49.9778 188.131 49.1467 188.131 47.8587C188.131 46.7002 189.093 45.718 192.168 45.3403L196.103 44.8618V45.7684C196.103 48.2401 194.134 49.9778 191.462 49.9778Z" fill="#C4E4FF"/>
<path d="M207.572 37.958C205.959 37.958 204.598 38.9402 203.892 40.4764H203.867L203.687 38.4869H202.049V51.2121H203.968V44.2073C203.968 41.4334 205.253 39.7461 207.295 39.7461C208.681 39.7461 209.614 40.7031 209.816 42.4948L211.483 41.9371C211.231 39.3935 209.74 37.958 207.572 37.958Z" fill="#C4E4FF"/>
<path d="M219.221 51.7157C221.341 51.7157 223.106 50.7084 224.189 49.021H224.215L224.391 51.2121H226.08V32.6909H224.139V40.6275H224.114C223.03 38.9654 221.316 37.9832 219.195 37.9832C215.465 37.9832 212.739 40.8794 212.739 44.8621C212.739 48.8196 215.49 51.7157 219.221 51.7157ZM219.447 49.978C216.7 49.978 214.655 47.7834 214.655 44.8621C214.655 41.9623 216.675 39.7461 219.447 39.7461C222.198 39.7461 224.215 41.9623 224.215 44.8621C224.215 47.733 222.198 49.978 219.447 49.978Z" fill="#C4E4FF"/>
<path d="M228.855 51.2129H230.951V42.8985H240.785V51.2129H242.88V33.4473H240.785V41.0313H230.951V33.4473H228.855V51.2129Z" fill="#FFC3A9"/>
<path d="M252.179 51.7155C255.031 51.7155 257.426 50.28 258.257 48.2401L256.594 47.5565C255.888 48.9452 254.199 49.9778 252.205 49.9778C249.457 49.9778 247.412 48.1357 247.135 45.4914H257.854C257.879 45.2395 257.879 44.9625 257.879 44.7359C257.829 40.8035 255.384 37.9829 251.65 37.9829C247.869 37.9829 245.144 40.8035 245.144 44.7107C245.144 48.7689 248.121 51.7155 252.179 51.7155ZM247.16 43.804C247.516 41.3828 249.256 39.7458 251.625 39.7458C253.947 39.7458 255.586 41.2065 255.838 43.804H247.16Z" fill="#FFC3A9"/>
<path d="M265.644 37.958C264.03 37.958 262.669 38.9402 261.964 40.4764H261.938L261.758 38.4869H260.12V51.2121H262.039V44.2073C262.039 41.4334 263.325 39.7461 265.366 39.7461C266.753 39.7461 267.685 40.7031 267.887 42.4948L269.554 41.9371C269.302 39.3935 267.811 37.958 265.644 37.958Z" fill="#FFC3A9"/>
</svg>
