<svg width="362" height="213" viewBox="0 0 362 213" fill="none" xmlns="http://www.w3.org/2000/svg">
<mask id="mask0_69_1846" style="mask-type:luminance" maskUnits="userSpaceOnUse" x="108" y="18" width="108" height="117">
<path d="M108.883 18.7096H215.016V134.725H108.883V18.7096Z" fill="white"/>
</mask>
<g mask="url(#mask0_69_1846)">
<path d="M177.122 26.8195C187.274 26.8195 196.836 29.3408 205.222 33.7848C208.417 32.3483 211.417 30.9119 213.968 29.5054C203.345 22.6748 190.701 18.7096 177.122 18.7096C139.438 18.7096 108.883 49.2565 108.883 86.9482C108.883 104.919 115.841 121.266 127.198 133.453C127.295 130.026 127.707 126.278 128.679 122.567C121.34 112.595 116.993 100.28 116.993 86.9482C116.993 53.7379 143.919 26.8195 177.122 26.8195Z" fill="#FFC3A9"/>
</g>
<mask id="mask1_69_1846" style="mask-type:luminance" maskUnits="userSpaceOnUse" x="140" y="40" width="106" height="115">
<path d="M140.231 40.2786H245.121V154.94H140.231V40.2786Z" fill="white"/>
</mask>
<g mask="url(#mask1_69_1846)">
<path d="M227.053 40.4432C226.949 43.8698 226.537 47.6105 225.572 51.3288C232.911 61.3016 237.251 73.6161 237.251 86.9481C237.251 120.158 210.332 147.077 177.122 147.077C166.97 147.077 157.408 144.555 149.022 140.111C145.834 141.54 142.834 142.984 140.276 144.391C150.907 151.221 163.551 155.187 177.122 155.187C214.814 155.187 245.361 124.632 245.361 86.9481C245.361 68.9776 238.41 52.6306 227.053 40.4432Z" fill="#C4E4FF"/>
</g>
<path d="M202.334 86.0876C198.504 87.7261 195.407 90.7262 193.678 94.5193C179.808 124.909 138.854 117.383 160.304 110.589C182.262 103.639 172.049 94.0704 171.369 93.4569L171.339 93.4719C171.428 94.1003 172.034 101.028 155.545 102.921C122.141 106.766 131.373 147.077 131.373 147.077C139.071 138.578 171.256 129.188 181.843 121.774C194.015 113.26 202.334 86.0876 202.334 86.0876Z" fill="#C4E4FF"/>
<path d="M187.663 101.23C188.928 92.4095 193.043 86.4767 190.589 87.1725C186.661 88.2873 184.536 98.0057 183.459 105.502C184.925 104.238 186.339 102.816 187.663 101.23Z" fill="#C4E4FF"/>
<path d="M180.361 107.911C179.905 95.9333 186.586 87.0154 183.608 87.8683C178.858 89.215 176.733 103.205 175.94 110.56C177.421 109.797 178.91 108.921 180.361 107.911Z" fill="#C4E4FF"/>
<path d="M151.917 87.8086C155.74 86.1627 158.845 83.1701 160.573 79.377C174.444 48.9797 215.397 56.5136 193.94 63.3067C171.99 70.257 182.202 79.8259 182.883 80.4393L182.905 80.4244C182.815 79.7959 182.217 72.8681 198.706 70.9753C232.111 67.1298 222.879 26.8196 222.879 26.8196C215.18 35.3185 182.995 44.7078 172.409 52.1145C160.236 60.6359 151.917 87.8086 151.917 87.8086Z" fill="#FFC3A9"/>
<path d="M166.588 72.6585C165.324 81.4792 161.209 87.4195 163.663 86.7237C167.583 85.6015 169.715 75.8905 170.785 68.3866C169.326 69.6584 167.912 71.0724 166.588 72.6585Z" fill="#FFC3A9"/>
<path d="M173.89 65.985C174.346 77.9628 167.658 86.8733 170.636 86.0279C175.394 84.6737 177.518 70.6908 178.312 63.3365C176.823 64.0922 175.341 64.975 173.89 65.985Z" fill="#FFC3A9"/>
<path d="M112.907 134.891L111.643 133.208L104.333 135.61L104.318 135.595L108.68 129.258L107.423 127.575L98.4828 130.283L99.4928 131.63L106.892 129.303L106.899 129.31L102.5 135.64L103.787 137.353L111.082 134.891L111.097 134.906L106.795 141.363L107.812 142.725L112.907 134.891Z" fill="white"/>
<path d="M101.807 116.406C100.476 113.421 97.8647 112.187 95.2985 113.331C92.7324 114.476 91.8945 117.252 93.2262 120.229C94.5504 123.207 97.1764 124.434 99.7425 123.289C102.309 122.145 103.132 119.376 101.807 116.406ZM100.58 116.945C101.508 119.025 100.902 120.977 99.0767 121.793C97.2437 122.616 95.3883 121.763 94.4606 119.683C93.5329 117.603 94.1389 115.651 95.9644 114.835C97.7974 114.02 99.6528 114.865 100.58 116.945Z" fill="white"/>
<path d="M97.8433 107.197L97.5067 105.671L90.8107 107.137L90.8032 107.107L96.7959 102.409L96.4667 100.897L89.0526 99.1317L89.0451 99.1093L95.756 97.6429L95.4268 96.1167L86.853 97.9871L87.3318 100.194L95.0452 101.99L95.0527 102.005L88.7907 106.875L89.2695 109.067L97.8433 107.197Z" fill="white"/>
<path d="M95.0179 91.2639L94.786 83.7375L93.5291 83.7824L93.7087 89.7153L91.0527 89.7975L90.8881 84.4782L89.721 84.5156L89.8856 89.835L87.4766 89.9098L87.297 84.0967L86.0177 84.1341L86.2496 91.5332L95.0179 91.2639Z" fill="white"/>
<path d="M94.9891 79.2326L95.2061 77.669L88.2932 76.7188V76.7039L95.9168 72.5367L96.1936 70.5242L87.5002 69.3271L87.2832 70.8908L94.2111 71.8484V71.8634L86.5725 76.0156L86.2957 78.0281L94.9891 79.2326Z" fill="white"/>
<path d="M101.378 55.2035C102.328 52.9665 101.924 51.0363 100.353 50.3704C99.1032 49.8318 97.9959 50.4527 96.7989 52.368L95.8786 53.8119C95.2278 54.8294 94.6966 55.1586 94.128 54.9117C93.4098 54.6124 93.2302 53.58 93.7315 52.4054C94.2252 51.2458 95.2128 50.5051 96.2228 50.5051L96.0432 49.2183C94.6816 49.1883 93.305 50.2432 92.5943 51.9191C91.7264 53.9615 92.1005 55.7945 93.6342 56.4529C94.8537 56.9691 95.8487 56.4379 96.9485 54.7172L97.8912 53.2583C98.6767 52.0463 99.2827 51.6572 99.8887 51.9191C100.637 52.2333 100.831 53.3256 100.263 54.6573C99.5969 56.2209 98.2428 57.2309 96.956 57.0888L97.0757 58.428C98.7815 58.5851 100.495 57.2833 101.378 55.2035Z" fill="white"/>
<path d="M104.467 47.9172L105.394 46.4808L104.25 44.7226L106.771 40.8098L108.843 41.1465L109.778 39.7026L100.292 38.2137L99.2371 39.8447L104.467 47.9172ZM103.472 43.7201L100.831 39.7549L100.838 39.7325L105.536 40.518L103.472 43.7201Z" fill="white"/>
<path d="M112.509 36.3592L113.609 35.1472L110.908 32.6932L114.073 29.2069L113.175 28.3914L110.011 31.8778L108.11 30.157L111.769 26.1245L110.774 25.2192L106.016 30.4563L112.509 36.3592Z" fill="white"/>
<path d="M120.547 28.0473L126.397 23.319L125.604 22.3389L120.981 26.0722L119.312 23.9998L123.45 20.6556L122.724 19.7503L118.579 23.0945L117.068 21.2167L121.587 17.5582L120.786 16.5707L115.033 21.2167L120.547 28.0473Z" fill="white"/>
<path d="M132.597 19.3827L134.018 18.5672L130.323 12.1256L133.233 10.4573L132.56 9.29016L125.31 13.4424L125.983 14.617L128.901 12.9411L132.597 19.3827Z" fill="white"/>
<path d="M143.817 13.9603L145.351 13.3842L144.236 10.4066L145.74 3.8678L144.019 4.51121L143.009 9.42654H142.994L138.932 6.41898L137.233 7.05491L142.702 10.9752L143.817 13.9603Z" fill="white"/>
<path d="M159.311 9.62195L161.01 9.46484L161.683 7.47477L166.314 7.03336L167.331 8.86632L169.045 8.70173L164.339 0.329956L162.401 0.516995L159.311 9.62195ZM161.99 6.23284L163.456 1.70655H163.486L165.783 5.87373L161.99 6.23284Z" fill="white"/>
<path d="M173.342 8.74585L174.958 8.87303L175.205 5.76074L178.669 6.03755C180.764 6.20214 182.133 5.21459 182.282 3.50133C182.417 1.75815 181.22 0.56111 179.125 0.396518L174.03 0L173.342 8.74585ZM175.295 4.55622L175.549 1.3317L178.736 1.58607C180 1.68333 180.734 2.37163 180.651 3.35918C180.577 4.34674 179.754 4.90037 178.482 4.80311L175.295 4.55622Z" fill="white"/>
<path d="M186.22 10.1714L187.791 10.5679L188.555 7.54536L191.929 8.39825C193.964 8.91447 195.482 8.1738 195.916 6.50543C196.343 4.81462 195.363 3.43055 193.32 2.91432L188.368 1.66492L186.22 10.1714ZM188.854 6.37077L189.639 3.23603L192.737 4.02158C193.971 4.32832 194.577 5.13632 194.33 6.09395C194.091 7.05158 193.186 7.46306 191.944 7.14884L188.854 6.37077Z" fill="white"/>
<path d="M15.9804 213C24.3148 213 29.7089 208.077 29.7089 201.314C29.7089 196.286 26.1478 192.935 19.0254 191.356L13.0477 189.994C8.38674 188.947 6.39666 187.166 6.39666 184.024C6.39666 180.194 9.59126 177.313 14.6188 177.313C19.3396 177.313 22.8484 180.411 23.3721 184.914L27.5094 183.867C26.462 177.68 21.3297 173.438 14.5664 173.438C7.02511 173.438 2.04244 178.099 2.04244 184.757C2.04244 189.68 5.13229 192.665 11.6861 194.191L17.6563 195.553C23.0579 196.81 25.3622 198.748 25.3622 201.995C25.3622 206.035 21.801 209.125 15.9804 209.125C9.53888 209.125 4.66096 205.032 4.29437 199.271L0 200.057C0.837925 207.658 7.44407 213 15.9804 213Z" fill="#FFC3A9"/>
<path d="M42.0177 212.738C46.731 212.738 50.4044 210.643 52.2897 207.292H52.3421L52.3945 208.496C52.5516 210.905 54.1751 212.738 56.7412 212.738C58.7837 212.738 60.9832 211.638 62.083 210.015L59.9358 207.501C59.3597 208.444 58.5218 209.072 57.7886 209.072C56.9507 209.072 56.3746 208.339 56.3746 207.292V193.877C56.3746 187.952 51.6089 184.181 44.8457 184.181C37.9852 184.181 32.8454 188.266 32.374 192.613L35.9876 194.139C36.1971 190.99 39.7134 187.795 44.6886 187.795C49.2971 187.795 52.4468 189.942 52.4468 193.249C52.4468 194.401 51.6089 195.134 50.2997 195.291L43.7459 196.077C35.1497 197.124 31.798 200.528 31.798 204.77C31.798 209.491 35.9876 212.738 42.0177 212.738ZM42.6985 209.125C38.666 209.125 35.7781 207.396 35.7781 204.718C35.7781 202.309 37.7757 200.267 44.1649 199.481L52.3421 198.486V200.371C52.3421 205.511 48.2497 209.125 42.6985 209.125Z" fill="#FFC3A9"/>
<path d="M67.89 211.691H71.8776L71.8253 188.528H83.2495V185.229H71.8253V181.301C71.8253 178.047 73.8153 175.847 76.591 175.847C79.2095 175.847 81.4165 177.89 81.9926 180.62L85.5014 179.146C84.5587 175.219 81.1023 172.391 76.4339 172.391C71.3016 172.391 67.8376 175.742 67.8376 180.62V185.229H62.0245V188.528H67.8376L67.89 211.691Z" fill="#FFC3A9"/>
<path d="M101.683 212.738C107.608 212.738 112.584 209.753 114.312 205.511L110.855 204.09C109.389 206.977 105.88 209.125 101.735 209.125C96.027 209.125 91.7775 205.294 91.2015 199.795H113.474C113.526 199.272 113.526 198.695 113.526 198.224C113.421 190.047 108.342 184.181 100.583 184.181C92.7277 184.181 87.0642 190.047 87.0642 198.172C87.0642 206.611 93.2514 212.738 101.683 212.738ZM91.2538 196.286C91.9945 191.251 95.6081 187.847 100.531 187.847C105.356 187.847 108.76 190.885 109.284 196.286H91.2538Z" fill="#FFC3A9"/>
<path d="M136.642 213C143.24 213 148.694 209.805 151.889 204.561H151.941L152.36 211.691H156.026V191.304H131.031V195.187H151.575C151.575 203.147 145.126 209.125 137.008 209.125C128.15 209.125 121.754 202.414 121.754 193.249C121.754 183.919 127.836 177.313 136.328 177.313C141.826 177.313 146.644 180.882 148.38 185.909L152.413 184.6C150.213 178.099 143.712 173.438 136.38 173.438C125.375 173.438 117.407 181.772 117.407 193.249C117.407 204.666 125.479 213 136.642 213Z" fill="#C4E4FF"/>
<path d="M170.268 212.738C174.877 212.738 178.184 210.958 180.436 207.763H180.488L180.855 211.691H184.468V185.229H180.488V200.162C180.488 205.563 176.657 209.282 171.368 209.282C167.178 209.282 164.508 206.401 164.508 201.89V185.229H160.468V202.309C160.468 208.863 164.186 212.738 170.268 212.738Z" fill="#C4E4FF"/>
<path d="M198.347 212.738C203.06 212.738 206.734 210.643 208.619 207.292H208.671L208.724 208.496C208.881 210.905 210.504 212.738 213.071 212.738C215.113 212.738 217.313 211.638 218.412 210.015L216.265 207.501C215.689 208.444 214.851 209.072 214.118 209.072C213.28 209.072 212.704 208.339 212.704 207.292V193.877C212.704 187.952 207.938 184.181 201.175 184.181C194.315 184.181 189.175 188.266 188.703 192.613L192.317 194.139C192.526 190.99 196.043 187.795 201.018 187.795C205.626 187.795 208.776 189.942 208.776 193.249C208.776 194.401 207.938 195.134 206.629 195.291L200.075 196.077C191.479 197.124 188.127 200.528 188.127 204.77C188.127 209.491 192.317 212.738 198.347 212.738ZM199.028 209.125C194.995 209.125 192.107 207.396 192.107 204.718C192.107 202.309 194.105 200.267 200.494 199.481L208.671 198.486V200.371C208.671 205.511 204.579 209.125 199.028 209.125Z" fill="#C4E4FF"/>
<path d="M232.501 184.129C229.15 184.129 226.322 186.172 224.855 189.366H224.803L224.429 185.229H221.025V211.691H225.012V197.124C225.012 191.356 227.683 187.847 231.925 187.847C234.806 187.847 236.743 189.838 237.162 193.563L240.626 192.404C240.103 187.114 237.005 184.129 232.501 184.129Z" fill="#C4E4FF"/>
<path d="M256.703 212.738C261.11 212.738 264.776 210.643 267.028 207.134H267.08L267.447 211.691H270.955V173.176H266.923V189.68H266.87C264.619 186.224 261.057 184.181 256.651 184.181C248.9 184.181 243.236 190.204 243.236 198.486C243.236 206.715 248.952 212.738 256.703 212.738ZM257.174 209.125C251.466 209.125 247.217 204.561 247.217 198.486C247.217 192.456 251.414 187.847 257.174 187.847C262.89 187.847 267.08 192.456 267.08 198.486C267.08 204.456 262.89 209.125 257.174 209.125Z" fill="#C4E4FF"/>
<path d="M276.725 211.691H281.079V194.401H301.511V211.691H305.865V174.747H301.511V190.518H281.079V174.747H276.725V211.691Z" fill="#FFC3A9"/>
<path d="M325.185 212.738C331.11 212.738 336.086 209.753 337.814 205.511L334.357 204.09C332.891 206.977 329.382 209.125 325.237 209.125C319.529 209.125 315.28 205.294 314.704 199.795H336.976C337.028 199.272 337.028 198.695 337.028 198.224C336.924 190.047 331.844 184.181 324.085 184.181C316.23 184.181 310.566 190.047 310.566 198.172C310.566 206.611 316.753 212.738 325.185 212.738ZM314.756 196.286C315.497 191.251 319.11 187.847 324.033 187.847C328.858 187.847 332.263 190.885 332.786 196.286H314.756Z" fill="#FFC3A9"/>
<path d="M353.159 184.129C349.808 184.129 346.98 186.172 345.513 189.366H345.461L345.087 185.229H341.683V211.691H345.67V197.124C345.67 191.356 348.341 187.847 352.583 187.847C355.464 187.847 357.401 189.838 357.82 193.563L361.284 192.404C360.761 187.114 357.663 184.129 353.159 184.129Z" fill="#FFC3A9"/>
</svg>
