<svg width="96" height="96" viewBox="0 0 96 96" fill="none" xmlns="http://www.w3.org/2000/svg">
<path d="M68.4279 50.311V43.2194C68.4305 38.4263 66.8164 33.7725 63.8465 30.0105C60.8766 26.2484 56.7246 23.5981 52.0619 22.4881C52.097 22.3504 52.1246 22.211 52.1446 22.0704V12.7567C52.1446 11.7118 51.7295 10.7097 50.9907 9.97084C50.2518 9.23198 49.2497 8.81689 48.2048 8.81689C47.1599 8.81689 46.1578 9.23198 45.4189 9.97084C44.6801 10.7097 44.265 11.7118 44.265 12.7567V22.0704C44.285 22.211 44.3126 22.3504 44.3477 22.4881C39.685 23.5981 35.533 26.2484 32.5631 30.0105C29.5932 33.7725 27.9791 38.4263 27.9817 43.2194V50.311C27.9817 59.7114 20.6261 62.0596 20.6261 66.7598C20.6261 69.0961 20.6261 71.46 22.7457 71.46H73.6639C75.7835 71.46 75.7835 69.0961 75.7835 66.7598C75.7835 62.0596 68.4279 59.7114 68.4279 50.311ZM24.5659 24.1822C23.5211 24.182 22.5191 23.7667 21.7805 23.0278L17.8406 19.088C17.123 18.3449 16.7259 17.3497 16.7348 16.3167C16.7438 15.2837 17.1582 14.2956 17.8886 13.5651C18.6191 12.8346 19.6073 12.4203 20.6403 12.4113C21.6733 12.4023 22.6685 12.7994 23.4115 13.5171L27.3513 17.4569C27.9022 18.0079 28.2773 18.7098 28.4292 19.474C28.5812 20.2381 28.5031 21.0301 28.205 21.7499C27.9069 22.4698 27.4021 23.085 26.7543 23.5179C26.1066 23.9509 25.345 24.182 24.5659 24.1822ZM16.6863 39.9414H12.7465C11.7016 39.9414 10.6994 39.5263 9.96059 38.7875C9.22173 38.0486 8.80664 37.0465 8.80664 36.0016C8.80664 34.9567 9.22173 33.9546 9.96059 33.2157C10.6994 32.4769 11.7016 32.0618 12.7465 32.0618H16.6863C17.7312 32.0618 18.7333 32.4769 19.4721 33.2157C20.211 33.9546 20.6261 34.9567 20.6261 36.0016C20.6261 37.0465 20.211 38.0486 19.4721 38.7875C18.7333 39.5263 17.7312 39.9414 16.6863 39.9414ZM71.8437 24.1822C71.0646 24.182 70.303 23.9509 69.6553 23.5179C69.0075 23.085 68.5027 22.4698 68.2046 21.7499C67.9064 21.0301 67.8284 20.2381 67.9804 19.474C68.1323 18.7098 68.5074 18.0079 69.0582 17.4569L72.998 13.5171C73.3615 13.1408 73.7962 12.8407 74.2769 12.6342C74.7576 12.4277 75.2746 12.319 75.7977 12.3145C76.3208 12.3099 76.8396 12.4096 77.3238 12.6077C77.808 12.8058 78.2479 13.0983 78.6178 13.4683C78.9877 13.8382 79.2802 14.2781 79.4783 14.7623C79.6764 15.2464 79.7761 15.7652 79.7716 16.2884C79.767 16.8115 79.6583 17.3285 79.4519 17.8091C79.2454 18.2898 78.9452 18.7246 78.5689 19.088L74.6291 23.0278C73.8904 23.7667 72.8885 24.182 71.8437 24.1822ZM83.6631 39.9414H79.7233C78.6784 39.9414 77.6763 39.5263 76.9374 38.7875C76.1986 38.0486 75.7835 37.0465 75.7835 36.0016C75.7835 34.9567 76.1986 33.9546 76.9374 33.2157C77.6763 32.4769 78.6784 32.0618 79.7233 32.0618H83.6631C84.708 32.0618 85.7101 32.4769 86.449 33.2157C87.1879 33.9546 87.6029 34.9567 87.6029 36.0016C87.6029 37.0465 87.1879 38.0486 86.449 38.7875C85.7101 39.5263 84.708 39.9414 83.6631 39.9414ZM35.688 75.3998C36.7331 77.8544 38.4769 79.9475 40.7025 81.4188C42.928 82.89 45.5369 83.6744 48.2048 83.6744C50.8726 83.6744 53.4816 82.89 55.7071 81.4188C57.9326 79.9475 59.6764 77.8544 60.7216 75.3998H35.688Z" fill="white"/>
</svg>
