<svg width="21" height="23" viewBox="0 0 21 23" fill="none" xmlns="http://www.w3.org/2000/svg">
<path d="M10.2579 0.705089C10.8522 0.703538 11.4341 0.875077 11.9325 1.19875C12.4362 1.51225 12.8359 1.96781 13.0811 2.50802L20.4449 17.6934C20.6575 18.1162 20.767 18.583 20.767 19.0563C20.767 19.2559 20.7455 19.4527 20.7026 19.6466C20.578 20.3095 20.2385 20.913 19.7364 21.3636C19.235 21.8175 18.5996 22.0964 17.926 22.1584C17.2523 22.2203 16.5767 22.0619 16.0009 21.707L10.8698 18.0153C10.6658 17.9295 10.4468 17.8866 10.2257 17.8866C9.98718 17.8849 9.75169 17.9401 9.53871 18.0475L4.7082 21.4602C4.12157 21.8128 3.43418 21.9601 2.75453 21.8787C2.10191 21.8054 1.48941 21.5269 1.00523 21.0833C0.521037 20.6398 0.190139 20.054 0.0601776 19.4105C-0.0667554 18.7633 0.00818621 18.0927 0.274867 17.4895L7.43475 2.46509C7.69368 1.93719 8.09547 1.49244 8.5945 1.18133C9.09353 0.87023 9.66981 0.705237 10.2579 0.705089Z" fill="#F8F8F8"/>
</svg>
