<svg width="64" height="63" viewBox="0 0 64 63" fill="none" xmlns="http://www.w3.org/2000/svg">
<path d="M16.4873 18.4597L10.9803 12.9785L14.6258 9.33307L20.107 14.8401L16.4873 18.4597ZM34.5854 3.20557V10.9619H29.4146V3.20557H34.5854ZM53.0196 12.9785L47.5127 18.4597L43.893 14.8401L49.3742 9.33307L53.0196 12.9785ZM12.6092 27.7673V32.9382H4.85284V27.7673H12.6092ZM51.3908 27.7673H59.1471V32.9382H51.3908V27.7673ZM16.4873 52.329H47.5127C48.8841 52.329 50.1993 52.8738 51.169 53.8435C52.1388 54.8132 52.6835 56.1285 52.6835 57.4999H11.3165C11.3165 56.1285 11.8612 54.8132 12.831 53.8435C13.8007 52.8738 15.1159 52.329 16.4873 52.329ZM32 13.5473C36.1142 13.5473 40.0599 15.1817 42.9691 18.0909C45.8783 21.0001 47.5127 24.9458 47.5127 29.06V49.7435H16.4873V29.06C16.4873 24.9458 18.1217 21.0001 21.0309 18.0909C23.9401 15.1817 27.8858 13.5473 32 13.5473Z" fill="#F8F8F8"/>
</svg>
