<svg width="29" height="29" viewBox="0 0 29 29" fill="none" xmlns="http://www.w3.org/2000/svg">
<circle cx="14.0606" cy="11.4242" r="11.4242" fill="#D20451"/>
<path d="M13.8282 16.2344L20.2121 10.9856L13.8282 5.73672C13.5559 5.51265 13.2112 5.36135 12.8375 5.30178C12.4638 5.24221 12.0775 5.277 11.7271 5.40181C11.3767 5.52662 11.0777 5.73589 10.8675 6.00344C10.6573 6.27098 10.5453 6.58492 10.5454 6.90594V15.0652C10.5453 15.3862 10.6573 15.7001 10.8675 15.9677C11.0777 16.2352 11.3767 16.4445 11.7271 16.5693C12.0775 16.6941 12.4638 16.7289 12.8375 16.6693C13.2112 16.6098 13.5559 16.4585 13.8282 16.2344Z" fill="#F8F8F8"/>
</svg>
